M48
; DRILL file {KiCad 7.0.9} date Wed Dec 13 17:29:27 2023
; FORMAT={-:-/ absolute / metric / decimal}
; #@! TF.CreationDate,2023-12-13T17:29:27+01:00
; #@! TF.GenerationSoftware,Kicad,Pcbnew,7.0.9
; #@! TF.FileFunction,Plated,1,2,PTH
FMAT,2
METRIC
; #@! TA.AperFunction,Plated,PTH,ViaDrill
T1C0.400
; #@! TA.AperFunction,Plated,PTH,ComponentDrill
T2C0.920
; #@! TA.AperFunction,Plated,PTH,ComponentDrill
T3C1.000
; #@! TA.AperFunction,Plated,PTH,ComponentDrill
T4C1.020
; #@! TA.AperFunction,Plated,PTH,ComponentDrill
T5C2.300
; #@! TA.AperFunction,Plated,PTH,ViaDrill
T6C3.200
%
G90
G05
T1
X2.5Y-10.0
X2.5Y-15.0
X2.5Y-20.0
X2.5Y-25.0
X2.5Y-40.0
X7.5Y-40.0
X9.0Y-26.5
X11.5Y-32.75
X14.5Y-27.5
X16.5Y-13.5
X22.5Y-39.5
X25.0Y-20.0
X27.5Y-2.5
X30.0Y-40.0
X30.85Y-25.35
X34.0Y-32.0
X34.5Y-34.0
X37.0Y-24.5
X43.5Y-40.0
X45.0Y-20.0
X50.5Y-4.0
X56.0Y-32.5
X56.5Y-23.75
X57.5Y-2.5
X58.0Y-40.5
X60.0Y-20.0
X61.0Y-6.5
X61.0Y-12.0
X63.5Y-38.0
X66.0Y-24.5
X69.0Y-19.0
X73.0Y-19.0
X77.5Y-10.0
X77.5Y-27.5
T2
X16.68Y-34.75
X19.18Y-34.75
X21.18Y-34.75
X23.68Y-34.75
X37.32Y-34.79
X39.82Y-34.79
X41.82Y-34.79
X44.32Y-34.79
X58.07Y-34.79
X60.57Y-34.79
X62.57Y-34.79
X65.07Y-34.79
T3
X12.772Y-12.65
X12.772Y-15.19
X12.772Y-17.73
X12.772Y-20.27
X12.772Y-22.81
X12.772Y-25.35
X14.92Y-2.5
X17.46Y-2.5
X20.0Y-2.5
X37.42Y-2.5
X39.96Y-2.5
X42.5Y-2.5
X62.42Y-2.5
X64.96Y-2.5
X67.5Y-2.5
T4
X18.161Y-9.982
X18.161Y-27.762
X18.391Y-16.332
X18.391Y-18.872
X18.391Y-21.412
X20.701Y-9.982
X20.701Y-27.762
X23.241Y-9.982
X23.241Y-27.762
X25.781Y-9.982
X25.781Y-27.762
X28.321Y-9.982
X28.321Y-27.762
X30.861Y-9.982
X30.861Y-27.762
X33.401Y-9.982
X33.401Y-27.762
X35.941Y-9.982
X35.941Y-27.762
X38.481Y-9.982
X38.481Y-27.762
X41.021Y-9.982
X41.021Y-27.762
X43.561Y-9.982
X43.561Y-27.762
X46.101Y-9.982
X46.101Y-27.762
X48.641Y-9.982
X48.641Y-27.762
X51.181Y-9.982
X51.181Y-27.762
X53.721Y-9.982
X53.721Y-27.762
X56.261Y-9.982
X56.261Y-27.762
X58.801Y-9.982
X58.801Y-27.762
X61.341Y-9.982
X61.341Y-27.762
X63.881Y-9.982
X63.881Y-27.762
X66.421Y-9.982
X66.421Y-27.762
T5
X13.61Y-37.46
X26.75Y-37.46
X34.25Y-37.5
X47.39Y-37.5
X55.0Y-37.5
X68.14Y-37.5
T6
X4.1Y-4.1
X4.1Y-33.5
X75.6Y-4.1
X75.6Y-33.5
T0
M30
