%TF.GenerationSoftware,KiCad,Pcbnew,7.0.9*%
%TF.CreationDate,2023-12-13T17:29:23+01:00*%
%TF.ProjectId,water-tomorrow-pico-triple,77617465-722d-4746-9f6d-6f72726f772d,rev?*%
%TF.SameCoordinates,Original*%
%TF.FileFunction,Copper,L1,Top*%
%TF.FilePolarity,Positive*%
%FSLAX46Y46*%
G04 Gerber Fmt 4.6, Leading zero omitted, Abs format (unit mm)*
G04 Created by KiCad (PCBNEW 7.0.9) date 2023-12-13 17:29:23*
%MOMM*%
%LPD*%
G01*
G04 APERTURE LIST*
G04 Aperture macros list*
%AMRoundRect*
0 Rectangle with rounded corners*
0 $1 Rounding radius*
0 $2 $3 $4 $5 $6 $7 $8 $9 X,Y pos of 4 corners*
0 Add a 4 corners polygon primitive as box body*
4,1,4,$2,$3,$4,$5,$6,$7,$8,$9,$2,$3,0*
0 Add four circle primitives for the rounded corners*
1,1,$1+$1,$2,$3*
1,1,$1+$1,$4,$5*
1,1,$1+$1,$6,$7*
1,1,$1+$1,$8,$9*
0 Add four rect primitives between the rounded corners*
20,1,$1+$1,$2,$3,$4,$5,0*
20,1,$1+$1,$4,$5,$6,$7,0*
20,1,$1+$1,$6,$7,$8,$9,0*
20,1,$1+$1,$8,$9,$2,$3,0*%
G04 Aperture macros list end*
%TA.AperFunction,ComponentPad*%
%ADD10R,1.428000X1.428000*%
%TD*%
%TA.AperFunction,ComponentPad*%
%ADD11C,1.428000*%
%TD*%
%TA.AperFunction,ComponentPad*%
%ADD12C,3.316000*%
%TD*%
%TA.AperFunction,ComponentPad*%
%ADD13R,1.700000X1.700000*%
%TD*%
%TA.AperFunction,ComponentPad*%
%ADD14O,1.700000X1.700000*%
%TD*%
%TA.AperFunction,SMDPad,CuDef*%
%ADD15RoundRect,0.200000X0.200000X0.275000X-0.200000X0.275000X-0.200000X-0.275000X0.200000X-0.275000X0*%
%TD*%
%TA.AperFunction,SMDPad,CuDef*%
%ADD16RoundRect,0.250000X1.000000X0.650000X-1.000000X0.650000X-1.000000X-0.650000X1.000000X-0.650000X0*%
%TD*%
%TA.AperFunction,SMDPad,CuDef*%
%ADD17RoundRect,0.250000X-1.000000X-0.650000X1.000000X-0.650000X1.000000X0.650000X-1.000000X0.650000X0*%
%TD*%
%TA.AperFunction,SMDPad,CuDef*%
%ADD18RoundRect,0.150000X-0.150000X0.587500X-0.150000X-0.587500X0.150000X-0.587500X0.150000X0.587500X0*%
%TD*%
%TA.AperFunction,SMDPad,CuDef*%
%ADD19RoundRect,0.200000X-0.275000X0.200000X-0.275000X-0.200000X0.275000X-0.200000X0.275000X0.200000X0*%
%TD*%
%TA.AperFunction,SMDPad,CuDef*%
%ADD20RoundRect,0.250000X-0.650000X1.000000X-0.650000X-1.000000X0.650000X-1.000000X0.650000X1.000000X0*%
%TD*%
%TA.AperFunction,SMDPad,CuDef*%
%ADD21R,1.700000X3.500000*%
%TD*%
%TA.AperFunction,SMDPad,CuDef*%
%ADD22R,3.500000X1.700000*%
%TD*%
%TA.AperFunction,SMDPad,CuDef*%
%ADD23RoundRect,0.150000X-0.587500X-0.150000X0.587500X-0.150000X0.587500X0.150000X-0.587500X0.150000X0*%
%TD*%
%TA.AperFunction,SMDPad,CuDef*%
%ADD24RoundRect,0.200000X0.275000X-0.200000X0.275000X0.200000X-0.275000X0.200000X-0.275000X-0.200000X0*%
%TD*%
%TA.AperFunction,ViaPad*%
%ADD25C,0.800000*%
%TD*%
%TA.AperFunction,ViaPad*%
%ADD26C,6.000000*%
%TD*%
%TA.AperFunction,Conductor*%
%ADD27C,0.250000*%
%TD*%
%TA.AperFunction,Conductor*%
%ADD28C,0.600000*%
%TD*%
%TA.AperFunction,Conductor*%
%ADD29C,0.400000*%
%TD*%
G04 APERTURE END LIST*
D10*
%TO.P,J6,1,VBUS*%
%TO.N,VDC*%
X58070000Y-34790000D03*
D11*
%TO.P,J6,2,D-*%
%TO.N,unconnected-(J6-D--Pad2)*%
X60570000Y-34790000D03*
%TO.P,J6,3,D+*%
%TO.N,unconnected-(J6-D+-Pad3)*%
X62570000Y-34790000D03*
%TO.P,J6,4,GND*%
%TO.N,Net-(D3-A)*%
X65070000Y-34790000D03*
D12*
%TO.P,J6,SH1*%
%TO.N,N/C*%
X55000000Y-37500000D03*
%TO.P,J6,SH2*%
X68140000Y-37500000D03*
%TD*%
D10*
%TO.P,J5,1,VBUS*%
%TO.N,VDC*%
X37320000Y-34790000D03*
D11*
%TO.P,J5,2,D-*%
%TO.N,unconnected-(J5-D--Pad2)*%
X39820000Y-34790000D03*
%TO.P,J5,3,D+*%
%TO.N,unconnected-(J5-D+-Pad3)*%
X41820000Y-34790000D03*
%TO.P,J5,4,GND*%
%TO.N,Net-(D2-A)*%
X44320000Y-34790000D03*
D12*
%TO.P,J5,SH1*%
%TO.N,N/C*%
X34250000Y-37500000D03*
%TO.P,J5,SH2*%
X47390000Y-37500000D03*
%TD*%
%TO.P,J8,SH2*%
%TO.N,N/C*%
X26750000Y-37460000D03*
%TO.P,J8,SH1*%
X13610000Y-37460000D03*
D11*
%TO.P,J8,4,GND*%
%TO.N,Net-(D1-A)*%
X23680000Y-34750000D03*
%TO.P,J8,3,D+*%
%TO.N,unconnected-(J8-D+-Pad3)*%
X21180000Y-34750000D03*
%TO.P,J8,2,D-*%
%TO.N,unconnected-(J8-D--Pad2)*%
X19180000Y-34750000D03*
D10*
%TO.P,J8,1,VBUS*%
%TO.N,VDC*%
X16680000Y-34750000D03*
%TD*%
D13*
%TO.P,J4,1,Pin_1*%
%TO.N,/ADC2*%
X67500000Y-2500000D03*
D14*
%TO.P,J4,2,Pin_2*%
%TO.N,VDC*%
X64960000Y-2500000D03*
%TO.P,J4,3,Pin_3*%
%TO.N,GND*%
X62420000Y-2500000D03*
%TD*%
D13*
%TO.P,J3,1,Pin_1*%
%TO.N,/ADC1*%
X42500000Y-2500000D03*
D14*
%TO.P,J3,2,Pin_2*%
%TO.N,VDC*%
X39960000Y-2500000D03*
%TO.P,J3,3,Pin_3*%
%TO.N,GND*%
X37420000Y-2500000D03*
%TD*%
D13*
%TO.P,J2,1,Pin_1*%
%TO.N,/ADC0*%
X20000000Y-2500000D03*
D14*
%TO.P,J2,2,Pin_2*%
%TO.N,VDC*%
X17460000Y-2500000D03*
%TO.P,J2,3,Pin_3*%
%TO.N,GND*%
X14920000Y-2500000D03*
%TD*%
D13*
%TO.P,J1,1,Pin_1*%
%TO.N,+3.3V*%
X12772000Y-25350200D03*
D14*
%TO.P,J1,2,Pin_2*%
%TO.N,GND*%
X12772000Y-22810200D03*
%TO.P,J1,3,Pin_3*%
%TO.N,/SCL*%
X12772000Y-20270200D03*
%TO.P,J1,4,Pin_4*%
%TO.N,/SDA*%
X12772000Y-17730200D03*
%TO.P,J1,5,Pin_5*%
%TO.N,unconnected-(J1-Pin_5-Pad5)*%
X12772000Y-15190200D03*
%TO.P,J1,6,Pin_6*%
%TO.N,unconnected-(J1-Pin_6-Pad6)*%
X12772000Y-12650200D03*
%TD*%
D15*
%TO.P,R1,1*%
%TO.N,/PWM_M0*%
X10150000Y-32710000D03*
%TO.P,R1,2*%
%TO.N,GND*%
X8500000Y-32710000D03*
%TD*%
D16*
%TO.P,D1,1,K*%
%TO.N,VDC*%
X12750000Y-29500000D03*
%TO.P,D1,2,A*%
%TO.N,Net-(D1-A)*%
X8750000Y-29500000D03*
%TD*%
D17*
%TO.P,D3,1,K*%
%TO.N,VDC*%
X72000000Y-39000000D03*
%TO.P,D3,2,A*%
%TO.N,Net-(D3-A)*%
X76000000Y-39000000D03*
%TD*%
D18*
%TO.P,Q3,1,G*%
%TO.N,/PWM_M2*%
X71750000Y-28500000D03*
%TO.P,Q3,2,S*%
%TO.N,GND*%
X69850000Y-28500000D03*
%TO.P,Q3,3,D*%
%TO.N,Net-(D3-A)*%
X70800000Y-30375000D03*
%TD*%
D19*
%TO.P,R2,1*%
%TO.N,/SCL*%
X9750000Y-20350000D03*
%TO.P,R2,2*%
%TO.N,+3.3V*%
X9750000Y-22000000D03*
%TD*%
D20*
%TO.P,D2,1,K*%
%TO.N,VDC*%
X51250000Y-34000000D03*
%TO.P,D2,2,A*%
%TO.N,Net-(D2-A)*%
X51250000Y-38000000D03*
%TD*%
D15*
%TO.P,R5,1*%
%TO.N,/PWM_M2*%
X71750000Y-26000000D03*
%TO.P,R5,2*%
%TO.N,GND*%
X70100000Y-26000000D03*
%TD*%
D14*
%TO.P,U1,1,GPIO0*%
%TO.N,unconnected-(U1-GPIO0-Pad1)*%
X66421000Y-9982200D03*
D21*
X66421000Y-9082200D03*
D14*
%TO.P,U1,2,GPIO1*%
%TO.N,unconnected-(U1-GPIO1-Pad2)*%
X63881000Y-9982200D03*
D21*
X63881000Y-9082200D03*
D13*
%TO.P,U1,3,GND*%
%TO.N,GND*%
X61341000Y-9982200D03*
D21*
X61341000Y-9082200D03*
D14*
%TO.P,U1,4,GPIO2*%
%TO.N,unconnected-(U1-GPIO2-Pad4)*%
X58801000Y-9982200D03*
D21*
X58801000Y-9082200D03*
D14*
%TO.P,U1,5,GPIO3*%
%TO.N,unconnected-(U1-GPIO3-Pad5)*%
X56261000Y-9982200D03*
D21*
X56261000Y-9082200D03*
D14*
%TO.P,U1,6,GPIO4*%
%TO.N,unconnected-(U1-GPIO4-Pad6)*%
X53721000Y-9982200D03*
D21*
X53721000Y-9082200D03*
D14*
%TO.P,U1,7,GPIO5*%
%TO.N,unconnected-(U1-GPIO5-Pad7)*%
X51181000Y-9982200D03*
D21*
X51181000Y-9082200D03*
D13*
%TO.P,U1,8,GND*%
%TO.N,GND*%
X48641000Y-9982200D03*
D21*
X48641000Y-9082200D03*
D14*
%TO.P,U1,9,GPIO6*%
%TO.N,unconnected-(U1-GPIO6-Pad9)*%
X46101000Y-9982200D03*
D21*
X46101000Y-9082200D03*
D14*
%TO.P,U1,10,GPIO7*%
%TO.N,unconnected-(U1-GPIO7-Pad10)*%
X43561000Y-9982200D03*
D21*
X43561000Y-9082200D03*
D14*
%TO.P,U1,11,GPIO8*%
%TO.N,unconnected-(U1-GPIO8-Pad11)*%
X41021000Y-9982200D03*
D21*
X41021000Y-9082200D03*
D14*
%TO.P,U1,12,GPIO9*%
%TO.N,unconnected-(U1-GPIO9-Pad12)*%
X38481000Y-9982200D03*
D21*
X38481000Y-9082200D03*
D13*
%TO.P,U1,13,GND*%
%TO.N,GND*%
X35941000Y-9982200D03*
D21*
X35941000Y-9082200D03*
D14*
%TO.P,U1,14,GPIO10*%
%TO.N,unconnected-(U1-GPIO10-Pad14)*%
X33401000Y-9982200D03*
D21*
X33401000Y-9082200D03*
D14*
%TO.P,U1,15,GPIO11*%
%TO.N,unconnected-(U1-GPIO11-Pad15)*%
X30861000Y-9982200D03*
D21*
X30861000Y-9082200D03*
D14*
%TO.P,U1,16,GPIO12*%
%TO.N,unconnected-(U1-GPIO12-Pad16)*%
X28321000Y-9982200D03*
D21*
X28321000Y-9082200D03*
D14*
%TO.P,U1,17,GPIO13*%
%TO.N,unconnected-(U1-GPIO13-Pad17)*%
X25781000Y-9982200D03*
D21*
X25781000Y-9082200D03*
D13*
%TO.P,U1,18,GND*%
%TO.N,GND*%
X23241000Y-9982200D03*
D21*
X23241000Y-9082200D03*
D14*
%TO.P,U1,19,GPIO14*%
%TO.N,unconnected-(U1-GPIO14-Pad19)*%
X20701000Y-9982200D03*
D21*
X20701000Y-9082200D03*
D14*
%TO.P,U1,20,GPIO15*%
%TO.N,unconnected-(U1-GPIO15-Pad20)*%
X18161000Y-9982200D03*
D21*
X18161000Y-9082200D03*
D14*
%TO.P,U1,21,GPIO16*%
%TO.N,unconnected-(U1-GPIO16-Pad21)*%
X18161000Y-27762200D03*
D21*
X18161000Y-28662200D03*
D14*
%TO.P,U1,22,GPIO17*%
%TO.N,unconnected-(U1-GPIO17-Pad22)*%
X20701000Y-27762200D03*
D21*
X20701000Y-28662200D03*
D13*
%TO.P,U1,23,GND*%
%TO.N,GND*%
X23241000Y-27762200D03*
D21*
X23241000Y-28662200D03*
D14*
%TO.P,U1,24,GPIO18*%
%TO.N,/PWM_M0*%
X25781000Y-27762200D03*
D21*
X25781000Y-28662200D03*
D14*
%TO.P,U1,25,GPIO19*%
%TO.N,/PWM_M1*%
X28321000Y-27762200D03*
D21*
X28321000Y-28662200D03*
D14*
%TO.P,U1,26,GPIO20*%
%TO.N,/SDA*%
X30861000Y-27762200D03*
D21*
X30861000Y-28662200D03*
D14*
%TO.P,U1,27,GPIO21*%
%TO.N,/SCL*%
X33401000Y-27762200D03*
D21*
X33401000Y-28662200D03*
D13*
%TO.P,U1,28,GND*%
%TO.N,GND*%
X35941000Y-27762200D03*
D21*
X35941000Y-28662200D03*
D14*
%TO.P,U1,29,GPIO22*%
%TO.N,/PWM_M2*%
X38481000Y-27762200D03*
D21*
X38481000Y-28662200D03*
D14*
%TO.P,U1,30,RUN*%
%TO.N,unconnected-(U1-RUN-Pad30)*%
X41021000Y-27762200D03*
D21*
X41021000Y-28662200D03*
D14*
%TO.P,U1,31,GPIO26_ADC0*%
%TO.N,/ADC0*%
X43561000Y-27762200D03*
D21*
X43561000Y-28662200D03*
D14*
%TO.P,U1,32,GPIO27_ADC1*%
%TO.N,/ADC1*%
X46101000Y-27762200D03*
D21*
X46101000Y-28662200D03*
D13*
%TO.P,U1,33,AGND*%
%TO.N,unconnected-(U1-AGND-Pad33)*%
X48641000Y-27762200D03*
D21*
X48641000Y-28662200D03*
D14*
%TO.P,U1,34,GPIO28_ADC2*%
%TO.N,/ADC2*%
X51181000Y-27762200D03*
D21*
X51181000Y-28662200D03*
D14*
%TO.P,U1,35,ADC_VREF*%
%TO.N,unconnected-(U1-ADC_VREF-Pad35)*%
X53721000Y-27762200D03*
D21*
X53721000Y-28662200D03*
D14*
%TO.P,U1,36,3V3*%
%TO.N,+3.3V*%
X56261000Y-27762200D03*
D21*
X56261000Y-28662200D03*
D14*
%TO.P,U1,37,3V3_EN*%
%TO.N,unconnected-(U1-3V3_EN-Pad37)*%
X58801000Y-27762200D03*
D21*
X58801000Y-28662200D03*
D13*
%TO.P,U1,38,GND*%
%TO.N,GND*%
X61341000Y-27762200D03*
D21*
X61341000Y-28662200D03*
D14*
%TO.P,U1,39,VSYS*%
%TO.N,unconnected-(U1-VSYS-Pad39)*%
X63881000Y-27762200D03*
D21*
X63881000Y-28662200D03*
D14*
%TO.P,U1,40,VBUS*%
%TO.N,VDC*%
X66421000Y-27762200D03*
D21*
X66421000Y-28662200D03*
D14*
%TO.P,U1,41,SWCLK*%
%TO.N,unconnected-(U1-SWCLK-Pad41)*%
X18391000Y-16332200D03*
D22*
X17491000Y-16332200D03*
D13*
%TO.P,U1,42,GND*%
%TO.N,GND*%
X18391000Y-18872200D03*
D22*
X17491000Y-18872200D03*
D14*
%TO.P,U1,43,SWDIO*%
%TO.N,unconnected-(U1-SWDIO-Pad43)*%
X18391000Y-21412200D03*
D22*
X17491000Y-21412200D03*
%TD*%
D23*
%TO.P,Q2,1,G*%
%TO.N,/PWM_M0*%
X8750000Y-34810000D03*
%TO.P,Q2,2,S*%
%TO.N,GND*%
X8750000Y-36710000D03*
%TO.P,Q2,3,D*%
%TO.N,Net-(D1-A)*%
X10625000Y-35760000D03*
%TD*%
D18*
%TO.P,Q1,1,G*%
%TO.N,/PWM_M1*%
X31450000Y-34125000D03*
%TO.P,Q1,2,S*%
%TO.N,GND*%
X29550000Y-34125000D03*
%TO.P,Q1,3,D*%
%TO.N,Net-(D2-A)*%
X30500000Y-36000000D03*
%TD*%
D15*
%TO.P,R4,1*%
%TO.N,/PWM_M1*%
X31400000Y-32000000D03*
%TO.P,R4,2*%
%TO.N,GND*%
X29750000Y-32000000D03*
%TD*%
D24*
%TO.P,R3,1*%
%TO.N,+3.3V*%
X7500000Y-19325000D03*
%TO.P,R3,2*%
%TO.N,/SDA*%
X7500000Y-17675000D03*
%TD*%
D25*
%TO.N,GND*%
X37000000Y-24500000D03*
X34000000Y-32000000D03*
X58000000Y-40500000D03*
X43500000Y-40000000D03*
X63500000Y-38000000D03*
X56000000Y-32500000D03*
X34500000Y-34000000D03*
X22500000Y-39500000D03*
X9000000Y-26500000D03*
X14500000Y-27500000D03*
X16500000Y-13500000D03*
X50500000Y-4000000D03*
X61000000Y-6500000D03*
X61000000Y-12000000D03*
X73000000Y-19000000D03*
X69000000Y-19000000D03*
X25000000Y-20000000D03*
X45000000Y-20000000D03*
X60000000Y-20000000D03*
X7500000Y-40000000D03*
X2500000Y-40000000D03*
X30000000Y-40000000D03*
X77500000Y-27500000D03*
X77500000Y-10000000D03*
X57500000Y-2500000D03*
X27500000Y-2500000D03*
X2500000Y-25000000D03*
X2500000Y-20000000D03*
X2500000Y-15000000D03*
X2500000Y-10000000D03*
%TO.N,+3.3V*%
X56500000Y-23750000D03*
X30850200Y-25350200D03*
%TO.N,/PWM_M0*%
X11500000Y-32750000D03*
%TO.N,/PWM_M2*%
X65999994Y-24500000D03*
D26*
%TO.N,GND*%
X75600000Y-33500000D03*
X4100000Y-33500000D03*
X75600000Y-4100000D03*
X4100000Y-4100000D03*
%TD*%
D27*
%TO.N,/PWM_M2*%
X71750000Y-25250000D02*
X71000000Y-24500000D01*
X71750000Y-26750000D02*
X71750000Y-25250000D01*
X71000000Y-24500000D02*
X65999994Y-24500000D01*
D28*
%TO.N,Net-(D3-A)*%
X70800000Y-34750000D02*
X70760000Y-34790000D01*
X70800000Y-30375000D02*
X70800000Y-34750000D01*
D29*
%TO.N,VDC*%
X58070000Y-37070000D02*
X58070000Y-34790000D01*
X61000000Y-40000000D02*
X58070000Y-37070000D01*
X71000000Y-40000000D02*
X61000000Y-40000000D01*
X72000000Y-39000000D02*
X71000000Y-40000000D01*
%TO.N,/ADC1*%
X46101000Y-24649000D02*
X46101000Y-27762200D01*
X66500000Y-13750000D02*
X57000000Y-13750000D01*
X65921000Y-5000000D02*
X67671000Y-6750000D01*
X67671000Y-6750000D02*
X67671000Y-12579000D01*
X67671000Y-12579000D02*
X66500000Y-13750000D01*
X57000000Y-13750000D02*
X46101000Y-24649000D01*
X56000000Y-5000000D02*
X65921000Y-5000000D01*
X42500000Y-2500000D02*
X53500000Y-2500000D01*
X53500000Y-2500000D02*
X56000000Y-5000000D01*
D27*
%TO.N,/PWM_M0*%
X11460000Y-32710000D02*
X11500000Y-32750000D01*
X10150000Y-32710000D02*
X11460000Y-32710000D01*
D28*
%TO.N,Net-(D1-A)*%
X12750000Y-32250000D02*
X12750000Y-34500000D01*
X10000000Y-29500000D02*
X12750000Y-32250000D01*
X8750000Y-29500000D02*
X10000000Y-29500000D01*
D27*
%TO.N,/PWM_M2*%
X71750000Y-29250000D02*
X71750000Y-26750000D01*
D29*
%TO.N,/ADC2*%
X51181000Y-21819000D02*
X51181000Y-27762200D01*
X58202800Y-14797200D02*
X51181000Y-21819000D01*
X66702800Y-14797200D02*
X58202800Y-14797200D01*
X68271000Y-3271000D02*
X68271000Y-13229000D01*
X67500000Y-2500000D02*
X68271000Y-3271000D01*
X68271000Y-13229000D02*
X66702800Y-14797200D01*
%TO.N,/ADC0*%
X16500000Y-10821200D02*
X16500000Y-6000000D01*
X16500000Y-6000000D02*
X20000000Y-2500000D01*
X20761000Y-15082200D02*
X16500000Y-10821200D01*
X30881000Y-15082200D02*
X20761000Y-15082200D01*
X43561000Y-27762200D02*
X30881000Y-15082200D01*
%TO.N,+3.3V*%
X56261000Y-23989000D02*
X56500000Y-23750000D01*
X56261000Y-27762200D02*
X56261000Y-23989000D01*
D28*
%TO.N,/SCL*%
X33401000Y-26151000D02*
X33401000Y-27762200D01*
X31650200Y-24400200D02*
X33401000Y-26151000D01*
X16902000Y-24400200D02*
X31650200Y-24400200D01*
X12772000Y-20270200D02*
X16902000Y-24400200D01*
D29*
%TO.N,+3.3V*%
X12772000Y-25350200D02*
X30850200Y-25350200D01*
X31000000Y-25500000D02*
X30850200Y-25350200D01*
D28*
%TO.N,Net-(D1-A)*%
X21930000Y-36500000D02*
X23680000Y-34750000D01*
X14000000Y-34500000D02*
X16000000Y-36500000D01*
X16000000Y-36500000D02*
X21930000Y-36500000D01*
X12750000Y-34500000D02*
X14000000Y-34500000D01*
X11490000Y-35760000D02*
X12750000Y-34500000D01*
X10625000Y-35760000D02*
X11490000Y-35760000D01*
%TO.N,Net-(D3-A)*%
X71290000Y-34790000D02*
X70760000Y-34790000D01*
X75250000Y-38750000D02*
X71290000Y-34790000D01*
X65070000Y-34790000D02*
X70760000Y-34790000D01*
D27*
%TO.N,+3.3V*%
X11100200Y-25350200D02*
X12772000Y-25350200D01*
X9750000Y-24000000D02*
X11100200Y-25350200D01*
X9750000Y-22000000D02*
X9750000Y-24000000D01*
X8750000Y-22000000D02*
X9750000Y-22000000D01*
X7500000Y-20750000D02*
X8750000Y-22000000D01*
X7500000Y-19325000D02*
X7500000Y-20750000D01*
%TO.N,/SDA*%
X12716800Y-17675000D02*
X12772000Y-17730200D01*
X7500000Y-17675000D02*
X12716800Y-17675000D01*
%TO.N,/SCL*%
X12692200Y-20350000D02*
X12772000Y-20270200D01*
X9750000Y-20350000D02*
X12692200Y-20350000D01*
D29*
%TO.N,VDC*%
X12750000Y-29500000D02*
X12750000Y-30820000D01*
X12750000Y-30820000D02*
X16680000Y-34750000D01*
X49250000Y-34000000D02*
X51250000Y-34000000D01*
X48000000Y-32750000D02*
X49250000Y-34000000D01*
X39360000Y-32750000D02*
X48000000Y-32750000D01*
X37320000Y-34790000D02*
X39360000Y-32750000D01*
%TO.N,Net-(D2-A)*%
X44320000Y-34790000D02*
X48040000Y-34790000D01*
X48040000Y-34790000D02*
X51250000Y-38000000D01*
X30500000Y-38250000D02*
X30500000Y-36000000D01*
X39110000Y-40000000D02*
X32250000Y-40000000D01*
X44320000Y-34790000D02*
X39110000Y-40000000D01*
X32250000Y-40000000D02*
X30500000Y-38250000D01*
D27*
%TO.N,/PWM_M1*%
X31400000Y-34075000D02*
X31450000Y-34125000D01*
X31400000Y-32000000D02*
X31400000Y-34075000D01*
X30137200Y-30737200D02*
X31400000Y-32000000D01*
X28321000Y-29372200D02*
X29686000Y-30737200D01*
X28321000Y-27762200D02*
X28321000Y-29372200D01*
X29686000Y-30737200D02*
X30137200Y-30737200D01*
%TO.N,/PWM_M0*%
X10150000Y-33410000D02*
X8750000Y-34810000D01*
X10150000Y-32710000D02*
X10150000Y-33410000D01*
X25781000Y-29531000D02*
X26000000Y-29750000D01*
X25781000Y-27762200D02*
X25781000Y-29531000D01*
%TO.N,/PWM_M2*%
X38481000Y-29372200D02*
X38481000Y-27762200D01*
%TO.N,/ADC1*%
X45792000Y-27453200D02*
X46101000Y-27762200D01*
%TD*%
%TA.AperFunction,Conductor*%
%TO.N,GND*%
G36*
X19912245Y-15232115D02*
G01*
X19942454Y-15254311D01*
X20249399Y-15561256D01*
X20251935Y-15563950D01*
X20293071Y-15610383D01*
X20344106Y-15645610D01*
X20347122Y-15647830D01*
X20368241Y-15664375D01*
X20395943Y-15686078D01*
X20402845Y-15689184D01*
X20405182Y-15690236D01*
X20424733Y-15701263D01*
X20433070Y-15707018D01*
X20491058Y-15729009D01*
X20494496Y-15730434D01*
X20551068Y-15755895D01*
X20561042Y-15757722D01*
X20582656Y-15763748D01*
X20592127Y-15767340D01*
X20653673Y-15774813D01*
X20657370Y-15775375D01*
X20718394Y-15786558D01*
X20773377Y-15783231D01*
X20780303Y-15782813D01*
X20784048Y-15782700D01*
X30539481Y-15782700D01*
X30606520Y-15802385D01*
X30627162Y-15819019D01*
X41008162Y-26200019D01*
X41041647Y-26261342D01*
X41036663Y-26331034D01*
X40994791Y-26386967D01*
X40929327Y-26411384D01*
X40920481Y-26411700D01*
X40123129Y-26411700D01*
X40123123Y-26411701D01*
X40063516Y-26418108D01*
X39928671Y-26468402D01*
X39928669Y-26468403D01*
X39825311Y-26545778D01*
X39759847Y-26570195D01*
X39691574Y-26555344D01*
X39676689Y-26545778D01*
X39573330Y-26468403D01*
X39573328Y-26468402D01*
X39438482Y-26418108D01*
X39438483Y-26418108D01*
X39378883Y-26411701D01*
X39378881Y-26411700D01*
X39378873Y-26411700D01*
X39378865Y-26411700D01*
X38542677Y-26411700D01*
X38537275Y-26411464D01*
X38506849Y-26408802D01*
X38481002Y-26406541D01*
X38480999Y-26406541D01*
X38463750Y-26408049D01*
X38424722Y-26411464D01*
X38419322Y-26411700D01*
X37583129Y-26411700D01*
X37583123Y-26411701D01*
X37523516Y-26418108D01*
X37388671Y-26468402D01*
X37388669Y-26468404D01*
X37284894Y-26546090D01*
X37219430Y-26570507D01*
X37151157Y-26555656D01*
X37136272Y-26546090D01*
X37033088Y-26468846D01*
X37033086Y-26468845D01*
X36898379Y-26418603D01*
X36898372Y-26418601D01*
X36838844Y-26412200D01*
X36191000Y-26412200D01*
X36191000Y-27315705D01*
X36086161Y-27267827D01*
X35977473Y-27252200D01*
X35904527Y-27252200D01*
X35795839Y-27267827D01*
X35691000Y-27315705D01*
X35691000Y-26412200D01*
X35043155Y-26412200D01*
X34983627Y-26418601D01*
X34983620Y-26418603D01*
X34848913Y-26468845D01*
X34848910Y-26468847D01*
X34745727Y-26546090D01*
X34680262Y-26570507D01*
X34611989Y-26555655D01*
X34597105Y-26546089D01*
X34493335Y-26468406D01*
X34493328Y-26468402D01*
X34358483Y-26418108D01*
X34312243Y-26413137D01*
X34247693Y-26386399D01*
X34207845Y-26329006D01*
X34201500Y-26289848D01*
X34201500Y-26060807D01*
X34201500Y-26060806D01*
X34192207Y-26020093D01*
X34191042Y-26013233D01*
X34186368Y-25971745D01*
X34186367Y-25971742D01*
X34172576Y-25932328D01*
X34170650Y-25925641D01*
X34161361Y-25884941D01*
X34143244Y-25847320D01*
X34140581Y-25840891D01*
X34126789Y-25801477D01*
X34106812Y-25769685D01*
X34104567Y-25766112D01*
X34101206Y-25760030D01*
X34083091Y-25722412D01*
X34083090Y-25722411D01*
X34057055Y-25689765D01*
X34053028Y-25684089D01*
X34043187Y-25668427D01*
X34030816Y-25648738D01*
X33903262Y-25521184D01*
X32184452Y-23802374D01*
X32152462Y-23770384D01*
X32152459Y-23770382D01*
X32117104Y-23748166D01*
X32111429Y-23744140D01*
X32078789Y-23718110D01*
X32041159Y-23699987D01*
X32035072Y-23696622D01*
X31999725Y-23674412D01*
X31960314Y-23660621D01*
X31953888Y-23657959D01*
X31916261Y-23639839D01*
X31875545Y-23630545D01*
X31868862Y-23628620D01*
X31829459Y-23614832D01*
X31787963Y-23610155D01*
X31781108Y-23608991D01*
X31740400Y-23599701D01*
X31740396Y-23599700D01*
X31740394Y-23599700D01*
X31740391Y-23599700D01*
X17284940Y-23599700D01*
X17217901Y-23580015D01*
X17197259Y-23563381D01*
X16608258Y-22974380D01*
X16574773Y-22913057D01*
X16579757Y-22843365D01*
X16621629Y-22787432D01*
X16687093Y-22763015D01*
X16695939Y-22762699D01*
X18329318Y-22762699D01*
X18334719Y-22762934D01*
X18391000Y-22767859D01*
X18447280Y-22762934D01*
X18452682Y-22762699D01*
X19288871Y-22762699D01*
X19288872Y-22762699D01*
X19348483Y-22756291D01*
X19483331Y-22705996D01*
X19598546Y-22619746D01*
X19684796Y-22504531D01*
X19735091Y-22369683D01*
X19741500Y-22310073D01*
X19741499Y-21473878D01*
X19741735Y-21468472D01*
X19741975Y-21465736D01*
X19746659Y-21412200D01*
X19741734Y-21355922D01*
X19741499Y-21350519D01*
X19741499Y-20514329D01*
X19741498Y-20514323D01*
X19741497Y-20514316D01*
X19735091Y-20454717D01*
X19726293Y-20431129D01*
X19684797Y-20319871D01*
X19684795Y-20319868D01*
X19607109Y-20216093D01*
X19582692Y-20150630D01*
X19597543Y-20082357D01*
X19607110Y-20067471D01*
X19684352Y-19964289D01*
X19684354Y-19964286D01*
X19734596Y-19829579D01*
X19734598Y-19829572D01*
X19740999Y-19770044D01*
X19741000Y-19770027D01*
X19741000Y-19122200D01*
X18836572Y-19122200D01*
X18859682Y-19086240D01*
X18901000Y-18945527D01*
X18901000Y-18798873D01*
X18859682Y-18658160D01*
X18836572Y-18622200D01*
X19741000Y-18622200D01*
X19741000Y-17974372D01*
X19740999Y-17974355D01*
X19734598Y-17914827D01*
X19734596Y-17914820D01*
X19684354Y-17780113D01*
X19684352Y-17780110D01*
X19607110Y-17676929D01*
X19582692Y-17611465D01*
X19597543Y-17543192D01*
X19607105Y-17528311D01*
X19684796Y-17424531D01*
X19735091Y-17289683D01*
X19741500Y-17230073D01*
X19741499Y-16393878D01*
X19741735Y-16388472D01*
X19742608Y-16378502D01*
X19746659Y-16332200D01*
X19741734Y-16275922D01*
X19741499Y-16270519D01*
X19741499Y-15434329D01*
X19741498Y-15434323D01*
X19741497Y-15434316D01*
X19735091Y-15374717D01*
X19734097Y-15370511D01*
X19734277Y-15367146D01*
X19734262Y-15367004D01*
X19734285Y-15367001D01*
X19737835Y-15300742D01*
X19778700Y-15244069D01*
X19843718Y-15218486D01*
X19912245Y-15232115D01*
G37*
%TD.AperFunction*%
%TA.AperFunction,Conductor*%
G36*
X61591000Y-11332200D02*
G01*
X62238828Y-11332200D01*
X62238844Y-11332199D01*
X62298372Y-11325798D01*
X62298379Y-11325796D01*
X62433086Y-11275554D01*
X62433089Y-11275552D01*
X62536271Y-11198310D01*
X62601735Y-11173892D01*
X62670008Y-11188743D01*
X62684888Y-11198305D01*
X62788076Y-11275552D01*
X62788668Y-11275995D01*
X62788671Y-11275997D01*
X62923517Y-11326291D01*
X62923516Y-11326291D01*
X62930444Y-11327035D01*
X62983127Y-11332700D01*
X63819319Y-11332699D01*
X63824724Y-11332934D01*
X63881000Y-11337859D01*
X63937275Y-11332934D01*
X63942681Y-11332699D01*
X64778871Y-11332699D01*
X64778872Y-11332699D01*
X64838483Y-11326291D01*
X64973331Y-11275996D01*
X65076690Y-11198621D01*
X65142152Y-11174204D01*
X65210425Y-11189055D01*
X65225303Y-11198616D01*
X65328076Y-11275552D01*
X65328668Y-11275995D01*
X65328671Y-11275997D01*
X65463517Y-11326291D01*
X65463516Y-11326291D01*
X65470444Y-11327035D01*
X65523127Y-11332700D01*
X66359319Y-11332699D01*
X66364724Y-11332934D01*
X66421000Y-11337859D01*
X66477275Y-11332934D01*
X66482681Y-11332699D01*
X66846500Y-11332699D01*
X66913539Y-11352384D01*
X66959294Y-11405188D01*
X66970500Y-11456699D01*
X66970500Y-12237481D01*
X66950815Y-12304520D01*
X66934181Y-12325162D01*
X66246162Y-13013181D01*
X66184839Y-13046666D01*
X66158481Y-13049500D01*
X57023048Y-13049500D01*
X57019303Y-13049387D01*
X56957396Y-13045642D01*
X56957389Y-13045642D01*
X56896386Y-13056821D01*
X56892685Y-13057384D01*
X56831128Y-13064859D01*
X56831121Y-13064861D01*
X56821647Y-13068454D01*
X56800049Y-13074475D01*
X56790069Y-13076304D01*
X56733519Y-13101755D01*
X56730060Y-13103188D01*
X56672071Y-13125181D01*
X56672066Y-13125184D01*
X56663722Y-13130943D01*
X56644187Y-13141961D01*
X56634947Y-13146120D01*
X56634945Y-13146121D01*
X56586136Y-13184359D01*
X56583122Y-13186576D01*
X56532070Y-13221817D01*
X56532068Y-13221818D01*
X56490942Y-13268240D01*
X56488375Y-13270966D01*
X45621966Y-24137375D01*
X45619240Y-24139942D01*
X45572818Y-24181068D01*
X45537586Y-24232109D01*
X45535368Y-24235124D01*
X45497124Y-24283939D01*
X45497119Y-24283948D01*
X45492960Y-24293188D01*
X45481942Y-24312723D01*
X45476187Y-24321061D01*
X45476183Y-24321067D01*
X45476182Y-24321070D01*
X45476180Y-24321074D01*
X45476179Y-24321077D01*
X45454189Y-24379055D01*
X45452757Y-24382513D01*
X45427305Y-24439068D01*
X45425477Y-24449042D01*
X45419453Y-24470653D01*
X45415860Y-24480127D01*
X45415859Y-24480128D01*
X45408384Y-24541685D01*
X45407821Y-24545386D01*
X45396642Y-24606390D01*
X45396642Y-24606395D01*
X45400387Y-24668302D01*
X45400500Y-24672047D01*
X45400500Y-26287700D01*
X45380815Y-26354739D01*
X45328011Y-26400494D01*
X45276502Y-26411700D01*
X45203130Y-26411700D01*
X45203123Y-26411701D01*
X45143516Y-26418108D01*
X45008671Y-26468402D01*
X45008669Y-26468403D01*
X44905311Y-26545778D01*
X44839847Y-26570195D01*
X44771574Y-26555344D01*
X44756689Y-26545778D01*
X44653330Y-26468403D01*
X44653328Y-26468402D01*
X44518482Y-26418108D01*
X44518483Y-26418108D01*
X44458883Y-26411701D01*
X44458881Y-26411700D01*
X44458873Y-26411700D01*
X44458865Y-26411700D01*
X43622677Y-26411700D01*
X43617275Y-26411464D01*
X43586849Y-26408802D01*
X43561002Y-26406541D01*
X43560999Y-26406541D01*
X43543750Y-26408049D01*
X43504722Y-26411464D01*
X43499322Y-26411700D01*
X43252519Y-26411700D01*
X43185480Y-26392015D01*
X43164838Y-26375381D01*
X37279777Y-20490320D01*
X31392598Y-14603141D01*
X31390064Y-14600450D01*
X31348929Y-14554017D01*
X31348928Y-14554016D01*
X31348924Y-14554012D01*
X31297896Y-14518791D01*
X31294887Y-14516577D01*
X31246060Y-14478324D01*
X31246055Y-14478320D01*
X31236813Y-14474161D01*
X31217266Y-14463136D01*
X31208931Y-14457383D01*
X31208932Y-14457383D01*
X31208930Y-14457382D01*
X31150941Y-14435389D01*
X31147490Y-14433959D01*
X31090930Y-14408504D01*
X31080946Y-14406674D01*
X31059343Y-14400651D01*
X31049874Y-14397060D01*
X31049870Y-14397059D01*
X30988313Y-14389584D01*
X30984612Y-14389021D01*
X30923608Y-14377842D01*
X30923603Y-14377842D01*
X30861697Y-14381587D01*
X30857952Y-14381700D01*
X21102519Y-14381700D01*
X21035480Y-14362015D01*
X21014838Y-14345381D01*
X18213837Y-11544380D01*
X18180352Y-11483057D01*
X18185336Y-11413365D01*
X18227208Y-11357432D01*
X18292672Y-11333015D01*
X18301518Y-11332699D01*
X19058871Y-11332699D01*
X19058872Y-11332699D01*
X19118483Y-11326291D01*
X19253331Y-11275996D01*
X19356690Y-11198621D01*
X19422152Y-11174204D01*
X19490425Y-11189055D01*
X19505303Y-11198616D01*
X19608076Y-11275552D01*
X19608668Y-11275995D01*
X19608671Y-11275997D01*
X19743517Y-11326291D01*
X19743516Y-11326291D01*
X19750444Y-11327035D01*
X19803127Y-11332700D01*
X20639319Y-11332699D01*
X20644724Y-11332934D01*
X20701000Y-11337859D01*
X20757275Y-11332934D01*
X20762681Y-11332699D01*
X21598871Y-11332699D01*
X21598872Y-11332699D01*
X21658483Y-11326291D01*
X21793331Y-11275996D01*
X21897106Y-11198309D01*
X21962570Y-11173892D01*
X22030843Y-11188743D01*
X22045729Y-11198310D01*
X22148910Y-11275552D01*
X22148913Y-11275554D01*
X22283620Y-11325796D01*
X22283627Y-11325798D01*
X22343155Y-11332199D01*
X22343172Y-11332200D01*
X22991000Y-11332200D01*
X22991000Y-10428694D01*
X23095839Y-10476573D01*
X23204527Y-10492200D01*
X23277473Y-10492200D01*
X23386161Y-10476573D01*
X23491000Y-10428694D01*
X23491000Y-11332200D01*
X24138828Y-11332200D01*
X24138844Y-11332199D01*
X24198372Y-11325798D01*
X24198379Y-11325796D01*
X24333086Y-11275554D01*
X24333089Y-11275552D01*
X24436271Y-11198310D01*
X24501735Y-11173892D01*
X24570008Y-11188743D01*
X24584888Y-11198305D01*
X24688076Y-11275552D01*
X24688668Y-11275995D01*
X24688671Y-11275997D01*
X24823517Y-11326291D01*
X24823516Y-11326291D01*
X24830444Y-11327035D01*
X24883127Y-11332700D01*
X25719319Y-11332699D01*
X25724724Y-11332934D01*
X25781000Y-11337859D01*
X25837275Y-11332934D01*
X25842681Y-11332699D01*
X26678871Y-11332699D01*
X26678872Y-11332699D01*
X26738483Y-11326291D01*
X26873331Y-11275996D01*
X26976690Y-11198621D01*
X27042152Y-11174204D01*
X27110425Y-11189055D01*
X27125303Y-11198616D01*
X27228076Y-11275552D01*
X27228668Y-11275995D01*
X27228671Y-11275997D01*
X27363517Y-11326291D01*
X27363516Y-11326291D01*
X27370444Y-11327035D01*
X27423127Y-11332700D01*
X28259319Y-11332699D01*
X28264724Y-11332934D01*
X28321000Y-11337859D01*
X28377275Y-11332934D01*
X28382681Y-11332699D01*
X29218871Y-11332699D01*
X29218872Y-11332699D01*
X29278483Y-11326291D01*
X29413331Y-11275996D01*
X29516690Y-11198621D01*
X29582152Y-11174204D01*
X29650425Y-11189055D01*
X29665303Y-11198616D01*
X29768076Y-11275552D01*
X29768668Y-11275995D01*
X29768671Y-11275997D01*
X29903517Y-11326291D01*
X29903516Y-11326291D01*
X29910444Y-11327035D01*
X29963127Y-11332700D01*
X30799319Y-11332699D01*
X30804724Y-11332934D01*
X30861000Y-11337859D01*
X30917275Y-11332934D01*
X30922681Y-11332699D01*
X31758871Y-11332699D01*
X31758872Y-11332699D01*
X31818483Y-11326291D01*
X31953331Y-11275996D01*
X32056690Y-11198621D01*
X32122152Y-11174204D01*
X32190425Y-11189055D01*
X32205303Y-11198616D01*
X32308076Y-11275552D01*
X32308668Y-11275995D01*
X32308671Y-11275997D01*
X32443517Y-11326291D01*
X32443516Y-11326291D01*
X32450444Y-11327035D01*
X32503127Y-11332700D01*
X33339319Y-11332699D01*
X33344724Y-11332934D01*
X33401000Y-11337859D01*
X33457275Y-11332934D01*
X33462681Y-11332699D01*
X34298871Y-11332699D01*
X34298872Y-11332699D01*
X34358483Y-11326291D01*
X34493331Y-11275996D01*
X34597106Y-11198309D01*
X34662570Y-11173892D01*
X34730843Y-11188743D01*
X34745729Y-11198310D01*
X34848910Y-11275552D01*
X34848913Y-11275554D01*
X34983620Y-11325796D01*
X34983627Y-11325798D01*
X35043155Y-11332199D01*
X35043172Y-11332200D01*
X35691000Y-11332200D01*
X35691000Y-10428694D01*
X35795839Y-10476573D01*
X35904527Y-10492200D01*
X35977473Y-10492200D01*
X36086161Y-10476573D01*
X36191000Y-10428694D01*
X36191000Y-11332200D01*
X36838828Y-11332200D01*
X36838844Y-11332199D01*
X36898372Y-11325798D01*
X36898379Y-11325796D01*
X37033086Y-11275554D01*
X37033089Y-11275552D01*
X37136271Y-11198310D01*
X37201735Y-11173892D01*
X37270008Y-11188743D01*
X37284888Y-11198305D01*
X37388076Y-11275552D01*
X37388668Y-11275995D01*
X37388671Y-11275997D01*
X37523517Y-11326291D01*
X37523516Y-11326291D01*
X37530444Y-11327035D01*
X37583127Y-11332700D01*
X38419319Y-11332699D01*
X38424724Y-11332934D01*
X38481000Y-11337859D01*
X38537275Y-11332934D01*
X38542681Y-11332699D01*
X39378871Y-11332699D01*
X39378872Y-11332699D01*
X39438483Y-11326291D01*
X39573331Y-11275996D01*
X39676690Y-11198621D01*
X39742152Y-11174204D01*
X39810425Y-11189055D01*
X39825303Y-11198616D01*
X39928076Y-11275552D01*
X39928668Y-11275995D01*
X39928671Y-11275997D01*
X40063517Y-11326291D01*
X40063516Y-11326291D01*
X40070444Y-11327035D01*
X40123127Y-11332700D01*
X40959319Y-11332699D01*
X40964724Y-11332934D01*
X41021000Y-11337859D01*
X41077275Y-11332934D01*
X41082681Y-11332699D01*
X41918871Y-11332699D01*
X41918872Y-11332699D01*
X41978483Y-11326291D01*
X42113331Y-11275996D01*
X42216690Y-11198621D01*
X42282152Y-11174204D01*
X42350425Y-11189055D01*
X42365303Y-11198616D01*
X42468076Y-11275552D01*
X42468668Y-11275995D01*
X42468671Y-11275997D01*
X42603517Y-11326291D01*
X42603516Y-11326291D01*
X42610444Y-11327035D01*
X42663127Y-11332700D01*
X43499319Y-11332699D01*
X43504724Y-11332934D01*
X43561000Y-11337859D01*
X43617275Y-11332934D01*
X43622681Y-11332699D01*
X44458871Y-11332699D01*
X44458872Y-11332699D01*
X44518483Y-11326291D01*
X44653331Y-11275996D01*
X44756690Y-11198621D01*
X44822152Y-11174204D01*
X44890425Y-11189055D01*
X44905303Y-11198616D01*
X45008076Y-11275552D01*
X45008668Y-11275995D01*
X45008671Y-11275997D01*
X45143517Y-11326291D01*
X45143516Y-11326291D01*
X45150444Y-11327035D01*
X45203127Y-11332700D01*
X46039319Y-11332699D01*
X46044724Y-11332934D01*
X46101000Y-11337859D01*
X46157275Y-11332934D01*
X46162681Y-11332699D01*
X46998871Y-11332699D01*
X46998872Y-11332699D01*
X47058483Y-11326291D01*
X47193331Y-11275996D01*
X47297106Y-11198309D01*
X47362570Y-11173892D01*
X47430843Y-11188743D01*
X47445729Y-11198310D01*
X47548910Y-11275552D01*
X47548913Y-11275554D01*
X47683620Y-11325796D01*
X47683627Y-11325798D01*
X47743155Y-11332199D01*
X47743172Y-11332200D01*
X48391000Y-11332200D01*
X48391000Y-10428694D01*
X48495839Y-10476573D01*
X48604527Y-10492200D01*
X48677473Y-10492200D01*
X48786161Y-10476573D01*
X48891000Y-10428694D01*
X48891000Y-11332200D01*
X49538828Y-11332200D01*
X49538844Y-11332199D01*
X49598372Y-11325798D01*
X49598379Y-11325796D01*
X49733086Y-11275554D01*
X49733089Y-11275552D01*
X49836271Y-11198310D01*
X49901735Y-11173892D01*
X49970008Y-11188743D01*
X49984888Y-11198305D01*
X50088076Y-11275552D01*
X50088668Y-11275995D01*
X50088671Y-11275997D01*
X50223517Y-11326291D01*
X50223516Y-11326291D01*
X50230444Y-11327035D01*
X50283127Y-11332700D01*
X51119319Y-11332699D01*
X51124724Y-11332934D01*
X51181000Y-11337859D01*
X51237275Y-11332934D01*
X51242681Y-11332699D01*
X52078871Y-11332699D01*
X52078872Y-11332699D01*
X52138483Y-11326291D01*
X52273331Y-11275996D01*
X52376690Y-11198621D01*
X52442152Y-11174204D01*
X52510425Y-11189055D01*
X52525303Y-11198616D01*
X52628076Y-11275552D01*
X52628668Y-11275995D01*
X52628671Y-11275997D01*
X52763517Y-11326291D01*
X52763516Y-11326291D01*
X52770444Y-11327035D01*
X52823127Y-11332700D01*
X53659319Y-11332699D01*
X53664724Y-11332934D01*
X53721000Y-11337859D01*
X53777275Y-11332934D01*
X53782681Y-11332699D01*
X54618871Y-11332699D01*
X54618872Y-11332699D01*
X54678483Y-11326291D01*
X54813331Y-11275996D01*
X54916690Y-11198621D01*
X54982152Y-11174204D01*
X55050425Y-11189055D01*
X55065303Y-11198616D01*
X55168076Y-11275552D01*
X55168668Y-11275995D01*
X55168671Y-11275997D01*
X55303517Y-11326291D01*
X55303516Y-11326291D01*
X55310444Y-11327035D01*
X55363127Y-11332700D01*
X56199319Y-11332699D01*
X56204724Y-11332934D01*
X56261000Y-11337859D01*
X56317275Y-11332934D01*
X56322681Y-11332699D01*
X57158871Y-11332699D01*
X57158872Y-11332699D01*
X57218483Y-11326291D01*
X57353331Y-11275996D01*
X57456690Y-11198621D01*
X57522152Y-11174204D01*
X57590425Y-11189055D01*
X57605303Y-11198616D01*
X57708076Y-11275552D01*
X57708668Y-11275995D01*
X57708671Y-11275997D01*
X57843517Y-11326291D01*
X57843516Y-11326291D01*
X57850444Y-11327035D01*
X57903127Y-11332700D01*
X58739319Y-11332699D01*
X58744724Y-11332934D01*
X58801000Y-11337859D01*
X58857275Y-11332934D01*
X58862681Y-11332699D01*
X59698871Y-11332699D01*
X59698872Y-11332699D01*
X59758483Y-11326291D01*
X59893331Y-11275996D01*
X59997106Y-11198309D01*
X60062570Y-11173892D01*
X60130843Y-11188743D01*
X60145729Y-11198310D01*
X60248910Y-11275552D01*
X60248913Y-11275554D01*
X60383620Y-11325796D01*
X60383627Y-11325798D01*
X60443155Y-11332199D01*
X60443172Y-11332200D01*
X61091000Y-11332200D01*
X61091000Y-10428694D01*
X61195839Y-10476573D01*
X61304527Y-10492200D01*
X61377473Y-10492200D01*
X61486161Y-10476573D01*
X61591000Y-10428694D01*
X61591000Y-11332200D01*
G37*
%TD.AperFunction*%
%TA.AperFunction,Conductor*%
G36*
X11619689Y-20995185D02*
G01*
X11654224Y-21028376D01*
X11666930Y-21046522D01*
X11733505Y-21141602D01*
X11900597Y-21308693D01*
X11900603Y-21308698D01*
X11916273Y-21319670D01*
X12081956Y-21435683D01*
X12086594Y-21438930D01*
X12130219Y-21493507D01*
X12137413Y-21563005D01*
X12105890Y-21625360D01*
X12086595Y-21642080D01*
X11900922Y-21772090D01*
X11900920Y-21772091D01*
X11733891Y-21939120D01*
X11733886Y-21939126D01*
X11598400Y-22132620D01*
X11598399Y-22132622D01*
X11498570Y-22346707D01*
X11498567Y-22346713D01*
X11441364Y-22560199D01*
X11441364Y-22560200D01*
X12338314Y-22560200D01*
X12312507Y-22600356D01*
X12272000Y-22738311D01*
X12272000Y-22882089D01*
X12312507Y-23020044D01*
X12338314Y-23060200D01*
X11441364Y-23060200D01*
X11498567Y-23273686D01*
X11498570Y-23273692D01*
X11598399Y-23487778D01*
X11733894Y-23681282D01*
X11855946Y-23803334D01*
X11889431Y-23864657D01*
X11884447Y-23934349D01*
X11842575Y-23990282D01*
X11811598Y-24007197D01*
X11679671Y-24056402D01*
X11679664Y-24056406D01*
X11564455Y-24142652D01*
X11564452Y-24142655D01*
X11478206Y-24257864D01*
X11478202Y-24257871D01*
X11427908Y-24392717D01*
X11421853Y-24449042D01*
X11421501Y-24452323D01*
X11421500Y-24452335D01*
X11421500Y-24487547D01*
X11401815Y-24554586D01*
X11349011Y-24600341D01*
X11279853Y-24610285D01*
X11216297Y-24581260D01*
X11209819Y-24575228D01*
X10411819Y-23777228D01*
X10378334Y-23715905D01*
X10375500Y-23689547D01*
X10375500Y-22876601D01*
X10395185Y-22809562D01*
X10435348Y-22770485D01*
X10460185Y-22755472D01*
X10580472Y-22635185D01*
X10668478Y-22489606D01*
X10719086Y-22327196D01*
X10725500Y-22256616D01*
X10725500Y-21743384D01*
X10719086Y-21672804D01*
X10668478Y-21510394D01*
X10580472Y-21364815D01*
X10580470Y-21364813D01*
X10580469Y-21364811D01*
X10478339Y-21262681D01*
X10444854Y-21201358D01*
X10449838Y-21131666D01*
X10478339Y-21087319D01*
X10553839Y-21011819D01*
X10615162Y-20978334D01*
X10641520Y-20975500D01*
X11552650Y-20975500D01*
X11619689Y-20995185D01*
G37*
%TD.AperFunction*%
%TA.AperFunction,Conductor*%
G36*
X63887865Y-35172746D02*
G01*
X63932381Y-35224120D01*
X63996613Y-35361865D01*
X64014195Y-35399570D01*
X64014197Y-35399574D01*
X64136081Y-35573642D01*
X64136086Y-35573648D01*
X64286351Y-35723913D01*
X64286357Y-35723918D01*
X64460425Y-35845802D01*
X64460427Y-35845803D01*
X64460430Y-35845805D01*
X64653030Y-35935616D01*
X64858299Y-35990618D01*
X65009514Y-36003847D01*
X65069998Y-36009139D01*
X65070000Y-36009139D01*
X65070002Y-36009139D01*
X65123048Y-36004498D01*
X65281701Y-35990618D01*
X65486970Y-35935616D01*
X65679570Y-35845805D01*
X65853647Y-35723915D01*
X65950743Y-35626819D01*
X66012066Y-35593334D01*
X66038424Y-35590500D01*
X66717903Y-35590500D01*
X66784942Y-35610185D01*
X66830697Y-35662989D01*
X66840641Y-35732147D01*
X66811616Y-35795703D01*
X66796158Y-35810688D01*
X66663272Y-35918798D01*
X66663266Y-35918803D01*
X66461708Y-36134619D01*
X66291430Y-36375849D01*
X66291426Y-36375855D01*
X66155572Y-36638043D01*
X66056687Y-36916277D01*
X66056682Y-36916294D01*
X65996607Y-37205394D01*
X65996606Y-37205396D01*
X65976456Y-37500000D01*
X65996606Y-37794603D01*
X65996607Y-37794605D01*
X66056682Y-38083705D01*
X66056687Y-38083722D01*
X66155572Y-38361956D01*
X66291426Y-38624144D01*
X66291430Y-38624150D01*
X66461708Y-38865380D01*
X66461712Y-38865384D01*
X66461714Y-38865387D01*
X66625909Y-39041196D01*
X66663266Y-39081196D01*
X66666362Y-39084087D01*
X66665133Y-39085402D01*
X66700527Y-39136878D01*
X66702702Y-39206714D01*
X66666776Y-39266639D01*
X66604155Y-39297629D01*
X66582695Y-39299500D01*
X61341519Y-39299500D01*
X61274480Y-39279815D01*
X61253838Y-39263181D01*
X58806819Y-36816162D01*
X58773334Y-36754839D01*
X58770500Y-36728481D01*
X58770500Y-36122481D01*
X58790185Y-36055442D01*
X58842989Y-36009687D01*
X58881250Y-35999191D01*
X58891483Y-35998091D01*
X59026331Y-35947796D01*
X59141546Y-35861546D01*
X59227796Y-35746331D01*
X59278091Y-35611483D01*
X59284500Y-35551873D01*
X59284499Y-35464497D01*
X59304183Y-35397462D01*
X59356986Y-35351706D01*
X59426145Y-35341762D01*
X59489701Y-35370786D01*
X59510278Y-35395704D01*
X59511090Y-35395136D01*
X59636081Y-35573642D01*
X59636086Y-35573648D01*
X59786351Y-35723913D01*
X59786357Y-35723918D01*
X59960425Y-35845802D01*
X59960427Y-35845803D01*
X59960430Y-35845805D01*
X60153030Y-35935616D01*
X60358299Y-35990618D01*
X60509514Y-36003847D01*
X60569998Y-36009139D01*
X60570000Y-36009139D01*
X60570002Y-36009139D01*
X60623048Y-36004498D01*
X60781701Y-35990618D01*
X60986970Y-35935616D01*
X61179570Y-35845805D01*
X61353647Y-35723915D01*
X61482319Y-35595243D01*
X61543642Y-35561758D01*
X61613334Y-35566742D01*
X61657681Y-35595243D01*
X61786351Y-35723913D01*
X61786357Y-35723918D01*
X61960425Y-35845802D01*
X61960427Y-35845803D01*
X61960430Y-35845805D01*
X62153030Y-35935616D01*
X62358299Y-35990618D01*
X62509514Y-36003847D01*
X62569998Y-36009139D01*
X62570000Y-36009139D01*
X62570002Y-36009139D01*
X62623048Y-36004498D01*
X62781701Y-35990618D01*
X62986970Y-35935616D01*
X63179570Y-35845805D01*
X63353647Y-35723915D01*
X63503915Y-35573647D01*
X63625805Y-35399570D01*
X63707618Y-35224120D01*
X63753790Y-35171682D01*
X63820984Y-35152530D01*
X63887865Y-35172746D01*
G37*
%TD.AperFunction*%
%TA.AperFunction,Conductor*%
G36*
X78702695Y-735D02*
G01*
X78745519Y-4482D01*
X78871771Y-16918D01*
X78891685Y-20541D01*
X78958349Y-38403D01*
X79051570Y-66682D01*
X79067971Y-72958D01*
X79135411Y-104406D01*
X79138375Y-105888D01*
X79175969Y-125982D01*
X79222327Y-150762D01*
X79228667Y-154657D01*
X79294828Y-200983D01*
X79298600Y-203844D01*
X79370808Y-263103D01*
X79375309Y-267182D01*
X79432815Y-324688D01*
X79436895Y-329190D01*
X79496154Y-401398D01*
X79499015Y-405170D01*
X79545341Y-471331D01*
X79549236Y-477671D01*
X79594101Y-561605D01*
X79595614Y-564631D01*
X79627040Y-632027D01*
X79633319Y-648435D01*
X79661601Y-741669D01*
X79679454Y-808299D01*
X79683082Y-828238D01*
X79695523Y-954554D01*
X79699264Y-997302D01*
X79699500Y-1002710D01*
X79699500Y-39997289D01*
X79699264Y-40002697D01*
X79695523Y-40045445D01*
X79683082Y-40171760D01*
X79679454Y-40191699D01*
X79661601Y-40258330D01*
X79633318Y-40351563D01*
X79627040Y-40367971D01*
X79595614Y-40435367D01*
X79594101Y-40438393D01*
X79549236Y-40522327D01*
X79545341Y-40528667D01*
X79499015Y-40594828D01*
X79496154Y-40598600D01*
X79436895Y-40670808D01*
X79432806Y-40675320D01*
X79375320Y-40732806D01*
X79370808Y-40736895D01*
X79298600Y-40796154D01*
X79294828Y-40799015D01*
X79228667Y-40845341D01*
X79222327Y-40849236D01*
X79138393Y-40894101D01*
X79135367Y-40895614D01*
X79067971Y-40927040D01*
X79051563Y-40933318D01*
X78958330Y-40961601D01*
X78891699Y-40979454D01*
X78871760Y-40983082D01*
X78745445Y-40995523D01*
X78704789Y-40999080D01*
X78702696Y-40999264D01*
X78697290Y-40999500D01*
X1002710Y-40999500D01*
X997303Y-40999264D01*
X995015Y-40999063D01*
X954554Y-40995523D01*
X828238Y-40983082D01*
X808299Y-40979454D01*
X741669Y-40961601D01*
X648435Y-40933319D01*
X632027Y-40927040D01*
X583433Y-40904381D01*
X564618Y-40895607D01*
X561605Y-40894101D01*
X477671Y-40849236D01*
X471331Y-40845341D01*
X405170Y-40799015D01*
X401398Y-40796154D01*
X329190Y-40736895D01*
X324688Y-40732815D01*
X267182Y-40675309D01*
X263103Y-40670808D01*
X244580Y-40648238D01*
X220642Y-40619069D01*
X203844Y-40598600D01*
X200983Y-40594828D01*
X154657Y-40528667D01*
X150762Y-40522327D01*
X125982Y-40475969D01*
X105888Y-40438375D01*
X104406Y-40435411D01*
X72958Y-40367971D01*
X66682Y-40351570D01*
X38398Y-40258330D01*
X20541Y-40191685D01*
X16918Y-40171771D01*
X4482Y-40045519D01*
X735Y-40002695D01*
X500Y-39997293D01*
X500Y-36960001D01*
X7515204Y-36960001D01*
X7515399Y-36962486D01*
X7561218Y-37120198D01*
X7644814Y-37261552D01*
X7644821Y-37261561D01*
X7760938Y-37377678D01*
X7760947Y-37377685D01*
X7902303Y-37461282D01*
X7902306Y-37461283D01*
X8060004Y-37507099D01*
X8060010Y-37507100D01*
X8096856Y-37510000D01*
X8500000Y-37510000D01*
X8500000Y-36960000D01*
X9000000Y-36960000D01*
X9000000Y-37510000D01*
X9403144Y-37510000D01*
X9439989Y-37507100D01*
X9439995Y-37507099D01*
X9597693Y-37461283D01*
X9597696Y-37461282D01*
X9739052Y-37377685D01*
X9739061Y-37377678D01*
X9855178Y-37261561D01*
X9855185Y-37261552D01*
X9938781Y-37120198D01*
X9984600Y-36962486D01*
X9984795Y-36960001D01*
X9984795Y-36960000D01*
X9000000Y-36960000D01*
X8500000Y-36960000D01*
X7515205Y-36960000D01*
X7515204Y-36960001D01*
X500Y-36960001D01*
X500Y-36459998D01*
X7515204Y-36459998D01*
X7515205Y-36460000D01*
X8500000Y-36460000D01*
X8500000Y-35910000D01*
X8096856Y-35910000D01*
X8060010Y-35912899D01*
X8060004Y-35912900D01*
X7902306Y-35958716D01*
X7902303Y-35958717D01*
X7760947Y-36042314D01*
X7760938Y-36042321D01*
X7644821Y-36158438D01*
X7644814Y-36158447D01*
X7561218Y-36299801D01*
X7515399Y-36457513D01*
X7515204Y-36459998D01*
X500Y-36459998D01*
X500Y-32960000D01*
X7600001Y-32960000D01*
X7600001Y-33041582D01*
X7606408Y-33112102D01*
X7606409Y-33112107D01*
X7656981Y-33274396D01*
X7744927Y-33419877D01*
X7865122Y-33540072D01*
X8010604Y-33628019D01*
X8010603Y-33628019D01*
X8172894Y-33678590D01*
X8172893Y-33678590D01*
X8243408Y-33684998D01*
X8243426Y-33684999D01*
X8249999Y-33684998D01*
X8250000Y-33684998D01*
X8250000Y-32960000D01*
X7600001Y-32960000D01*
X500Y-32960000D01*
X500Y-32460000D01*
X7600000Y-32460000D01*
X8250000Y-32460000D01*
X8250000Y-31735000D01*
X8249999Y-31734999D01*
X8243436Y-31735000D01*
X8243417Y-31735001D01*
X8172897Y-31741408D01*
X8172892Y-31741409D01*
X8010603Y-31791981D01*
X7865122Y-31879927D01*
X7744927Y-32000122D01*
X7656980Y-32145604D01*
X7606409Y-32307893D01*
X7600000Y-32378427D01*
X7600000Y-32460000D01*
X500Y-32460000D01*
X500Y-30200001D01*
X6999500Y-30200001D01*
X6999501Y-30200018D01*
X7010000Y-30302796D01*
X7010001Y-30302799D01*
X7065185Y-30469331D01*
X7065186Y-30469334D01*
X7157288Y-30618656D01*
X7281344Y-30742712D01*
X7430666Y-30834814D01*
X7597203Y-30889999D01*
X7699991Y-30900500D01*
X9800008Y-30900499D01*
X9902797Y-30889999D01*
X10069334Y-30834814D01*
X10069340Y-30834810D01*
X10075883Y-30831760D01*
X10076538Y-30833166D01*
X10135783Y-30816953D01*
X10202447Y-30837873D01*
X10221173Y-30853251D01*
X11117932Y-31750010D01*
X11151417Y-31811333D01*
X11146433Y-31881025D01*
X11104561Y-31936958D01*
X11080690Y-31950968D01*
X11049348Y-31964924D01*
X11047266Y-31965851D01*
X11031144Y-31977564D01*
X10965336Y-32001041D01*
X10897283Y-31985213D01*
X10870582Y-31964924D01*
X10785188Y-31879530D01*
X10776040Y-31874000D01*
X10639606Y-31791522D01*
X10477196Y-31740914D01*
X10477194Y-31740913D01*
X10477192Y-31740913D01*
X10427778Y-31736423D01*
X10406616Y-31734500D01*
X9893384Y-31734500D01*
X9874145Y-31736248D01*
X9822807Y-31740913D01*
X9660393Y-31791522D01*
X9514811Y-31879530D01*
X9514810Y-31879531D01*
X9412327Y-31982015D01*
X9351004Y-32015500D01*
X9281312Y-32010516D01*
X9236965Y-31982015D01*
X9134877Y-31879927D01*
X8989395Y-31791980D01*
X8989396Y-31791980D01*
X8827105Y-31741409D01*
X8827106Y-31741409D01*
X8756572Y-31735000D01*
X8750000Y-31735000D01*
X8750000Y-33684999D01*
X8782523Y-33717522D01*
X8816008Y-33778845D01*
X8811024Y-33848537D01*
X8782524Y-33892883D01*
X8702229Y-33973180D01*
X8640907Y-34006666D01*
X8614547Y-34009500D01*
X8096804Y-34009500D01*
X8059932Y-34012401D01*
X8059926Y-34012402D01*
X7902106Y-34058254D01*
X7902103Y-34058255D01*
X7760637Y-34141917D01*
X7760629Y-34141923D01*
X7644423Y-34258129D01*
X7644417Y-34258137D01*
X7560755Y-34399603D01*
X7560754Y-34399606D01*
X7514902Y-34557426D01*
X7514901Y-34557432D01*
X7512000Y-34594304D01*
X7512000Y-35025696D01*
X7514901Y-35062567D01*
X7514902Y-35062573D01*
X7560754Y-35220393D01*
X7560755Y-35220396D01*
X7644417Y-35361862D01*
X7644423Y-35361870D01*
X7760629Y-35478076D01*
X7760633Y-35478079D01*
X7760635Y-35478081D01*
X7902102Y-35561744D01*
X7919305Y-35566742D01*
X8059926Y-35607597D01*
X8059929Y-35607597D01*
X8059931Y-35607598D01*
X8072222Y-35608565D01*
X8096804Y-35610500D01*
X8096806Y-35610500D01*
X9263000Y-35610500D01*
X9330039Y-35630185D01*
X9375794Y-35682989D01*
X9387000Y-35734500D01*
X9387000Y-35786000D01*
X9367315Y-35853039D01*
X9314511Y-35898794D01*
X9263000Y-35910000D01*
X9000000Y-35910000D01*
X9000000Y-36460000D01*
X9655685Y-36460000D01*
X9718806Y-36477268D01*
X9777102Y-36511744D01*
X9818724Y-36523836D01*
X9934926Y-36557597D01*
X9934929Y-36557597D01*
X9934931Y-36557598D01*
X9947222Y-36558565D01*
X9971804Y-36560500D01*
X11463247Y-36560500D01*
X11530286Y-36580185D01*
X11576041Y-36632989D01*
X11585985Y-36702147D01*
X11580087Y-36726025D01*
X11526687Y-36876277D01*
X11526682Y-36876294D01*
X11466607Y-37165394D01*
X11466606Y-37165396D01*
X11446456Y-37460000D01*
X11466606Y-37754603D01*
X11466607Y-37754605D01*
X11526682Y-38043705D01*
X11526687Y-38043722D01*
X11625572Y-38321956D01*
X11761426Y-38584144D01*
X11761430Y-38584150D01*
X11931708Y-38825380D01*
X11931712Y-38825384D01*
X11931714Y-38825387D01*
X11984192Y-38881577D01*
X12133266Y-39041196D01*
X12133272Y-39041201D01*
X12362320Y-39227545D01*
X12362324Y-39227548D01*
X12362326Y-39227549D01*
X12362327Y-39227550D01*
X12614629Y-39380979D01*
X12614631Y-39380980D01*
X12614633Y-39380981D01*
X12706718Y-39420979D01*
X12885473Y-39498623D01*
X13169814Y-39578292D01*
X13462352Y-39618499D01*
X13462353Y-39618500D01*
X13462355Y-39618500D01*
X13757647Y-39618500D01*
X13757647Y-39618499D01*
X14050186Y-39578292D01*
X14334527Y-39498623D01*
X14605371Y-39380979D01*
X14857673Y-39227550D01*
X15086734Y-39041196D01*
X15288286Y-38825387D01*
X15458574Y-38584143D01*
X15594427Y-38321958D01*
X15693314Y-38043717D01*
X15693315Y-38043710D01*
X15693317Y-38043705D01*
X15745080Y-37794605D01*
X15753393Y-37754603D01*
X15773544Y-37460000D01*
X24586456Y-37460000D01*
X24606606Y-37754603D01*
X24606607Y-37754605D01*
X24666682Y-38043705D01*
X24666687Y-38043722D01*
X24765572Y-38321956D01*
X24901426Y-38584144D01*
X24901430Y-38584150D01*
X25071708Y-38825380D01*
X25071712Y-38825384D01*
X25071714Y-38825387D01*
X25124192Y-38881577D01*
X25273266Y-39041196D01*
X25273272Y-39041201D01*
X25502320Y-39227545D01*
X25502324Y-39227548D01*
X25502326Y-39227549D01*
X25502327Y-39227550D01*
X25754629Y-39380979D01*
X25754631Y-39380980D01*
X25754633Y-39380981D01*
X25846718Y-39420979D01*
X26025473Y-39498623D01*
X26309814Y-39578292D01*
X26602352Y-39618499D01*
X26602353Y-39618500D01*
X26602355Y-39618500D01*
X26897647Y-39618500D01*
X26897647Y-39618499D01*
X27190186Y-39578292D01*
X27474527Y-39498623D01*
X27745371Y-39380979D01*
X27997673Y-39227550D01*
X28226734Y-39041196D01*
X28428286Y-38825387D01*
X28598574Y-38584143D01*
X28734427Y-38321958D01*
X28833314Y-38043717D01*
X28833315Y-38043710D01*
X28833317Y-38043705D01*
X28885080Y-37794605D01*
X28893393Y-37754603D01*
X28913544Y-37460000D01*
X28893393Y-37165397D01*
X28859493Y-37002262D01*
X28833317Y-36876294D01*
X28833312Y-36876277D01*
X28763792Y-36680668D01*
X28734427Y-36598042D01*
X28598574Y-36335857D01*
X28598573Y-36335855D01*
X28598569Y-36335849D01*
X28428291Y-36094619D01*
X28428287Y-36094615D01*
X28428286Y-36094613D01*
X28226734Y-35878804D01*
X28207590Y-35863229D01*
X27997679Y-35692454D01*
X27997675Y-35692451D01*
X27745366Y-35539018D01*
X27474528Y-35421377D01*
X27190191Y-35341709D01*
X27190183Y-35341707D01*
X26897647Y-35301500D01*
X26897645Y-35301500D01*
X26602355Y-35301500D01*
X26602353Y-35301500D01*
X26309816Y-35341707D01*
X26309808Y-35341709D01*
X26025471Y-35421377D01*
X25754633Y-35539018D01*
X25502324Y-35692451D01*
X25502320Y-35692454D01*
X25273272Y-35878798D01*
X25273266Y-35878803D01*
X25071708Y-36094619D01*
X24901430Y-36335849D01*
X24901426Y-36335855D01*
X24765572Y-36598043D01*
X24666687Y-36876277D01*
X24666682Y-36876294D01*
X24606607Y-37165394D01*
X24606606Y-37165396D01*
X24586456Y-37460000D01*
X15773544Y-37460000D01*
X15771636Y-37432116D01*
X15786699Y-37363893D01*
X15836256Y-37314640D01*
X15904574Y-37299999D01*
X15909239Y-37300436D01*
X15909805Y-37300499D01*
X15909806Y-37300500D01*
X15909807Y-37300500D01*
X22020194Y-37300500D01*
X22060905Y-37291208D01*
X22067760Y-37290043D01*
X22109255Y-37285368D01*
X22148680Y-37271571D01*
X22155321Y-37269658D01*
X22196061Y-37260360D01*
X22233693Y-37242236D01*
X22240105Y-37239580D01*
X22279522Y-37225789D01*
X22314889Y-37203565D01*
X22320961Y-37200209D01*
X22358587Y-37182091D01*
X22391236Y-37156052D01*
X22396895Y-37152037D01*
X22432262Y-37129816D01*
X22559816Y-37002262D01*
X23559057Y-36003019D01*
X23620378Y-35969536D01*
X23657541Y-35967174D01*
X23680000Y-35969139D01*
X23680000Y-35969138D01*
X23680001Y-35969139D01*
X23680002Y-35969139D01*
X23732925Y-35964508D01*
X23891701Y-35950618D01*
X24096970Y-35895616D01*
X24289570Y-35805805D01*
X24463647Y-35683915D01*
X24613915Y-35533647D01*
X24735805Y-35359570D01*
X24825616Y-35166970D01*
X24880618Y-34961701D01*
X24899139Y-34750000D01*
X24894808Y-34700500D01*
X24890169Y-34647471D01*
X24880618Y-34538299D01*
X24836862Y-34375000D01*
X28750000Y-34375000D01*
X28750000Y-34778144D01*
X28752899Y-34814989D01*
X28752900Y-34814995D01*
X28798716Y-34972693D01*
X28798717Y-34972696D01*
X28882314Y-35114052D01*
X28882321Y-35114061D01*
X28998438Y-35230178D01*
X28998447Y-35230185D01*
X29139801Y-35313781D01*
X29297514Y-35359600D01*
X29297511Y-35359600D01*
X29299998Y-35359795D01*
X29300000Y-35359795D01*
X29300000Y-34375000D01*
X28750000Y-34375000D01*
X24836862Y-34375000D01*
X24825616Y-34333030D01*
X24735805Y-34140431D01*
X24629162Y-33988128D01*
X24613916Y-33966354D01*
X24540445Y-33892883D01*
X24522562Y-33875000D01*
X28750000Y-33875000D01*
X29300000Y-33875000D01*
X29300000Y-32971500D01*
X29319685Y-32904461D01*
X29372489Y-32858706D01*
X29424000Y-32847500D01*
X29500000Y-32847500D01*
X29500000Y-32250000D01*
X28850001Y-32250000D01*
X28850001Y-32331582D01*
X28856408Y-32402102D01*
X28856409Y-32402107D01*
X28906981Y-32564396D01*
X28994926Y-32709875D01*
X29077956Y-32792904D01*
X29111441Y-32854227D01*
X29106457Y-32923919D01*
X29064586Y-32979853D01*
X29053396Y-32987318D01*
X28998447Y-33019814D01*
X28998438Y-33019821D01*
X28882321Y-33135938D01*
X28882314Y-33135947D01*
X28798717Y-33277303D01*
X28798716Y-33277306D01*
X28752900Y-33435004D01*
X28752899Y-33435010D01*
X28750000Y-33471856D01*
X28750000Y-33875000D01*
X24522562Y-33875000D01*
X24463647Y-33816085D01*
X24463643Y-33816082D01*
X24463642Y-33816081D01*
X24289574Y-33694197D01*
X24289570Y-33694195D01*
X24256105Y-33678590D01*
X24096970Y-33604384D01*
X24096966Y-33604383D01*
X24096962Y-33604381D01*
X23891705Y-33549383D01*
X23891703Y-33549382D01*
X23891701Y-33549382D01*
X23891699Y-33549381D01*
X23891695Y-33549381D01*
X23680002Y-33530861D01*
X23679998Y-33530861D01*
X23468304Y-33549381D01*
X23468294Y-33549383D01*
X23263037Y-33604381D01*
X23263030Y-33604383D01*
X23263030Y-33604384D01*
X23252842Y-33609135D01*
X23070433Y-33694193D01*
X22896350Y-33816086D01*
X22746086Y-33966350D01*
X22624193Y-34140433D01*
X22542382Y-34315878D01*
X22496210Y-34368317D01*
X22429016Y-34387469D01*
X22362135Y-34367253D01*
X22317618Y-34315878D01*
X22235806Y-34140433D01*
X22219440Y-34117060D01*
X22129162Y-33988128D01*
X22113916Y-33966354D01*
X22040445Y-33892883D01*
X21963647Y-33816085D01*
X21963643Y-33816082D01*
X21963642Y-33816081D01*
X21789574Y-33694197D01*
X21789570Y-33694195D01*
X21756105Y-33678590D01*
X21596970Y-33604384D01*
X21596966Y-33604383D01*
X21596962Y-33604381D01*
X21391705Y-33549383D01*
X21391703Y-33549382D01*
X21391701Y-33549382D01*
X21391699Y-33549381D01*
X21391695Y-33549381D01*
X21180002Y-33530861D01*
X21179998Y-33530861D01*
X20968304Y-33549381D01*
X20968294Y-33549383D01*
X20763037Y-33604381D01*
X20763030Y-33604383D01*
X20763030Y-33604384D01*
X20752842Y-33609135D01*
X20570433Y-33694193D01*
X20396354Y-33816083D01*
X20267680Y-33944757D01*
X20206357Y-33978241D01*
X20136665Y-33973257D01*
X20092318Y-33944756D01*
X19963648Y-33816086D01*
X19963642Y-33816081D01*
X19789574Y-33694197D01*
X19789570Y-33694195D01*
X19756105Y-33678590D01*
X19596970Y-33604384D01*
X19596966Y-33604383D01*
X19596962Y-33604381D01*
X19391705Y-33549383D01*
X19391703Y-33549382D01*
X19391701Y-33549382D01*
X19391699Y-33549381D01*
X19391695Y-33549381D01*
X19180002Y-33530861D01*
X19179998Y-33530861D01*
X18968304Y-33549381D01*
X18968294Y-33549383D01*
X18763037Y-33604381D01*
X18763030Y-33604383D01*
X18763030Y-33604384D01*
X18752842Y-33609135D01*
X18570433Y-33694193D01*
X18396350Y-33816086D01*
X18246086Y-33966350D01*
X18162558Y-34085642D01*
X18140560Y-34117060D01*
X18121090Y-34144866D01*
X18119406Y-34143686D01*
X18075298Y-34185728D01*
X18006689Y-34198938D01*
X17941829Y-34172958D01*
X17901311Y-34116036D01*
X17894499Y-34075502D01*
X17894499Y-33988129D01*
X17894498Y-33988123D01*
X17894136Y-33984757D01*
X17888091Y-33928517D01*
X17881485Y-33910806D01*
X17837797Y-33793671D01*
X17837793Y-33793664D01*
X17751547Y-33678455D01*
X17751544Y-33678452D01*
X17636335Y-33592206D01*
X17636328Y-33592202D01*
X17501482Y-33541908D01*
X17501483Y-33541908D01*
X17441883Y-33535501D01*
X17441881Y-33535500D01*
X17441873Y-33535500D01*
X17441865Y-33535500D01*
X16507519Y-33535500D01*
X16440480Y-33515815D01*
X16419838Y-33499181D01*
X13975741Y-31055084D01*
X13942256Y-30993761D01*
X13947240Y-30924069D01*
X13989112Y-30868136D01*
X14024416Y-30849698D01*
X14069334Y-30834814D01*
X14218656Y-30742712D01*
X14342712Y-30618656D01*
X14434814Y-30469334D01*
X14489999Y-30302797D01*
X14500500Y-30200009D01*
X14500499Y-28799992D01*
X14489999Y-28697203D01*
X14434814Y-28530666D01*
X14342712Y-28381344D01*
X14218656Y-28257288D01*
X14069334Y-28165186D01*
X13902797Y-28110001D01*
X13902795Y-28110000D01*
X13800010Y-28099500D01*
X11699998Y-28099500D01*
X11699981Y-28099501D01*
X11597203Y-28110000D01*
X11597200Y-28110001D01*
X11430668Y-28165185D01*
X11430663Y-28165187D01*
X11281342Y-28257289D01*
X11157289Y-28381342D01*
X11065187Y-28530663D01*
X11065186Y-28530666D01*
X11010001Y-28697203D01*
X11010001Y-28697204D01*
X11010000Y-28697204D01*
X10999500Y-28799983D01*
X10999500Y-29068060D01*
X10979815Y-29135099D01*
X10927011Y-29180854D01*
X10857853Y-29190798D01*
X10794297Y-29161773D01*
X10787819Y-29155741D01*
X10536818Y-28904740D01*
X10503333Y-28843417D01*
X10500499Y-28817059D01*
X10500499Y-28799998D01*
X10500498Y-28799981D01*
X10489999Y-28697203D01*
X10489998Y-28697200D01*
X10434814Y-28530666D01*
X10342712Y-28381344D01*
X10218656Y-28257288D01*
X10069334Y-28165186D01*
X9902797Y-28110001D01*
X9902795Y-28110000D01*
X9800010Y-28099500D01*
X7699998Y-28099500D01*
X7699981Y-28099501D01*
X7597203Y-28110000D01*
X7597200Y-28110001D01*
X7430668Y-28165185D01*
X7430663Y-28165187D01*
X7281342Y-28257289D01*
X7157289Y-28381342D01*
X7065187Y-28530663D01*
X7065186Y-28530666D01*
X7010001Y-28697203D01*
X7010001Y-28697204D01*
X7010000Y-28697204D01*
X6999500Y-28799983D01*
X6999500Y-30200001D01*
X500Y-30200001D01*
X500Y-19581616D01*
X6524500Y-19581616D01*
X6525478Y-19592374D01*
X6530913Y-19652192D01*
X6530913Y-19652194D01*
X6530914Y-19652196D01*
X6567631Y-19770027D01*
X6581522Y-19814606D01*
X6669530Y-19960188D01*
X6789811Y-20080469D01*
X6789813Y-20080470D01*
X6789815Y-20080472D01*
X6814650Y-20095485D01*
X6861837Y-20147010D01*
X6874500Y-20201601D01*
X6874500Y-20667255D01*
X6872775Y-20682872D01*
X6873061Y-20682899D01*
X6872326Y-20690665D01*
X6874500Y-20759814D01*
X6874500Y-20789343D01*
X6874501Y-20789360D01*
X6875368Y-20796231D01*
X6875826Y-20802050D01*
X6877290Y-20848624D01*
X6877291Y-20848627D01*
X6882880Y-20867867D01*
X6886824Y-20886911D01*
X6889336Y-20906792D01*
X6906490Y-20950119D01*
X6908382Y-20955647D01*
X6921332Y-21000221D01*
X6921382Y-21000390D01*
X6922158Y-21001703D01*
X6931580Y-21017634D01*
X6940136Y-21035100D01*
X6947514Y-21053732D01*
X6961604Y-21073126D01*
X6974898Y-21091423D01*
X6978106Y-21096307D01*
X7001827Y-21136416D01*
X7001833Y-21136424D01*
X7015990Y-21150580D01*
X7028628Y-21165376D01*
X7040405Y-21181586D01*
X7040406Y-21181587D01*
X7076309Y-21211288D01*
X7080620Y-21215210D01*
X7957910Y-22092501D01*
X8249197Y-22383788D01*
X8259022Y-22396051D01*
X8259243Y-22395869D01*
X8264214Y-22401878D01*
X8290217Y-22426295D01*
X8314635Y-22449226D01*
X8335529Y-22470120D01*
X8341011Y-22474373D01*
X8345443Y-22478157D01*
X8379418Y-22510062D01*
X8396976Y-22519714D01*
X8413233Y-22530393D01*
X8429064Y-22542673D01*
X8448737Y-22551186D01*
X8471833Y-22561182D01*
X8477077Y-22563750D01*
X8517908Y-22586197D01*
X8530523Y-22589435D01*
X8537305Y-22591177D01*
X8555719Y-22597481D01*
X8574104Y-22605438D01*
X8620157Y-22612732D01*
X8625826Y-22613906D01*
X8670981Y-22625500D01*
X8691016Y-22625500D01*
X8710413Y-22627026D01*
X8730196Y-22630160D01*
X8776584Y-22625775D01*
X8782422Y-22625500D01*
X8858480Y-22625500D01*
X8925519Y-22645185D01*
X8946161Y-22661819D01*
X9039811Y-22755469D01*
X9039813Y-22755470D01*
X9039815Y-22755472D01*
X9064650Y-22770485D01*
X9111837Y-22822010D01*
X9124500Y-22876601D01*
X9124500Y-23917255D01*
X9122775Y-23932872D01*
X9123061Y-23932899D01*
X9122326Y-23940665D01*
X9124500Y-24009814D01*
X9124500Y-24039343D01*
X9124501Y-24039360D01*
X9125368Y-24046231D01*
X9125826Y-24052050D01*
X9127290Y-24098624D01*
X9127291Y-24098627D01*
X9132880Y-24117867D01*
X9136824Y-24136911D01*
X9139336Y-24156792D01*
X9156490Y-24200119D01*
X9158382Y-24205647D01*
X9171381Y-24250388D01*
X9181580Y-24267634D01*
X9190138Y-24285103D01*
X9197514Y-24303732D01*
X9224898Y-24341423D01*
X9228106Y-24346307D01*
X9251827Y-24386416D01*
X9251833Y-24386424D01*
X9265990Y-24400580D01*
X9278627Y-24415375D01*
X9290406Y-24431587D01*
X9315463Y-24452316D01*
X9326309Y-24461288D01*
X9330620Y-24465210D01*
X10300802Y-25435393D01*
X10599397Y-25733988D01*
X10609222Y-25746251D01*
X10609443Y-25746069D01*
X10614414Y-25752078D01*
X10629369Y-25766121D01*
X10664835Y-25799426D01*
X10685729Y-25820320D01*
X10691211Y-25824573D01*
X10695643Y-25828357D01*
X10729618Y-25860262D01*
X10747176Y-25869914D01*
X10763435Y-25880595D01*
X10779264Y-25892873D01*
X10822038Y-25911382D01*
X10827256Y-25913938D01*
X10868108Y-25936397D01*
X10887516Y-25941380D01*
X10905917Y-25947680D01*
X10924304Y-25955637D01*
X10967688Y-25962508D01*
X10970319Y-25962925D01*
X10976039Y-25964109D01*
X11021181Y-25975700D01*
X11041216Y-25975700D01*
X11060614Y-25977226D01*
X11080394Y-25980359D01*
X11080395Y-25980360D01*
X11080395Y-25980359D01*
X11080396Y-25980360D01*
X11126784Y-25975975D01*
X11132622Y-25975700D01*
X11297501Y-25975700D01*
X11364540Y-25995385D01*
X11410295Y-26048189D01*
X11421501Y-26099700D01*
X11421501Y-26248076D01*
X11427908Y-26307683D01*
X11478202Y-26442528D01*
X11478206Y-26442535D01*
X11564452Y-26557744D01*
X11564455Y-26557747D01*
X11679664Y-26643993D01*
X11679671Y-26643997D01*
X11814517Y-26694291D01*
X11814516Y-26694291D01*
X11821444Y-26695035D01*
X11874127Y-26700700D01*
X13669872Y-26700699D01*
X13729483Y-26694291D01*
X13864331Y-26643996D01*
X13979546Y-26557746D01*
X14065796Y-26442531D01*
X14116091Y-26307683D01*
X14122500Y-26248073D01*
X14122500Y-26174700D01*
X14142185Y-26107661D01*
X14194989Y-26061906D01*
X14246500Y-26050700D01*
X30242044Y-26050700D01*
X30309083Y-26070385D01*
X30314929Y-26074382D01*
X30397465Y-26134348D01*
X30397470Y-26134351D01*
X30487467Y-26174421D01*
X30540704Y-26219671D01*
X30561025Y-26286520D01*
X30541979Y-26353744D01*
X30489613Y-26399999D01*
X30437031Y-26411700D01*
X29963129Y-26411700D01*
X29963123Y-26411701D01*
X29903516Y-26418108D01*
X29768671Y-26468402D01*
X29768669Y-26468403D01*
X29665311Y-26545778D01*
X29599847Y-26570195D01*
X29531574Y-26555344D01*
X29516689Y-26545778D01*
X29413330Y-26468403D01*
X29413328Y-26468402D01*
X29278482Y-26418108D01*
X29278483Y-26418108D01*
X29218883Y-26411701D01*
X29218881Y-26411700D01*
X29218873Y-26411700D01*
X29218865Y-26411700D01*
X28382677Y-26411700D01*
X28377275Y-26411464D01*
X28346849Y-26408802D01*
X28321002Y-26406541D01*
X28320999Y-26406541D01*
X28303750Y-26408049D01*
X28264722Y-26411464D01*
X28259322Y-26411700D01*
X27423129Y-26411700D01*
X27423123Y-26411701D01*
X27363516Y-26418108D01*
X27228671Y-26468402D01*
X27228669Y-26468403D01*
X27125311Y-26545778D01*
X27059847Y-26570195D01*
X26991574Y-26555344D01*
X26976689Y-26545778D01*
X26873330Y-26468403D01*
X26873328Y-26468402D01*
X26738482Y-26418108D01*
X26738483Y-26418108D01*
X26678883Y-26411701D01*
X26678881Y-26411700D01*
X26678873Y-26411700D01*
X26678865Y-26411700D01*
X25842677Y-26411700D01*
X25837275Y-26411464D01*
X25806849Y-26408802D01*
X25781002Y-26406541D01*
X25780999Y-26406541D01*
X25763750Y-26408049D01*
X25724722Y-26411464D01*
X25719322Y-26411700D01*
X24883129Y-26411700D01*
X24883123Y-26411701D01*
X24823516Y-26418108D01*
X24688671Y-26468402D01*
X24688669Y-26468404D01*
X24584894Y-26546090D01*
X24519430Y-26570507D01*
X24451157Y-26555656D01*
X24436272Y-26546090D01*
X24333088Y-26468846D01*
X24333086Y-26468845D01*
X24198379Y-26418603D01*
X24198372Y-26418601D01*
X24138844Y-26412200D01*
X23491000Y-26412200D01*
X23491000Y-27315705D01*
X23386161Y-27267827D01*
X23277473Y-27252200D01*
X23204527Y-27252200D01*
X23095839Y-27267827D01*
X22991000Y-27315705D01*
X22991000Y-26412200D01*
X22343155Y-26412200D01*
X22283627Y-26418601D01*
X22283620Y-26418603D01*
X22148913Y-26468845D01*
X22148910Y-26468847D01*
X22045727Y-26546090D01*
X21980262Y-26570507D01*
X21911989Y-26555655D01*
X21897105Y-26546089D01*
X21793335Y-26468406D01*
X21793328Y-26468402D01*
X21658482Y-26418108D01*
X21658483Y-26418108D01*
X21598883Y-26411701D01*
X21598881Y-26411700D01*
X21598873Y-26411700D01*
X21598865Y-26411700D01*
X20762677Y-26411700D01*
X20757275Y-26411464D01*
X20726849Y-26408802D01*
X20701002Y-26406541D01*
X20700999Y-26406541D01*
X20683750Y-26408049D01*
X20644722Y-26411464D01*
X20639322Y-26411700D01*
X19803129Y-26411700D01*
X19803123Y-26411701D01*
X19743516Y-26418108D01*
X19608671Y-26468402D01*
X19608669Y-26468403D01*
X19505311Y-26545778D01*
X19439847Y-26570195D01*
X19371574Y-26555344D01*
X19356689Y-26545778D01*
X19253330Y-26468403D01*
X19253328Y-26468402D01*
X19118482Y-26418108D01*
X19118483Y-26418108D01*
X19058883Y-26411701D01*
X19058881Y-26411700D01*
X19058873Y-26411700D01*
X19058865Y-26411700D01*
X18222677Y-26411700D01*
X18217275Y-26411464D01*
X18186849Y-26408802D01*
X18161002Y-26406541D01*
X18160999Y-26406541D01*
X18143750Y-26408049D01*
X18104722Y-26411464D01*
X18099322Y-26411700D01*
X17263129Y-26411700D01*
X17263123Y-26411701D01*
X17203516Y-26418108D01*
X17068671Y-26468402D01*
X17068664Y-26468406D01*
X16953455Y-26554652D01*
X16953452Y-26554655D01*
X16867206Y-26669864D01*
X16867202Y-26669871D01*
X16816908Y-26804717D01*
X16810501Y-26864316D01*
X16810501Y-26864323D01*
X16810500Y-26864335D01*
X16810500Y-27700524D01*
X16810264Y-27705927D01*
X16805341Y-27762200D01*
X16809516Y-27809926D01*
X16810264Y-27818469D01*
X16810500Y-27823875D01*
X16810500Y-30460070D01*
X16810501Y-30460076D01*
X16816908Y-30519683D01*
X16867202Y-30654528D01*
X16867206Y-30654535D01*
X16953452Y-30769744D01*
X16953455Y-30769747D01*
X17068664Y-30855993D01*
X17068671Y-30855997D01*
X17203517Y-30906291D01*
X17203516Y-30906291D01*
X17210444Y-30907035D01*
X17263127Y-30912700D01*
X19058872Y-30912699D01*
X19118483Y-30906291D01*
X19253331Y-30855996D01*
X19356690Y-30778621D01*
X19422152Y-30754204D01*
X19490425Y-30769055D01*
X19505303Y-30778616D01*
X19608076Y-30855552D01*
X19608668Y-30855995D01*
X19608671Y-30855997D01*
X19743517Y-30906291D01*
X19743516Y-30906291D01*
X19750444Y-30907035D01*
X19803127Y-30912700D01*
X21598872Y-30912699D01*
X21658483Y-30906291D01*
X21793331Y-30855996D01*
X21897106Y-30778309D01*
X21962570Y-30753892D01*
X22030843Y-30768743D01*
X22045729Y-30778310D01*
X22148910Y-30855552D01*
X22148913Y-30855554D01*
X22283620Y-30905796D01*
X22283627Y-30905798D01*
X22343155Y-30912199D01*
X22343172Y-30912200D01*
X22991000Y-30912200D01*
X22991000Y-28208694D01*
X23095839Y-28256573D01*
X23204527Y-28272200D01*
X23277473Y-28272200D01*
X23386161Y-28256573D01*
X23491000Y-28208694D01*
X23491000Y-30912200D01*
X24138828Y-30912200D01*
X24138844Y-30912199D01*
X24198372Y-30905798D01*
X24198379Y-30905796D01*
X24333086Y-30855554D01*
X24333089Y-30855552D01*
X24436271Y-30778310D01*
X24501735Y-30753892D01*
X24570008Y-30768743D01*
X24584888Y-30778305D01*
X24688076Y-30855552D01*
X24688668Y-30855995D01*
X24688671Y-30855997D01*
X24823517Y-30906291D01*
X24823516Y-30906291D01*
X24830444Y-30907035D01*
X24883127Y-30912700D01*
X26678872Y-30912699D01*
X26738483Y-30906291D01*
X26873331Y-30855996D01*
X26976690Y-30778621D01*
X27042152Y-30754204D01*
X27110425Y-30769055D01*
X27125303Y-30778616D01*
X27228076Y-30855552D01*
X27228668Y-30855995D01*
X27228671Y-30855997D01*
X27363517Y-30906291D01*
X27363516Y-30906291D01*
X27370444Y-30907035D01*
X27423127Y-30912700D01*
X28925547Y-30912699D01*
X28992586Y-30932384D01*
X29013228Y-30949018D01*
X29086949Y-31022739D01*
X29120434Y-31084062D01*
X29115450Y-31153754D01*
X29086949Y-31198101D01*
X28994928Y-31290121D01*
X28994927Y-31290122D01*
X28906980Y-31435604D01*
X28856409Y-31597893D01*
X28850000Y-31668427D01*
X28850000Y-31750000D01*
X29876000Y-31750000D01*
X29943039Y-31769685D01*
X29988794Y-31822489D01*
X30000000Y-31874000D01*
X30000000Y-32891000D01*
X29980315Y-32958039D01*
X29927511Y-33003794D01*
X29876000Y-33015000D01*
X29800000Y-33015000D01*
X29800000Y-33875000D01*
X30350000Y-33875000D01*
X30350000Y-33471856D01*
X30347100Y-33435010D01*
X30347099Y-33435004D01*
X30301283Y-33277306D01*
X30301282Y-33277303D01*
X30217685Y-33135947D01*
X30217678Y-33135938D01*
X30201164Y-33119424D01*
X30167679Y-33058101D01*
X30172663Y-32988409D01*
X30214535Y-32932476D01*
X30237963Y-32918663D01*
X30239403Y-32918014D01*
X30384877Y-32830072D01*
X30384878Y-32830071D01*
X30486963Y-32727985D01*
X30548286Y-32694499D01*
X30617977Y-32699483D01*
X30662326Y-32727983D01*
X30738182Y-32803839D01*
X30771666Y-32865160D01*
X30774500Y-32891519D01*
X30774500Y-33114256D01*
X30757233Y-33177376D01*
X30698254Y-33277105D01*
X30698254Y-33277106D01*
X30652402Y-33434926D01*
X30652401Y-33434932D01*
X30649500Y-33471804D01*
X30649500Y-34638000D01*
X30629815Y-34705039D01*
X30577011Y-34750794D01*
X30525500Y-34762000D01*
X30474000Y-34762000D01*
X30406961Y-34742315D01*
X30361206Y-34689511D01*
X30350000Y-34638000D01*
X30350000Y-34375000D01*
X29800000Y-34375000D01*
X29800000Y-35030684D01*
X29782733Y-35093804D01*
X29748254Y-35152105D01*
X29748254Y-35152106D01*
X29702402Y-35309926D01*
X29702401Y-35309932D01*
X29699500Y-35346804D01*
X29699500Y-36653196D01*
X29702401Y-36690067D01*
X29702402Y-36690073D01*
X29748254Y-36847893D01*
X29748255Y-36847896D01*
X29748256Y-36847898D01*
X29765049Y-36876294D01*
X29782232Y-36905348D01*
X29799500Y-36968469D01*
X29799500Y-38226951D01*
X29799387Y-38230696D01*
X29795642Y-38292606D01*
X29796997Y-38299998D01*
X29806821Y-38353612D01*
X29807384Y-38357313D01*
X29814859Y-38418870D01*
X29814860Y-38418874D01*
X29818451Y-38428343D01*
X29824474Y-38449946D01*
X29826304Y-38459930D01*
X29851759Y-38516490D01*
X29853189Y-38519941D01*
X29875182Y-38577930D01*
X29875183Y-38577931D01*
X29880936Y-38586266D01*
X29891961Y-38605813D01*
X29896120Y-38615055D01*
X29896124Y-38615060D01*
X29934371Y-38663878D01*
X29936591Y-38666896D01*
X29971812Y-38717924D01*
X29971816Y-38717928D01*
X29971817Y-38717929D01*
X30018250Y-38759064D01*
X30020941Y-38761598D01*
X31738399Y-40479056D01*
X31740935Y-40481750D01*
X31782071Y-40528183D01*
X31833130Y-40563427D01*
X31836112Y-40565621D01*
X31884943Y-40603877D01*
X31884947Y-40603880D01*
X31884946Y-40603880D01*
X31894177Y-40608034D01*
X31913731Y-40619062D01*
X31922066Y-40624816D01*
X31922068Y-40624816D01*
X31922070Y-40624818D01*
X31980079Y-40646817D01*
X31983476Y-40648224D01*
X32030770Y-40669509D01*
X32040064Y-40673693D01*
X32040065Y-40673693D01*
X32040069Y-40673695D01*
X32048937Y-40675320D01*
X32050034Y-40675521D01*
X32071656Y-40681548D01*
X32071667Y-40681552D01*
X32081128Y-40685140D01*
X32126251Y-40690618D01*
X32142674Y-40692613D01*
X32146371Y-40693175D01*
X32207394Y-40704358D01*
X32262752Y-40701009D01*
X32269303Y-40700613D01*
X32273048Y-40700500D01*
X39086952Y-40700500D01*
X39090697Y-40700613D01*
X39098042Y-40701057D01*
X39152606Y-40704358D01*
X39190314Y-40697447D01*
X39213621Y-40693177D01*
X39217325Y-40692613D01*
X39235170Y-40690446D01*
X39278872Y-40685140D01*
X39288335Y-40681550D01*
X39309961Y-40675522D01*
X39311063Y-40675320D01*
X39319932Y-40673695D01*
X39376512Y-40648229D01*
X39379942Y-40646809D01*
X39437930Y-40624818D01*
X39446266Y-40619062D01*
X39465821Y-40608034D01*
X39475057Y-40603878D01*
X39523896Y-40565613D01*
X39526876Y-40563421D01*
X39577929Y-40528183D01*
X39619065Y-40481748D01*
X39621599Y-40479056D01*
X44069014Y-36031641D01*
X44130335Y-35998158D01*
X44167496Y-35995796D01*
X44302413Y-36007600D01*
X44319999Y-36009139D01*
X44320000Y-36009139D01*
X44320002Y-36009139D01*
X44373048Y-36004498D01*
X44531701Y-35990618D01*
X44736970Y-35935616D01*
X44929570Y-35845805D01*
X45103647Y-35723915D01*
X45253915Y-35573647D01*
X45275110Y-35543377D01*
X45329685Y-35499752D01*
X45376685Y-35490500D01*
X46097635Y-35490500D01*
X46164674Y-35510185D01*
X46210429Y-35562989D01*
X46220373Y-35632147D01*
X46191348Y-35695703D01*
X46162063Y-35720448D01*
X46142330Y-35732447D01*
X46142320Y-35732454D01*
X45913272Y-35918798D01*
X45913266Y-35918803D01*
X45711708Y-36134619D01*
X45541430Y-36375849D01*
X45541426Y-36375855D01*
X45405572Y-36638043D01*
X45306687Y-36916277D01*
X45306682Y-36916294D01*
X45246607Y-37205394D01*
X45246606Y-37205396D01*
X45226456Y-37500000D01*
X45246606Y-37794603D01*
X45246607Y-37794605D01*
X45306682Y-38083705D01*
X45306687Y-38083722D01*
X45405572Y-38361956D01*
X45541426Y-38624144D01*
X45541430Y-38624150D01*
X45711708Y-38865380D01*
X45711712Y-38865384D01*
X45711714Y-38865387D01*
X45875909Y-39041196D01*
X45913266Y-39081196D01*
X45913272Y-39081201D01*
X46142320Y-39267545D01*
X46142324Y-39267548D01*
X46142326Y-39267549D01*
X46142327Y-39267550D01*
X46394629Y-39420979D01*
X46394631Y-39420980D01*
X46394633Y-39420981D01*
X46504395Y-39468657D01*
X46665473Y-39538623D01*
X46949814Y-39618292D01*
X47242352Y-39658499D01*
X47242353Y-39658500D01*
X47242355Y-39658500D01*
X47537647Y-39658500D01*
X47537647Y-39658499D01*
X47830186Y-39618292D01*
X48114527Y-39538623D01*
X48385371Y-39420979D01*
X48637673Y-39267550D01*
X48866734Y-39081196D01*
X49068286Y-38865387D01*
X49238574Y-38624143D01*
X49374427Y-38361958D01*
X49473314Y-38083717D01*
X49473316Y-38083708D01*
X49473317Y-38083705D01*
X49509729Y-37908481D01*
X49533393Y-37794603D01*
X49548114Y-37579380D01*
X49572327Y-37513841D01*
X49628131Y-37471796D01*
X49697806Y-37466595D01*
X49759233Y-37499890D01*
X49759506Y-37500162D01*
X49813181Y-37553837D01*
X49846666Y-37615160D01*
X49849500Y-37641518D01*
X49849500Y-39050001D01*
X49849501Y-39050018D01*
X49860000Y-39152796D01*
X49860001Y-39152799D01*
X49907994Y-39297629D01*
X49915186Y-39319334D01*
X50007288Y-39468656D01*
X50131344Y-39592712D01*
X50280666Y-39684814D01*
X50447203Y-39739999D01*
X50549991Y-39750500D01*
X51950008Y-39750499D01*
X52052797Y-39739999D01*
X52219334Y-39684814D01*
X52368656Y-39592712D01*
X52492712Y-39468656D01*
X52584814Y-39319334D01*
X52639999Y-39152797D01*
X52650500Y-39050009D01*
X52650499Y-38008945D01*
X52670183Y-37941908D01*
X52722987Y-37896153D01*
X52792146Y-37886209D01*
X52855702Y-37915234D01*
X52893476Y-37974012D01*
X52895905Y-37983718D01*
X52916683Y-38083708D01*
X52916687Y-38083722D01*
X53015572Y-38361956D01*
X53151426Y-38624144D01*
X53151430Y-38624150D01*
X53321708Y-38865380D01*
X53321712Y-38865384D01*
X53321714Y-38865387D01*
X53485909Y-39041196D01*
X53523266Y-39081196D01*
X53523272Y-39081201D01*
X53752320Y-39267545D01*
X53752324Y-39267548D01*
X53752326Y-39267549D01*
X53752327Y-39267550D01*
X54004629Y-39420979D01*
X54004631Y-39420980D01*
X54004633Y-39420981D01*
X54114395Y-39468657D01*
X54275473Y-39538623D01*
X54559814Y-39618292D01*
X54852352Y-39658499D01*
X54852353Y-39658500D01*
X54852355Y-39658500D01*
X55147647Y-39658500D01*
X55147647Y-39658499D01*
X55440186Y-39618292D01*
X55724527Y-39538623D01*
X55995371Y-39420979D01*
X56247673Y-39267550D01*
X56476734Y-39081196D01*
X56678286Y-38865387D01*
X56848574Y-38624143D01*
X56984427Y-38361958D01*
X57083314Y-38083717D01*
X57083316Y-38083708D01*
X57083317Y-38083705D01*
X57119729Y-37908481D01*
X57143393Y-37794603D01*
X57163544Y-37500000D01*
X57150583Y-37310515D01*
X57165647Y-37242289D01*
X57212296Y-37195928D01*
X57156805Y-37166412D01*
X57122651Y-37105459D01*
X57122140Y-37103126D01*
X57083314Y-36916283D01*
X56984427Y-36638042D01*
X56848574Y-36375857D01*
X56848573Y-36375855D01*
X56848569Y-36375849D01*
X56678291Y-36134619D01*
X56678287Y-36134615D01*
X56678286Y-36134613D01*
X56476734Y-35918804D01*
X56469476Y-35912899D01*
X56247679Y-35732454D01*
X56247675Y-35732451D01*
X55995366Y-35579018D01*
X55932865Y-35551870D01*
X56855500Y-35551870D01*
X56855501Y-35551876D01*
X56861908Y-35611483D01*
X56912202Y-35746328D01*
X56912206Y-35746335D01*
X56998452Y-35861544D01*
X56998455Y-35861547D01*
X57113664Y-35947793D01*
X57113671Y-35947797D01*
X57248517Y-35998091D01*
X57248516Y-35998091D01*
X57258755Y-35999192D01*
X57323307Y-36025930D01*
X57363155Y-36083322D01*
X57369500Y-36122481D01*
X57369500Y-37046952D01*
X57369387Y-37050699D01*
X57367295Y-37085267D01*
X57343596Y-37150995D01*
X57299807Y-37184528D01*
X57348912Y-37203018D01*
X57390610Y-37259081D01*
X57396261Y-37279693D01*
X57396304Y-37279930D01*
X57421759Y-37336490D01*
X57423189Y-37339941D01*
X57445182Y-37397930D01*
X57445183Y-37397931D01*
X57450936Y-37406266D01*
X57461961Y-37425813D01*
X57466120Y-37435055D01*
X57466122Y-37435057D01*
X57485663Y-37460000D01*
X57504371Y-37483878D01*
X57506591Y-37486896D01*
X57541812Y-37537924D01*
X57541816Y-37537928D01*
X57541817Y-37537929D01*
X57588250Y-37579064D01*
X57590941Y-37581598D01*
X60488399Y-40479056D01*
X60490935Y-40481750D01*
X60532071Y-40528183D01*
X60583130Y-40563427D01*
X60586112Y-40565621D01*
X60634943Y-40603877D01*
X60634947Y-40603880D01*
X60634946Y-40603880D01*
X60644177Y-40608034D01*
X60663731Y-40619062D01*
X60672066Y-40624816D01*
X60672068Y-40624816D01*
X60672070Y-40624818D01*
X60730079Y-40646817D01*
X60733476Y-40648224D01*
X60780770Y-40669509D01*
X60790064Y-40673693D01*
X60790065Y-40673693D01*
X60790069Y-40673695D01*
X60798937Y-40675320D01*
X60800034Y-40675521D01*
X60821656Y-40681548D01*
X60821667Y-40681552D01*
X60831128Y-40685140D01*
X60876251Y-40690618D01*
X60892674Y-40692613D01*
X60896371Y-40693175D01*
X60957394Y-40704358D01*
X61012752Y-40701009D01*
X61019303Y-40700613D01*
X61023048Y-40700500D01*
X70976952Y-40700500D01*
X70980697Y-40700613D01*
X70988042Y-40701057D01*
X71042606Y-40704358D01*
X71080314Y-40697447D01*
X71103621Y-40693177D01*
X71107325Y-40692613D01*
X71125170Y-40690446D01*
X71168872Y-40685140D01*
X71178335Y-40681550D01*
X71199961Y-40675522D01*
X71201063Y-40675320D01*
X71209932Y-40673695D01*
X71266512Y-40648229D01*
X71269942Y-40646809D01*
X71327930Y-40624818D01*
X71336266Y-40619062D01*
X71355821Y-40608034D01*
X71365057Y-40603878D01*
X71413896Y-40565613D01*
X71416876Y-40563421D01*
X71467929Y-40528183D01*
X71509080Y-40481731D01*
X71511600Y-40479055D01*
X71553839Y-40436817D01*
X71615162Y-40403332D01*
X71641519Y-40400499D01*
X73050002Y-40400499D01*
X73050008Y-40400499D01*
X73152797Y-40389999D01*
X73319334Y-40334814D01*
X73468656Y-40242712D01*
X73592712Y-40118656D01*
X73684814Y-39969334D01*
X73739999Y-39802797D01*
X73750500Y-39700009D01*
X73750499Y-38681937D01*
X73770183Y-38614899D01*
X73822987Y-38569144D01*
X73892146Y-38559200D01*
X73955702Y-38588225D01*
X73962180Y-38594257D01*
X74213181Y-38845258D01*
X74246666Y-38906581D01*
X74249500Y-38932939D01*
X74249500Y-39700001D01*
X74249501Y-39700019D01*
X74260000Y-39802796D01*
X74260001Y-39802799D01*
X74315185Y-39969331D01*
X74315187Y-39969336D01*
X74350069Y-40025888D01*
X74407288Y-40118656D01*
X74531344Y-40242712D01*
X74680666Y-40334814D01*
X74847203Y-40389999D01*
X74949991Y-40400500D01*
X77050008Y-40400499D01*
X77152797Y-40389999D01*
X77319334Y-40334814D01*
X77468656Y-40242712D01*
X77592712Y-40118656D01*
X77684814Y-39969334D01*
X77739999Y-39802797D01*
X77750500Y-39700009D01*
X77750499Y-38299992D01*
X77749744Y-38292605D01*
X77739999Y-38197203D01*
X77739998Y-38197200D01*
X77689140Y-38043722D01*
X77684814Y-38030666D01*
X77592712Y-37881344D01*
X77468656Y-37757288D01*
X77319334Y-37665186D01*
X77152797Y-37610001D01*
X77152795Y-37610000D01*
X77050016Y-37599500D01*
X77050009Y-37599500D01*
X75282940Y-37599500D01*
X75215901Y-37579815D01*
X75195259Y-37563181D01*
X71792262Y-34160184D01*
X71792259Y-34160182D01*
X71756904Y-34137966D01*
X71751229Y-34133940D01*
X71718589Y-34107910D01*
X71680960Y-34089787D01*
X71674872Y-34086422D01*
X71658529Y-34076153D01*
X71612237Y-34023819D01*
X71600500Y-33971159D01*
X71600500Y-30002585D01*
X71620185Y-29935546D01*
X71672989Y-29889791D01*
X71716711Y-29878830D01*
X71868138Y-29869304D01*
X72018441Y-29820467D01*
X72151877Y-29735786D01*
X72227451Y-29655307D01*
X72254715Y-29633464D01*
X72301865Y-29605581D01*
X72418081Y-29489365D01*
X72501744Y-29347898D01*
X72547598Y-29190069D01*
X72550500Y-29153194D01*
X72550500Y-27846806D01*
X72547598Y-27809931D01*
X72533730Y-27762199D01*
X72501745Y-27652106D01*
X72501744Y-27652103D01*
X72501744Y-27652102D01*
X72418081Y-27510635D01*
X72418079Y-27510633D01*
X72418076Y-27510629D01*
X72411819Y-27504372D01*
X72378334Y-27443049D01*
X72375500Y-27416691D01*
X72375500Y-26891519D01*
X72395185Y-26824480D01*
X72411814Y-26803842D01*
X72505472Y-26710185D01*
X72593478Y-26564606D01*
X72644086Y-26402196D01*
X72650500Y-26331616D01*
X72650500Y-25668384D01*
X72644086Y-25597804D01*
X72593478Y-25435394D01*
X72505472Y-25289815D01*
X72398171Y-25182514D01*
X72364688Y-25121194D01*
X72362831Y-25110370D01*
X72360664Y-25093208D01*
X72343507Y-25049875D01*
X72341619Y-25044359D01*
X72328619Y-24999612D01*
X72318418Y-24982363D01*
X72309860Y-24964894D01*
X72302486Y-24946268D01*
X72302483Y-24946264D01*
X72302483Y-24946263D01*
X72275098Y-24908571D01*
X72271890Y-24903687D01*
X72248172Y-24863582D01*
X72248163Y-24863571D01*
X72234005Y-24849413D01*
X72221370Y-24834620D01*
X72209593Y-24818412D01*
X72173693Y-24788713D01*
X72169381Y-24784790D01*
X71500803Y-24116212D01*
X71490980Y-24103950D01*
X71490759Y-24104134D01*
X71485786Y-24098123D01*
X71441362Y-24056406D01*
X71435364Y-24050773D01*
X71423934Y-24039343D01*
X71414475Y-24029883D01*
X71408986Y-24025625D01*
X71404561Y-24021847D01*
X71370582Y-23989938D01*
X71370580Y-23989936D01*
X71370577Y-23989935D01*
X71353029Y-23980288D01*
X71336763Y-23969604D01*
X71320933Y-23957325D01*
X71278168Y-23938818D01*
X71272922Y-23936248D01*
X71232093Y-23913803D01*
X71232092Y-23913802D01*
X71212693Y-23908822D01*
X71194281Y-23902518D01*
X71175898Y-23894562D01*
X71175892Y-23894560D01*
X71129874Y-23887272D01*
X71124152Y-23886087D01*
X71079021Y-23874500D01*
X71079019Y-23874500D01*
X71058984Y-23874500D01*
X71039586Y-23872973D01*
X71032162Y-23871797D01*
X71019805Y-23869840D01*
X71019804Y-23869840D01*
X70973416Y-23874225D01*
X70967578Y-23874500D01*
X66703742Y-23874500D01*
X66636703Y-23854815D01*
X66611594Y-23833474D01*
X66605867Y-23827114D01*
X66605863Y-23827110D01*
X66452728Y-23715851D01*
X66452723Y-23715848D01*
X66279801Y-23638857D01*
X66279796Y-23638855D01*
X66133995Y-23607865D01*
X66094640Y-23599500D01*
X65905348Y-23599500D01*
X65872891Y-23606398D01*
X65720191Y-23638855D01*
X65720186Y-23638857D01*
X65547264Y-23715848D01*
X65547259Y-23715851D01*
X65394123Y-23827111D01*
X65267460Y-23967785D01*
X65172815Y-24131715D01*
X65172812Y-24131722D01*
X65116923Y-24303732D01*
X65114320Y-24311744D01*
X65094534Y-24500000D01*
X65114320Y-24688256D01*
X65114321Y-24688259D01*
X65172812Y-24868277D01*
X65172815Y-24868284D01*
X65267461Y-25032216D01*
X65369179Y-25145185D01*
X65394123Y-25172888D01*
X65547259Y-25284148D01*
X65547264Y-25284151D01*
X65720186Y-25361142D01*
X65720191Y-25361144D01*
X65905348Y-25400500D01*
X65905349Y-25400500D01*
X66094638Y-25400500D01*
X66094640Y-25400500D01*
X66279797Y-25361144D01*
X66452724Y-25284151D01*
X66605865Y-25172888D01*
X66608890Y-25169528D01*
X66611594Y-25166526D01*
X66671081Y-25129879D01*
X66703742Y-25125500D01*
X69224588Y-25125500D01*
X69291627Y-25145185D01*
X69337382Y-25197989D01*
X69347326Y-25267147D01*
X69330705Y-25313650D01*
X69256980Y-25435604D01*
X69206409Y-25597893D01*
X69200000Y-25668427D01*
X69200000Y-25750000D01*
X70226000Y-25750000D01*
X70293039Y-25769685D01*
X70338794Y-25822489D01*
X70350000Y-25874000D01*
X70350000Y-26974999D01*
X70356581Y-26974999D01*
X70427102Y-26968591D01*
X70427107Y-26968590D01*
X70589396Y-26918018D01*
X70734877Y-26830072D01*
X70734878Y-26830071D01*
X70836963Y-26727985D01*
X70898286Y-26694499D01*
X70967977Y-26699483D01*
X71012326Y-26727983D01*
X71088182Y-26803839D01*
X71121666Y-26865160D01*
X71124500Y-26891519D01*
X71124500Y-27416691D01*
X71104815Y-27483730D01*
X71088181Y-27504372D01*
X71081923Y-27510629D01*
X71081917Y-27510637D01*
X70998255Y-27652103D01*
X70998254Y-27652106D01*
X70952402Y-27809926D01*
X70952401Y-27809932D01*
X70949500Y-27846804D01*
X70949500Y-29013000D01*
X70929815Y-29080039D01*
X70877011Y-29125794D01*
X70825500Y-29137000D01*
X70774000Y-29137000D01*
X70706961Y-29117315D01*
X70661206Y-29064511D01*
X70650000Y-29013000D01*
X70650000Y-28750000D01*
X70100000Y-28750000D01*
X70100000Y-29405684D01*
X70082733Y-29468804D01*
X70048254Y-29527105D01*
X70048254Y-29527106D01*
X70002402Y-29684926D01*
X70002401Y-29684932D01*
X69999500Y-29721804D01*
X69999500Y-33865500D01*
X69979815Y-33932539D01*
X69927011Y-33978294D01*
X69875500Y-33989500D01*
X66038424Y-33989500D01*
X65971385Y-33969815D01*
X65950743Y-33953181D01*
X65853648Y-33856086D01*
X65853642Y-33856081D01*
X65679574Y-33734197D01*
X65679570Y-33734195D01*
X65663139Y-33726533D01*
X65486970Y-33644384D01*
X65486966Y-33644383D01*
X65486962Y-33644381D01*
X65281705Y-33589383D01*
X65281703Y-33589382D01*
X65281701Y-33589382D01*
X65281699Y-33589381D01*
X65281695Y-33589381D01*
X65070002Y-33570861D01*
X65069998Y-33570861D01*
X64858304Y-33589381D01*
X64858294Y-33589383D01*
X64653037Y-33644381D01*
X64653028Y-33644385D01*
X64460433Y-33734193D01*
X64286350Y-33856086D01*
X64136086Y-34006350D01*
X64014193Y-34180433D01*
X63932382Y-34355878D01*
X63886210Y-34408317D01*
X63819016Y-34427469D01*
X63752135Y-34407253D01*
X63707618Y-34355878D01*
X63625806Y-34180433D01*
X63615127Y-34165182D01*
X63534866Y-34050556D01*
X63503916Y-34006354D01*
X63430101Y-33932539D01*
X63353647Y-33856085D01*
X63353643Y-33856082D01*
X63353642Y-33856081D01*
X63179574Y-33734197D01*
X63179570Y-33734195D01*
X63163139Y-33726533D01*
X62986970Y-33644384D01*
X62986966Y-33644383D01*
X62986962Y-33644381D01*
X62781705Y-33589383D01*
X62781703Y-33589382D01*
X62781701Y-33589382D01*
X62781699Y-33589381D01*
X62781695Y-33589381D01*
X62570002Y-33570861D01*
X62569998Y-33570861D01*
X62358304Y-33589381D01*
X62358294Y-33589383D01*
X62153037Y-33644381D01*
X62153028Y-33644385D01*
X61960433Y-33734193D01*
X61786354Y-33856083D01*
X61657680Y-33984757D01*
X61596357Y-34018241D01*
X61526665Y-34013257D01*
X61482318Y-33984756D01*
X61353648Y-33856086D01*
X61353642Y-33856081D01*
X61179574Y-33734197D01*
X61179570Y-33734195D01*
X61163139Y-33726533D01*
X60986970Y-33644384D01*
X60986966Y-33644383D01*
X60986962Y-33644381D01*
X60781705Y-33589383D01*
X60781703Y-33589382D01*
X60781701Y-33589382D01*
X60781699Y-33589381D01*
X60781695Y-33589381D01*
X60570002Y-33570861D01*
X60569998Y-33570861D01*
X60358304Y-33589381D01*
X60358294Y-33589383D01*
X60153037Y-33644381D01*
X60153028Y-33644385D01*
X59960433Y-33734193D01*
X59786350Y-33856086D01*
X59636086Y-34006350D01*
X59546748Y-34133940D01*
X59524873Y-34165182D01*
X59511090Y-34184866D01*
X59509406Y-34183686D01*
X59465298Y-34225728D01*
X59396689Y-34238938D01*
X59331829Y-34212958D01*
X59291311Y-34156036D01*
X59284499Y-34115502D01*
X59284499Y-34028129D01*
X59284498Y-34028123D01*
X59284497Y-34028116D01*
X59278091Y-33968517D01*
X59277284Y-33966354D01*
X59227797Y-33833671D01*
X59227793Y-33833664D01*
X59141547Y-33718455D01*
X59141544Y-33718452D01*
X59026335Y-33632206D01*
X59026328Y-33632202D01*
X58891482Y-33581908D01*
X58891483Y-33581908D01*
X58831883Y-33575501D01*
X58831881Y-33575500D01*
X58831873Y-33575500D01*
X58831864Y-33575500D01*
X57308129Y-33575500D01*
X57308123Y-33575501D01*
X57248516Y-33581908D01*
X57113671Y-33632202D01*
X57113664Y-33632206D01*
X56998455Y-33718452D01*
X56998452Y-33718455D01*
X56912206Y-33833664D01*
X56912202Y-33833671D01*
X56861908Y-33968517D01*
X56856563Y-34018241D01*
X56855501Y-34028123D01*
X56855500Y-34028135D01*
X56855500Y-35551870D01*
X55932865Y-35551870D01*
X55724528Y-35461377D01*
X55440191Y-35381709D01*
X55440183Y-35381707D01*
X55147647Y-35341500D01*
X55147645Y-35341500D01*
X54852355Y-35341500D01*
X54852353Y-35341500D01*
X54559816Y-35381707D01*
X54559808Y-35381709D01*
X54275471Y-35461377D01*
X54004633Y-35579018D01*
X53752324Y-35732451D01*
X53752320Y-35732454D01*
X53523272Y-35918798D01*
X53523266Y-35918803D01*
X53321708Y-36134619D01*
X53151430Y-36375849D01*
X53151426Y-36375855D01*
X53015572Y-36638043D01*
X52916687Y-36916277D01*
X52916683Y-36916291D01*
X52895905Y-37016283D01*
X52862993Y-37077915D01*
X52801984Y-37111969D01*
X52732249Y-37107634D01*
X52675928Y-37066286D01*
X52650903Y-37001052D01*
X52650499Y-36991054D01*
X52650499Y-36949998D01*
X52650498Y-36949981D01*
X52639999Y-36847203D01*
X52639998Y-36847200D01*
X52617678Y-36779843D01*
X52584814Y-36680666D01*
X52492712Y-36531344D01*
X52368656Y-36407288D01*
X52219334Y-36315186D01*
X52052797Y-36260001D01*
X52052795Y-36260000D01*
X51950010Y-36249500D01*
X50549977Y-36249500D01*
X50548068Y-36249598D01*
X50547662Y-36249500D01*
X50546836Y-36249501D01*
X50546836Y-36249303D01*
X50480116Y-36233340D01*
X50454096Y-36213439D01*
X50103886Y-35863229D01*
X50070401Y-35801906D01*
X50075385Y-35732214D01*
X50117257Y-35676281D01*
X50182721Y-35651864D01*
X50250994Y-35666716D01*
X50256649Y-35670000D01*
X50280666Y-35684814D01*
X50447203Y-35739999D01*
X50549991Y-35750500D01*
X51950008Y-35750499D01*
X52052797Y-35739999D01*
X52219334Y-35684814D01*
X52368656Y-35592712D01*
X52492712Y-35468656D01*
X52584814Y-35319334D01*
X52639999Y-35152797D01*
X52650500Y-35050009D01*
X52650499Y-32949992D01*
X52647232Y-32918014D01*
X52639999Y-32847203D01*
X52639998Y-32847200D01*
X52625629Y-32803837D01*
X52584814Y-32680666D01*
X52492712Y-32531344D01*
X52368656Y-32407288D01*
X52275888Y-32350069D01*
X52219336Y-32315187D01*
X52219331Y-32315185D01*
X52197325Y-32307893D01*
X52052797Y-32260001D01*
X52052795Y-32260000D01*
X51950010Y-32249500D01*
X50549998Y-32249500D01*
X50549981Y-32249501D01*
X50447203Y-32260000D01*
X50447200Y-32260001D01*
X50280668Y-32315185D01*
X50280663Y-32315187D01*
X50131342Y-32407289D01*
X50007289Y-32531342D01*
X49915187Y-32680663D01*
X49915185Y-32680668D01*
X49905507Y-32709875D01*
X49860001Y-32847203D01*
X49860001Y-32847204D01*
X49860000Y-32847204D01*
X49849500Y-32949983D01*
X49849500Y-33175500D01*
X49829815Y-33242539D01*
X49777011Y-33288294D01*
X49725500Y-33299500D01*
X49591519Y-33299500D01*
X49524480Y-33279815D01*
X49503838Y-33263181D01*
X49028438Y-32787781D01*
X48511598Y-32270941D01*
X48509064Y-32268250D01*
X48467929Y-32221817D01*
X48467928Y-32221816D01*
X48467924Y-32221812D01*
X48416896Y-32186591D01*
X48413887Y-32184377D01*
X48365060Y-32146124D01*
X48365055Y-32146120D01*
X48355813Y-32141961D01*
X48336266Y-32130936D01*
X48334657Y-32129826D01*
X48327930Y-32125182D01*
X48269938Y-32103188D01*
X48266490Y-32101759D01*
X48209930Y-32076304D01*
X48199946Y-32074474D01*
X48178343Y-32068451D01*
X48168874Y-32064860D01*
X48168870Y-32064859D01*
X48107313Y-32057384D01*
X48103612Y-32056821D01*
X48042608Y-32045642D01*
X48042603Y-32045642D01*
X47980697Y-32049387D01*
X47976952Y-32049500D01*
X39383048Y-32049500D01*
X39379303Y-32049387D01*
X39317396Y-32045642D01*
X39317389Y-32045642D01*
X39256386Y-32056821D01*
X39252685Y-32057384D01*
X39191128Y-32064859D01*
X39191121Y-32064861D01*
X39181647Y-32068454D01*
X39160049Y-32074475D01*
X39150069Y-32076304D01*
X39093519Y-32101755D01*
X39090060Y-32103188D01*
X39032071Y-32125181D01*
X39032066Y-32125184D01*
X39023722Y-32130943D01*
X39004187Y-32141961D01*
X38994947Y-32146120D01*
X38994945Y-32146121D01*
X38946136Y-32184359D01*
X38943122Y-32186576D01*
X38892070Y-32221817D01*
X38892068Y-32221818D01*
X38850942Y-32268240D01*
X38848375Y-32270966D01*
X37580160Y-33539181D01*
X37518837Y-33572666D01*
X37492479Y-33575500D01*
X36558129Y-33575500D01*
X36558123Y-33575501D01*
X36498516Y-33581908D01*
X36363671Y-33632202D01*
X36363664Y-33632206D01*
X36248455Y-33718452D01*
X36248452Y-33718455D01*
X36162206Y-33833664D01*
X36162202Y-33833671D01*
X36111908Y-33968517D01*
X36106563Y-34018241D01*
X36105501Y-34028123D01*
X36105500Y-34028135D01*
X36105500Y-35551870D01*
X36105501Y-35551876D01*
X36111908Y-35611483D01*
X36162202Y-35746328D01*
X36162206Y-35746335D01*
X36248452Y-35861544D01*
X36248455Y-35861547D01*
X36363664Y-35947793D01*
X36363671Y-35947797D01*
X36498517Y-35998091D01*
X36498516Y-35998091D01*
X36505444Y-35998835D01*
X36558127Y-36004500D01*
X38081872Y-36004499D01*
X38141483Y-35998091D01*
X38276331Y-35947796D01*
X38391546Y-35861546D01*
X38477796Y-35746331D01*
X38528091Y-35611483D01*
X38534500Y-35551873D01*
X38534499Y-35464497D01*
X38554183Y-35397462D01*
X38606986Y-35351706D01*
X38676145Y-35341762D01*
X38739701Y-35370786D01*
X38760278Y-35395704D01*
X38761090Y-35395136D01*
X38886081Y-35573642D01*
X38886086Y-35573648D01*
X39036351Y-35723913D01*
X39036357Y-35723918D01*
X39210425Y-35845802D01*
X39210427Y-35845803D01*
X39210430Y-35845805D01*
X39403030Y-35935616D01*
X39608299Y-35990618D01*
X39759514Y-36003847D01*
X39819998Y-36009139D01*
X39820000Y-36009139D01*
X39820002Y-36009139D01*
X39873048Y-36004498D01*
X40031701Y-35990618D01*
X40236970Y-35935616D01*
X40429570Y-35845805D01*
X40603647Y-35723915D01*
X40732319Y-35595243D01*
X40793642Y-35561758D01*
X40863334Y-35566742D01*
X40907681Y-35595243D01*
X41036351Y-35723913D01*
X41036357Y-35723918D01*
X41210425Y-35845802D01*
X41210427Y-35845803D01*
X41210430Y-35845805D01*
X41403030Y-35935616D01*
X41608299Y-35990618D01*
X41820000Y-36009139D01*
X41820002Y-36009138D01*
X41821949Y-36009309D01*
X41887018Y-36034761D01*
X41927997Y-36091352D01*
X41931875Y-36161114D01*
X41898823Y-36220518D01*
X38856162Y-39263181D01*
X38794839Y-39296666D01*
X38768481Y-39299500D01*
X35807305Y-39299500D01*
X35740266Y-39279815D01*
X35694511Y-39227011D01*
X35684567Y-39157853D01*
X35713592Y-39094297D01*
X35723869Y-39084334D01*
X35723638Y-39084087D01*
X35726728Y-39081201D01*
X35726734Y-39081196D01*
X35928286Y-38865387D01*
X36098574Y-38624143D01*
X36234427Y-38361958D01*
X36333314Y-38083717D01*
X36333316Y-38083708D01*
X36333317Y-38083705D01*
X36369729Y-37908481D01*
X36393393Y-37794603D01*
X36413544Y-37500000D01*
X36393393Y-37205397D01*
X36372650Y-37105580D01*
X36333317Y-36916294D01*
X36333312Y-36916277D01*
X36252917Y-36690069D01*
X36234427Y-36638042D01*
X36098574Y-36375857D01*
X36098573Y-36375855D01*
X36098569Y-36375849D01*
X35928291Y-36134619D01*
X35928287Y-36134615D01*
X35928286Y-36134613D01*
X35726734Y-35918804D01*
X35719476Y-35912899D01*
X35497679Y-35732454D01*
X35497675Y-35732451D01*
X35245366Y-35579018D01*
X34974528Y-35461377D01*
X34690191Y-35381709D01*
X34690183Y-35381707D01*
X34397647Y-35341500D01*
X34397645Y-35341500D01*
X34102355Y-35341500D01*
X34102353Y-35341500D01*
X33809816Y-35381707D01*
X33809808Y-35381709D01*
X33525471Y-35461377D01*
X33254633Y-35579018D01*
X33002324Y-35732451D01*
X33002320Y-35732454D01*
X32773272Y-35918798D01*
X32773266Y-35918803D01*
X32571708Y-36134619D01*
X32401430Y-36375849D01*
X32401426Y-36375855D01*
X32265572Y-36638043D01*
X32166687Y-36916277D01*
X32166682Y-36916294D01*
X32106607Y-37205394D01*
X32106606Y-37205396D01*
X32086456Y-37500000D01*
X32106606Y-37794603D01*
X32106607Y-37794605D01*
X32166682Y-38083705D01*
X32166687Y-38083722D01*
X32265572Y-38361956D01*
X32401426Y-38624144D01*
X32401430Y-38624150D01*
X32571708Y-38865380D01*
X32571712Y-38865384D01*
X32571714Y-38865387D01*
X32735909Y-39041196D01*
X32773266Y-39081196D01*
X32776362Y-39084087D01*
X32775133Y-39085402D01*
X32810527Y-39136878D01*
X32812702Y-39206714D01*
X32776776Y-39266639D01*
X32714155Y-39297629D01*
X32692695Y-39299500D01*
X32591519Y-39299500D01*
X32524480Y-39279815D01*
X32503838Y-39263181D01*
X31236819Y-37996162D01*
X31203334Y-37934839D01*
X31200500Y-37908481D01*
X31200500Y-36968469D01*
X31217768Y-36905348D01*
X31251744Y-36847898D01*
X31297598Y-36690069D01*
X31300500Y-36653194D01*
X31300500Y-35487000D01*
X31320185Y-35419961D01*
X31372989Y-35374206D01*
X31424500Y-35363000D01*
X31665696Y-35363000D01*
X31684131Y-35361549D01*
X31702569Y-35360098D01*
X31702571Y-35360097D01*
X31702573Y-35360097D01*
X31748327Y-35346804D01*
X31860398Y-35314244D01*
X32001865Y-35230581D01*
X32118081Y-35114365D01*
X32201744Y-34972898D01*
X32247598Y-34815069D01*
X32250500Y-34778194D01*
X32250500Y-33471806D01*
X32250372Y-33470185D01*
X32247598Y-33434932D01*
X32247597Y-33434926D01*
X32208251Y-33299500D01*
X32201744Y-33277102D01*
X32118081Y-33135635D01*
X32118079Y-33135633D01*
X32118076Y-33135629D01*
X32061819Y-33079372D01*
X32028334Y-33018049D01*
X32025500Y-32991691D01*
X32025500Y-32891519D01*
X32045185Y-32824480D01*
X32061814Y-32803842D01*
X32155472Y-32710185D01*
X32243478Y-32564606D01*
X32294086Y-32402196D01*
X32300500Y-32331616D01*
X32300500Y-31668384D01*
X32294086Y-31597804D01*
X32243478Y-31435394D01*
X32155472Y-31289815D01*
X32155470Y-31289813D01*
X32155469Y-31289811D01*
X32035190Y-31169532D01*
X32035187Y-31169530D01*
X32035185Y-31169528D01*
X31902674Y-31089421D01*
X31855488Y-31037895D01*
X31843650Y-30969035D01*
X31870919Y-30904707D01*
X31923493Y-30867124D01*
X31953331Y-30855996D01*
X32056690Y-30778621D01*
X32122152Y-30754204D01*
X32190425Y-30769055D01*
X32205303Y-30778616D01*
X32308076Y-30855552D01*
X32308668Y-30855995D01*
X32308671Y-30855997D01*
X32443517Y-30906291D01*
X32443516Y-30906291D01*
X32450444Y-30907035D01*
X32503127Y-30912700D01*
X34298872Y-30912699D01*
X34358483Y-30906291D01*
X34493331Y-30855996D01*
X34597106Y-30778309D01*
X34662570Y-30753892D01*
X34730843Y-30768743D01*
X34745729Y-30778310D01*
X34848910Y-30855552D01*
X34848913Y-30855554D01*
X34983620Y-30905796D01*
X34983627Y-30905798D01*
X35043155Y-30912199D01*
X35043172Y-30912200D01*
X35691000Y-30912200D01*
X35691000Y-28208694D01*
X35795839Y-28256573D01*
X35904527Y-28272200D01*
X35977473Y-28272200D01*
X36086161Y-28256573D01*
X36191000Y-28208694D01*
X36191000Y-30912200D01*
X36838828Y-30912200D01*
X36838844Y-30912199D01*
X36898372Y-30905798D01*
X36898379Y-30905796D01*
X37033086Y-30855554D01*
X37033089Y-30855552D01*
X37136271Y-30778310D01*
X37201735Y-30753892D01*
X37270008Y-30768743D01*
X37284888Y-30778305D01*
X37388076Y-30855552D01*
X37388668Y-30855995D01*
X37388671Y-30855997D01*
X37523517Y-30906291D01*
X37523516Y-30906291D01*
X37530444Y-30907035D01*
X37583127Y-30912700D01*
X39378872Y-30912699D01*
X39438483Y-30906291D01*
X39573331Y-30855996D01*
X39676690Y-30778621D01*
X39742152Y-30754204D01*
X39810425Y-30769055D01*
X39825303Y-30778616D01*
X39928076Y-30855552D01*
X39928668Y-30855995D01*
X39928671Y-30855997D01*
X40063517Y-30906291D01*
X40063516Y-30906291D01*
X40070444Y-30907035D01*
X40123127Y-30912700D01*
X41918872Y-30912699D01*
X41978483Y-30906291D01*
X42113331Y-30855996D01*
X42216690Y-30778621D01*
X42282152Y-30754204D01*
X42350425Y-30769055D01*
X42365303Y-30778616D01*
X42468076Y-30855552D01*
X42468668Y-30855995D01*
X42468671Y-30855997D01*
X42603517Y-30906291D01*
X42603516Y-30906291D01*
X42610444Y-30907035D01*
X42663127Y-30912700D01*
X44458872Y-30912699D01*
X44518483Y-30906291D01*
X44653331Y-30855996D01*
X44756690Y-30778621D01*
X44822152Y-30754204D01*
X44890425Y-30769055D01*
X44905303Y-30778616D01*
X45008076Y-30855552D01*
X45008668Y-30855995D01*
X45008671Y-30855997D01*
X45143517Y-30906291D01*
X45143516Y-30906291D01*
X45150444Y-30907035D01*
X45203127Y-30912700D01*
X46998872Y-30912699D01*
X47058483Y-30906291D01*
X47193331Y-30855996D01*
X47296690Y-30778621D01*
X47362152Y-30754204D01*
X47430425Y-30769055D01*
X47445303Y-30778616D01*
X47548076Y-30855552D01*
X47548668Y-30855995D01*
X47548671Y-30855997D01*
X47683517Y-30906291D01*
X47683516Y-30906291D01*
X47690444Y-30907035D01*
X47743127Y-30912700D01*
X49538872Y-30912699D01*
X49598483Y-30906291D01*
X49733331Y-30855996D01*
X49836690Y-30778621D01*
X49902152Y-30754204D01*
X49970425Y-30769055D01*
X49985303Y-30778616D01*
X50088076Y-30855552D01*
X50088668Y-30855995D01*
X50088671Y-30855997D01*
X50223517Y-30906291D01*
X50223516Y-30906291D01*
X50230444Y-30907035D01*
X50283127Y-30912700D01*
X52078872Y-30912699D01*
X52138483Y-30906291D01*
X52273331Y-30855996D01*
X52376690Y-30778621D01*
X52442152Y-30754204D01*
X52510425Y-30769055D01*
X52525303Y-30778616D01*
X52628076Y-30855552D01*
X52628668Y-30855995D01*
X52628671Y-30855997D01*
X52763517Y-30906291D01*
X52763516Y-30906291D01*
X52770444Y-30907035D01*
X52823127Y-30912700D01*
X54618872Y-30912699D01*
X54678483Y-30906291D01*
X54813331Y-30855996D01*
X54916690Y-30778621D01*
X54982152Y-30754204D01*
X55050425Y-30769055D01*
X55065303Y-30778616D01*
X55168076Y-30855552D01*
X55168668Y-30855995D01*
X55168671Y-30855997D01*
X55303517Y-30906291D01*
X55303516Y-30906291D01*
X55310444Y-30907035D01*
X55363127Y-30912700D01*
X57158872Y-30912699D01*
X57218483Y-30906291D01*
X57353331Y-30855996D01*
X57456690Y-30778621D01*
X57522152Y-30754204D01*
X57590425Y-30769055D01*
X57605303Y-30778616D01*
X57708076Y-30855552D01*
X57708668Y-30855995D01*
X57708671Y-30855997D01*
X57843517Y-30906291D01*
X57843516Y-30906291D01*
X57850444Y-30907035D01*
X57903127Y-30912700D01*
X59698872Y-30912699D01*
X59758483Y-30906291D01*
X59893331Y-30855996D01*
X59997106Y-30778309D01*
X60062570Y-30753892D01*
X60130843Y-30768743D01*
X60145729Y-30778310D01*
X60248910Y-30855552D01*
X60248913Y-30855554D01*
X60383620Y-30905796D01*
X60383627Y-30905798D01*
X60443155Y-30912199D01*
X60443172Y-30912200D01*
X61091000Y-30912200D01*
X61091000Y-28208694D01*
X61195839Y-28256573D01*
X61304527Y-28272200D01*
X61377473Y-28272200D01*
X61486161Y-28256573D01*
X61591000Y-28208694D01*
X61591000Y-30912200D01*
X62238828Y-30912200D01*
X62238844Y-30912199D01*
X62298372Y-30905798D01*
X62298379Y-30905796D01*
X62433086Y-30855554D01*
X62433089Y-30855552D01*
X62536271Y-30778310D01*
X62601735Y-30753892D01*
X62670008Y-30768743D01*
X62684888Y-30778305D01*
X62788076Y-30855552D01*
X62788668Y-30855995D01*
X62788671Y-30855997D01*
X62923517Y-30906291D01*
X62923516Y-30906291D01*
X62930444Y-30907035D01*
X62983127Y-30912700D01*
X64778872Y-30912699D01*
X64838483Y-30906291D01*
X64973331Y-30855996D01*
X65076690Y-30778621D01*
X65142152Y-30754204D01*
X65210425Y-30769055D01*
X65225303Y-30778616D01*
X65328076Y-30855552D01*
X65328668Y-30855995D01*
X65328671Y-30855997D01*
X65463517Y-30906291D01*
X65463516Y-30906291D01*
X65470444Y-30907035D01*
X65523127Y-30912700D01*
X67318872Y-30912699D01*
X67378483Y-30906291D01*
X67513331Y-30855996D01*
X67628546Y-30769746D01*
X67714796Y-30654531D01*
X67765091Y-30519683D01*
X67771500Y-30460073D01*
X67771499Y-28750000D01*
X69050000Y-28750000D01*
X69050000Y-29153144D01*
X69052899Y-29189989D01*
X69052900Y-29189995D01*
X69098716Y-29347693D01*
X69098717Y-29347696D01*
X69182314Y-29489052D01*
X69182321Y-29489061D01*
X69298438Y-29605178D01*
X69298447Y-29605185D01*
X69439801Y-29688781D01*
X69597514Y-29734600D01*
X69597511Y-29734600D01*
X69599998Y-29734795D01*
X69600000Y-29734795D01*
X69600000Y-28750000D01*
X69050000Y-28750000D01*
X67771499Y-28750000D01*
X67771499Y-28250000D01*
X69050000Y-28250000D01*
X69600000Y-28250000D01*
X69600000Y-27265203D01*
X70100000Y-27265203D01*
X70100000Y-28250000D01*
X70650000Y-28250000D01*
X70650000Y-27846856D01*
X70647100Y-27810010D01*
X70647099Y-27810004D01*
X70601283Y-27652306D01*
X70601282Y-27652303D01*
X70517685Y-27510947D01*
X70517678Y-27510938D01*
X70401561Y-27394821D01*
X70401552Y-27394814D01*
X70260196Y-27311217D01*
X70260193Y-27311216D01*
X70102494Y-27265400D01*
X70102497Y-27265400D01*
X70100000Y-27265203D01*
X69600000Y-27265203D01*
X69597503Y-27265400D01*
X69439806Y-27311216D01*
X69439803Y-27311217D01*
X69298447Y-27394814D01*
X69298438Y-27394821D01*
X69182321Y-27510938D01*
X69182314Y-27510947D01*
X69098717Y-27652303D01*
X69098716Y-27652306D01*
X69052900Y-27810004D01*
X69052899Y-27810010D01*
X69050000Y-27846856D01*
X69050000Y-28250000D01*
X67771499Y-28250000D01*
X67771499Y-27823875D01*
X67771735Y-27818474D01*
X67771736Y-27818469D01*
X67776659Y-27762200D01*
X67771734Y-27705920D01*
X67771499Y-27700516D01*
X67771499Y-26864329D01*
X67771498Y-26864323D01*
X67771497Y-26864316D01*
X67765091Y-26804717D01*
X67729833Y-26710186D01*
X67714797Y-26669871D01*
X67714793Y-26669864D01*
X67628547Y-26554655D01*
X67628544Y-26554652D01*
X67513335Y-26468406D01*
X67513328Y-26468402D01*
X67378482Y-26418108D01*
X67378483Y-26418108D01*
X67318883Y-26411701D01*
X67318881Y-26411700D01*
X67318873Y-26411700D01*
X67318865Y-26411700D01*
X66482677Y-26411700D01*
X66477275Y-26411464D01*
X66446849Y-26408802D01*
X66421002Y-26406541D01*
X66420999Y-26406541D01*
X66403750Y-26408049D01*
X66364722Y-26411464D01*
X66359322Y-26411700D01*
X65523129Y-26411700D01*
X65523123Y-26411701D01*
X65463516Y-26418108D01*
X65328671Y-26468402D01*
X65328669Y-26468403D01*
X65225311Y-26545778D01*
X65159847Y-26570195D01*
X65091574Y-26555344D01*
X65076689Y-26545778D01*
X64973330Y-26468403D01*
X64973328Y-26468402D01*
X64838482Y-26418108D01*
X64838483Y-26418108D01*
X64778883Y-26411701D01*
X64778881Y-26411700D01*
X64778873Y-26411700D01*
X64778865Y-26411700D01*
X63942677Y-26411700D01*
X63937275Y-26411464D01*
X63906849Y-26408802D01*
X63881002Y-26406541D01*
X63880999Y-26406541D01*
X63863750Y-26408049D01*
X63824722Y-26411464D01*
X63819322Y-26411700D01*
X62983129Y-26411700D01*
X62983123Y-26411701D01*
X62923516Y-26418108D01*
X62788671Y-26468402D01*
X62788669Y-26468404D01*
X62684894Y-26546090D01*
X62619430Y-26570507D01*
X62551157Y-26555656D01*
X62536272Y-26546090D01*
X62433088Y-26468846D01*
X62433086Y-26468845D01*
X62298379Y-26418603D01*
X62298372Y-26418601D01*
X62238844Y-26412200D01*
X61591000Y-26412200D01*
X61591000Y-27315705D01*
X61486161Y-27267827D01*
X61377473Y-27252200D01*
X61304527Y-27252200D01*
X61195839Y-27267827D01*
X61091000Y-27315705D01*
X61091000Y-26412200D01*
X60443155Y-26412200D01*
X60383627Y-26418601D01*
X60383620Y-26418603D01*
X60248913Y-26468845D01*
X60248910Y-26468847D01*
X60145727Y-26546090D01*
X60080262Y-26570507D01*
X60011989Y-26555655D01*
X59997105Y-26546089D01*
X59893335Y-26468406D01*
X59893328Y-26468402D01*
X59758482Y-26418108D01*
X59758483Y-26418108D01*
X59698883Y-26411701D01*
X59698881Y-26411700D01*
X59698873Y-26411700D01*
X59698865Y-26411700D01*
X58862677Y-26411700D01*
X58857275Y-26411464D01*
X58826849Y-26408802D01*
X58801002Y-26406541D01*
X58800999Y-26406541D01*
X58783750Y-26408049D01*
X58744722Y-26411464D01*
X58739322Y-26411700D01*
X57903129Y-26411700D01*
X57903123Y-26411701D01*
X57843516Y-26418108D01*
X57708671Y-26468402D01*
X57708669Y-26468403D01*
X57605311Y-26545778D01*
X57539847Y-26570195D01*
X57471574Y-26555344D01*
X57456689Y-26545778D01*
X57353330Y-26468403D01*
X57353328Y-26468402D01*
X57218482Y-26418108D01*
X57218483Y-26418108D01*
X57158883Y-26411701D01*
X57158881Y-26411700D01*
X57158873Y-26411700D01*
X57158865Y-26411700D01*
X57085500Y-26411700D01*
X57018461Y-26392015D01*
X56972706Y-26339211D01*
X56961500Y-26287700D01*
X56961500Y-26250000D01*
X69200001Y-26250000D01*
X69200001Y-26331582D01*
X69206408Y-26402102D01*
X69206409Y-26402107D01*
X69256981Y-26564396D01*
X69344927Y-26709877D01*
X69465122Y-26830072D01*
X69610604Y-26918019D01*
X69610603Y-26918019D01*
X69772894Y-26968590D01*
X69772893Y-26968590D01*
X69843408Y-26974998D01*
X69843426Y-26974999D01*
X69849999Y-26974998D01*
X69850000Y-26974998D01*
X69850000Y-26250000D01*
X69200001Y-26250000D01*
X56961500Y-26250000D01*
X56961500Y-24590960D01*
X56981185Y-24523921D01*
X57012616Y-24490641D01*
X57105866Y-24422892D01*
X57105867Y-24422890D01*
X57105871Y-24422888D01*
X57232533Y-24282216D01*
X57327179Y-24118284D01*
X57385674Y-23938256D01*
X57405460Y-23750000D01*
X57385674Y-23561744D01*
X57327179Y-23381716D01*
X57232533Y-23217784D01*
X57105871Y-23077112D01*
X57067170Y-23048994D01*
X56952734Y-22965851D01*
X56952729Y-22965848D01*
X56779807Y-22888857D01*
X56779802Y-22888855D01*
X56614885Y-22853802D01*
X56594646Y-22849500D01*
X56405354Y-22849500D01*
X56385115Y-22853802D01*
X56220197Y-22888855D01*
X56220192Y-22888857D01*
X56047270Y-22965848D01*
X56047265Y-22965851D01*
X55894129Y-23077111D01*
X55767466Y-23217785D01*
X55672821Y-23381715D01*
X55672818Y-23381722D01*
X55638359Y-23487778D01*
X55614326Y-23561744D01*
X55598129Y-23715848D01*
X55594838Y-23747164D01*
X55588272Y-23771510D01*
X55589537Y-23771905D01*
X55587305Y-23779067D01*
X55585477Y-23789042D01*
X55579453Y-23810653D01*
X55575860Y-23820127D01*
X55575859Y-23820128D01*
X55568384Y-23881685D01*
X55567821Y-23885386D01*
X55556642Y-23946390D01*
X55556642Y-23946395D01*
X55560387Y-24008302D01*
X55560500Y-24012047D01*
X55560500Y-26287700D01*
X55540815Y-26354739D01*
X55488011Y-26400494D01*
X55436502Y-26411700D01*
X55363130Y-26411700D01*
X55363123Y-26411701D01*
X55303516Y-26418108D01*
X55168671Y-26468402D01*
X55168669Y-26468403D01*
X55065311Y-26545778D01*
X54999847Y-26570195D01*
X54931574Y-26555344D01*
X54916689Y-26545778D01*
X54813330Y-26468403D01*
X54813328Y-26468402D01*
X54678482Y-26418108D01*
X54678483Y-26418108D01*
X54618883Y-26411701D01*
X54618881Y-26411700D01*
X54618873Y-26411700D01*
X54618865Y-26411700D01*
X53782677Y-26411700D01*
X53777275Y-26411464D01*
X53746849Y-26408802D01*
X53721002Y-26406541D01*
X53720999Y-26406541D01*
X53703750Y-26408049D01*
X53664722Y-26411464D01*
X53659322Y-26411700D01*
X52823129Y-26411700D01*
X52823123Y-26411701D01*
X52763516Y-26418108D01*
X52628671Y-26468402D01*
X52628669Y-26468403D01*
X52525311Y-26545778D01*
X52459847Y-26570195D01*
X52391574Y-26555344D01*
X52376689Y-26545778D01*
X52273330Y-26468403D01*
X52273328Y-26468402D01*
X52138482Y-26418108D01*
X52138483Y-26418108D01*
X52078883Y-26411701D01*
X52078881Y-26411700D01*
X52078873Y-26411700D01*
X52078865Y-26411700D01*
X52005500Y-26411700D01*
X51938461Y-26392015D01*
X51892706Y-26339211D01*
X51881500Y-26287700D01*
X51881500Y-22160519D01*
X51901185Y-22093480D01*
X51917819Y-22072838D01*
X52693454Y-21297203D01*
X62005723Y-21297203D01*
X62007688Y-21319670D01*
X62007862Y-21327860D01*
X62006709Y-21353524D01*
X62006710Y-21353528D01*
X62017641Y-21434231D01*
X62017966Y-21437149D01*
X62024792Y-21515172D01*
X62024795Y-21515187D01*
X62031482Y-21540141D01*
X62033034Y-21547870D01*
X62036924Y-21576581D01*
X62036926Y-21576592D01*
X62061075Y-21650913D01*
X62061997Y-21654025D01*
X62081423Y-21726524D01*
X62081427Y-21726536D01*
X62093736Y-21752932D01*
X62096512Y-21759979D01*
X62106483Y-21790664D01*
X62141970Y-21856611D01*
X62143558Y-21859776D01*
X62173898Y-21924839D01*
X62183898Y-21939120D01*
X62192490Y-21951391D01*
X62196303Y-21957578D01*
X62213146Y-21988878D01*
X62213152Y-21988887D01*
X62257792Y-22044863D01*
X62260106Y-22047958D01*
X62283854Y-22081872D01*
X62299402Y-22104077D01*
X62299405Y-22104080D01*
X62324646Y-22129321D01*
X62329283Y-22134509D01*
X62353492Y-22164866D01*
X62404959Y-22209832D01*
X62408008Y-22212683D01*
X62454116Y-22258792D01*
X62454122Y-22258797D01*
X62454123Y-22258798D01*
X62464479Y-22266049D01*
X62486055Y-22281157D01*
X62491290Y-22285257D01*
X62523004Y-22312965D01*
X62523013Y-22312971D01*
X62578849Y-22346331D01*
X62582613Y-22348768D01*
X62633359Y-22384301D01*
X62633364Y-22384304D01*
X62655917Y-22394820D01*
X62671677Y-22402169D01*
X62677271Y-22405135D01*
X62714349Y-22427288D01*
X62716236Y-22428415D01*
X62728437Y-22432994D01*
X62774083Y-22450125D01*
X62778503Y-22451982D01*
X62831670Y-22476775D01*
X62831674Y-22476777D01*
X62862069Y-22484920D01*
X62875677Y-22488566D01*
X62881413Y-22490407D01*
X62888581Y-22493097D01*
X62926976Y-22507507D01*
X62984545Y-22517954D01*
X62989511Y-22519068D01*
X63043023Y-22533407D01*
X63091689Y-22537664D01*
X63097306Y-22538418D01*
X63148453Y-22547700D01*
X63203691Y-22547700D01*
X63209092Y-22547935D01*
X63237548Y-22550425D01*
X63260998Y-22552477D01*
X63261000Y-22552477D01*
X63313992Y-22547840D01*
X63317121Y-22547700D01*
X63317155Y-22547700D01*
X63371172Y-22542838D01*
X63478977Y-22533407D01*
X63479000Y-22533400D01*
X63479475Y-22533317D01*
X63484713Y-22532619D01*
X63485188Y-22532577D01*
X63588997Y-22503926D01*
X63690330Y-22476775D01*
X63690337Y-22476771D01*
X63697254Y-22474253D01*
X63701948Y-22472754D01*
X63702170Y-22472693D01*
X63702181Y-22472687D01*
X63702183Y-22472687D01*
X63796454Y-22427288D01*
X63888639Y-22384302D01*
X63888644Y-22384297D01*
X63893327Y-22381595D01*
X63893400Y-22381722D01*
X63904164Y-22375418D01*
X63904973Y-22375029D01*
X63987156Y-22315318D01*
X64067877Y-22258798D01*
X64068747Y-22257927D01*
X64083550Y-22245284D01*
X64087078Y-22242722D01*
X64155131Y-22171543D01*
X64222598Y-22104077D01*
X64225285Y-22100239D01*
X64237239Y-22085665D01*
X64242629Y-22080028D01*
X64242628Y-22080028D01*
X64242632Y-22080025D01*
X64295164Y-22000441D01*
X64348102Y-21924839D01*
X64351543Y-21917459D01*
X64360432Y-21901564D01*
X64366635Y-21892168D01*
X64402889Y-21807346D01*
X64440575Y-21726530D01*
X64443570Y-21715348D01*
X64449325Y-21698705D01*
X64455103Y-21685188D01*
X64474936Y-21598292D01*
X64475229Y-21597200D01*
X64885700Y-21597200D01*
X64890085Y-21650127D01*
X64892955Y-21684767D01*
X64896819Y-21775723D01*
X64896820Y-21775734D01*
X64901939Y-21799484D01*
X64903120Y-21807433D01*
X64904865Y-21828501D01*
X64904865Y-21828504D01*
X64904866Y-21828505D01*
X64927205Y-21916720D01*
X64932033Y-21939120D01*
X64947046Y-22008782D01*
X64954883Y-22028284D01*
X64957458Y-22036187D01*
X64961844Y-22053503D01*
X64999655Y-22139704D01*
X65035934Y-22229987D01*
X65035935Y-22229988D01*
X65045232Y-22245088D01*
X65049218Y-22252695D01*
X65055076Y-22266050D01*
X65108275Y-22347477D01*
X65160930Y-22432994D01*
X65167543Y-22440508D01*
X65178263Y-22454602D01*
X65180738Y-22458389D01*
X65182021Y-22460353D01*
X65250027Y-22534228D01*
X65318436Y-22611955D01*
X65323564Y-22616095D01*
X65336882Y-22628577D01*
X65339216Y-22631113D01*
X65420933Y-22694715D01*
X65503920Y-22761723D01*
X65503922Y-22761724D01*
X65506678Y-22763264D01*
X65522360Y-22773660D01*
X65522367Y-22773665D01*
X65522371Y-22773667D01*
X65522374Y-22773670D01*
X65611699Y-22822010D01*
X65616162Y-22824425D01*
X65712046Y-22877990D01*
X65714849Y-22879258D01*
X65721695Y-22882297D01*
X65721794Y-22882073D01*
X65726490Y-22884132D01*
X65726497Y-22884136D01*
X65830276Y-22919763D01*
X65936829Y-22957411D01*
X65937398Y-22957508D01*
X65942129Y-22958512D01*
X65946007Y-22959494D01*
X65946019Y-22959498D01*
X66057324Y-22978071D01*
X66171791Y-22997699D01*
X66171800Y-22997700D01*
X66407044Y-22997700D01*
X66407049Y-22997700D01*
X66440073Y-22992188D01*
X66463469Y-22988285D01*
X66468407Y-22987663D01*
X66528541Y-22982546D01*
X66580615Y-22968986D01*
X66586017Y-22967834D01*
X66635981Y-22959498D01*
X66693186Y-22939858D01*
X66697663Y-22938509D01*
X66759249Y-22922475D01*
X66765249Y-22919763D01*
X66780083Y-22913057D01*
X66805297Y-22901659D01*
X66810681Y-22899522D01*
X66855503Y-22884136D01*
X66911554Y-22853801D01*
X66915527Y-22851832D01*
X66934258Y-22843365D01*
X66976486Y-22824277D01*
X67015647Y-22797808D01*
X67020820Y-22794669D01*
X67059626Y-22773670D01*
X67112532Y-22732490D01*
X67115850Y-22730081D01*
X67174003Y-22690779D01*
X67205770Y-22660331D01*
X67210548Y-22656202D01*
X67242784Y-22631113D01*
X67245109Y-22628588D01*
X67260420Y-22611955D01*
X67290389Y-22579398D01*
X67293101Y-22576632D01*
X67346118Y-22525821D01*
X67370329Y-22493083D01*
X67374540Y-22487985D01*
X67399979Y-22460353D01*
X67407249Y-22449226D01*
X67440205Y-22398781D01*
X67442241Y-22395852D01*
X67487879Y-22334147D01*
X67504733Y-22300717D01*
X67508170Y-22294752D01*
X67526924Y-22266049D01*
X67557805Y-22195645D01*
X67559174Y-22192738D01*
X67595207Y-22121274D01*
X67605208Y-22088613D01*
X67607701Y-22081894D01*
X67620157Y-22053500D01*
X67639827Y-21975821D01*
X67640635Y-21972932D01*
X67665016Y-21893323D01*
X67668936Y-21862708D01*
X67670330Y-21855370D01*
X67677134Y-21828505D01*
X67684132Y-21744045D01*
X67695298Y-21656854D01*
X67694126Y-21629279D01*
X67694281Y-21621555D01*
X67696300Y-21597200D01*
X67694592Y-21576592D01*
X67689044Y-21509632D01*
X67688284Y-21491730D01*
X67685180Y-21418668D01*
X67680059Y-21394909D01*
X67678879Y-21386962D01*
X67677651Y-21372136D01*
X67677134Y-21365895D01*
X67677133Y-21365892D01*
X67677133Y-21365888D01*
X67659738Y-21297200D01*
X67654794Y-21277679D01*
X67634954Y-21185619D01*
X67627115Y-21166112D01*
X67624541Y-21158215D01*
X67620157Y-21140900D01*
X67582344Y-21054695D01*
X67546064Y-20964410D01*
X67536768Y-20949312D01*
X67532779Y-20941700D01*
X67526924Y-20928351D01*
X67473724Y-20846921D01*
X67421071Y-20761408D01*
X67421070Y-20761407D01*
X67421069Y-20761405D01*
X67414451Y-20753886D01*
X67403727Y-20739784D01*
X67399978Y-20734045D01*
X67331972Y-20660171D01*
X67263565Y-20582446D01*
X67258439Y-20578307D01*
X67245117Y-20565821D01*
X67242785Y-20563288D01*
X67242783Y-20563286D01*
X67161066Y-20499684D01*
X67078080Y-20432677D01*
X67078073Y-20432672D01*
X67075311Y-20431129D01*
X67059643Y-20420742D01*
X67059634Y-20420735D01*
X67059628Y-20420732D01*
X67059626Y-20420730D01*
X66965837Y-20369974D01*
X66869954Y-20316410D01*
X66869953Y-20316409D01*
X66869952Y-20316409D01*
X66867381Y-20315247D01*
X66860284Y-20312098D01*
X66860188Y-20312319D01*
X66855506Y-20310265D01*
X66751723Y-20274636D01*
X66645168Y-20236988D01*
X66645160Y-20236986D01*
X66644612Y-20236892D01*
X66639889Y-20235891D01*
X66635989Y-20234903D01*
X66524675Y-20216328D01*
X66410209Y-20196700D01*
X66410200Y-20196700D01*
X66407049Y-20196700D01*
X66174951Y-20196700D01*
X66174950Y-20196700D01*
X66118533Y-20206113D01*
X66113587Y-20206735D01*
X66111099Y-20206947D01*
X66053469Y-20211852D01*
X66053461Y-20211853D01*
X66001397Y-20225408D01*
X65995981Y-20226563D01*
X65946013Y-20234903D01*
X65888840Y-20254531D01*
X65884330Y-20255890D01*
X65822749Y-20271925D01*
X65822744Y-20271927D01*
X65776711Y-20292735D01*
X65771304Y-20294880D01*
X65726503Y-20310260D01*
X65726498Y-20310263D01*
X65670448Y-20340595D01*
X65666478Y-20342563D01*
X65605514Y-20370122D01*
X65566359Y-20396585D01*
X65561149Y-20399744D01*
X65522379Y-20420726D01*
X65522367Y-20420733D01*
X65469487Y-20461892D01*
X65466124Y-20464333D01*
X65408001Y-20503617D01*
X65407994Y-20503622D01*
X65376248Y-20534047D01*
X65371430Y-20538211D01*
X65339218Y-20563285D01*
X65339209Y-20563293D01*
X65291613Y-20614995D01*
X65288900Y-20617764D01*
X65235882Y-20668578D01*
X65235880Y-20668580D01*
X65211681Y-20701298D01*
X65207448Y-20706423D01*
X65182022Y-20734045D01*
X65141797Y-20795612D01*
X65139741Y-20798567D01*
X65094124Y-20860247D01*
X65094120Y-20860254D01*
X65077268Y-20893675D01*
X65073811Y-20899672D01*
X65055076Y-20928349D01*
X65024219Y-20998696D01*
X65022803Y-21001703D01*
X64986790Y-21073131D01*
X64976792Y-21105773D01*
X64974288Y-21112523D01*
X64961845Y-21140891D01*
X64961845Y-21140892D01*
X64942178Y-21218547D01*
X64941358Y-21221479D01*
X64916984Y-21301076D01*
X64916983Y-21301079D01*
X64913063Y-21331685D01*
X64911668Y-21339030D01*
X64904867Y-21365888D01*
X64904864Y-21365905D01*
X64897867Y-21450354D01*
X64886702Y-21537544D01*
X64886701Y-21537544D01*
X64887872Y-21565100D01*
X64887716Y-21572855D01*
X64885700Y-21597195D01*
X64885700Y-21597200D01*
X64475229Y-21597200D01*
X64497207Y-21515177D01*
X64498887Y-21495966D01*
X64500206Y-21487577D01*
X64500918Y-21484456D01*
X64505191Y-21465737D01*
X64509050Y-21379802D01*
X64516277Y-21297200D01*
X64514310Y-21274728D01*
X64514137Y-21266534D01*
X64514310Y-21262681D01*
X64515290Y-21240870D01*
X64504353Y-21160139D01*
X64504034Y-21157267D01*
X64497207Y-21079223D01*
X64490515Y-21054253D01*
X64488963Y-21046522D01*
X64485076Y-21017818D01*
X64485075Y-21017816D01*
X64485075Y-21017813D01*
X64467723Y-20964410D01*
X64460921Y-20943476D01*
X64459998Y-20940361D01*
X64451003Y-20906791D01*
X64440575Y-20867870D01*
X64428266Y-20841474D01*
X64425488Y-20834422D01*
X64415519Y-20803741D01*
X64415517Y-20803737D01*
X64415517Y-20803736D01*
X64402988Y-20780453D01*
X64380027Y-20737783D01*
X64378432Y-20734605D01*
X64377315Y-20732210D01*
X64348102Y-20669562D01*
X64329512Y-20643013D01*
X64325698Y-20636825D01*
X64314718Y-20616421D01*
X64308852Y-20605519D01*
X64264192Y-20549518D01*
X64261896Y-20546447D01*
X64222598Y-20490323D01*
X64197353Y-20465078D01*
X64192715Y-20459889D01*
X64189100Y-20455356D01*
X64168508Y-20429534D01*
X64160866Y-20422857D01*
X64117039Y-20384566D01*
X64113990Y-20381715D01*
X64067878Y-20335602D01*
X64035940Y-20313239D01*
X64030705Y-20309139D01*
X63998996Y-20281435D01*
X63998994Y-20281433D01*
X63998992Y-20281432D01*
X63943149Y-20248068D01*
X63939386Y-20245631D01*
X63888641Y-20210099D01*
X63850333Y-20192235D01*
X63844735Y-20189267D01*
X63805769Y-20165987D01*
X63805767Y-20165986D01*
X63747928Y-20144279D01*
X63743515Y-20142426D01*
X63690330Y-20117625D01*
X63646321Y-20105832D01*
X63640581Y-20103990D01*
X63595025Y-20086892D01*
X63537456Y-20076445D01*
X63532480Y-20075328D01*
X63478977Y-20060993D01*
X63430327Y-20056736D01*
X63424659Y-20055975D01*
X63373551Y-20046700D01*
X63373547Y-20046700D01*
X63318309Y-20046700D01*
X63312907Y-20046464D01*
X63284451Y-20043974D01*
X63261002Y-20041923D01*
X63260997Y-20041923D01*
X63208050Y-20046555D01*
X63204862Y-20046699D01*
X63204851Y-20046700D01*
X63204845Y-20046700D01*
X63158671Y-20050855D01*
X63150826Y-20051561D01*
X63043020Y-20060993D01*
X63042468Y-20061091D01*
X63037275Y-20061781D01*
X63036812Y-20061822D01*
X63036809Y-20061823D01*
X62933002Y-20090473D01*
X62831659Y-20117628D01*
X62824739Y-20120146D01*
X62820050Y-20121644D01*
X62819849Y-20121699D01*
X62819832Y-20121705D01*
X62725528Y-20167119D01*
X62633358Y-20210099D01*
X62628670Y-20212806D01*
X62628598Y-20212681D01*
X62617871Y-20218964D01*
X62617030Y-20219368D01*
X62534831Y-20279089D01*
X62454123Y-20335601D01*
X62453241Y-20336484D01*
X62438461Y-20349106D01*
X62434928Y-20351672D01*
X62434916Y-20351683D01*
X62403477Y-20384566D01*
X62366868Y-20422856D01*
X62344379Y-20445344D01*
X62299403Y-20490320D01*
X62299402Y-20490321D01*
X62296711Y-20494165D01*
X62284773Y-20508721D01*
X62279368Y-20514374D01*
X62258476Y-20546022D01*
X62226828Y-20593968D01*
X62175513Y-20667255D01*
X62173898Y-20669562D01*
X62173891Y-20669574D01*
X62170457Y-20676938D01*
X62161572Y-20692828D01*
X62155362Y-20702235D01*
X62155362Y-20702236D01*
X62128129Y-20765952D01*
X62119108Y-20787058D01*
X62113479Y-20799130D01*
X62081425Y-20867869D01*
X62081424Y-20867871D01*
X62078425Y-20879060D01*
X62072681Y-20895675D01*
X62066899Y-20909205D01*
X62066896Y-20909216D01*
X62047063Y-20996107D01*
X62024793Y-21079222D01*
X62024793Y-21079223D01*
X62023112Y-21098426D01*
X62021793Y-21106819D01*
X62020492Y-21112523D01*
X62016809Y-21128659D01*
X62016809Y-21128664D01*
X62012949Y-21214597D01*
X62005723Y-21297196D01*
X62005723Y-21297203D01*
X52693454Y-21297203D01*
X58456638Y-15534019D01*
X58517961Y-15500534D01*
X58544319Y-15497700D01*
X62158958Y-15497700D01*
X62225997Y-15517385D01*
X62271752Y-15570189D01*
X62281696Y-15639347D01*
X62262445Y-15690011D01*
X62257160Y-15698018D01*
X62226828Y-15743968D01*
X62185925Y-15802385D01*
X62173898Y-15819562D01*
X62173891Y-15819574D01*
X62170457Y-15826938D01*
X62161572Y-15842828D01*
X62155362Y-15852235D01*
X62155362Y-15852236D01*
X62128157Y-15915888D01*
X62119108Y-15937058D01*
X62115445Y-15944914D01*
X62081425Y-16017869D01*
X62081424Y-16017871D01*
X62078425Y-16029060D01*
X62072681Y-16045675D01*
X62066899Y-16059205D01*
X62066896Y-16059216D01*
X62047063Y-16146107D01*
X62024793Y-16229222D01*
X62024793Y-16229223D01*
X62023112Y-16248426D01*
X62021793Y-16256825D01*
X62016809Y-16278659D01*
X62016809Y-16278664D01*
X62012949Y-16364597D01*
X62005723Y-16447196D01*
X62005723Y-16447203D01*
X62007688Y-16469670D01*
X62007862Y-16477860D01*
X62006709Y-16503524D01*
X62006710Y-16503528D01*
X62017641Y-16584231D01*
X62017966Y-16587149D01*
X62024792Y-16665172D01*
X62024795Y-16665187D01*
X62031482Y-16690141D01*
X62033034Y-16697870D01*
X62036924Y-16726581D01*
X62036926Y-16726592D01*
X62061075Y-16800913D01*
X62061997Y-16804025D01*
X62081423Y-16876524D01*
X62081427Y-16876536D01*
X62093736Y-16902932D01*
X62096512Y-16909979D01*
X62106483Y-16940664D01*
X62141970Y-17006611D01*
X62143558Y-17009776D01*
X62173898Y-17074839D01*
X62192490Y-17101391D01*
X62196303Y-17107578D01*
X62213146Y-17138878D01*
X62213152Y-17138887D01*
X62257792Y-17194863D01*
X62260106Y-17197958D01*
X62291296Y-17242501D01*
X62299402Y-17254077D01*
X62299405Y-17254080D01*
X62324646Y-17279321D01*
X62329283Y-17284509D01*
X62353492Y-17314866D01*
X62404959Y-17359832D01*
X62408008Y-17362683D01*
X62454116Y-17408792D01*
X62454122Y-17408797D01*
X62454123Y-17408798D01*
X62465802Y-17416975D01*
X62486055Y-17431157D01*
X62491290Y-17435257D01*
X62523004Y-17462965D01*
X62523013Y-17462971D01*
X62578849Y-17496331D01*
X62582613Y-17498768D01*
X62633359Y-17534301D01*
X62633364Y-17534304D01*
X62652425Y-17543192D01*
X62671677Y-17552169D01*
X62677271Y-17555135D01*
X62714349Y-17577288D01*
X62716236Y-17578415D01*
X62734828Y-17585392D01*
X62774083Y-17600125D01*
X62778503Y-17601982D01*
X62831670Y-17626775D01*
X62831674Y-17626777D01*
X62862069Y-17634920D01*
X62875677Y-17638566D01*
X62881413Y-17640407D01*
X62898264Y-17646731D01*
X62926976Y-17657507D01*
X62984545Y-17667954D01*
X62989511Y-17669068D01*
X63043023Y-17683407D01*
X63091689Y-17687664D01*
X63097306Y-17688418D01*
X63148453Y-17697700D01*
X63203691Y-17697700D01*
X63209092Y-17697935D01*
X63237548Y-17700425D01*
X63260998Y-17702477D01*
X63261000Y-17702477D01*
X63313992Y-17697840D01*
X63317121Y-17697700D01*
X63317155Y-17697700D01*
X63371172Y-17692838D01*
X63478977Y-17683407D01*
X63479000Y-17683400D01*
X63479475Y-17683317D01*
X63484713Y-17682619D01*
X63485188Y-17682577D01*
X63588997Y-17653926D01*
X63690330Y-17626775D01*
X63690337Y-17626771D01*
X63697254Y-17624253D01*
X63701948Y-17622754D01*
X63702170Y-17622693D01*
X63702181Y-17622687D01*
X63702183Y-17622687D01*
X63796454Y-17577288D01*
X63888639Y-17534302D01*
X63888644Y-17534297D01*
X63893327Y-17531595D01*
X63893400Y-17531722D01*
X63904164Y-17525418D01*
X63904973Y-17525029D01*
X63987156Y-17465318D01*
X64067877Y-17408798D01*
X64068747Y-17407927D01*
X64083550Y-17395284D01*
X64087078Y-17392722D01*
X64104572Y-17374425D01*
X64155131Y-17321543D01*
X64222592Y-17254083D01*
X64222592Y-17254082D01*
X64222598Y-17254077D01*
X64225285Y-17250239D01*
X64237239Y-17235665D01*
X64242577Y-17230083D01*
X64242632Y-17230025D01*
X64295164Y-17150441D01*
X64348102Y-17074839D01*
X64351543Y-17067459D01*
X64360432Y-17051564D01*
X64366635Y-17042168D01*
X64402889Y-16957346D01*
X64440575Y-16876530D01*
X64443570Y-16865348D01*
X64449325Y-16848705D01*
X64451024Y-16844731D01*
X64455103Y-16835188D01*
X64474936Y-16748292D01*
X64497207Y-16665177D01*
X64498887Y-16645966D01*
X64500206Y-16637577D01*
X64501508Y-16631872D01*
X64505191Y-16615737D01*
X64509050Y-16529802D01*
X64516277Y-16447200D01*
X64514310Y-16424728D01*
X64514137Y-16416534D01*
X64514287Y-16413202D01*
X64515290Y-16390870D01*
X64504353Y-16310139D01*
X64504034Y-16307267D01*
X64497207Y-16229223D01*
X64490515Y-16204253D01*
X64488963Y-16196522D01*
X64485076Y-16167818D01*
X64485075Y-16167816D01*
X64485075Y-16167813D01*
X64460921Y-16093476D01*
X64459998Y-16090361D01*
X64452292Y-16061602D01*
X64440575Y-16017870D01*
X64428266Y-15991474D01*
X64425488Y-15984422D01*
X64415519Y-15953741D01*
X64415517Y-15953737D01*
X64415517Y-15953736D01*
X64402988Y-15930453D01*
X64380027Y-15887783D01*
X64378432Y-15884605D01*
X64363338Y-15852236D01*
X64348102Y-15819562D01*
X64329512Y-15793013D01*
X64325698Y-15786825D01*
X64315862Y-15768547D01*
X64308852Y-15755519D01*
X64264197Y-15699524D01*
X64261899Y-15696452D01*
X64259359Y-15692824D01*
X64237031Y-15626621D01*
X64254039Y-15558853D01*
X64304986Y-15511039D01*
X64360933Y-15497700D01*
X64856792Y-15497700D01*
X64923831Y-15517385D01*
X64969586Y-15570189D01*
X64979530Y-15639347D01*
X64970348Y-15671510D01*
X64961845Y-15690894D01*
X64961845Y-15690895D01*
X64961843Y-15690900D01*
X64959658Y-15699528D01*
X64942178Y-15768547D01*
X64941358Y-15771479D01*
X64916984Y-15851076D01*
X64916983Y-15851079D01*
X64913063Y-15881685D01*
X64911668Y-15889030D01*
X64904867Y-15915888D01*
X64904864Y-15915905D01*
X64897867Y-16000354D01*
X64886702Y-16087544D01*
X64886701Y-16087544D01*
X64887872Y-16115100D01*
X64887716Y-16122855D01*
X64885700Y-16147195D01*
X64885700Y-16147200D01*
X64890642Y-16206853D01*
X64892955Y-16234767D01*
X64896819Y-16325723D01*
X64896820Y-16325734D01*
X64901939Y-16349484D01*
X64903118Y-16357425D01*
X64903683Y-16364235D01*
X64904865Y-16378501D01*
X64904865Y-16378504D01*
X64904866Y-16378505D01*
X64913652Y-16413202D01*
X64927205Y-16466719D01*
X64947046Y-16558782D01*
X64954883Y-16578284D01*
X64957458Y-16586187D01*
X64961844Y-16603503D01*
X64999655Y-16689704D01*
X65035934Y-16779987D01*
X65035935Y-16779988D01*
X65035936Y-16779990D01*
X65036505Y-16780914D01*
X65045232Y-16795088D01*
X65049218Y-16802695D01*
X65055076Y-16816050D01*
X65108275Y-16897477D01*
X65160930Y-16982994D01*
X65167543Y-16990508D01*
X65178263Y-17004602D01*
X65179576Y-17006611D01*
X65182021Y-17010353D01*
X65250027Y-17084228D01*
X65318436Y-17161955D01*
X65323564Y-17166095D01*
X65336882Y-17178577D01*
X65339216Y-17181113D01*
X65420933Y-17244715D01*
X65503920Y-17311723D01*
X65503922Y-17311724D01*
X65506678Y-17313264D01*
X65522360Y-17323660D01*
X65522367Y-17323665D01*
X65522371Y-17323667D01*
X65522374Y-17323670D01*
X65615885Y-17374275D01*
X65616162Y-17374425D01*
X65712046Y-17427990D01*
X65714849Y-17429258D01*
X65721695Y-17432297D01*
X65721794Y-17432073D01*
X65726490Y-17434132D01*
X65726497Y-17434136D01*
X65830276Y-17469763D01*
X65936829Y-17507411D01*
X65937398Y-17507508D01*
X65942129Y-17508512D01*
X65946007Y-17509494D01*
X65946019Y-17509498D01*
X66057324Y-17528071D01*
X66171791Y-17547699D01*
X66171800Y-17547700D01*
X66407044Y-17547700D01*
X66407049Y-17547700D01*
X66440073Y-17542188D01*
X66463469Y-17538285D01*
X66468407Y-17537663D01*
X66528541Y-17532546D01*
X66580615Y-17518986D01*
X66586017Y-17517834D01*
X66635981Y-17509498D01*
X66693186Y-17489858D01*
X66697663Y-17488509D01*
X66759249Y-17472475D01*
X66765249Y-17469763D01*
X66775082Y-17465318D01*
X66805297Y-17451659D01*
X66810681Y-17449522D01*
X66855503Y-17434136D01*
X66911554Y-17403801D01*
X66915527Y-17401832D01*
X66924156Y-17397930D01*
X66976486Y-17374277D01*
X67015654Y-17347804D01*
X67020820Y-17344669D01*
X67059626Y-17323670D01*
X67112532Y-17282490D01*
X67115850Y-17280081D01*
X67174003Y-17240779D01*
X67205770Y-17210331D01*
X67210548Y-17206202D01*
X67242784Y-17181113D01*
X67245109Y-17178588D01*
X67260420Y-17161955D01*
X67290389Y-17129398D01*
X67293101Y-17126632D01*
X67346118Y-17075821D01*
X67370329Y-17043083D01*
X67374540Y-17037985D01*
X67399979Y-17010353D01*
X67400348Y-17009789D01*
X67440205Y-16948781D01*
X67442241Y-16945852D01*
X67487879Y-16884147D01*
X67504733Y-16850717D01*
X67508170Y-16844752D01*
X67526924Y-16816049D01*
X67557805Y-16745645D01*
X67559174Y-16742738D01*
X67595207Y-16671274D01*
X67605208Y-16638613D01*
X67607701Y-16631894D01*
X67620157Y-16603500D01*
X67639827Y-16525821D01*
X67640635Y-16522932D01*
X67665016Y-16443323D01*
X67668936Y-16412708D01*
X67670330Y-16405370D01*
X67677134Y-16378505D01*
X67684132Y-16294045D01*
X67695298Y-16206854D01*
X67694126Y-16179279D01*
X67694281Y-16171555D01*
X67696300Y-16147200D01*
X67696209Y-16146107D01*
X67689044Y-16059632D01*
X67685180Y-15968674D01*
X67685180Y-15968668D01*
X67680059Y-15944909D01*
X67678879Y-15936962D01*
X67677134Y-15915895D01*
X67677133Y-15915892D01*
X67677133Y-15915888D01*
X67654794Y-15827680D01*
X67653045Y-15819563D01*
X67634954Y-15735619D01*
X67627115Y-15716112D01*
X67624541Y-15708215D01*
X67620157Y-15690900D01*
X67582344Y-15604695D01*
X67546064Y-15514410D01*
X67543988Y-15511039D01*
X67536768Y-15499312D01*
X67532779Y-15491700D01*
X67526924Y-15478351D01*
X67473724Y-15396921D01*
X67421071Y-15311408D01*
X67421070Y-15311407D01*
X67421069Y-15311405D01*
X67414451Y-15303886D01*
X67403727Y-15289784D01*
X67399980Y-15284048D01*
X67398581Y-15282528D01*
X67387873Y-15270896D01*
X67356951Y-15208244D01*
X67364811Y-15138818D01*
X67391419Y-15099236D01*
X68750056Y-13740599D01*
X68752748Y-13738065D01*
X68799183Y-13696929D01*
X68834417Y-13645883D01*
X68836620Y-13642887D01*
X68874878Y-13594056D01*
X68879037Y-13584813D01*
X68890061Y-13565268D01*
X68895818Y-13556930D01*
X68917810Y-13498939D01*
X68919232Y-13495503D01*
X68944695Y-13438931D01*
X68946522Y-13428959D01*
X68952546Y-13407347D01*
X68956140Y-13397872D01*
X68963613Y-13336324D01*
X68964177Y-13332619D01*
X68967535Y-13314289D01*
X68975358Y-13271606D01*
X68971613Y-13209696D01*
X68971500Y-13205951D01*
X68971500Y-3294047D01*
X68971613Y-3290302D01*
X68975358Y-3228394D01*
X68964175Y-3167371D01*
X68963613Y-3163674D01*
X68961304Y-3144663D01*
X68956140Y-3102128D01*
X68952548Y-3092656D01*
X68946521Y-3071034D01*
X68944695Y-3061071D01*
X68944695Y-3061069D01*
X68919224Y-3004476D01*
X68917817Y-3001079D01*
X68895818Y-2943070D01*
X68890059Y-2934727D01*
X68879033Y-2915176D01*
X68874879Y-2905945D01*
X68870998Y-2899526D01*
X68872861Y-2898399D01*
X68851039Y-2843594D01*
X68850499Y-2832037D01*
X68850499Y-1602129D01*
X68850498Y-1602123D01*
X68844091Y-1542516D01*
X68793797Y-1407671D01*
X68793793Y-1407664D01*
X68707547Y-1292455D01*
X68707544Y-1292452D01*
X68592335Y-1206206D01*
X68592328Y-1206202D01*
X68457482Y-1155908D01*
X68457483Y-1155908D01*
X68397883Y-1149501D01*
X68397881Y-1149500D01*
X68397873Y-1149500D01*
X68397864Y-1149500D01*
X66602129Y-1149500D01*
X66602123Y-1149501D01*
X66542516Y-1155908D01*
X66407671Y-1206202D01*
X66407664Y-1206206D01*
X66292455Y-1292452D01*
X66292452Y-1292455D01*
X66206206Y-1407664D01*
X66206203Y-1407669D01*
X66157189Y-1539083D01*
X66115317Y-1595016D01*
X66049853Y-1619433D01*
X65981580Y-1604581D01*
X65953326Y-1583430D01*
X65831402Y-1461506D01*
X65831395Y-1461501D01*
X65637834Y-1325967D01*
X65637830Y-1325965D01*
X65637828Y-1325964D01*
X65423663Y-1226097D01*
X65423659Y-1226096D01*
X65423655Y-1226094D01*
X65195413Y-1164938D01*
X65195403Y-1164936D01*
X64960001Y-1144341D01*
X64959999Y-1144341D01*
X64724596Y-1164936D01*
X64724586Y-1164938D01*
X64496344Y-1226094D01*
X64496335Y-1226098D01*
X64282171Y-1325964D01*
X64282169Y-1325965D01*
X64088597Y-1461505D01*
X63921508Y-1628594D01*
X63791269Y-1814595D01*
X63736692Y-1858219D01*
X63667193Y-1865412D01*
X63604839Y-1833890D01*
X63588119Y-1814594D01*
X63458113Y-1628926D01*
X63458108Y-1628920D01*
X63291082Y-1461894D01*
X63097578Y-1326399D01*
X62883492Y-1226570D01*
X62883486Y-1226567D01*
X62670000Y-1169364D01*
X62670000Y-2064498D01*
X62562315Y-2015320D01*
X62455763Y-2000000D01*
X62384237Y-2000000D01*
X62277685Y-2015320D01*
X62170000Y-2064498D01*
X62170000Y-1169364D01*
X62169999Y-1169364D01*
X61956513Y-1226567D01*
X61956507Y-1226570D01*
X61742422Y-1326399D01*
X61742420Y-1326400D01*
X61548926Y-1461886D01*
X61548920Y-1461891D01*
X61381891Y-1628920D01*
X61381886Y-1628926D01*
X61246400Y-1822420D01*
X61246399Y-1822422D01*
X61146570Y-2036507D01*
X61146567Y-2036513D01*
X61089364Y-2249999D01*
X61089364Y-2250000D01*
X61986314Y-2250000D01*
X61960507Y-2290156D01*
X61920000Y-2428111D01*
X61920000Y-2571889D01*
X61960507Y-2709844D01*
X61986314Y-2750000D01*
X61089364Y-2750000D01*
X61146567Y-2963486D01*
X61146570Y-2963492D01*
X61246399Y-3177578D01*
X61381894Y-3371082D01*
X61548917Y-3538105D01*
X61742421Y-3673600D01*
X61956507Y-3773429D01*
X61956516Y-3773433D01*
X62170000Y-3830634D01*
X62170000Y-2935501D01*
X62277685Y-2984680D01*
X62384237Y-3000000D01*
X62455763Y-3000000D01*
X62562315Y-2984680D01*
X62670000Y-2935501D01*
X62670000Y-3830633D01*
X62883483Y-3773433D01*
X62883492Y-3773429D01*
X63097578Y-3673600D01*
X63291082Y-3538105D01*
X63458105Y-3371082D01*
X63588119Y-3185405D01*
X63642696Y-3141781D01*
X63712195Y-3134588D01*
X63774549Y-3166110D01*
X63791269Y-3185405D01*
X63921505Y-3371401D01*
X64088599Y-3538495D01*
X64185384Y-3606265D01*
X64282165Y-3674032D01*
X64282167Y-3674033D01*
X64282170Y-3674035D01*
X64496337Y-3773903D01*
X64724592Y-3835063D01*
X64901034Y-3850500D01*
X64959999Y-3855659D01*
X64960000Y-3855659D01*
X64960001Y-3855659D01*
X65018966Y-3850500D01*
X65195408Y-3835063D01*
X65423663Y-3773903D01*
X65637830Y-3674035D01*
X65831401Y-3538495D01*
X65953329Y-3416566D01*
X66014648Y-3383084D01*
X66084340Y-3388068D01*
X66140274Y-3429939D01*
X66157189Y-3460917D01*
X66206202Y-3592328D01*
X66206206Y-3592335D01*
X66292452Y-3707544D01*
X66292455Y-3707547D01*
X66407664Y-3793793D01*
X66407671Y-3793797D01*
X66542517Y-3844091D01*
X66542516Y-3844091D01*
X66549444Y-3844835D01*
X66602127Y-3850500D01*
X67446500Y-3850499D01*
X67513539Y-3870183D01*
X67559294Y-3922987D01*
X67570500Y-3974499D01*
X67570500Y-5359481D01*
X67550815Y-5426520D01*
X67498011Y-5472275D01*
X67428853Y-5482219D01*
X67365297Y-5453194D01*
X67358819Y-5447162D01*
X67271138Y-5359481D01*
X66432598Y-4520941D01*
X66430064Y-4518250D01*
X66388929Y-4471817D01*
X66388928Y-4471816D01*
X66388924Y-4471812D01*
X66337896Y-4436591D01*
X66334887Y-4434377D01*
X66286060Y-4396124D01*
X66286055Y-4396120D01*
X66276813Y-4391961D01*
X66257266Y-4380936D01*
X66248931Y-4375183D01*
X66248932Y-4375183D01*
X66248930Y-4375182D01*
X66190941Y-4353189D01*
X66187490Y-4351759D01*
X66130930Y-4326304D01*
X66120946Y-4324474D01*
X66099343Y-4318451D01*
X66089874Y-4314860D01*
X66089870Y-4314859D01*
X66028313Y-4307384D01*
X66024612Y-4306821D01*
X65963608Y-4295642D01*
X65963603Y-4295642D01*
X65901697Y-4299387D01*
X65897952Y-4299500D01*
X56341519Y-4299500D01*
X56274480Y-4279815D01*
X56253838Y-4263181D01*
X55135320Y-3144663D01*
X54011598Y-2020941D01*
X54009064Y-2018250D01*
X53967929Y-1971817D01*
X53967928Y-1971816D01*
X53967924Y-1971812D01*
X53916896Y-1936591D01*
X53913887Y-1934377D01*
X53865060Y-1896124D01*
X53865055Y-1896120D01*
X53855813Y-1891961D01*
X53836266Y-1880936D01*
X53827931Y-1875183D01*
X53827932Y-1875183D01*
X53827930Y-1875182D01*
X53769941Y-1853189D01*
X53766490Y-1851759D01*
X53709930Y-1826304D01*
X53699946Y-1824474D01*
X53678343Y-1818451D01*
X53668874Y-1814860D01*
X53668870Y-1814859D01*
X53607313Y-1807384D01*
X53603612Y-1806821D01*
X53542608Y-1795642D01*
X53542603Y-1795642D01*
X53480697Y-1799387D01*
X53476952Y-1799500D01*
X43974499Y-1799500D01*
X43907460Y-1779815D01*
X43861705Y-1727011D01*
X43850499Y-1675500D01*
X43850499Y-1602129D01*
X43850498Y-1602123D01*
X43844091Y-1542516D01*
X43793797Y-1407671D01*
X43793793Y-1407664D01*
X43707547Y-1292455D01*
X43707544Y-1292452D01*
X43592335Y-1206206D01*
X43592328Y-1206202D01*
X43457482Y-1155908D01*
X43457483Y-1155908D01*
X43397883Y-1149501D01*
X43397881Y-1149500D01*
X43397873Y-1149500D01*
X43397864Y-1149500D01*
X41602129Y-1149500D01*
X41602123Y-1149501D01*
X41542516Y-1155908D01*
X41407671Y-1206202D01*
X41407664Y-1206206D01*
X41292455Y-1292452D01*
X41292452Y-1292455D01*
X41206206Y-1407664D01*
X41206203Y-1407669D01*
X41157189Y-1539083D01*
X41115317Y-1595016D01*
X41049853Y-1619433D01*
X40981580Y-1604581D01*
X40953326Y-1583430D01*
X40831402Y-1461506D01*
X40831395Y-1461501D01*
X40637834Y-1325967D01*
X40637830Y-1325965D01*
X40637828Y-1325964D01*
X40423663Y-1226097D01*
X40423659Y-1226096D01*
X40423655Y-1226094D01*
X40195413Y-1164938D01*
X40195403Y-1164936D01*
X39960001Y-1144341D01*
X39959999Y-1144341D01*
X39724596Y-1164936D01*
X39724586Y-1164938D01*
X39496344Y-1226094D01*
X39496335Y-1226098D01*
X39282171Y-1325964D01*
X39282169Y-1325965D01*
X39088597Y-1461505D01*
X38921508Y-1628594D01*
X38791269Y-1814595D01*
X38736692Y-1858219D01*
X38667193Y-1865412D01*
X38604839Y-1833890D01*
X38588119Y-1814594D01*
X38458113Y-1628926D01*
X38458108Y-1628920D01*
X38291082Y-1461894D01*
X38097578Y-1326399D01*
X37883492Y-1226570D01*
X37883486Y-1226567D01*
X37670000Y-1169364D01*
X37670000Y-2064498D01*
X37562315Y-2015320D01*
X37455763Y-2000000D01*
X37384237Y-2000000D01*
X37277685Y-2015320D01*
X37170000Y-2064498D01*
X37170000Y-1169364D01*
X37169999Y-1169364D01*
X36956513Y-1226567D01*
X36956507Y-1226570D01*
X36742422Y-1326399D01*
X36742420Y-1326400D01*
X36548926Y-1461886D01*
X36548920Y-1461891D01*
X36381891Y-1628920D01*
X36381886Y-1628926D01*
X36246400Y-1822420D01*
X36246399Y-1822422D01*
X36146570Y-2036507D01*
X36146567Y-2036513D01*
X36089364Y-2249999D01*
X36089364Y-2250000D01*
X36986314Y-2250000D01*
X36960507Y-2290156D01*
X36920000Y-2428111D01*
X36920000Y-2571889D01*
X36960507Y-2709844D01*
X36986314Y-2750000D01*
X36089364Y-2750000D01*
X36146567Y-2963486D01*
X36146570Y-2963492D01*
X36246399Y-3177578D01*
X36381894Y-3371082D01*
X36548917Y-3538105D01*
X36742421Y-3673600D01*
X36956507Y-3773429D01*
X36956516Y-3773433D01*
X37170000Y-3830634D01*
X37170000Y-2935501D01*
X37277685Y-2984680D01*
X37384237Y-3000000D01*
X37455763Y-3000000D01*
X37562315Y-2984680D01*
X37670000Y-2935501D01*
X37670000Y-3830633D01*
X37883483Y-3773433D01*
X37883492Y-3773429D01*
X38097578Y-3673600D01*
X38291082Y-3538105D01*
X38458105Y-3371082D01*
X38588119Y-3185405D01*
X38642696Y-3141781D01*
X38712195Y-3134588D01*
X38774549Y-3166110D01*
X38791269Y-3185405D01*
X38921505Y-3371401D01*
X39088599Y-3538495D01*
X39185384Y-3606265D01*
X39282165Y-3674032D01*
X39282167Y-3674033D01*
X39282170Y-3674035D01*
X39496337Y-3773903D01*
X39724592Y-3835063D01*
X39901034Y-3850500D01*
X39959999Y-3855659D01*
X39960000Y-3855659D01*
X39960001Y-3855659D01*
X40018966Y-3850500D01*
X40195408Y-3835063D01*
X40423663Y-3773903D01*
X40637830Y-3674035D01*
X40831401Y-3538495D01*
X40953329Y-3416566D01*
X41014648Y-3383084D01*
X41084340Y-3388068D01*
X41140274Y-3429939D01*
X41157189Y-3460917D01*
X41206202Y-3592328D01*
X41206206Y-3592335D01*
X41292452Y-3707544D01*
X41292455Y-3707547D01*
X41407664Y-3793793D01*
X41407671Y-3793797D01*
X41542517Y-3844091D01*
X41542516Y-3844091D01*
X41549444Y-3844835D01*
X41602127Y-3850500D01*
X43397872Y-3850499D01*
X43457483Y-3844091D01*
X43592331Y-3793796D01*
X43707546Y-3707546D01*
X43793796Y-3592331D01*
X43844091Y-3457483D01*
X43850500Y-3397873D01*
X43850500Y-3324500D01*
X43870185Y-3257461D01*
X43922989Y-3211706D01*
X43974500Y-3200500D01*
X53158481Y-3200500D01*
X53225520Y-3220185D01*
X53246162Y-3236819D01*
X55488399Y-5479056D01*
X55490935Y-5481750D01*
X55532071Y-5528183D01*
X55537704Y-5532071D01*
X55583106Y-5563410D01*
X55586122Y-5565630D01*
X55608433Y-5583109D01*
X55634943Y-5603878D01*
X55641845Y-5606984D01*
X55644182Y-5608036D01*
X55663733Y-5619063D01*
X55672070Y-5624818D01*
X55730065Y-5646812D01*
X55733474Y-5648223D01*
X55767913Y-5663723D01*
X55790064Y-5673693D01*
X55790065Y-5673693D01*
X55790069Y-5673695D01*
X55800034Y-5675521D01*
X55821656Y-5681548D01*
X55824777Y-5682731D01*
X55831128Y-5685140D01*
X55876251Y-5690618D01*
X55892674Y-5692613D01*
X55896371Y-5693175D01*
X55957394Y-5704358D01*
X56012752Y-5701009D01*
X56019303Y-5700613D01*
X56023048Y-5700500D01*
X65579481Y-5700500D01*
X65646520Y-5720185D01*
X65667162Y-5736819D01*
X66550362Y-6620019D01*
X66583847Y-6681342D01*
X66578863Y-6751034D01*
X66536991Y-6806967D01*
X66471527Y-6831384D01*
X66462681Y-6831700D01*
X65523129Y-6831700D01*
X65523123Y-6831701D01*
X65463516Y-6838108D01*
X65328671Y-6888402D01*
X65328669Y-6888403D01*
X65225311Y-6965778D01*
X65159847Y-6990195D01*
X65091574Y-6975344D01*
X65076689Y-6965778D01*
X64973330Y-6888403D01*
X64973328Y-6888402D01*
X64838482Y-6838108D01*
X64838483Y-6838108D01*
X64778883Y-6831701D01*
X64778881Y-6831700D01*
X64778873Y-6831700D01*
X64778864Y-6831700D01*
X62983129Y-6831700D01*
X62983123Y-6831701D01*
X62923516Y-6838108D01*
X62788671Y-6888402D01*
X62788669Y-6888404D01*
X62684894Y-6966090D01*
X62619430Y-6990507D01*
X62551157Y-6975656D01*
X62536272Y-6966090D01*
X62433088Y-6888846D01*
X62433086Y-6888845D01*
X62298379Y-6838603D01*
X62298372Y-6838601D01*
X62238844Y-6832200D01*
X61591000Y-6832200D01*
X61591000Y-9535705D01*
X61486161Y-9487827D01*
X61377473Y-9472200D01*
X61304527Y-9472200D01*
X61195839Y-9487827D01*
X61091000Y-9535705D01*
X61091000Y-6832200D01*
X60443155Y-6832200D01*
X60383627Y-6838601D01*
X60383620Y-6838603D01*
X60248913Y-6888845D01*
X60248910Y-6888847D01*
X60145727Y-6966090D01*
X60080262Y-6990507D01*
X60011989Y-6975655D01*
X59997105Y-6966089D01*
X59893335Y-6888406D01*
X59893328Y-6888402D01*
X59758482Y-6838108D01*
X59758483Y-6838108D01*
X59698883Y-6831701D01*
X59698881Y-6831700D01*
X59698873Y-6831700D01*
X59698864Y-6831700D01*
X57903129Y-6831700D01*
X57903123Y-6831701D01*
X57843516Y-6838108D01*
X57708671Y-6888402D01*
X57708669Y-6888403D01*
X57605311Y-6965778D01*
X57539847Y-6990195D01*
X57471574Y-6975344D01*
X57456689Y-6965778D01*
X57353330Y-6888403D01*
X57353328Y-6888402D01*
X57218482Y-6838108D01*
X57218483Y-6838108D01*
X57158883Y-6831701D01*
X57158881Y-6831700D01*
X57158873Y-6831700D01*
X57158864Y-6831700D01*
X55363129Y-6831700D01*
X55363123Y-6831701D01*
X55303516Y-6838108D01*
X55168671Y-6888402D01*
X55168669Y-6888403D01*
X55065311Y-6965778D01*
X54999847Y-6990195D01*
X54931574Y-6975344D01*
X54916689Y-6965778D01*
X54813330Y-6888403D01*
X54813328Y-6888402D01*
X54678482Y-6838108D01*
X54678483Y-6838108D01*
X54618883Y-6831701D01*
X54618881Y-6831700D01*
X54618873Y-6831700D01*
X54618864Y-6831700D01*
X52823129Y-6831700D01*
X52823123Y-6831701D01*
X52763516Y-6838108D01*
X52628671Y-6888402D01*
X52628669Y-6888403D01*
X52525311Y-6965778D01*
X52459847Y-6990195D01*
X52391574Y-6975344D01*
X52376689Y-6965778D01*
X52273330Y-6888403D01*
X52273328Y-6888402D01*
X52138482Y-6838108D01*
X52138483Y-6838108D01*
X52078883Y-6831701D01*
X52078881Y-6831700D01*
X52078873Y-6831700D01*
X52078864Y-6831700D01*
X50283129Y-6831700D01*
X50283123Y-6831701D01*
X50223516Y-6838108D01*
X50088671Y-6888402D01*
X50088669Y-6888404D01*
X49984894Y-6966090D01*
X49919430Y-6990507D01*
X49851157Y-6975656D01*
X49836272Y-6966090D01*
X49733088Y-6888846D01*
X49733086Y-6888845D01*
X49598379Y-6838603D01*
X49598372Y-6838601D01*
X49538844Y-6832200D01*
X48891000Y-6832200D01*
X48891000Y-9535705D01*
X48786161Y-9487827D01*
X48677473Y-9472200D01*
X48604527Y-9472200D01*
X48495839Y-9487827D01*
X48391000Y-9535705D01*
X48391000Y-6832200D01*
X47743155Y-6832200D01*
X47683627Y-6838601D01*
X47683620Y-6838603D01*
X47548913Y-6888845D01*
X47548910Y-6888847D01*
X47445727Y-6966090D01*
X47380262Y-6990507D01*
X47311989Y-6975655D01*
X47297105Y-6966089D01*
X47193335Y-6888406D01*
X47193328Y-6888402D01*
X47058482Y-6838108D01*
X47058483Y-6838108D01*
X46998883Y-6831701D01*
X46998881Y-6831700D01*
X46998873Y-6831700D01*
X46998864Y-6831700D01*
X45203129Y-6831700D01*
X45203123Y-6831701D01*
X45143516Y-6838108D01*
X45008671Y-6888402D01*
X45008669Y-6888403D01*
X44905311Y-6965778D01*
X44839847Y-6990195D01*
X44771574Y-6975344D01*
X44756689Y-6965778D01*
X44653330Y-6888403D01*
X44653328Y-6888402D01*
X44518482Y-6838108D01*
X44518483Y-6838108D01*
X44458883Y-6831701D01*
X44458881Y-6831700D01*
X44458873Y-6831700D01*
X44458864Y-6831700D01*
X42663129Y-6831700D01*
X42663123Y-6831701D01*
X42603516Y-6838108D01*
X42468671Y-6888402D01*
X42468669Y-6888403D01*
X42365311Y-6965778D01*
X42299847Y-6990195D01*
X42231574Y-6975344D01*
X42216689Y-6965778D01*
X42113330Y-6888403D01*
X42113328Y-6888402D01*
X41978482Y-6838108D01*
X41978483Y-6838108D01*
X41918883Y-6831701D01*
X41918881Y-6831700D01*
X41918873Y-6831700D01*
X41918864Y-6831700D01*
X40123129Y-6831700D01*
X40123123Y-6831701D01*
X40063516Y-6838108D01*
X39928671Y-6888402D01*
X39928669Y-6888403D01*
X39825311Y-6965778D01*
X39759847Y-6990195D01*
X39691574Y-6975344D01*
X39676689Y-6965778D01*
X39573330Y-6888403D01*
X39573328Y-6888402D01*
X39438482Y-6838108D01*
X39438483Y-6838108D01*
X39378883Y-6831701D01*
X39378881Y-6831700D01*
X39378873Y-6831700D01*
X39378864Y-6831700D01*
X37583129Y-6831700D01*
X37583123Y-6831701D01*
X37523516Y-6838108D01*
X37388671Y-6888402D01*
X37388669Y-6888404D01*
X37284894Y-6966090D01*
X37219430Y-6990507D01*
X37151157Y-6975656D01*
X37136272Y-6966090D01*
X37033088Y-6888846D01*
X37033086Y-6888845D01*
X36898379Y-6838603D01*
X36898372Y-6838601D01*
X36838844Y-6832200D01*
X36191000Y-6832200D01*
X36191000Y-9535705D01*
X36086161Y-9487827D01*
X35977473Y-9472200D01*
X35904527Y-9472200D01*
X35795839Y-9487827D01*
X35691000Y-9535705D01*
X35691000Y-6832200D01*
X35043155Y-6832200D01*
X34983627Y-6838601D01*
X34983620Y-6838603D01*
X34848913Y-6888845D01*
X34848910Y-6888847D01*
X34745727Y-6966090D01*
X34680262Y-6990507D01*
X34611989Y-6975655D01*
X34597105Y-6966089D01*
X34493335Y-6888406D01*
X34493328Y-6888402D01*
X34358482Y-6838108D01*
X34358483Y-6838108D01*
X34298883Y-6831701D01*
X34298881Y-6831700D01*
X34298873Y-6831700D01*
X34298864Y-6831700D01*
X32503129Y-6831700D01*
X32503123Y-6831701D01*
X32443516Y-6838108D01*
X32308671Y-6888402D01*
X32308669Y-6888403D01*
X32205311Y-6965778D01*
X32139847Y-6990195D01*
X32071574Y-6975344D01*
X32056689Y-6965778D01*
X31953330Y-6888403D01*
X31953328Y-6888402D01*
X31818482Y-6838108D01*
X31818483Y-6838108D01*
X31758883Y-6831701D01*
X31758881Y-6831700D01*
X31758873Y-6831700D01*
X31758864Y-6831700D01*
X29963129Y-6831700D01*
X29963123Y-6831701D01*
X29903516Y-6838108D01*
X29768671Y-6888402D01*
X29768669Y-6888403D01*
X29665311Y-6965778D01*
X29599847Y-6990195D01*
X29531574Y-6975344D01*
X29516689Y-6965778D01*
X29413330Y-6888403D01*
X29413328Y-6888402D01*
X29278482Y-6838108D01*
X29278483Y-6838108D01*
X29218883Y-6831701D01*
X29218881Y-6831700D01*
X29218873Y-6831700D01*
X29218864Y-6831700D01*
X27423129Y-6831700D01*
X27423123Y-6831701D01*
X27363516Y-6838108D01*
X27228671Y-6888402D01*
X27228669Y-6888403D01*
X27125311Y-6965778D01*
X27059847Y-6990195D01*
X26991574Y-6975344D01*
X26976689Y-6965778D01*
X26873330Y-6888403D01*
X26873328Y-6888402D01*
X26738482Y-6838108D01*
X26738483Y-6838108D01*
X26678883Y-6831701D01*
X26678881Y-6831700D01*
X26678873Y-6831700D01*
X26678864Y-6831700D01*
X24883129Y-6831700D01*
X24883123Y-6831701D01*
X24823516Y-6838108D01*
X24688671Y-6888402D01*
X24688669Y-6888404D01*
X24584894Y-6966090D01*
X24519430Y-6990507D01*
X24451157Y-6975656D01*
X24436272Y-6966090D01*
X24333088Y-6888846D01*
X24333086Y-6888845D01*
X24198379Y-6838603D01*
X24198372Y-6838601D01*
X24138844Y-6832200D01*
X23491000Y-6832200D01*
X23491000Y-9535705D01*
X23386161Y-9487827D01*
X23277473Y-9472200D01*
X23204527Y-9472200D01*
X23095839Y-9487827D01*
X22991000Y-9535705D01*
X22991000Y-6832200D01*
X22343155Y-6832200D01*
X22283627Y-6838601D01*
X22283620Y-6838603D01*
X22148913Y-6888845D01*
X22148910Y-6888847D01*
X22045727Y-6966090D01*
X21980262Y-6990507D01*
X21911989Y-6975655D01*
X21897105Y-6966089D01*
X21793335Y-6888406D01*
X21793328Y-6888402D01*
X21658482Y-6838108D01*
X21658483Y-6838108D01*
X21598883Y-6831701D01*
X21598881Y-6831700D01*
X21598873Y-6831700D01*
X21598864Y-6831700D01*
X19803129Y-6831700D01*
X19803123Y-6831701D01*
X19743516Y-6838108D01*
X19608671Y-6888402D01*
X19608669Y-6888403D01*
X19505311Y-6965778D01*
X19439847Y-6990195D01*
X19371574Y-6975344D01*
X19356689Y-6965778D01*
X19253330Y-6888403D01*
X19253328Y-6888402D01*
X19118482Y-6838108D01*
X19118483Y-6838108D01*
X19058883Y-6831701D01*
X19058881Y-6831700D01*
X19058873Y-6831700D01*
X19058865Y-6831700D01*
X17324500Y-6831700D01*
X17257461Y-6812015D01*
X17211706Y-6759211D01*
X17200500Y-6707700D01*
X17200500Y-6341517D01*
X17220185Y-6274478D01*
X17236814Y-6253841D01*
X19603837Y-3886817D01*
X19665160Y-3853333D01*
X19691518Y-3850499D01*
X20897871Y-3850499D01*
X20897872Y-3850499D01*
X20957483Y-3844091D01*
X21092331Y-3793796D01*
X21207546Y-3707546D01*
X21293796Y-3592331D01*
X21344091Y-3457483D01*
X21350500Y-3397873D01*
X21350499Y-1602128D01*
X21344091Y-1542517D01*
X21342810Y-1539083D01*
X21293797Y-1407671D01*
X21293793Y-1407664D01*
X21207547Y-1292455D01*
X21207544Y-1292452D01*
X21092335Y-1206206D01*
X21092328Y-1206202D01*
X20957482Y-1155908D01*
X20957483Y-1155908D01*
X20897883Y-1149501D01*
X20897881Y-1149500D01*
X20897873Y-1149500D01*
X20897864Y-1149500D01*
X19102129Y-1149500D01*
X19102123Y-1149501D01*
X19042516Y-1155908D01*
X18907671Y-1206202D01*
X18907664Y-1206206D01*
X18792455Y-1292452D01*
X18792452Y-1292455D01*
X18706206Y-1407664D01*
X18706203Y-1407669D01*
X18657189Y-1539083D01*
X18615317Y-1595016D01*
X18549853Y-1619433D01*
X18481580Y-1604581D01*
X18453326Y-1583430D01*
X18331402Y-1461506D01*
X18331395Y-1461501D01*
X18137834Y-1325967D01*
X18137830Y-1325965D01*
X18137828Y-1325964D01*
X17923663Y-1226097D01*
X17923659Y-1226096D01*
X17923655Y-1226094D01*
X17695413Y-1164938D01*
X17695403Y-1164936D01*
X17460001Y-1144341D01*
X17459999Y-1144341D01*
X17224596Y-1164936D01*
X17224586Y-1164938D01*
X16996344Y-1226094D01*
X16996335Y-1226098D01*
X16782171Y-1325964D01*
X16782169Y-1325965D01*
X16588597Y-1461505D01*
X16421508Y-1628594D01*
X16291269Y-1814595D01*
X16236692Y-1858219D01*
X16167193Y-1865412D01*
X16104839Y-1833890D01*
X16088119Y-1814594D01*
X15958113Y-1628926D01*
X15958108Y-1628920D01*
X15791082Y-1461894D01*
X15597578Y-1326399D01*
X15383492Y-1226570D01*
X15383486Y-1226567D01*
X15170000Y-1169364D01*
X15170000Y-2064498D01*
X15062315Y-2015320D01*
X14955763Y-2000000D01*
X14884237Y-2000000D01*
X14777685Y-2015320D01*
X14670000Y-2064498D01*
X14670000Y-1169364D01*
X14669999Y-1169364D01*
X14456513Y-1226567D01*
X14456507Y-1226570D01*
X14242422Y-1326399D01*
X14242420Y-1326400D01*
X14048926Y-1461886D01*
X14048920Y-1461891D01*
X13881891Y-1628920D01*
X13881886Y-1628926D01*
X13746400Y-1822420D01*
X13746399Y-1822422D01*
X13646570Y-2036507D01*
X13646567Y-2036513D01*
X13589364Y-2249999D01*
X13589364Y-2250000D01*
X14486314Y-2250000D01*
X14460507Y-2290156D01*
X14420000Y-2428111D01*
X14420000Y-2571889D01*
X14460507Y-2709844D01*
X14486314Y-2750000D01*
X13589364Y-2750000D01*
X13646567Y-2963486D01*
X13646570Y-2963492D01*
X13746399Y-3177578D01*
X13881894Y-3371082D01*
X14048917Y-3538105D01*
X14242421Y-3673600D01*
X14456507Y-3773429D01*
X14456516Y-3773433D01*
X14670000Y-3830634D01*
X14670000Y-2935501D01*
X14777685Y-2984680D01*
X14884237Y-3000000D01*
X14955763Y-3000000D01*
X15062315Y-2984680D01*
X15170000Y-2935501D01*
X15170000Y-3830633D01*
X15383483Y-3773433D01*
X15383492Y-3773429D01*
X15597578Y-3673600D01*
X15791082Y-3538105D01*
X15958105Y-3371082D01*
X16088119Y-3185405D01*
X16142696Y-3141781D01*
X16212195Y-3134588D01*
X16274549Y-3166110D01*
X16291269Y-3185405D01*
X16421505Y-3371401D01*
X16588599Y-3538495D01*
X16685384Y-3606265D01*
X16782165Y-3674032D01*
X16782167Y-3674033D01*
X16782170Y-3674035D01*
X16996337Y-3773903D01*
X17224592Y-3835063D01*
X17373194Y-3848064D01*
X17438263Y-3873516D01*
X17479242Y-3930107D01*
X17483120Y-3999869D01*
X17450068Y-4059273D01*
X16020966Y-5488375D01*
X16018240Y-5490942D01*
X15971818Y-5532068D01*
X15936586Y-5583109D01*
X15934368Y-5586124D01*
X15896124Y-5634939D01*
X15896119Y-5634948D01*
X15891960Y-5644188D01*
X15880942Y-5663723D01*
X15875187Y-5672061D01*
X15875183Y-5672067D01*
X15875182Y-5672070D01*
X15875180Y-5672074D01*
X15875179Y-5672077D01*
X15853189Y-5730055D01*
X15851757Y-5733513D01*
X15826305Y-5790068D01*
X15824477Y-5800042D01*
X15818453Y-5821653D01*
X15814860Y-5831127D01*
X15814859Y-5831128D01*
X15807384Y-5892685D01*
X15806821Y-5896386D01*
X15795642Y-5957390D01*
X15795642Y-5957395D01*
X15799387Y-6019302D01*
X15799500Y-6023047D01*
X15799500Y-10798151D01*
X15799387Y-10801896D01*
X15795642Y-10863803D01*
X15795642Y-10863805D01*
X15806821Y-10924812D01*
X15807384Y-10928513D01*
X15814859Y-10990070D01*
X15814860Y-10990074D01*
X15818451Y-10999543D01*
X15824474Y-11021146D01*
X15826304Y-11031130D01*
X15851759Y-11087690D01*
X15853189Y-11091141D01*
X15875182Y-11149130D01*
X15875183Y-11149131D01*
X15880936Y-11157466D01*
X15891961Y-11177013D01*
X15896120Y-11186255D01*
X15896124Y-11186260D01*
X15934371Y-11235078D01*
X15936591Y-11238096D01*
X15971812Y-11289124D01*
X15971816Y-11289128D01*
X15971817Y-11289129D01*
X16018250Y-11330264D01*
X16020941Y-11332798D01*
X17744964Y-13056821D01*
X19468888Y-14780745D01*
X19502373Y-14842068D01*
X19497389Y-14911760D01*
X19455517Y-14967693D01*
X19390053Y-14992110D01*
X19352700Y-14989105D01*
X19348482Y-14988108D01*
X19288883Y-14981701D01*
X19288881Y-14981700D01*
X19288873Y-14981700D01*
X19288865Y-14981700D01*
X18452674Y-14981700D01*
X18447272Y-14981464D01*
X18407117Y-14977951D01*
X18391001Y-14976541D01*
X18390998Y-14976541D01*
X18357895Y-14979437D01*
X18334726Y-14981464D01*
X18329323Y-14981700D01*
X15693129Y-14981700D01*
X15693123Y-14981701D01*
X15633516Y-14988108D01*
X15498671Y-15038402D01*
X15498664Y-15038406D01*
X15383455Y-15124652D01*
X15383452Y-15124655D01*
X15297206Y-15239864D01*
X15297202Y-15239871D01*
X15246908Y-15374717D01*
X15241438Y-15425603D01*
X15240501Y-15434323D01*
X15240500Y-15434335D01*
X15240500Y-17230070D01*
X15240501Y-17230076D01*
X15246908Y-17289683D01*
X15297202Y-17424528D01*
X15297206Y-17424535D01*
X15374889Y-17528305D01*
X15399307Y-17593769D01*
X15384456Y-17662042D01*
X15374890Y-17676927D01*
X15297647Y-17780110D01*
X15297645Y-17780113D01*
X15247403Y-17914820D01*
X15247401Y-17914827D01*
X15241000Y-17974355D01*
X15241000Y-18622200D01*
X17945428Y-18622200D01*
X17922318Y-18658160D01*
X17881000Y-18798873D01*
X17881000Y-18945527D01*
X17922318Y-19086240D01*
X17945428Y-19122200D01*
X15241000Y-19122200D01*
X15241000Y-19770044D01*
X15247401Y-19829572D01*
X15247403Y-19829579D01*
X15297645Y-19964286D01*
X15297646Y-19964288D01*
X15374890Y-20067472D01*
X15399307Y-20132936D01*
X15384456Y-20201209D01*
X15374890Y-20216094D01*
X15297204Y-20319869D01*
X15297202Y-20319871D01*
X15246908Y-20454717D01*
X15240501Y-20514316D01*
X15240501Y-20514323D01*
X15240500Y-20514335D01*
X15240500Y-21307260D01*
X15220815Y-21374299D01*
X15168011Y-21420054D01*
X15098853Y-21429998D01*
X15035297Y-21400973D01*
X15028819Y-21394941D01*
X14150557Y-20516679D01*
X14117072Y-20455356D01*
X14114710Y-20418195D01*
X14127659Y-20270200D01*
X14107063Y-20034792D01*
X14045903Y-19806537D01*
X13946035Y-19592371D01*
X13946032Y-19592366D01*
X13810494Y-19398797D01*
X13643402Y-19231706D01*
X13643396Y-19231701D01*
X13457842Y-19101775D01*
X13414217Y-19047198D01*
X13407023Y-18977700D01*
X13438546Y-18915345D01*
X13457842Y-18898625D01*
X13600302Y-18798873D01*
X13643401Y-18768695D01*
X13810495Y-18601601D01*
X13946035Y-18408030D01*
X14045903Y-18193863D01*
X14107063Y-17965608D01*
X14127659Y-17730200D01*
X14125233Y-17702477D01*
X14122942Y-17676291D01*
X14107063Y-17494792D01*
X14050180Y-17282500D01*
X14045905Y-17266544D01*
X14045904Y-17266543D01*
X14045903Y-17266537D01*
X13946035Y-17052371D01*
X13939542Y-17043097D01*
X13810494Y-16858797D01*
X13643402Y-16691706D01*
X13643396Y-16691701D01*
X13457842Y-16561775D01*
X13414217Y-16507198D01*
X13407023Y-16437700D01*
X13438546Y-16375345D01*
X13457842Y-16358625D01*
X13531230Y-16307238D01*
X13643401Y-16228695D01*
X13810495Y-16061601D01*
X13946035Y-15868030D01*
X14045903Y-15653863D01*
X14107063Y-15425608D01*
X14127659Y-15190200D01*
X14107063Y-14954792D01*
X14045903Y-14726537D01*
X13946035Y-14512371D01*
X13922196Y-14478324D01*
X13810494Y-14318797D01*
X13643402Y-14151706D01*
X13643396Y-14151701D01*
X13457842Y-14021775D01*
X13414217Y-13967198D01*
X13407023Y-13897700D01*
X13438546Y-13835345D01*
X13457842Y-13818625D01*
X13631640Y-13696930D01*
X13643401Y-13688695D01*
X13810495Y-13521601D01*
X13946035Y-13328030D01*
X14045903Y-13113863D01*
X14107063Y-12885608D01*
X14127659Y-12650200D01*
X14107063Y-12414792D01*
X14045903Y-12186537D01*
X13946035Y-11972371D01*
X13810495Y-11778799D01*
X13810494Y-11778797D01*
X13643402Y-11611706D01*
X13643395Y-11611701D01*
X13449834Y-11476167D01*
X13449830Y-11476165D01*
X13315155Y-11413365D01*
X13235663Y-11376297D01*
X13235659Y-11376296D01*
X13235655Y-11376294D01*
X13007413Y-11315138D01*
X13007403Y-11315136D01*
X12772001Y-11294541D01*
X12771999Y-11294541D01*
X12536596Y-11315136D01*
X12536586Y-11315138D01*
X12308344Y-11376294D01*
X12308335Y-11376298D01*
X12094171Y-11476164D01*
X12094169Y-11476165D01*
X11900597Y-11611705D01*
X11733505Y-11778797D01*
X11597965Y-11972369D01*
X11597964Y-11972371D01*
X11498098Y-12186535D01*
X11498094Y-12186544D01*
X11436938Y-12414786D01*
X11436936Y-12414796D01*
X11416341Y-12650199D01*
X11416341Y-12650200D01*
X11436936Y-12885603D01*
X11436938Y-12885613D01*
X11498094Y-13113855D01*
X11498096Y-13113859D01*
X11498097Y-13113863D01*
X11571356Y-13270966D01*
X11597965Y-13328030D01*
X11597967Y-13328034D01*
X11733501Y-13521595D01*
X11733506Y-13521602D01*
X11900597Y-13688693D01*
X11900603Y-13688698D01*
X12086158Y-13818625D01*
X12129783Y-13873202D01*
X12136977Y-13942700D01*
X12105454Y-14005055D01*
X12086158Y-14021775D01*
X11900597Y-14151705D01*
X11733505Y-14318797D01*
X11597965Y-14512369D01*
X11597964Y-14512371D01*
X11498098Y-14726535D01*
X11498094Y-14726544D01*
X11436938Y-14954786D01*
X11436936Y-14954796D01*
X11416341Y-15190199D01*
X11416341Y-15190200D01*
X11436936Y-15425603D01*
X11436938Y-15425613D01*
X11498094Y-15653855D01*
X11498096Y-15653859D01*
X11498097Y-15653863D01*
X11582660Y-15835209D01*
X11597965Y-15868030D01*
X11597967Y-15868034D01*
X11690619Y-16000354D01*
X11722353Y-16045675D01*
X11733501Y-16061595D01*
X11733506Y-16061602D01*
X11900597Y-16228693D01*
X11900603Y-16228698D01*
X12086158Y-16358625D01*
X12129783Y-16413202D01*
X12136977Y-16482700D01*
X12105454Y-16545055D01*
X12086158Y-16561775D01*
X11900597Y-16691705D01*
X11733506Y-16858796D01*
X11637000Y-16996623D01*
X11582423Y-17040248D01*
X11535425Y-17049500D01*
X8391520Y-17049500D01*
X8324481Y-17029815D01*
X8303839Y-17013181D01*
X8210188Y-16919530D01*
X8120580Y-16865360D01*
X8064606Y-16831522D01*
X7902196Y-16780914D01*
X7902194Y-16780913D01*
X7902192Y-16780913D01*
X7852778Y-16776423D01*
X7831616Y-16774500D01*
X7168384Y-16774500D01*
X7149145Y-16776248D01*
X7097807Y-16780913D01*
X6935393Y-16831522D01*
X6789811Y-16919530D01*
X6669530Y-17039811D01*
X6581522Y-17185393D01*
X6530913Y-17347807D01*
X6524500Y-17418386D01*
X6524500Y-17931613D01*
X6530913Y-18002192D01*
X6530913Y-18002194D01*
X6530914Y-18002196D01*
X6581522Y-18164606D01*
X6665386Y-18303334D01*
X6669530Y-18310188D01*
X6771661Y-18412319D01*
X6805146Y-18473642D01*
X6800162Y-18543334D01*
X6771661Y-18587681D01*
X6669531Y-18689810D01*
X6669530Y-18689811D01*
X6581522Y-18835393D01*
X6530913Y-18997807D01*
X6526425Y-19047198D01*
X6524500Y-19068384D01*
X6524500Y-19581616D01*
X500Y-19581616D01*
X500Y-1002705D01*
X736Y-997299D01*
X4476Y-954554D01*
X16918Y-828223D01*
X20542Y-808309D01*
X38402Y-741653D01*
X66683Y-648424D01*
X72953Y-632037D01*
X104420Y-564558D01*
X105872Y-561653D01*
X150764Y-477666D01*
X154657Y-471331D01*
X187837Y-423945D01*
X200994Y-405155D01*
X203827Y-401420D01*
X263122Y-329168D01*
X267162Y-324710D01*
X324710Y-267162D01*
X329168Y-263122D01*
X401420Y-203827D01*
X405155Y-200994D01*
X471334Y-154654D01*
X477666Y-150764D01*
X561653Y-105872D01*
X564558Y-104420D01*
X632037Y-72953D01*
X648424Y-66683D01*
X741653Y-38402D01*
X808309Y-20542D01*
X828223Y-16918D01*
X954542Y-4477D01*
X997305Y-735D01*
X1002706Y-500D01*
X78697293Y-500D01*
X78702695Y-735D01*
G37*
%TD.AperFunction*%
%TD*%
M02*
