%TF.GenerationSoftware,KiCad,Pcbnew,7.0.9*%
%TF.CreationDate,2023-12-13T17:29:23+01:00*%
%TF.ProjectId,water-tomorrow-pico-triple,77617465-722d-4746-9f6d-6f72726f772d,rev?*%
%TF.SameCoordinates,Original*%
%TF.FileFunction,Soldermask,Bot*%
%TF.FilePolarity,Negative*%
%FSLAX46Y46*%
G04 Gerber Fmt 4.6, Leading zero omitted, Abs format (unit mm)*
G04 Created by KiCad (PCBNEW 7.0.9) date 2023-12-13 17:29:23*
%MOMM*%
%LPD*%
G01*
G04 APERTURE LIST*
G04 Aperture macros list*
%AMRoundRect*
0 Rectangle with rounded corners*
0 $1 Rounding radius*
0 $2 $3 $4 $5 $6 $7 $8 $9 X,Y pos of 4 corners*
0 Add a 4 corners polygon primitive as box body*
4,1,4,$2,$3,$4,$5,$6,$7,$8,$9,$2,$3,0*
0 Add four circle primitives for the rounded corners*
1,1,$1+$1,$2,$3*
1,1,$1+$1,$4,$5*
1,1,$1+$1,$6,$7*
1,1,$1+$1,$8,$9*
0 Add four rect primitives between the rounded corners*
20,1,$1+$1,$2,$3,$4,$5,0*
20,1,$1+$1,$4,$5,$6,$7,0*
20,1,$1+$1,$6,$7,$8,$9,0*
20,1,$1+$1,$8,$9,$2,$3,0*%
G04 Aperture macros list end*
%ADD10RoundRect,0.102000X-0.714000X-0.714000X0.714000X-0.714000X0.714000X0.714000X-0.714000X0.714000X0*%
%ADD11C,1.632000*%
%ADD12C,3.520000*%
%ADD13R,1.700000X1.700000*%
%ADD14O,1.700000X1.700000*%
%ADD15O,1.800000X1.800000*%
%ADD16O,1.500000X1.500000*%
G04 APERTURE END LIST*
D10*
%TO.C,J6*%
X58070000Y-34790000D03*
D11*
X60570000Y-34790000D03*
X62570000Y-34790000D03*
X65070000Y-34790000D03*
D12*
X55000000Y-37500000D03*
X68140000Y-37500000D03*
%TD*%
D10*
%TO.C,J5*%
X37320000Y-34790000D03*
D11*
X39820000Y-34790000D03*
X41820000Y-34790000D03*
X44320000Y-34790000D03*
D12*
X34250000Y-37500000D03*
X47390000Y-37500000D03*
%TD*%
%TO.C,J8*%
X26750000Y-37460000D03*
X13610000Y-37460000D03*
D11*
X23680000Y-34750000D03*
X21180000Y-34750000D03*
X19180000Y-34750000D03*
D10*
X16680000Y-34750000D03*
%TD*%
D13*
%TO.C,J4*%
X67500000Y-2500000D03*
D14*
X64960000Y-2500000D03*
X62420000Y-2500000D03*
%TD*%
D13*
%TO.C,J3*%
X42500000Y-2500000D03*
D14*
X39960000Y-2500000D03*
X37420000Y-2500000D03*
%TD*%
D13*
%TO.C,J2*%
X20000000Y-2500000D03*
D14*
X17460000Y-2500000D03*
X14920000Y-2500000D03*
%TD*%
D13*
%TO.C,J1*%
X12772000Y-25350200D03*
D14*
X12772000Y-22810200D03*
X12772000Y-20270200D03*
X12772000Y-17730200D03*
X12772000Y-15190200D03*
X12772000Y-12650200D03*
%TD*%
D15*
%TO.C,U1*%
X66291000Y-16147200D03*
D16*
X63261000Y-16447200D03*
X63261000Y-21297200D03*
D15*
X66291000Y-21597200D03*
D14*
X66421000Y-9982200D03*
X63881000Y-9982200D03*
D13*
X61341000Y-9982200D03*
D14*
X58801000Y-9982200D03*
X56261000Y-9982200D03*
X53721000Y-9982200D03*
X51181000Y-9982200D03*
D13*
X48641000Y-9982200D03*
D14*
X46101000Y-9982200D03*
X43561000Y-9982200D03*
X41021000Y-9982200D03*
X38481000Y-9982200D03*
D13*
X35941000Y-9982200D03*
D14*
X33401000Y-9982200D03*
X30861000Y-9982200D03*
X28321000Y-9982200D03*
X25781000Y-9982200D03*
D13*
X23241000Y-9982200D03*
D14*
X20701000Y-9982200D03*
X18161000Y-9982200D03*
X18161000Y-27762200D03*
X20701000Y-27762200D03*
D13*
X23241000Y-27762200D03*
D14*
X25781000Y-27762200D03*
X28321000Y-27762200D03*
X30861000Y-27762200D03*
X33401000Y-27762200D03*
D13*
X35941000Y-27762200D03*
D14*
X38481000Y-27762200D03*
X41021000Y-27762200D03*
X43561000Y-27762200D03*
X46101000Y-27762200D03*
D13*
X48641000Y-27762200D03*
D14*
X51181000Y-27762200D03*
X53721000Y-27762200D03*
X56261000Y-27762200D03*
X58801000Y-27762200D03*
D13*
X61341000Y-27762200D03*
D14*
X63881000Y-27762200D03*
X66421000Y-27762200D03*
X18391000Y-16332200D03*
D13*
X18391000Y-18872200D03*
D14*
X18391000Y-21412200D03*
%TD*%
M02*
