%TF.GenerationSoftware,KiCad,Pcbnew,7.0.9*%
%TF.CreationDate,2023-12-13T17:29:23+01:00*%
%TF.ProjectId,water-tomorrow-pico-triple,77617465-722d-4746-9f6d-6f72726f772d,rev?*%
%TF.SameCoordinates,Original*%
%TF.FileFunction,Soldermask,Top*%
%TF.FilePolarity,Negative*%
%FSLAX46Y46*%
G04 Gerber Fmt 4.6, Leading zero omitted, Abs format (unit mm)*
G04 Created by KiCad (PCBNEW 7.0.9) date 2023-12-13 17:29:23*
%MOMM*%
%LPD*%
G01*
G04 APERTURE LIST*
G04 Aperture macros list*
%AMRoundRect*
0 Rectangle with rounded corners*
0 $1 Rounding radius*
0 $2 $3 $4 $5 $6 $7 $8 $9 X,Y pos of 4 corners*
0 Add a 4 corners polygon primitive as box body*
4,1,4,$2,$3,$4,$5,$6,$7,$8,$9,$2,$3,0*
0 Add four circle primitives for the rounded corners*
1,1,$1+$1,$2,$3*
1,1,$1+$1,$4,$5*
1,1,$1+$1,$6,$7*
1,1,$1+$1,$8,$9*
0 Add four rect primitives between the rounded corners*
20,1,$1+$1,$2,$3,$4,$5,0*
20,1,$1+$1,$4,$5,$6,$7,0*
20,1,$1+$1,$6,$7,$8,$9,0*
20,1,$1+$1,$8,$9,$2,$3,0*%
G04 Aperture macros list end*
%ADD10RoundRect,0.102000X-0.714000X-0.714000X0.714000X-0.714000X0.714000X0.714000X-0.714000X0.714000X0*%
%ADD11C,1.632000*%
%ADD12C,3.520000*%
%ADD13R,1.700000X1.700000*%
%ADD14O,1.700000X1.700000*%
%ADD15RoundRect,0.200000X0.200000X0.275000X-0.200000X0.275000X-0.200000X-0.275000X0.200000X-0.275000X0*%
%ADD16RoundRect,0.250000X1.000000X0.650000X-1.000000X0.650000X-1.000000X-0.650000X1.000000X-0.650000X0*%
%ADD17RoundRect,0.250000X-1.000000X-0.650000X1.000000X-0.650000X1.000000X0.650000X-1.000000X0.650000X0*%
%ADD18RoundRect,0.150000X-0.150000X0.587500X-0.150000X-0.587500X0.150000X-0.587500X0.150000X0.587500X0*%
%ADD19RoundRect,0.200000X-0.275000X0.200000X-0.275000X-0.200000X0.275000X-0.200000X0.275000X0.200000X0*%
%ADD20RoundRect,0.250000X-0.650000X1.000000X-0.650000X-1.000000X0.650000X-1.000000X0.650000X1.000000X0*%
%ADD21O,1.800000X1.800000*%
%ADD22O,1.500000X1.500000*%
%ADD23R,1.700000X3.500000*%
%ADD24R,3.500000X1.700000*%
%ADD25RoundRect,0.150000X-0.587500X-0.150000X0.587500X-0.150000X0.587500X0.150000X-0.587500X0.150000X0*%
%ADD26RoundRect,0.200000X0.275000X-0.200000X0.275000X0.200000X-0.275000X0.200000X-0.275000X-0.200000X0*%
G04 APERTURE END LIST*
D10*
%TO.C,J6*%
X58070000Y-34790000D03*
D11*
X60570000Y-34790000D03*
X62570000Y-34790000D03*
X65070000Y-34790000D03*
D12*
X55000000Y-37500000D03*
X68140000Y-37500000D03*
%TD*%
D10*
%TO.C,J5*%
X37320000Y-34790000D03*
D11*
X39820000Y-34790000D03*
X41820000Y-34790000D03*
X44320000Y-34790000D03*
D12*
X34250000Y-37500000D03*
X47390000Y-37500000D03*
%TD*%
%TO.C,J8*%
X26750000Y-37460000D03*
X13610000Y-37460000D03*
D11*
X23680000Y-34750000D03*
X21180000Y-34750000D03*
X19180000Y-34750000D03*
D10*
X16680000Y-34750000D03*
%TD*%
D13*
%TO.C,J4*%
X67500000Y-2500000D03*
D14*
X64960000Y-2500000D03*
X62420000Y-2500000D03*
%TD*%
D13*
%TO.C,J3*%
X42500000Y-2500000D03*
D14*
X39960000Y-2500000D03*
X37420000Y-2500000D03*
%TD*%
D13*
%TO.C,J2*%
X20000000Y-2500000D03*
D14*
X17460000Y-2500000D03*
X14920000Y-2500000D03*
%TD*%
D13*
%TO.C,J1*%
X12772000Y-25350200D03*
D14*
X12772000Y-22810200D03*
X12772000Y-20270200D03*
X12772000Y-17730200D03*
X12772000Y-15190200D03*
X12772000Y-12650200D03*
%TD*%
D15*
%TO.C,R1*%
X10150000Y-32710000D03*
X8500000Y-32710000D03*
%TD*%
D16*
%TO.C,D1*%
X12750000Y-29500000D03*
X8750000Y-29500000D03*
%TD*%
D17*
%TO.C,D3*%
X72000000Y-39000000D03*
X76000000Y-39000000D03*
%TD*%
D18*
%TO.C,Q3*%
X71750000Y-28500000D03*
X69850000Y-28500000D03*
X70800000Y-30375000D03*
%TD*%
D19*
%TO.C,R2*%
X9750000Y-20350000D03*
X9750000Y-22000000D03*
%TD*%
D20*
%TO.C,D2*%
X51250000Y-34000000D03*
X51250000Y-38000000D03*
%TD*%
D15*
%TO.C,R5*%
X71750000Y-26000000D03*
X70100000Y-26000000D03*
%TD*%
D21*
%TO.C,U1*%
X66291000Y-16147200D03*
D22*
X63261000Y-16447200D03*
X63261000Y-21297200D03*
D21*
X66291000Y-21597200D03*
D14*
X66421000Y-9982200D03*
D23*
X66421000Y-9082200D03*
D14*
X63881000Y-9982200D03*
D23*
X63881000Y-9082200D03*
D13*
X61341000Y-9982200D03*
D23*
X61341000Y-9082200D03*
D14*
X58801000Y-9982200D03*
D23*
X58801000Y-9082200D03*
D14*
X56261000Y-9982200D03*
D23*
X56261000Y-9082200D03*
D14*
X53721000Y-9982200D03*
D23*
X53721000Y-9082200D03*
D14*
X51181000Y-9982200D03*
D23*
X51181000Y-9082200D03*
D13*
X48641000Y-9982200D03*
D23*
X48641000Y-9082200D03*
D14*
X46101000Y-9982200D03*
D23*
X46101000Y-9082200D03*
D14*
X43561000Y-9982200D03*
D23*
X43561000Y-9082200D03*
D14*
X41021000Y-9982200D03*
D23*
X41021000Y-9082200D03*
D14*
X38481000Y-9982200D03*
D23*
X38481000Y-9082200D03*
D13*
X35941000Y-9982200D03*
D23*
X35941000Y-9082200D03*
D14*
X33401000Y-9982200D03*
D23*
X33401000Y-9082200D03*
D14*
X30861000Y-9982200D03*
D23*
X30861000Y-9082200D03*
D14*
X28321000Y-9982200D03*
D23*
X28321000Y-9082200D03*
D14*
X25781000Y-9982200D03*
D23*
X25781000Y-9082200D03*
D13*
X23241000Y-9982200D03*
D23*
X23241000Y-9082200D03*
D14*
X20701000Y-9982200D03*
D23*
X20701000Y-9082200D03*
D14*
X18161000Y-9982200D03*
D23*
X18161000Y-9082200D03*
D14*
X18161000Y-27762200D03*
D23*
X18161000Y-28662200D03*
D14*
X20701000Y-27762200D03*
D23*
X20701000Y-28662200D03*
D13*
X23241000Y-27762200D03*
D23*
X23241000Y-28662200D03*
D14*
X25781000Y-27762200D03*
D23*
X25781000Y-28662200D03*
D14*
X28321000Y-27762200D03*
D23*
X28321000Y-28662200D03*
D14*
X30861000Y-27762200D03*
D23*
X30861000Y-28662200D03*
D14*
X33401000Y-27762200D03*
D23*
X33401000Y-28662200D03*
D13*
X35941000Y-27762200D03*
D23*
X35941000Y-28662200D03*
D14*
X38481000Y-27762200D03*
D23*
X38481000Y-28662200D03*
D14*
X41021000Y-27762200D03*
D23*
X41021000Y-28662200D03*
D14*
X43561000Y-27762200D03*
D23*
X43561000Y-28662200D03*
D14*
X46101000Y-27762200D03*
D23*
X46101000Y-28662200D03*
D13*
X48641000Y-27762200D03*
D23*
X48641000Y-28662200D03*
D14*
X51181000Y-27762200D03*
D23*
X51181000Y-28662200D03*
D14*
X53721000Y-27762200D03*
D23*
X53721000Y-28662200D03*
D14*
X56261000Y-27762200D03*
D23*
X56261000Y-28662200D03*
D14*
X58801000Y-27762200D03*
D23*
X58801000Y-28662200D03*
D13*
X61341000Y-27762200D03*
D23*
X61341000Y-28662200D03*
D14*
X63881000Y-27762200D03*
D23*
X63881000Y-28662200D03*
D14*
X66421000Y-27762200D03*
D23*
X66421000Y-28662200D03*
D14*
X18391000Y-16332200D03*
D24*
X17491000Y-16332200D03*
D13*
X18391000Y-18872200D03*
D24*
X17491000Y-18872200D03*
D14*
X18391000Y-21412200D03*
D24*
X17491000Y-21412200D03*
%TD*%
D25*
%TO.C,Q2*%
X8750000Y-34810000D03*
X8750000Y-36710000D03*
X10625000Y-35760000D03*
%TD*%
D18*
%TO.C,Q1*%
X31450000Y-34125000D03*
X29550000Y-34125000D03*
X30500000Y-36000000D03*
%TD*%
D15*
%TO.C,R4*%
X31400000Y-32000000D03*
X29750000Y-32000000D03*
%TD*%
D26*
%TO.C,R3*%
X7500000Y-19325000D03*
X7500000Y-17675000D03*
%TD*%
M02*
