%TF.GenerationSoftware,KiCad,Pcbnew,7.0.9*%
%TF.CreationDate,2023-12-13T17:29:23+01:00*%
%TF.ProjectId,water-tomorrow-pico-triple,77617465-722d-4746-9f6d-6f72726f772d,rev?*%
%TF.SameCoordinates,Original*%
%TF.FileFunction,Copper,L2,Bot*%
%TF.FilePolarity,Positive*%
%FSLAX46Y46*%
G04 Gerber Fmt 4.6, Leading zero omitted, Abs format (unit mm)*
G04 Created by KiCad (PCBNEW 7.0.9) date 2023-12-13 17:29:23*
%MOMM*%
%LPD*%
G01*
G04 APERTURE LIST*
%TA.AperFunction,ComponentPad*%
%ADD10R,1.428000X1.428000*%
%TD*%
%TA.AperFunction,ComponentPad*%
%ADD11C,1.428000*%
%TD*%
%TA.AperFunction,ComponentPad*%
%ADD12C,3.316000*%
%TD*%
%TA.AperFunction,ComponentPad*%
%ADD13R,1.700000X1.700000*%
%TD*%
%TA.AperFunction,ComponentPad*%
%ADD14O,1.700000X1.700000*%
%TD*%
%TA.AperFunction,ViaPad*%
%ADD15C,0.800000*%
%TD*%
%TA.AperFunction,ViaPad*%
%ADD16C,6.000000*%
%TD*%
%TA.AperFunction,Conductor*%
%ADD17C,0.400000*%
%TD*%
%TA.AperFunction,Conductor*%
%ADD18C,0.250000*%
%TD*%
%TA.AperFunction,Conductor*%
%ADD19C,0.600000*%
%TD*%
G04 APERTURE END LIST*
D10*
%TO.P,J6,1,VBUS*%
%TO.N,VDC*%
X58070000Y-34790000D03*
D11*
%TO.P,J6,2,D-*%
%TO.N,unconnected-(J6-D--Pad2)*%
X60570000Y-34790000D03*
%TO.P,J6,3,D+*%
%TO.N,unconnected-(J6-D+-Pad3)*%
X62570000Y-34790000D03*
%TO.P,J6,4,GND*%
%TO.N,Net-(D3-A)*%
X65070000Y-34790000D03*
D12*
%TO.P,J6,SH1*%
%TO.N,N/C*%
X55000000Y-37500000D03*
%TO.P,J6,SH2*%
X68140000Y-37500000D03*
%TD*%
D10*
%TO.P,J5,1,VBUS*%
%TO.N,VDC*%
X37320000Y-34790000D03*
D11*
%TO.P,J5,2,D-*%
%TO.N,unconnected-(J5-D--Pad2)*%
X39820000Y-34790000D03*
%TO.P,J5,3,D+*%
%TO.N,unconnected-(J5-D+-Pad3)*%
X41820000Y-34790000D03*
%TO.P,J5,4,GND*%
%TO.N,Net-(D2-A)*%
X44320000Y-34790000D03*
D12*
%TO.P,J5,SH1*%
%TO.N,N/C*%
X34250000Y-37500000D03*
%TO.P,J5,SH2*%
X47390000Y-37500000D03*
%TD*%
%TO.P,J8,SH2*%
%TO.N,N/C*%
X26750000Y-37460000D03*
%TO.P,J8,SH1*%
X13610000Y-37460000D03*
D11*
%TO.P,J8,4,GND*%
%TO.N,Net-(D1-A)*%
X23680000Y-34750000D03*
%TO.P,J8,3,D+*%
%TO.N,unconnected-(J8-D+-Pad3)*%
X21180000Y-34750000D03*
%TO.P,J8,2,D-*%
%TO.N,unconnected-(J8-D--Pad2)*%
X19180000Y-34750000D03*
D10*
%TO.P,J8,1,VBUS*%
%TO.N,VDC*%
X16680000Y-34750000D03*
%TD*%
D13*
%TO.P,J4,1,Pin_1*%
%TO.N,/ADC2*%
X67500000Y-2500000D03*
D14*
%TO.P,J4,2,Pin_2*%
%TO.N,VDC*%
X64960000Y-2500000D03*
%TO.P,J4,3,Pin_3*%
%TO.N,GND*%
X62420000Y-2500000D03*
%TD*%
D13*
%TO.P,J3,1,Pin_1*%
%TO.N,/ADC1*%
X42500000Y-2500000D03*
D14*
%TO.P,J3,2,Pin_2*%
%TO.N,VDC*%
X39960000Y-2500000D03*
%TO.P,J3,3,Pin_3*%
%TO.N,GND*%
X37420000Y-2500000D03*
%TD*%
D13*
%TO.P,J2,1,Pin_1*%
%TO.N,/ADC0*%
X20000000Y-2500000D03*
D14*
%TO.P,J2,2,Pin_2*%
%TO.N,VDC*%
X17460000Y-2500000D03*
%TO.P,J2,3,Pin_3*%
%TO.N,GND*%
X14920000Y-2500000D03*
%TD*%
D13*
%TO.P,J1,1,Pin_1*%
%TO.N,+3.3V*%
X12772000Y-25350200D03*
D14*
%TO.P,J1,2,Pin_2*%
%TO.N,GND*%
X12772000Y-22810200D03*
%TO.P,J1,3,Pin_3*%
%TO.N,/SCL*%
X12772000Y-20270200D03*
%TO.P,J1,4,Pin_4*%
%TO.N,/SDA*%
X12772000Y-17730200D03*
%TO.P,J1,5,Pin_5*%
%TO.N,unconnected-(J1-Pin_5-Pad5)*%
X12772000Y-15190200D03*
%TO.P,J1,6,Pin_6*%
%TO.N,unconnected-(J1-Pin_6-Pad6)*%
X12772000Y-12650200D03*
%TD*%
%TO.P,U1,1,GPIO0*%
%TO.N,unconnected-(U1-GPIO0-Pad1)*%
X66421000Y-9982200D03*
%TO.P,U1,2,GPIO1*%
%TO.N,unconnected-(U1-GPIO1-Pad2)*%
X63881000Y-9982200D03*
D13*
%TO.P,U1,3,GND*%
%TO.N,GND*%
X61341000Y-9982200D03*
D14*
%TO.P,U1,4,GPIO2*%
%TO.N,unconnected-(U1-GPIO2-Pad4)*%
X58801000Y-9982200D03*
%TO.P,U1,5,GPIO3*%
%TO.N,unconnected-(U1-GPIO3-Pad5)*%
X56261000Y-9982200D03*
%TO.P,U1,6,GPIO4*%
%TO.N,unconnected-(U1-GPIO4-Pad6)*%
X53721000Y-9982200D03*
%TO.P,U1,7,GPIO5*%
%TO.N,unconnected-(U1-GPIO5-Pad7)*%
X51181000Y-9982200D03*
D13*
%TO.P,U1,8,GND*%
%TO.N,GND*%
X48641000Y-9982200D03*
D14*
%TO.P,U1,9,GPIO6*%
%TO.N,unconnected-(U1-GPIO6-Pad9)*%
X46101000Y-9982200D03*
%TO.P,U1,10,GPIO7*%
%TO.N,unconnected-(U1-GPIO7-Pad10)*%
X43561000Y-9982200D03*
%TO.P,U1,11,GPIO8*%
%TO.N,unconnected-(U1-GPIO8-Pad11)*%
X41021000Y-9982200D03*
%TO.P,U1,12,GPIO9*%
%TO.N,unconnected-(U1-GPIO9-Pad12)*%
X38481000Y-9982200D03*
D13*
%TO.P,U1,13,GND*%
%TO.N,GND*%
X35941000Y-9982200D03*
D14*
%TO.P,U1,14,GPIO10*%
%TO.N,unconnected-(U1-GPIO10-Pad14)*%
X33401000Y-9982200D03*
%TO.P,U1,15,GPIO11*%
%TO.N,unconnected-(U1-GPIO11-Pad15)*%
X30861000Y-9982200D03*
%TO.P,U1,16,GPIO12*%
%TO.N,unconnected-(U1-GPIO12-Pad16)*%
X28321000Y-9982200D03*
%TO.P,U1,17,GPIO13*%
%TO.N,unconnected-(U1-GPIO13-Pad17)*%
X25781000Y-9982200D03*
D13*
%TO.P,U1,18,GND*%
%TO.N,GND*%
X23241000Y-9982200D03*
D14*
%TO.P,U1,19,GPIO14*%
%TO.N,unconnected-(U1-GPIO14-Pad19)*%
X20701000Y-9982200D03*
%TO.P,U1,20,GPIO15*%
%TO.N,unconnected-(U1-GPIO15-Pad20)*%
X18161000Y-9982200D03*
%TO.P,U1,21,GPIO16*%
%TO.N,unconnected-(U1-GPIO16-Pad21)*%
X18161000Y-27762200D03*
%TO.P,U1,22,GPIO17*%
%TO.N,unconnected-(U1-GPIO17-Pad22)*%
X20701000Y-27762200D03*
D13*
%TO.P,U1,23,GND*%
%TO.N,GND*%
X23241000Y-27762200D03*
D14*
%TO.P,U1,24,GPIO18*%
%TO.N,/PWM_M0*%
X25781000Y-27762200D03*
%TO.P,U1,25,GPIO19*%
%TO.N,/PWM_M1*%
X28321000Y-27762200D03*
%TO.P,U1,26,GPIO20*%
%TO.N,/SDA*%
X30861000Y-27762200D03*
%TO.P,U1,27,GPIO21*%
%TO.N,/SCL*%
X33401000Y-27762200D03*
D13*
%TO.P,U1,28,GND*%
%TO.N,GND*%
X35941000Y-27762200D03*
D14*
%TO.P,U1,29,GPIO22*%
%TO.N,/PWM_M2*%
X38481000Y-27762200D03*
%TO.P,U1,30,RUN*%
%TO.N,unconnected-(U1-RUN-Pad30)*%
X41021000Y-27762200D03*
%TO.P,U1,31,GPIO26_ADC0*%
%TO.N,/ADC0*%
X43561000Y-27762200D03*
%TO.P,U1,32,GPIO27_ADC1*%
%TO.N,/ADC1*%
X46101000Y-27762200D03*
D13*
%TO.P,U1,33,AGND*%
%TO.N,unconnected-(U1-AGND-Pad33)*%
X48641000Y-27762200D03*
D14*
%TO.P,U1,34,GPIO28_ADC2*%
%TO.N,/ADC2*%
X51181000Y-27762200D03*
%TO.P,U1,35,ADC_VREF*%
%TO.N,unconnected-(U1-ADC_VREF-Pad35)*%
X53721000Y-27762200D03*
%TO.P,U1,36,3V3*%
%TO.N,+3.3V*%
X56261000Y-27762200D03*
%TO.P,U1,37,3V3_EN*%
%TO.N,unconnected-(U1-3V3_EN-Pad37)*%
X58801000Y-27762200D03*
D13*
%TO.P,U1,38,GND*%
%TO.N,GND*%
X61341000Y-27762200D03*
D14*
%TO.P,U1,39,VSYS*%
%TO.N,unconnected-(U1-VSYS-Pad39)*%
X63881000Y-27762200D03*
%TO.P,U1,40,VBUS*%
%TO.N,VDC*%
X66421000Y-27762200D03*
%TO.P,U1,41,SWCLK*%
%TO.N,unconnected-(U1-SWCLK-Pad41)*%
X18391000Y-16332200D03*
D13*
%TO.P,U1,42,GND*%
%TO.N,GND*%
X18391000Y-18872200D03*
D14*
%TO.P,U1,43,SWDIO*%
%TO.N,unconnected-(U1-SWDIO-Pad43)*%
X18391000Y-21412200D03*
%TD*%
D15*
%TO.N,GND*%
X37000000Y-24500000D03*
X34000000Y-32000000D03*
X58000000Y-40500000D03*
X43500000Y-40000000D03*
X63500000Y-38000000D03*
X56000000Y-32500000D03*
X34500000Y-34000000D03*
X22500000Y-39500000D03*
X9000000Y-26500000D03*
X14500000Y-27500000D03*
X16500000Y-13500000D03*
X50500000Y-4000000D03*
X61000000Y-6500000D03*
X61000000Y-12000000D03*
X73000000Y-19000000D03*
X69000000Y-19000000D03*
X25000000Y-20000000D03*
X45000000Y-20000000D03*
X60000000Y-20000000D03*
X7500000Y-40000000D03*
X2500000Y-40000000D03*
X30000000Y-40000000D03*
X77500000Y-27500000D03*
X77500000Y-10000000D03*
X57500000Y-2500000D03*
X27500000Y-2500000D03*
X2500000Y-25000000D03*
X2500000Y-20000000D03*
X2500000Y-15000000D03*
X2500000Y-10000000D03*
%TO.N,+3.3V*%
X56500000Y-23750000D03*
X30850200Y-25350200D03*
%TO.N,/PWM_M0*%
X11500000Y-32750000D03*
%TO.N,/PWM_M2*%
X65999994Y-24500000D03*
D16*
%TO.N,GND*%
X75600000Y-33500000D03*
X4100000Y-33500000D03*
X75600000Y-4100000D03*
X4100000Y-4100000D03*
%TD*%
D17*
%TO.N,VDC*%
X25000000Y-32250000D02*
X19180000Y-32250000D01*
X27600000Y-34850000D02*
X25000000Y-32250000D01*
X19180000Y-32250000D02*
X16680000Y-34750000D01*
X37260000Y-34850000D02*
X27600000Y-34850000D01*
X37320000Y-34790000D02*
X37260000Y-34850000D01*
D18*
%TO.N,/PWM_M0*%
X16000000Y-32750000D02*
X11500000Y-32750000D01*
X17500000Y-31250000D02*
X16000000Y-32750000D01*
X22293200Y-31250000D02*
X17500000Y-31250000D01*
X25781000Y-27762200D02*
X22293200Y-31250000D01*
D19*
%TO.N,VDC*%
X70650000Y-10900000D02*
X70650000Y-23533200D01*
X70650000Y-23533200D02*
X66421000Y-27762200D01*
X65000000Y-5250000D02*
X70650000Y-10900000D01*
D18*
%TO.N,/PWM_M2*%
X38481000Y-27762200D02*
X41743200Y-24500000D01*
X41743200Y-24500000D02*
X65999994Y-24500000D01*
D19*
%TO.N,VDC*%
X39960000Y-2500000D02*
X39960000Y-4960000D01*
X40250000Y-5250000D02*
X65000000Y-5250000D01*
X39960000Y-4960000D02*
X40250000Y-5250000D01*
X18250000Y-5250000D02*
X40250000Y-5250000D01*
X64960000Y-2500000D02*
X64960000Y-5210000D01*
X64960000Y-5210000D02*
X65000000Y-5250000D01*
X17460000Y-4460000D02*
X18250000Y-5250000D01*
X17460000Y-2500000D02*
X17460000Y-4460000D01*
D17*
%TO.N,+3.3V*%
X56000000Y-23250000D02*
X56500000Y-23750000D01*
X32950400Y-23250000D02*
X56000000Y-23250000D01*
X30850200Y-25350200D02*
X32950400Y-23250000D01*
D19*
%TO.N,/SDA*%
X25861000Y-22762200D02*
X30861000Y-27762200D01*
X12772000Y-17730200D02*
X17804000Y-22762200D01*
X17804000Y-22762200D02*
X25861000Y-22762200D01*
%TO.N,VDC*%
X58070000Y-33180000D02*
X58070000Y-34790000D01*
X59250000Y-32000000D02*
X58070000Y-33180000D01*
X66421000Y-31579000D02*
X66000000Y-32000000D01*
X66421000Y-27762200D02*
X66421000Y-31579000D01*
X66000000Y-32000000D02*
X59250000Y-32000000D01*
D17*
X39860000Y-32250000D02*
X37320000Y-34790000D01*
X48750000Y-32250000D02*
X39860000Y-32250000D01*
X58070000Y-34790000D02*
X51290000Y-34790000D01*
X51290000Y-34790000D02*
X48750000Y-32250000D01*
%TD*%
%TA.AperFunction,Conductor*%
%TO.N,GND*%
G36*
X61591000Y-29112200D02*
G01*
X62238828Y-29112200D01*
X62238844Y-29112199D01*
X62298372Y-29105798D01*
X62298379Y-29105796D01*
X62433086Y-29055554D01*
X62433093Y-29055550D01*
X62548187Y-28969390D01*
X62548190Y-28969387D01*
X62634350Y-28854293D01*
X62634354Y-28854286D01*
X62683422Y-28722729D01*
X62725293Y-28666795D01*
X62790757Y-28642378D01*
X62859030Y-28657230D01*
X62887285Y-28678381D01*
X63009599Y-28800695D01*
X63105562Y-28867889D01*
X63203165Y-28936232D01*
X63203167Y-28936233D01*
X63203170Y-28936235D01*
X63417337Y-29036103D01*
X63645592Y-29097263D01*
X63822034Y-29112700D01*
X63880999Y-29117859D01*
X63881000Y-29117859D01*
X63881001Y-29117859D01*
X63939966Y-29112700D01*
X64116408Y-29097263D01*
X64344663Y-29036103D01*
X64558830Y-28936235D01*
X64752401Y-28800695D01*
X64919495Y-28633601D01*
X65049425Y-28448042D01*
X65104002Y-28404417D01*
X65173500Y-28397223D01*
X65235855Y-28428746D01*
X65252575Y-28448042D01*
X65382501Y-28633596D01*
X65382506Y-28633602D01*
X65549594Y-28800691D01*
X65549597Y-28800693D01*
X65549599Y-28800695D01*
X65567622Y-28813315D01*
X65611247Y-28867889D01*
X65620500Y-28914890D01*
X65620500Y-31075500D01*
X65600815Y-31142539D01*
X65548011Y-31188294D01*
X65496500Y-31199500D01*
X59340194Y-31199500D01*
X59159806Y-31199500D01*
X59153888Y-31200850D01*
X59119089Y-31208791D01*
X59112235Y-31209955D01*
X59070744Y-31214632D01*
X59031341Y-31228419D01*
X59024659Y-31230344D01*
X58983939Y-31239639D01*
X58946320Y-31257755D01*
X58939895Y-31260416D01*
X58900483Y-31274208D01*
X58900476Y-31274212D01*
X58865120Y-31296427D01*
X58859033Y-31299791D01*
X58821410Y-31317910D01*
X58788769Y-31343941D01*
X58783096Y-31347966D01*
X58747739Y-31370183D01*
X58747735Y-31370186D01*
X57440186Y-32677735D01*
X57440183Y-32677739D01*
X57417966Y-32713096D01*
X57413941Y-32718769D01*
X57387910Y-32751410D01*
X57369791Y-32789033D01*
X57366427Y-32795120D01*
X57344212Y-32830476D01*
X57344208Y-32830483D01*
X57330416Y-32869895D01*
X57327755Y-32876320D01*
X57309639Y-32913939D01*
X57300344Y-32954659D01*
X57298419Y-32961341D01*
X57284632Y-33000744D01*
X57279955Y-33042235D01*
X57278791Y-33049089D01*
X57269500Y-33089806D01*
X57269500Y-33487987D01*
X57249815Y-33555026D01*
X57197011Y-33600781D01*
X57188833Y-33604169D01*
X57113671Y-33632202D01*
X57113664Y-33632206D01*
X56998455Y-33718452D01*
X56998452Y-33718455D01*
X56912206Y-33833664D01*
X56912202Y-33833671D01*
X56861908Y-33968517D01*
X56860808Y-33978755D01*
X56834070Y-34043307D01*
X56776678Y-34083155D01*
X56737519Y-34089500D01*
X51631519Y-34089500D01*
X51564480Y-34069815D01*
X51543838Y-34053181D01*
X50404596Y-32913939D01*
X49261598Y-31770941D01*
X49259064Y-31768250D01*
X49217929Y-31721817D01*
X49217928Y-31721816D01*
X49217924Y-31721812D01*
X49166896Y-31686591D01*
X49163887Y-31684377D01*
X49115060Y-31646124D01*
X49115055Y-31646120D01*
X49105813Y-31641961D01*
X49086266Y-31630936D01*
X49077931Y-31625183D01*
X49077932Y-31625183D01*
X49077930Y-31625182D01*
X49019941Y-31603189D01*
X49016490Y-31601759D01*
X48959930Y-31576304D01*
X48949946Y-31574474D01*
X48928343Y-31568451D01*
X48918874Y-31564860D01*
X48918870Y-31564859D01*
X48857313Y-31557384D01*
X48853612Y-31556821D01*
X48792608Y-31545642D01*
X48792603Y-31545642D01*
X48730697Y-31549387D01*
X48726952Y-31549500D01*
X39883036Y-31549500D01*
X39879292Y-31549387D01*
X39817397Y-31545643D01*
X39817390Y-31545643D01*
X39756402Y-31556819D01*
X39752701Y-31557382D01*
X39691125Y-31564860D01*
X39681642Y-31568456D01*
X39660038Y-31574478D01*
X39658535Y-31574754D01*
X39650065Y-31576306D01*
X39650063Y-31576307D01*
X39593527Y-31601752D01*
X39590069Y-31603184D01*
X39532069Y-31625182D01*
X39523724Y-31630942D01*
X39504183Y-31641964D01*
X39494944Y-31646122D01*
X39494939Y-31646125D01*
X39446121Y-31684370D01*
X39443106Y-31686589D01*
X39392072Y-31721816D01*
X39392065Y-31721822D01*
X39350942Y-31768240D01*
X39348375Y-31770966D01*
X37580160Y-33539181D01*
X37518837Y-33572666D01*
X37492479Y-33575500D01*
X36558129Y-33575500D01*
X36558123Y-33575501D01*
X36498516Y-33581908D01*
X36363671Y-33632202D01*
X36363664Y-33632206D01*
X36248455Y-33718452D01*
X36248452Y-33718455D01*
X36162206Y-33833664D01*
X36162202Y-33833671D01*
X36111908Y-33968517D01*
X36106563Y-34018241D01*
X36105501Y-34028123D01*
X36105322Y-34031452D01*
X36103776Y-34031369D01*
X36085815Y-34092539D01*
X36033011Y-34138294D01*
X35981500Y-34149500D01*
X27941519Y-34149500D01*
X27874480Y-34129815D01*
X27853838Y-34113181D01*
X26691157Y-32950500D01*
X25511598Y-31770941D01*
X25509064Y-31768250D01*
X25467929Y-31721817D01*
X25467928Y-31721816D01*
X25467924Y-31721812D01*
X25416896Y-31686591D01*
X25413887Y-31684377D01*
X25365060Y-31646124D01*
X25365055Y-31646120D01*
X25355813Y-31641961D01*
X25336266Y-31630936D01*
X25327931Y-31625183D01*
X25327932Y-31625183D01*
X25327930Y-31625182D01*
X25269941Y-31603189D01*
X25266490Y-31601759D01*
X25209930Y-31576304D01*
X25199946Y-31574474D01*
X25178343Y-31568451D01*
X25168874Y-31564860D01*
X25168870Y-31564859D01*
X25107313Y-31557384D01*
X25103612Y-31556821D01*
X25042608Y-31545642D01*
X25042603Y-31545642D01*
X24980697Y-31549387D01*
X24976952Y-31549500D01*
X23177652Y-31549500D01*
X23110613Y-31529815D01*
X23064858Y-31477011D01*
X23054914Y-31407853D01*
X23083939Y-31344297D01*
X23089971Y-31337819D01*
X23839609Y-30588181D01*
X25325354Y-29102435D01*
X25386675Y-29068952D01*
X25445123Y-29070342D01*
X25545592Y-29097263D01*
X25722034Y-29112700D01*
X25780999Y-29117859D01*
X25781000Y-29117859D01*
X25781001Y-29117859D01*
X25839966Y-29112700D01*
X26016408Y-29097263D01*
X26244663Y-29036103D01*
X26458830Y-28936235D01*
X26652401Y-28800695D01*
X26819495Y-28633601D01*
X26949425Y-28448042D01*
X27004002Y-28404417D01*
X27073500Y-28397223D01*
X27135855Y-28428746D01*
X27152575Y-28448042D01*
X27282500Y-28633595D01*
X27282505Y-28633601D01*
X27449599Y-28800695D01*
X27545562Y-28867889D01*
X27643165Y-28936232D01*
X27643167Y-28936233D01*
X27643170Y-28936235D01*
X27857337Y-29036103D01*
X28085592Y-29097263D01*
X28262034Y-29112700D01*
X28320999Y-29117859D01*
X28321000Y-29117859D01*
X28321001Y-29117859D01*
X28379966Y-29112700D01*
X28556408Y-29097263D01*
X28784663Y-29036103D01*
X28998830Y-28936235D01*
X29192401Y-28800695D01*
X29359495Y-28633601D01*
X29489425Y-28448042D01*
X29544002Y-28404417D01*
X29613500Y-28397223D01*
X29675855Y-28428746D01*
X29692575Y-28448042D01*
X29822500Y-28633595D01*
X29822505Y-28633601D01*
X29989599Y-28800695D01*
X30085562Y-28867889D01*
X30183165Y-28936232D01*
X30183167Y-28936233D01*
X30183170Y-28936235D01*
X30397337Y-29036103D01*
X30625592Y-29097263D01*
X30802034Y-29112700D01*
X30860999Y-29117859D01*
X30861000Y-29117859D01*
X30861001Y-29117859D01*
X30919966Y-29112700D01*
X31096408Y-29097263D01*
X31324663Y-29036103D01*
X31538830Y-28936235D01*
X31732401Y-28800695D01*
X31899495Y-28633601D01*
X32029425Y-28448042D01*
X32084002Y-28404417D01*
X32153500Y-28397223D01*
X32215855Y-28428746D01*
X32232575Y-28448042D01*
X32362500Y-28633595D01*
X32362505Y-28633601D01*
X32529599Y-28800695D01*
X32625562Y-28867889D01*
X32723165Y-28936232D01*
X32723167Y-28936233D01*
X32723170Y-28936235D01*
X32937337Y-29036103D01*
X33165592Y-29097263D01*
X33342034Y-29112700D01*
X33400999Y-29117859D01*
X33401000Y-29117859D01*
X33401001Y-29117859D01*
X33459966Y-29112700D01*
X33636408Y-29097263D01*
X33864663Y-29036103D01*
X34078830Y-28936235D01*
X34272401Y-28800695D01*
X34394717Y-28678378D01*
X34456036Y-28644896D01*
X34525728Y-28649880D01*
X34581662Y-28691751D01*
X34598577Y-28722728D01*
X34647646Y-28854288D01*
X34647649Y-28854293D01*
X34733809Y-28969387D01*
X34733812Y-28969390D01*
X34848906Y-29055550D01*
X34848913Y-29055554D01*
X34983620Y-29105796D01*
X34983627Y-29105798D01*
X35043155Y-29112199D01*
X35043172Y-29112200D01*
X35691000Y-29112200D01*
X35691000Y-28208694D01*
X35795839Y-28256573D01*
X35904527Y-28272200D01*
X35977473Y-28272200D01*
X36086161Y-28256573D01*
X36191000Y-28208694D01*
X36191000Y-29112200D01*
X36838828Y-29112200D01*
X36838844Y-29112199D01*
X36898372Y-29105798D01*
X36898379Y-29105796D01*
X37033086Y-29055554D01*
X37033093Y-29055550D01*
X37148187Y-28969390D01*
X37148190Y-28969387D01*
X37234350Y-28854293D01*
X37234354Y-28854286D01*
X37283422Y-28722729D01*
X37325293Y-28666795D01*
X37390757Y-28642378D01*
X37459030Y-28657230D01*
X37487285Y-28678381D01*
X37609599Y-28800695D01*
X37705562Y-28867889D01*
X37803165Y-28936232D01*
X37803167Y-28936233D01*
X37803170Y-28936235D01*
X38017337Y-29036103D01*
X38245592Y-29097263D01*
X38422034Y-29112700D01*
X38480999Y-29117859D01*
X38481000Y-29117859D01*
X38481001Y-29117859D01*
X38539966Y-29112700D01*
X38716408Y-29097263D01*
X38944663Y-29036103D01*
X39158830Y-28936235D01*
X39352401Y-28800695D01*
X39519495Y-28633601D01*
X39649425Y-28448042D01*
X39704002Y-28404417D01*
X39773500Y-28397223D01*
X39835855Y-28428746D01*
X39852575Y-28448042D01*
X39982500Y-28633595D01*
X39982505Y-28633601D01*
X40149599Y-28800695D01*
X40245562Y-28867889D01*
X40343165Y-28936232D01*
X40343167Y-28936233D01*
X40343170Y-28936235D01*
X40557337Y-29036103D01*
X40785592Y-29097263D01*
X40962034Y-29112700D01*
X41020999Y-29117859D01*
X41021000Y-29117859D01*
X41021001Y-29117859D01*
X41079966Y-29112700D01*
X41256408Y-29097263D01*
X41484663Y-29036103D01*
X41698830Y-28936235D01*
X41892401Y-28800695D01*
X42059495Y-28633601D01*
X42189425Y-28448042D01*
X42244002Y-28404417D01*
X42313500Y-28397223D01*
X42375855Y-28428746D01*
X42392575Y-28448042D01*
X42522500Y-28633595D01*
X42522505Y-28633601D01*
X42689599Y-28800695D01*
X42785562Y-28867889D01*
X42883165Y-28936232D01*
X42883167Y-28936233D01*
X42883170Y-28936235D01*
X43097337Y-29036103D01*
X43325592Y-29097263D01*
X43502034Y-29112700D01*
X43560999Y-29117859D01*
X43561000Y-29117859D01*
X43561001Y-29117859D01*
X43619966Y-29112700D01*
X43796408Y-29097263D01*
X44024663Y-29036103D01*
X44238830Y-28936235D01*
X44432401Y-28800695D01*
X44599495Y-28633601D01*
X44729425Y-28448042D01*
X44784002Y-28404417D01*
X44853500Y-28397223D01*
X44915855Y-28428746D01*
X44932575Y-28448042D01*
X45062500Y-28633595D01*
X45062505Y-28633601D01*
X45229599Y-28800695D01*
X45325562Y-28867889D01*
X45423165Y-28936232D01*
X45423167Y-28936233D01*
X45423170Y-28936235D01*
X45637337Y-29036103D01*
X45865592Y-29097263D01*
X46042034Y-29112700D01*
X46100999Y-29117859D01*
X46101000Y-29117859D01*
X46101001Y-29117859D01*
X46159966Y-29112700D01*
X46336408Y-29097263D01*
X46564663Y-29036103D01*
X46778830Y-28936235D01*
X46972401Y-28800695D01*
X47094329Y-28678766D01*
X47155648Y-28645284D01*
X47225340Y-28650268D01*
X47281274Y-28692139D01*
X47298189Y-28723117D01*
X47347202Y-28854528D01*
X47347206Y-28854535D01*
X47433452Y-28969744D01*
X47433455Y-28969747D01*
X47548664Y-29055993D01*
X47548671Y-29055997D01*
X47683517Y-29106291D01*
X47683516Y-29106291D01*
X47690444Y-29107035D01*
X47743127Y-29112700D01*
X49538872Y-29112699D01*
X49598483Y-29106291D01*
X49733331Y-29055996D01*
X49848546Y-28969746D01*
X49934796Y-28854531D01*
X49983810Y-28723116D01*
X50025681Y-28667184D01*
X50091145Y-28642766D01*
X50159418Y-28657617D01*
X50187673Y-28678769D01*
X50309599Y-28800695D01*
X50405562Y-28867889D01*
X50503165Y-28936232D01*
X50503167Y-28936233D01*
X50503170Y-28936235D01*
X50717337Y-29036103D01*
X50945592Y-29097263D01*
X51122034Y-29112700D01*
X51180999Y-29117859D01*
X51181000Y-29117859D01*
X51181001Y-29117859D01*
X51239966Y-29112700D01*
X51416408Y-29097263D01*
X51644663Y-29036103D01*
X51858830Y-28936235D01*
X52052401Y-28800695D01*
X52219495Y-28633601D01*
X52349425Y-28448042D01*
X52404002Y-28404417D01*
X52473500Y-28397223D01*
X52535855Y-28428746D01*
X52552575Y-28448042D01*
X52682500Y-28633595D01*
X52682505Y-28633601D01*
X52849599Y-28800695D01*
X52945562Y-28867889D01*
X53043165Y-28936232D01*
X53043167Y-28936233D01*
X53043170Y-28936235D01*
X53257337Y-29036103D01*
X53485592Y-29097263D01*
X53662034Y-29112700D01*
X53720999Y-29117859D01*
X53721000Y-29117859D01*
X53721001Y-29117859D01*
X53779966Y-29112700D01*
X53956408Y-29097263D01*
X54184663Y-29036103D01*
X54398830Y-28936235D01*
X54592401Y-28800695D01*
X54759495Y-28633601D01*
X54889425Y-28448042D01*
X54944002Y-28404417D01*
X55013500Y-28397223D01*
X55075855Y-28428746D01*
X55092575Y-28448042D01*
X55222500Y-28633595D01*
X55222505Y-28633601D01*
X55389599Y-28800695D01*
X55485562Y-28867889D01*
X55583165Y-28936232D01*
X55583167Y-28936233D01*
X55583170Y-28936235D01*
X55797337Y-29036103D01*
X56025592Y-29097263D01*
X56202034Y-29112700D01*
X56260999Y-29117859D01*
X56261000Y-29117859D01*
X56261001Y-29117859D01*
X56319966Y-29112700D01*
X56496408Y-29097263D01*
X56724663Y-29036103D01*
X56938830Y-28936235D01*
X57132401Y-28800695D01*
X57299495Y-28633601D01*
X57429425Y-28448042D01*
X57484002Y-28404417D01*
X57553500Y-28397223D01*
X57615855Y-28428746D01*
X57632575Y-28448042D01*
X57762500Y-28633595D01*
X57762505Y-28633601D01*
X57929599Y-28800695D01*
X58025562Y-28867889D01*
X58123165Y-28936232D01*
X58123167Y-28936233D01*
X58123170Y-28936235D01*
X58337337Y-29036103D01*
X58565592Y-29097263D01*
X58742034Y-29112700D01*
X58800999Y-29117859D01*
X58801000Y-29117859D01*
X58801001Y-29117859D01*
X58859966Y-29112700D01*
X59036408Y-29097263D01*
X59264663Y-29036103D01*
X59478830Y-28936235D01*
X59672401Y-28800695D01*
X59794717Y-28678378D01*
X59856036Y-28644896D01*
X59925728Y-28649880D01*
X59981662Y-28691751D01*
X59998577Y-28722728D01*
X60047646Y-28854288D01*
X60047649Y-28854293D01*
X60133809Y-28969387D01*
X60133812Y-28969390D01*
X60248906Y-29055550D01*
X60248913Y-29055554D01*
X60383620Y-29105796D01*
X60383627Y-29105798D01*
X60443155Y-29112199D01*
X60443172Y-29112200D01*
X61091000Y-29112200D01*
X61091000Y-28208694D01*
X61195839Y-28256573D01*
X61304527Y-28272200D01*
X61377473Y-28272200D01*
X61486161Y-28256573D01*
X61591000Y-28208694D01*
X61591000Y-29112200D01*
G37*
%TD.AperFunction*%
%TA.AperFunction,Conductor*%
G36*
X41175785Y-23970185D02*
G01*
X41221540Y-24022989D01*
X41231484Y-24092147D01*
X41202459Y-24155703D01*
X41196427Y-24162181D01*
X38936646Y-26421961D01*
X38875323Y-26455446D01*
X38816873Y-26454055D01*
X38716408Y-26427137D01*
X38481001Y-26406541D01*
X38480999Y-26406541D01*
X38245596Y-26427136D01*
X38245586Y-26427138D01*
X38017344Y-26488294D01*
X38017335Y-26488298D01*
X37803171Y-26588164D01*
X37803169Y-26588165D01*
X37609600Y-26723703D01*
X37487284Y-26846019D01*
X37425961Y-26879503D01*
X37356269Y-26874519D01*
X37300336Y-26832647D01*
X37283421Y-26801670D01*
X37234354Y-26670113D01*
X37234350Y-26670106D01*
X37148190Y-26555012D01*
X37148187Y-26555009D01*
X37033093Y-26468849D01*
X37033086Y-26468845D01*
X36898379Y-26418603D01*
X36898372Y-26418601D01*
X36838844Y-26412200D01*
X36191000Y-26412200D01*
X36191000Y-27315705D01*
X36086161Y-27267827D01*
X35977473Y-27252200D01*
X35904527Y-27252200D01*
X35795839Y-27267827D01*
X35691000Y-27315705D01*
X35691000Y-26412200D01*
X35043155Y-26412200D01*
X34983627Y-26418601D01*
X34983620Y-26418603D01*
X34848913Y-26468845D01*
X34848906Y-26468849D01*
X34733812Y-26555009D01*
X34733809Y-26555012D01*
X34647649Y-26670106D01*
X34647645Y-26670113D01*
X34598578Y-26801670D01*
X34556707Y-26857604D01*
X34491242Y-26882021D01*
X34422969Y-26867169D01*
X34394715Y-26846019D01*
X34349977Y-26801281D01*
X34272401Y-26723705D01*
X34272397Y-26723702D01*
X34272396Y-26723701D01*
X34078834Y-26588167D01*
X34078830Y-26588165D01*
X34078828Y-26588164D01*
X33864663Y-26488297D01*
X33864659Y-26488296D01*
X33864655Y-26488294D01*
X33636413Y-26427138D01*
X33636403Y-26427136D01*
X33401001Y-26406541D01*
X33400999Y-26406541D01*
X33165596Y-26427136D01*
X33165586Y-26427138D01*
X32937344Y-26488294D01*
X32937335Y-26488298D01*
X32723171Y-26588164D01*
X32723169Y-26588165D01*
X32529597Y-26723705D01*
X32362505Y-26890797D01*
X32232575Y-27076358D01*
X32177998Y-27119983D01*
X32108500Y-27127177D01*
X32046145Y-27095654D01*
X32029425Y-27076358D01*
X31899494Y-26890797D01*
X31732402Y-26723706D01*
X31732395Y-26723701D01*
X31538834Y-26588167D01*
X31538830Y-26588165D01*
X31538828Y-26588164D01*
X31324663Y-26488297D01*
X31324659Y-26488296D01*
X31324655Y-26488294D01*
X31153036Y-26442310D01*
X31093375Y-26405945D01*
X31062846Y-26343098D01*
X31071141Y-26273723D01*
X31115626Y-26219845D01*
X31134693Y-26209256D01*
X31176665Y-26190568D01*
X31302930Y-26134351D01*
X31456071Y-26023088D01*
X31582733Y-25882416D01*
X31677379Y-25718484D01*
X31735874Y-25538456D01*
X31741064Y-25489069D01*
X31767647Y-25424458D01*
X31776694Y-25414361D01*
X33204238Y-23986819D01*
X33265561Y-23953334D01*
X33291919Y-23950500D01*
X41108746Y-23950500D01*
X41175785Y-23970185D01*
G37*
%TD.AperFunction*%
%TA.AperFunction,Conductor*%
G36*
X78702695Y-735D02*
G01*
X78745519Y-4482D01*
X78871771Y-16918D01*
X78891685Y-20541D01*
X78958349Y-38403D01*
X79051570Y-66682D01*
X79067971Y-72958D01*
X79135411Y-104406D01*
X79138375Y-105888D01*
X79175969Y-125982D01*
X79222327Y-150762D01*
X79228667Y-154657D01*
X79294828Y-200983D01*
X79298600Y-203844D01*
X79370808Y-263103D01*
X79375309Y-267182D01*
X79432815Y-324688D01*
X79436895Y-329190D01*
X79496154Y-401398D01*
X79499015Y-405170D01*
X79545341Y-471331D01*
X79549236Y-477671D01*
X79594101Y-561605D01*
X79595614Y-564631D01*
X79627040Y-632027D01*
X79633319Y-648435D01*
X79661601Y-741669D01*
X79679454Y-808299D01*
X79683082Y-828238D01*
X79695523Y-954554D01*
X79699264Y-997302D01*
X79699500Y-1002710D01*
X79699500Y-39997289D01*
X79699264Y-40002697D01*
X79695523Y-40045445D01*
X79683082Y-40171760D01*
X79679454Y-40191699D01*
X79661601Y-40258330D01*
X79633318Y-40351563D01*
X79627040Y-40367971D01*
X79595614Y-40435367D01*
X79594101Y-40438393D01*
X79549236Y-40522327D01*
X79545341Y-40528667D01*
X79499015Y-40594828D01*
X79496154Y-40598600D01*
X79436895Y-40670808D01*
X79432806Y-40675320D01*
X79375320Y-40732806D01*
X79370808Y-40736895D01*
X79298600Y-40796154D01*
X79294828Y-40799015D01*
X79228667Y-40845341D01*
X79222327Y-40849236D01*
X79138393Y-40894101D01*
X79135367Y-40895614D01*
X79067971Y-40927040D01*
X79051563Y-40933318D01*
X78958330Y-40961601D01*
X78891699Y-40979454D01*
X78871760Y-40983082D01*
X78745445Y-40995523D01*
X78704789Y-40999080D01*
X78702696Y-40999264D01*
X78697290Y-40999500D01*
X1002710Y-40999500D01*
X997303Y-40999264D01*
X995015Y-40999063D01*
X954554Y-40995523D01*
X828238Y-40983082D01*
X808299Y-40979454D01*
X741669Y-40961601D01*
X648435Y-40933319D01*
X632027Y-40927040D01*
X583433Y-40904381D01*
X564618Y-40895607D01*
X561605Y-40894101D01*
X477671Y-40849236D01*
X471331Y-40845341D01*
X405170Y-40799015D01*
X401398Y-40796154D01*
X329190Y-40736895D01*
X324688Y-40732815D01*
X267182Y-40675309D01*
X263103Y-40670808D01*
X203844Y-40598600D01*
X200983Y-40594828D01*
X154657Y-40528667D01*
X150762Y-40522327D01*
X125982Y-40475969D01*
X105888Y-40438375D01*
X104406Y-40435411D01*
X72958Y-40367971D01*
X66682Y-40351570D01*
X38398Y-40258330D01*
X20541Y-40191685D01*
X16918Y-40171771D01*
X4482Y-40045519D01*
X735Y-40002695D01*
X500Y-39997293D01*
X500Y-37460000D01*
X11446456Y-37460000D01*
X11466606Y-37754603D01*
X11466607Y-37754605D01*
X11526682Y-38043705D01*
X11526687Y-38043722D01*
X11625572Y-38321956D01*
X11761426Y-38584144D01*
X11761430Y-38584150D01*
X11931708Y-38825380D01*
X11931712Y-38825384D01*
X11931714Y-38825387D01*
X12133266Y-39041196D01*
X12133272Y-39041201D01*
X12362320Y-39227545D01*
X12362324Y-39227548D01*
X12362326Y-39227549D01*
X12362327Y-39227550D01*
X12614629Y-39380979D01*
X12614631Y-39380980D01*
X12614633Y-39380981D01*
X12706718Y-39420979D01*
X12885473Y-39498623D01*
X13169814Y-39578292D01*
X13462352Y-39618499D01*
X13462353Y-39618500D01*
X13462355Y-39618500D01*
X13757647Y-39618500D01*
X13757647Y-39618499D01*
X14050186Y-39578292D01*
X14334527Y-39498623D01*
X14605371Y-39380979D01*
X14857673Y-39227550D01*
X15086734Y-39041196D01*
X15288286Y-38825387D01*
X15458574Y-38584143D01*
X15594427Y-38321958D01*
X15693314Y-38043717D01*
X15693315Y-38043710D01*
X15693317Y-38043705D01*
X15745080Y-37794605D01*
X15753393Y-37754603D01*
X15773544Y-37460000D01*
X15753393Y-37165397D01*
X15732650Y-37065580D01*
X15693317Y-36876294D01*
X15693312Y-36876277D01*
X15594427Y-36598043D01*
X15594427Y-36598042D01*
X15458574Y-36335857D01*
X15458573Y-36335855D01*
X15458569Y-36335849D01*
X15288291Y-36094619D01*
X15288287Y-36094615D01*
X15288286Y-36094613D01*
X15086734Y-35878804D01*
X15086727Y-35878798D01*
X14857679Y-35692454D01*
X14857675Y-35692451D01*
X14605366Y-35539018D01*
X14334528Y-35421377D01*
X14050191Y-35341709D01*
X14050183Y-35341707D01*
X13757647Y-35301500D01*
X13757645Y-35301500D01*
X13462355Y-35301500D01*
X13462353Y-35301500D01*
X13169816Y-35341707D01*
X13169808Y-35341709D01*
X12885471Y-35421377D01*
X12614633Y-35539018D01*
X12362324Y-35692451D01*
X12362320Y-35692454D01*
X12133272Y-35878798D01*
X12133266Y-35878803D01*
X11931708Y-36094619D01*
X11761430Y-36335849D01*
X11761426Y-36335855D01*
X11625572Y-36598043D01*
X11526687Y-36876277D01*
X11526682Y-36876294D01*
X11466607Y-37165394D01*
X11466606Y-37165396D01*
X11446456Y-37460000D01*
X500Y-37460000D01*
X500Y-32750000D01*
X10594540Y-32750000D01*
X10614326Y-32938256D01*
X10614327Y-32938259D01*
X10672818Y-33118277D01*
X10672821Y-33118284D01*
X10767467Y-33282216D01*
X10867986Y-33393853D01*
X10894129Y-33422888D01*
X11047265Y-33534148D01*
X11047270Y-33534151D01*
X11220192Y-33611142D01*
X11220197Y-33611144D01*
X11405354Y-33650500D01*
X11405355Y-33650500D01*
X11594644Y-33650500D01*
X11594646Y-33650500D01*
X11779803Y-33611144D01*
X11952730Y-33534151D01*
X12105871Y-33422888D01*
X12109475Y-33418885D01*
X12111600Y-33416526D01*
X12171087Y-33379879D01*
X12203748Y-33375500D01*
X15640591Y-33375500D01*
X15707630Y-33395185D01*
X15753385Y-33447989D01*
X15763329Y-33517147D01*
X15734304Y-33580703D01*
X15714902Y-33598766D01*
X15608455Y-33678452D01*
X15608452Y-33678455D01*
X15522206Y-33793664D01*
X15522202Y-33793671D01*
X15471908Y-33928517D01*
X15465501Y-33988116D01*
X15465500Y-33988135D01*
X15465500Y-35511870D01*
X15465501Y-35511876D01*
X15471908Y-35571483D01*
X15522202Y-35706328D01*
X15522206Y-35706335D01*
X15608452Y-35821544D01*
X15608455Y-35821547D01*
X15723664Y-35907793D01*
X15723671Y-35907797D01*
X15858517Y-35958091D01*
X15858516Y-35958091D01*
X15865444Y-35958835D01*
X15918127Y-35964500D01*
X17441872Y-35964499D01*
X17501483Y-35958091D01*
X17636331Y-35907796D01*
X17751546Y-35821546D01*
X17837796Y-35706331D01*
X17888091Y-35571483D01*
X17894500Y-35511873D01*
X17894499Y-35424497D01*
X17914183Y-35357462D01*
X17966986Y-35311706D01*
X18036145Y-35301762D01*
X18099701Y-35330786D01*
X18120278Y-35355704D01*
X18121090Y-35355136D01*
X18246081Y-35533642D01*
X18246086Y-35533648D01*
X18396351Y-35683913D01*
X18396357Y-35683918D01*
X18570425Y-35805802D01*
X18570427Y-35805803D01*
X18570430Y-35805805D01*
X18763030Y-35895616D01*
X18968299Y-35950618D01*
X19119514Y-35963847D01*
X19179998Y-35969139D01*
X19180000Y-35969139D01*
X19180002Y-35969139D01*
X19233048Y-35964498D01*
X19391701Y-35950618D01*
X19596970Y-35895616D01*
X19789570Y-35805805D01*
X19963647Y-35683915D01*
X20092319Y-35555243D01*
X20153642Y-35521758D01*
X20223334Y-35526742D01*
X20267681Y-35555243D01*
X20396351Y-35683913D01*
X20396357Y-35683918D01*
X20570425Y-35805802D01*
X20570427Y-35805803D01*
X20570430Y-35805805D01*
X20763030Y-35895616D01*
X20968299Y-35950618D01*
X21119514Y-35963847D01*
X21179998Y-35969139D01*
X21180000Y-35969139D01*
X21180002Y-35969139D01*
X21233048Y-35964498D01*
X21391701Y-35950618D01*
X21596970Y-35895616D01*
X21789570Y-35805805D01*
X21963647Y-35683915D01*
X22113915Y-35533647D01*
X22235805Y-35359570D01*
X22317618Y-35184120D01*
X22363790Y-35131682D01*
X22430984Y-35112530D01*
X22497865Y-35132746D01*
X22542381Y-35184120D01*
X22597239Y-35301762D01*
X22624195Y-35359570D01*
X22624197Y-35359574D01*
X22746081Y-35533642D01*
X22746086Y-35533648D01*
X22896351Y-35683913D01*
X22896357Y-35683918D01*
X23070425Y-35805802D01*
X23070427Y-35805803D01*
X23070430Y-35805805D01*
X23263030Y-35895616D01*
X23468299Y-35950618D01*
X23619514Y-35963847D01*
X23679998Y-35969139D01*
X23680000Y-35969139D01*
X23680002Y-35969139D01*
X23733048Y-35964498D01*
X23891701Y-35950618D01*
X24096970Y-35895616D01*
X24289570Y-35805805D01*
X24463647Y-35683915D01*
X24613915Y-35533647D01*
X24735805Y-35359570D01*
X24825616Y-35166970D01*
X24880618Y-34961701D01*
X24899139Y-34750000D01*
X24880618Y-34538299D01*
X24825616Y-34333030D01*
X24735805Y-34140431D01*
X24618749Y-33973257D01*
X24613916Y-33966354D01*
X24576079Y-33928517D01*
X24463647Y-33816085D01*
X24463643Y-33816082D01*
X24463642Y-33816081D01*
X24289574Y-33694197D01*
X24289570Y-33694195D01*
X24289566Y-33694193D01*
X24096970Y-33604384D01*
X24096966Y-33604383D01*
X24096962Y-33604381D01*
X23891705Y-33549383D01*
X23891703Y-33549382D01*
X23891701Y-33549382D01*
X23891699Y-33549381D01*
X23891695Y-33549381D01*
X23680002Y-33530861D01*
X23679998Y-33530861D01*
X23468304Y-33549381D01*
X23468294Y-33549383D01*
X23263037Y-33604381D01*
X23263028Y-33604385D01*
X23070433Y-33694193D01*
X22896350Y-33816086D01*
X22746086Y-33966350D01*
X22624193Y-34140433D01*
X22542382Y-34315878D01*
X22496210Y-34368317D01*
X22429016Y-34387469D01*
X22362135Y-34367253D01*
X22317618Y-34315878D01*
X22235806Y-34140433D01*
X22234308Y-34138294D01*
X22118749Y-33973257D01*
X22113916Y-33966354D01*
X22076079Y-33928517D01*
X21963647Y-33816085D01*
X21963643Y-33816082D01*
X21963642Y-33816081D01*
X21789574Y-33694197D01*
X21789570Y-33694195D01*
X21789566Y-33694193D01*
X21596970Y-33604384D01*
X21596966Y-33604383D01*
X21596962Y-33604381D01*
X21391705Y-33549383D01*
X21391703Y-33549382D01*
X21391701Y-33549382D01*
X21391699Y-33549381D01*
X21391695Y-33549381D01*
X21180002Y-33530861D01*
X21179998Y-33530861D01*
X20968304Y-33549381D01*
X20968294Y-33549383D01*
X20763037Y-33604381D01*
X20763028Y-33604385D01*
X20570433Y-33694193D01*
X20396354Y-33816083D01*
X20267680Y-33944757D01*
X20206357Y-33978241D01*
X20136665Y-33973257D01*
X20092318Y-33944756D01*
X19963648Y-33816086D01*
X19963642Y-33816081D01*
X19789574Y-33694197D01*
X19789570Y-33694195D01*
X19789566Y-33694193D01*
X19596970Y-33604384D01*
X19596966Y-33604383D01*
X19596962Y-33604381D01*
X19391705Y-33549383D01*
X19391703Y-33549382D01*
X19391701Y-33549382D01*
X19391699Y-33549381D01*
X19391695Y-33549381D01*
X19178049Y-33530690D01*
X19112980Y-33505238D01*
X19072001Y-33448647D01*
X19068123Y-33378885D01*
X19101175Y-33319481D01*
X19172487Y-33248170D01*
X19433838Y-32986819D01*
X19495161Y-32953334D01*
X19521519Y-32950500D01*
X24658481Y-32950500D01*
X24725520Y-32970185D01*
X24746162Y-32986819D01*
X26849162Y-35089819D01*
X26882647Y-35151142D01*
X26877663Y-35220834D01*
X26835791Y-35276767D01*
X26770327Y-35301184D01*
X26761481Y-35301500D01*
X26602353Y-35301500D01*
X26309816Y-35341707D01*
X26309808Y-35341709D01*
X26025471Y-35421377D01*
X25754633Y-35539018D01*
X25502324Y-35692451D01*
X25502320Y-35692454D01*
X25273272Y-35878798D01*
X25273266Y-35878803D01*
X25071708Y-36094619D01*
X24901430Y-36335849D01*
X24901426Y-36335855D01*
X24765572Y-36598043D01*
X24666687Y-36876277D01*
X24666682Y-36876294D01*
X24606607Y-37165394D01*
X24606606Y-37165396D01*
X24586456Y-37460000D01*
X24606606Y-37754603D01*
X24606607Y-37754605D01*
X24666682Y-38043705D01*
X24666687Y-38043722D01*
X24765572Y-38321956D01*
X24901426Y-38584144D01*
X24901430Y-38584150D01*
X25071708Y-38825380D01*
X25071712Y-38825384D01*
X25071714Y-38825387D01*
X25273266Y-39041196D01*
X25273272Y-39041201D01*
X25502320Y-39227545D01*
X25502324Y-39227548D01*
X25502326Y-39227549D01*
X25502327Y-39227550D01*
X25754629Y-39380979D01*
X25754631Y-39380980D01*
X25754633Y-39380981D01*
X25846718Y-39420979D01*
X26025473Y-39498623D01*
X26309814Y-39578292D01*
X26602352Y-39618499D01*
X26602353Y-39618500D01*
X26602355Y-39618500D01*
X26897647Y-39618500D01*
X26897647Y-39618499D01*
X27190186Y-39578292D01*
X27474527Y-39498623D01*
X27745371Y-39380979D01*
X27997673Y-39227550D01*
X28226734Y-39041196D01*
X28428286Y-38825387D01*
X28598574Y-38584143D01*
X28734427Y-38321958D01*
X28833314Y-38043717D01*
X28833315Y-38043710D01*
X28833317Y-38043705D01*
X28885080Y-37794605D01*
X28893393Y-37754603D01*
X28913544Y-37460000D01*
X28893393Y-37165397D01*
X28872650Y-37065580D01*
X28833317Y-36876294D01*
X28833312Y-36876277D01*
X28734427Y-36598043D01*
X28734427Y-36598042D01*
X28598574Y-36335857D01*
X28598573Y-36335855D01*
X28598569Y-36335849D01*
X28428291Y-36094619D01*
X28428287Y-36094615D01*
X28428286Y-36094613D01*
X28226734Y-35878804D01*
X28226727Y-35878798D01*
X28093842Y-35770688D01*
X28054262Y-35713111D01*
X28052093Y-35643275D01*
X28088025Y-35583353D01*
X28150649Y-35552369D01*
X28172097Y-35550500D01*
X32877070Y-35550500D01*
X32944109Y-35570185D01*
X32989864Y-35622989D01*
X32999808Y-35692147D01*
X32970783Y-35755703D01*
X32955325Y-35770688D01*
X32773272Y-35918798D01*
X32773266Y-35918803D01*
X32571708Y-36134619D01*
X32401430Y-36375849D01*
X32401426Y-36375855D01*
X32265572Y-36638043D01*
X32166687Y-36916277D01*
X32166682Y-36916294D01*
X32106607Y-37205394D01*
X32106606Y-37205396D01*
X32086456Y-37500000D01*
X32106606Y-37794603D01*
X32106607Y-37794605D01*
X32166682Y-38083705D01*
X32166687Y-38083722D01*
X32265572Y-38361956D01*
X32401426Y-38624144D01*
X32401430Y-38624150D01*
X32571708Y-38865380D01*
X32571712Y-38865384D01*
X32571714Y-38865387D01*
X32735909Y-39041196D01*
X32773266Y-39081196D01*
X32773272Y-39081201D01*
X33002320Y-39267545D01*
X33002324Y-39267548D01*
X33002326Y-39267549D01*
X33002327Y-39267550D01*
X33254629Y-39420979D01*
X33254631Y-39420980D01*
X33254633Y-39420981D01*
X33433381Y-39498622D01*
X33525473Y-39538623D01*
X33809814Y-39618292D01*
X34102352Y-39658499D01*
X34102353Y-39658500D01*
X34102355Y-39658500D01*
X34397647Y-39658500D01*
X34397647Y-39658499D01*
X34690186Y-39618292D01*
X34974527Y-39538623D01*
X35245371Y-39420979D01*
X35497673Y-39267550D01*
X35726734Y-39081196D01*
X35928286Y-38865387D01*
X36098574Y-38624143D01*
X36234427Y-38361958D01*
X36333314Y-38083717D01*
X36333315Y-38083710D01*
X36333317Y-38083705D01*
X36361205Y-37949496D01*
X36393393Y-37794603D01*
X36413544Y-37500000D01*
X45226456Y-37500000D01*
X45246606Y-37794603D01*
X45246607Y-37794605D01*
X45306682Y-38083705D01*
X45306687Y-38083722D01*
X45405572Y-38361956D01*
X45541426Y-38624144D01*
X45541430Y-38624150D01*
X45711708Y-38865380D01*
X45711712Y-38865384D01*
X45711714Y-38865387D01*
X45875909Y-39041196D01*
X45913266Y-39081196D01*
X45913272Y-39081201D01*
X46142320Y-39267545D01*
X46142324Y-39267548D01*
X46142326Y-39267549D01*
X46142327Y-39267550D01*
X46394629Y-39420979D01*
X46394631Y-39420980D01*
X46394633Y-39420981D01*
X46573381Y-39498622D01*
X46665473Y-39538623D01*
X46949814Y-39618292D01*
X47242352Y-39658499D01*
X47242353Y-39658500D01*
X47242355Y-39658500D01*
X47537647Y-39658500D01*
X47537647Y-39658499D01*
X47830186Y-39618292D01*
X48114527Y-39538623D01*
X48385371Y-39420979D01*
X48637673Y-39267550D01*
X48866734Y-39081196D01*
X49068286Y-38865387D01*
X49238574Y-38624143D01*
X49374427Y-38361958D01*
X49473314Y-38083717D01*
X49473315Y-38083710D01*
X49473317Y-38083705D01*
X49501205Y-37949496D01*
X49533393Y-37794603D01*
X49553544Y-37500000D01*
X49533393Y-37205397D01*
X49512650Y-37105580D01*
X49473317Y-36916294D01*
X49473312Y-36916277D01*
X49374427Y-36638043D01*
X49374427Y-36638042D01*
X49238574Y-36375857D01*
X49238573Y-36375855D01*
X49238569Y-36375849D01*
X49068291Y-36134619D01*
X49068287Y-36134615D01*
X49068286Y-36134613D01*
X48866734Y-35918804D01*
X48853205Y-35907797D01*
X48637679Y-35732454D01*
X48637675Y-35732451D01*
X48385366Y-35579018D01*
X48114528Y-35461377D01*
X47830191Y-35381709D01*
X47830183Y-35381707D01*
X47537647Y-35341500D01*
X47537645Y-35341500D01*
X47242355Y-35341500D01*
X47242353Y-35341500D01*
X46949816Y-35381707D01*
X46949808Y-35381709D01*
X46665471Y-35461377D01*
X46394633Y-35579018D01*
X46142324Y-35732451D01*
X46142320Y-35732454D01*
X45913272Y-35918798D01*
X45913266Y-35918803D01*
X45711708Y-36134619D01*
X45541430Y-36375849D01*
X45541426Y-36375855D01*
X45405572Y-36638043D01*
X45306687Y-36916277D01*
X45306682Y-36916294D01*
X45246607Y-37205394D01*
X45246606Y-37205396D01*
X45226456Y-37500000D01*
X36413544Y-37500000D01*
X36393393Y-37205397D01*
X36372650Y-37105580D01*
X36333317Y-36916294D01*
X36333312Y-36916277D01*
X36234427Y-36638043D01*
X36234427Y-36638042D01*
X36098574Y-36375857D01*
X36098573Y-36375855D01*
X36098569Y-36375849D01*
X35928291Y-36134619D01*
X35928287Y-36134615D01*
X35928286Y-36134613D01*
X35726734Y-35918804D01*
X35713205Y-35907797D01*
X35544675Y-35770688D01*
X35505095Y-35713111D01*
X35502926Y-35643275D01*
X35538858Y-35583353D01*
X35601482Y-35552369D01*
X35622930Y-35550500D01*
X36003068Y-35550500D01*
X36070107Y-35570185D01*
X36115862Y-35622989D01*
X36119250Y-35631167D01*
X36162202Y-35746328D01*
X36162206Y-35746335D01*
X36248452Y-35861544D01*
X36248455Y-35861547D01*
X36363664Y-35947793D01*
X36363671Y-35947797D01*
X36498517Y-35998091D01*
X36498516Y-35998091D01*
X36505444Y-35998835D01*
X36558127Y-36004500D01*
X38081872Y-36004499D01*
X38141483Y-35998091D01*
X38276331Y-35947796D01*
X38391546Y-35861546D01*
X38477796Y-35746331D01*
X38528091Y-35611483D01*
X38534500Y-35551873D01*
X38534499Y-35464497D01*
X38554183Y-35397462D01*
X38606986Y-35351706D01*
X38676145Y-35341762D01*
X38739701Y-35370786D01*
X38760278Y-35395704D01*
X38761090Y-35395136D01*
X38886081Y-35573642D01*
X38886086Y-35573648D01*
X39036351Y-35723913D01*
X39036357Y-35723918D01*
X39210425Y-35845802D01*
X39210427Y-35845803D01*
X39210430Y-35845805D01*
X39403030Y-35935616D01*
X39608299Y-35990618D01*
X39759514Y-36003847D01*
X39819998Y-36009139D01*
X39820000Y-36009139D01*
X39820002Y-36009139D01*
X39873048Y-36004498D01*
X40031701Y-35990618D01*
X40236970Y-35935616D01*
X40429570Y-35845805D01*
X40603647Y-35723915D01*
X40732319Y-35595243D01*
X40793642Y-35561758D01*
X40863334Y-35566742D01*
X40907681Y-35595243D01*
X41036351Y-35723913D01*
X41036357Y-35723918D01*
X41210425Y-35845802D01*
X41210427Y-35845803D01*
X41210430Y-35845805D01*
X41403030Y-35935616D01*
X41608299Y-35990618D01*
X41759514Y-36003847D01*
X41819998Y-36009139D01*
X41820000Y-36009139D01*
X41820002Y-36009139D01*
X41873048Y-36004498D01*
X42031701Y-35990618D01*
X42236970Y-35935616D01*
X42429570Y-35845805D01*
X42603647Y-35723915D01*
X42753915Y-35573647D01*
X42875805Y-35399570D01*
X42957618Y-35224120D01*
X43003790Y-35171682D01*
X43070984Y-35152530D01*
X43137865Y-35172746D01*
X43182381Y-35224120D01*
X43237214Y-35341709D01*
X43264195Y-35399570D01*
X43264197Y-35399574D01*
X43386081Y-35573642D01*
X43386086Y-35573648D01*
X43536351Y-35723913D01*
X43536357Y-35723918D01*
X43710425Y-35845802D01*
X43710427Y-35845803D01*
X43710430Y-35845805D01*
X43903030Y-35935616D01*
X44108299Y-35990618D01*
X44259514Y-36003847D01*
X44319998Y-36009139D01*
X44320000Y-36009139D01*
X44320002Y-36009139D01*
X44373048Y-36004498D01*
X44531701Y-35990618D01*
X44736970Y-35935616D01*
X44929570Y-35845805D01*
X45103647Y-35723915D01*
X45253915Y-35573647D01*
X45375805Y-35399570D01*
X45465616Y-35206970D01*
X45520618Y-35001701D01*
X45539139Y-34790000D01*
X45520618Y-34578299D01*
X45465616Y-34373030D01*
X45375805Y-34180431D01*
X45279790Y-34043307D01*
X45253916Y-34006354D01*
X45192318Y-33944756D01*
X45103647Y-33856085D01*
X45103643Y-33856082D01*
X45103642Y-33856081D01*
X44929574Y-33734197D01*
X44929570Y-33734195D01*
X44929566Y-33734193D01*
X44736970Y-33644384D01*
X44736966Y-33644383D01*
X44736962Y-33644381D01*
X44531705Y-33589383D01*
X44531703Y-33589382D01*
X44531701Y-33589382D01*
X44531699Y-33589381D01*
X44531695Y-33589381D01*
X44320002Y-33570861D01*
X44319998Y-33570861D01*
X44108304Y-33589381D01*
X44108294Y-33589383D01*
X43903037Y-33644381D01*
X43903028Y-33644385D01*
X43710433Y-33734193D01*
X43536350Y-33856086D01*
X43386086Y-34006350D01*
X43264193Y-34180433D01*
X43182382Y-34355878D01*
X43136210Y-34408317D01*
X43069016Y-34427469D01*
X43002135Y-34407253D01*
X42957618Y-34355878D01*
X42875806Y-34180433D01*
X42858723Y-34156036D01*
X42779790Y-34043307D01*
X42753916Y-34006354D01*
X42692318Y-33944756D01*
X42603647Y-33856085D01*
X42603643Y-33856082D01*
X42603642Y-33856081D01*
X42429574Y-33734197D01*
X42429570Y-33734195D01*
X42429566Y-33734193D01*
X42236970Y-33644384D01*
X42236966Y-33644383D01*
X42236962Y-33644381D01*
X42031705Y-33589383D01*
X42031703Y-33589382D01*
X42031701Y-33589382D01*
X42031699Y-33589381D01*
X42031695Y-33589381D01*
X41820002Y-33570861D01*
X41819998Y-33570861D01*
X41608304Y-33589381D01*
X41608294Y-33589383D01*
X41403037Y-33644381D01*
X41403028Y-33644385D01*
X41210433Y-33734193D01*
X41036354Y-33856083D01*
X40907680Y-33984757D01*
X40846357Y-34018241D01*
X40776665Y-34013257D01*
X40732318Y-33984756D01*
X40603648Y-33856086D01*
X40603642Y-33856081D01*
X40429574Y-33734197D01*
X40429570Y-33734195D01*
X40429566Y-33734193D01*
X40236970Y-33644384D01*
X40236966Y-33644383D01*
X40236962Y-33644381D01*
X40031705Y-33589383D01*
X40031703Y-33589382D01*
X40031701Y-33589382D01*
X40031699Y-33589381D01*
X40031695Y-33589381D01*
X39818049Y-33570690D01*
X39752980Y-33545238D01*
X39712001Y-33488647D01*
X39708123Y-33418885D01*
X39741175Y-33359481D01*
X39818441Y-33282216D01*
X40113838Y-32986819D01*
X40175161Y-32953334D01*
X40201519Y-32950500D01*
X48408481Y-32950500D01*
X48475520Y-32970185D01*
X48496162Y-32986819D01*
X50778399Y-35269056D01*
X50780935Y-35271750D01*
X50822071Y-35318183D01*
X50835575Y-35327504D01*
X50873110Y-35353413D01*
X50876127Y-35355633D01*
X50924938Y-35393874D01*
X50924943Y-35393877D01*
X50934174Y-35398031D01*
X50953727Y-35409059D01*
X50962070Y-35414818D01*
X51020057Y-35436809D01*
X51023512Y-35438239D01*
X51025795Y-35439267D01*
X51080063Y-35463692D01*
X51080064Y-35463692D01*
X51080068Y-35463694D01*
X51090030Y-35465519D01*
X51111651Y-35471546D01*
X51121125Y-35475139D01*
X51121128Y-35475140D01*
X51137871Y-35477173D01*
X51182689Y-35482615D01*
X51186386Y-35483177D01*
X51247394Y-35494357D01*
X51247395Y-35494356D01*
X51247396Y-35494357D01*
X51309292Y-35490613D01*
X51313036Y-35490500D01*
X53707635Y-35490500D01*
X53774674Y-35510185D01*
X53820429Y-35562989D01*
X53830373Y-35632147D01*
X53801348Y-35695703D01*
X53772063Y-35720448D01*
X53752330Y-35732447D01*
X53752320Y-35732454D01*
X53523272Y-35918798D01*
X53523266Y-35918803D01*
X53321708Y-36134619D01*
X53151430Y-36375849D01*
X53151426Y-36375855D01*
X53015572Y-36638043D01*
X52916687Y-36916277D01*
X52916682Y-36916294D01*
X52856607Y-37205394D01*
X52856606Y-37205396D01*
X52836456Y-37500000D01*
X52856606Y-37794603D01*
X52856607Y-37794605D01*
X52916682Y-38083705D01*
X52916687Y-38083722D01*
X53015572Y-38361956D01*
X53151426Y-38624144D01*
X53151430Y-38624150D01*
X53321708Y-38865380D01*
X53321712Y-38865384D01*
X53321714Y-38865387D01*
X53485909Y-39041196D01*
X53523266Y-39081196D01*
X53523272Y-39081201D01*
X53752320Y-39267545D01*
X53752324Y-39267548D01*
X53752326Y-39267549D01*
X53752327Y-39267550D01*
X54004629Y-39420979D01*
X54004631Y-39420980D01*
X54004633Y-39420981D01*
X54183381Y-39498622D01*
X54275473Y-39538623D01*
X54559814Y-39618292D01*
X54852352Y-39658499D01*
X54852353Y-39658500D01*
X54852355Y-39658500D01*
X55147647Y-39658500D01*
X55147647Y-39658499D01*
X55440186Y-39618292D01*
X55724527Y-39538623D01*
X55995371Y-39420979D01*
X56247673Y-39267550D01*
X56476734Y-39081196D01*
X56678286Y-38865387D01*
X56848574Y-38624143D01*
X56984427Y-38361958D01*
X57083314Y-38083717D01*
X57083315Y-38083710D01*
X57083317Y-38083705D01*
X57111205Y-37949496D01*
X57143393Y-37794603D01*
X57163544Y-37500000D01*
X65976456Y-37500000D01*
X65996606Y-37794603D01*
X65996607Y-37794605D01*
X66056682Y-38083705D01*
X66056687Y-38083722D01*
X66155572Y-38361956D01*
X66291426Y-38624144D01*
X66291430Y-38624150D01*
X66461708Y-38865380D01*
X66461712Y-38865384D01*
X66461714Y-38865387D01*
X66625909Y-39041196D01*
X66663266Y-39081196D01*
X66663272Y-39081201D01*
X66892320Y-39267545D01*
X66892324Y-39267548D01*
X66892326Y-39267549D01*
X66892327Y-39267550D01*
X67144629Y-39420979D01*
X67144631Y-39420980D01*
X67144633Y-39420981D01*
X67323381Y-39498622D01*
X67415473Y-39538623D01*
X67699814Y-39618292D01*
X67992352Y-39658499D01*
X67992353Y-39658500D01*
X67992355Y-39658500D01*
X68287647Y-39658500D01*
X68287647Y-39658499D01*
X68580186Y-39618292D01*
X68864527Y-39538623D01*
X69135371Y-39420979D01*
X69387673Y-39267550D01*
X69616734Y-39081196D01*
X69818286Y-38865387D01*
X69988574Y-38624143D01*
X70124427Y-38361958D01*
X70223314Y-38083717D01*
X70223315Y-38083710D01*
X70223317Y-38083705D01*
X70251205Y-37949496D01*
X70283393Y-37794603D01*
X70303544Y-37500000D01*
X70283393Y-37205397D01*
X70262650Y-37105580D01*
X70223317Y-36916294D01*
X70223312Y-36916277D01*
X70124427Y-36638043D01*
X70124427Y-36638042D01*
X69988574Y-36375857D01*
X69988573Y-36375855D01*
X69988569Y-36375849D01*
X69818291Y-36134619D01*
X69818287Y-36134615D01*
X69818286Y-36134613D01*
X69616734Y-35918804D01*
X69603205Y-35907797D01*
X69387679Y-35732454D01*
X69387675Y-35732451D01*
X69135366Y-35579018D01*
X68864528Y-35461377D01*
X68580191Y-35381709D01*
X68580183Y-35381707D01*
X68287647Y-35341500D01*
X68287645Y-35341500D01*
X67992355Y-35341500D01*
X67992353Y-35341500D01*
X67699816Y-35381707D01*
X67699808Y-35381709D01*
X67415471Y-35461377D01*
X67144633Y-35579018D01*
X66892324Y-35732451D01*
X66892320Y-35732454D01*
X66663272Y-35918798D01*
X66663266Y-35918803D01*
X66461708Y-36134619D01*
X66291430Y-36375849D01*
X66291426Y-36375855D01*
X66155572Y-36638043D01*
X66056687Y-36916277D01*
X66056682Y-36916294D01*
X65996607Y-37205394D01*
X65996606Y-37205396D01*
X65976456Y-37500000D01*
X57163544Y-37500000D01*
X57143393Y-37205397D01*
X57122650Y-37105580D01*
X57083317Y-36916294D01*
X57083312Y-36916277D01*
X56984427Y-36638043D01*
X56984427Y-36638042D01*
X56848574Y-36375857D01*
X56848573Y-36375855D01*
X56848569Y-36375849D01*
X56678291Y-36134619D01*
X56678287Y-36134615D01*
X56678286Y-36134613D01*
X56476734Y-35918804D01*
X56463205Y-35907797D01*
X56247679Y-35732454D01*
X56247669Y-35732447D01*
X56227937Y-35720448D01*
X56180885Y-35668797D01*
X56169227Y-35599907D01*
X56196664Y-35535650D01*
X56254486Y-35496427D01*
X56292365Y-35490500D01*
X56737519Y-35490500D01*
X56804558Y-35510185D01*
X56850313Y-35562989D01*
X56860809Y-35601250D01*
X56861908Y-35611482D01*
X56912202Y-35746328D01*
X56912206Y-35746335D01*
X56998452Y-35861544D01*
X56998455Y-35861547D01*
X57113664Y-35947793D01*
X57113671Y-35947797D01*
X57248517Y-35998091D01*
X57248516Y-35998091D01*
X57255444Y-35998835D01*
X57308127Y-36004500D01*
X58831872Y-36004499D01*
X58891483Y-35998091D01*
X59026331Y-35947796D01*
X59141546Y-35861546D01*
X59227796Y-35746331D01*
X59278091Y-35611483D01*
X59284500Y-35551873D01*
X59284499Y-35464497D01*
X59304183Y-35397462D01*
X59356986Y-35351706D01*
X59426145Y-35341762D01*
X59489701Y-35370786D01*
X59510278Y-35395704D01*
X59511090Y-35395136D01*
X59636081Y-35573642D01*
X59636086Y-35573648D01*
X59786351Y-35723913D01*
X59786357Y-35723918D01*
X59960425Y-35845802D01*
X59960427Y-35845803D01*
X59960430Y-35845805D01*
X60153030Y-35935616D01*
X60358299Y-35990618D01*
X60509514Y-36003847D01*
X60569998Y-36009139D01*
X60570000Y-36009139D01*
X60570002Y-36009139D01*
X60623048Y-36004498D01*
X60781701Y-35990618D01*
X60986970Y-35935616D01*
X61179570Y-35845805D01*
X61353647Y-35723915D01*
X61482319Y-35595243D01*
X61543642Y-35561758D01*
X61613334Y-35566742D01*
X61657681Y-35595243D01*
X61786351Y-35723913D01*
X61786357Y-35723918D01*
X61960425Y-35845802D01*
X61960427Y-35845803D01*
X61960430Y-35845805D01*
X62153030Y-35935616D01*
X62358299Y-35990618D01*
X62509514Y-36003847D01*
X62569998Y-36009139D01*
X62570000Y-36009139D01*
X62570002Y-36009139D01*
X62623048Y-36004498D01*
X62781701Y-35990618D01*
X62986970Y-35935616D01*
X63179570Y-35845805D01*
X63353647Y-35723915D01*
X63503915Y-35573647D01*
X63625805Y-35399570D01*
X63707618Y-35224120D01*
X63753790Y-35171682D01*
X63820984Y-35152530D01*
X63887865Y-35172746D01*
X63932381Y-35224120D01*
X63987214Y-35341709D01*
X64014195Y-35399570D01*
X64014197Y-35399574D01*
X64136081Y-35573642D01*
X64136086Y-35573648D01*
X64286351Y-35723913D01*
X64286357Y-35723918D01*
X64460425Y-35845802D01*
X64460427Y-35845803D01*
X64460430Y-35845805D01*
X64653030Y-35935616D01*
X64858299Y-35990618D01*
X65009514Y-36003847D01*
X65069998Y-36009139D01*
X65070000Y-36009139D01*
X65070002Y-36009139D01*
X65123048Y-36004498D01*
X65281701Y-35990618D01*
X65486970Y-35935616D01*
X65679570Y-35845805D01*
X65853647Y-35723915D01*
X66003915Y-35573647D01*
X66125805Y-35399570D01*
X66215616Y-35206970D01*
X66270618Y-35001701D01*
X66289139Y-34790000D01*
X66270618Y-34578299D01*
X66215616Y-34373030D01*
X66125805Y-34180431D01*
X66029790Y-34043307D01*
X66003916Y-34006354D01*
X65942318Y-33944756D01*
X65853647Y-33856085D01*
X65853643Y-33856082D01*
X65853642Y-33856081D01*
X65679574Y-33734197D01*
X65679570Y-33734195D01*
X65679566Y-33734193D01*
X65486970Y-33644384D01*
X65486966Y-33644383D01*
X65486962Y-33644381D01*
X65281705Y-33589383D01*
X65281703Y-33589382D01*
X65281701Y-33589382D01*
X65281699Y-33589381D01*
X65281695Y-33589381D01*
X65070002Y-33570861D01*
X65069998Y-33570861D01*
X64858304Y-33589381D01*
X64858294Y-33589383D01*
X64653037Y-33644381D01*
X64653028Y-33644385D01*
X64460433Y-33734193D01*
X64286350Y-33856086D01*
X64136086Y-34006350D01*
X64014193Y-34180433D01*
X63932382Y-34355878D01*
X63886210Y-34408317D01*
X63819016Y-34427469D01*
X63752135Y-34407253D01*
X63707618Y-34355878D01*
X63625806Y-34180433D01*
X63608723Y-34156036D01*
X63529790Y-34043307D01*
X63503916Y-34006354D01*
X63442318Y-33944756D01*
X63353647Y-33856085D01*
X63353643Y-33856082D01*
X63353642Y-33856081D01*
X63179574Y-33734197D01*
X63179570Y-33734195D01*
X63179566Y-33734193D01*
X62986970Y-33644384D01*
X62986966Y-33644383D01*
X62986962Y-33644381D01*
X62781705Y-33589383D01*
X62781703Y-33589382D01*
X62781701Y-33589382D01*
X62781699Y-33589381D01*
X62781695Y-33589381D01*
X62570002Y-33570861D01*
X62569998Y-33570861D01*
X62358304Y-33589381D01*
X62358294Y-33589383D01*
X62153037Y-33644381D01*
X62153028Y-33644385D01*
X61960433Y-33734193D01*
X61786354Y-33856083D01*
X61657680Y-33984757D01*
X61596357Y-34018241D01*
X61526665Y-34013257D01*
X61482318Y-33984756D01*
X61353648Y-33856086D01*
X61353642Y-33856081D01*
X61179574Y-33734197D01*
X61179570Y-33734195D01*
X61179566Y-33734193D01*
X60986970Y-33644384D01*
X60986966Y-33644383D01*
X60986962Y-33644381D01*
X60781705Y-33589383D01*
X60781703Y-33589382D01*
X60781701Y-33589382D01*
X60781699Y-33589381D01*
X60781695Y-33589381D01*
X60570002Y-33570861D01*
X60569998Y-33570861D01*
X60358304Y-33589381D01*
X60358294Y-33589383D01*
X60153037Y-33644381D01*
X60153028Y-33644385D01*
X59960433Y-33734193D01*
X59786350Y-33856086D01*
X59636086Y-34006350D01*
X59549636Y-34129815D01*
X59531277Y-34156036D01*
X59511090Y-34184866D01*
X59509406Y-34183686D01*
X59465298Y-34225728D01*
X59396689Y-34238938D01*
X59331829Y-34212958D01*
X59291311Y-34156036D01*
X59284499Y-34115502D01*
X59284499Y-34028129D01*
X59284498Y-34028123D01*
X59284497Y-34028116D01*
X59278091Y-33968517D01*
X59277284Y-33966354D01*
X59227797Y-33833671D01*
X59227793Y-33833664D01*
X59141547Y-33718455D01*
X59141544Y-33718452D01*
X59026335Y-33632206D01*
X59026329Y-33632203D01*
X59005757Y-33624530D01*
X58949823Y-33582658D01*
X58925407Y-33517193D01*
X58940259Y-33448920D01*
X58961407Y-33420670D01*
X59545259Y-32836819D01*
X59606582Y-32803334D01*
X59632940Y-32800500D01*
X66090194Y-32800500D01*
X66124249Y-32792726D01*
X66130905Y-32791208D01*
X66137760Y-32790043D01*
X66179255Y-32785368D01*
X66218680Y-32771571D01*
X66225321Y-32769658D01*
X66266061Y-32760360D01*
X66303693Y-32742236D01*
X66310105Y-32739580D01*
X66349522Y-32725789D01*
X66384889Y-32703565D01*
X66390961Y-32700209D01*
X66428587Y-32682091D01*
X66461236Y-32656052D01*
X66466895Y-32652037D01*
X66502262Y-32629816D01*
X66629816Y-32502262D01*
X67018826Y-32113252D01*
X67050816Y-32081262D01*
X67073041Y-32045889D01*
X67077039Y-32040255D01*
X67103092Y-32007587D01*
X67121209Y-31969965D01*
X67124575Y-31963874D01*
X67146789Y-31928522D01*
X67160578Y-31889109D01*
X67163235Y-31882695D01*
X67181360Y-31845061D01*
X67190652Y-31804349D01*
X67192573Y-31797676D01*
X67206368Y-31758255D01*
X67211043Y-31716760D01*
X67212208Y-31709905D01*
X67217529Y-31686591D01*
X67221500Y-31669194D01*
X67221500Y-31488806D01*
X67221500Y-28914890D01*
X67241185Y-28847851D01*
X67274375Y-28813316D01*
X67292401Y-28800695D01*
X67459495Y-28633601D01*
X67595035Y-28440030D01*
X67694903Y-28225863D01*
X67756063Y-27997608D01*
X67776659Y-27762200D01*
X67763710Y-27614205D01*
X67777476Y-27545708D01*
X67799554Y-27515722D01*
X71247826Y-24067452D01*
X71279816Y-24035462D01*
X71302037Y-24000095D01*
X71306052Y-23994436D01*
X71332091Y-23961787D01*
X71350209Y-23924161D01*
X71353565Y-23918089D01*
X71375789Y-23882722D01*
X71389580Y-23843305D01*
X71392236Y-23836893D01*
X71410360Y-23799261D01*
X71419658Y-23758521D01*
X71421571Y-23751880D01*
X71435368Y-23712455D01*
X71440043Y-23670960D01*
X71441208Y-23664105D01*
X71442726Y-23657449D01*
X71450500Y-23623394D01*
X71450500Y-23443006D01*
X71450500Y-10855046D01*
X71450500Y-10809806D01*
X71441207Y-10769093D01*
X71440042Y-10762233D01*
X71435368Y-10720745D01*
X71435367Y-10720742D01*
X71421576Y-10681328D01*
X71419650Y-10674641D01*
X71410360Y-10633939D01*
X71392238Y-10596307D01*
X71389583Y-10589899D01*
X71375789Y-10550478D01*
X71353574Y-10515123D01*
X71350208Y-10509033D01*
X71332092Y-10471415D01*
X71332090Y-10471411D01*
X71306060Y-10438770D01*
X71302033Y-10433096D01*
X71279816Y-10397738D01*
X65796819Y-4914741D01*
X65763334Y-4853418D01*
X65760500Y-4827060D01*
X65760500Y-3652690D01*
X65780185Y-3585651D01*
X65813375Y-3551116D01*
X65831401Y-3538495D01*
X65953329Y-3416566D01*
X66014648Y-3383084D01*
X66084340Y-3388068D01*
X66140274Y-3429939D01*
X66157189Y-3460917D01*
X66206202Y-3592328D01*
X66206206Y-3592335D01*
X66292452Y-3707544D01*
X66292455Y-3707547D01*
X66407664Y-3793793D01*
X66407671Y-3793797D01*
X66542517Y-3844091D01*
X66542516Y-3844091D01*
X66549444Y-3844835D01*
X66602127Y-3850500D01*
X68397872Y-3850499D01*
X68457483Y-3844091D01*
X68592331Y-3793796D01*
X68707546Y-3707546D01*
X68793796Y-3592331D01*
X68844091Y-3457483D01*
X68850500Y-3397873D01*
X68850499Y-1602128D01*
X68844091Y-1542517D01*
X68842810Y-1539083D01*
X68793797Y-1407671D01*
X68793793Y-1407664D01*
X68707547Y-1292455D01*
X68707544Y-1292452D01*
X68592335Y-1206206D01*
X68592328Y-1206202D01*
X68457482Y-1155908D01*
X68457483Y-1155908D01*
X68397883Y-1149501D01*
X68397881Y-1149500D01*
X68397873Y-1149500D01*
X68397864Y-1149500D01*
X66602129Y-1149500D01*
X66602123Y-1149501D01*
X66542516Y-1155908D01*
X66407671Y-1206202D01*
X66407664Y-1206206D01*
X66292455Y-1292452D01*
X66292452Y-1292455D01*
X66206206Y-1407664D01*
X66206203Y-1407669D01*
X66157189Y-1539083D01*
X66115317Y-1595016D01*
X66049853Y-1619433D01*
X65981580Y-1604581D01*
X65953326Y-1583430D01*
X65831402Y-1461506D01*
X65831395Y-1461501D01*
X65637834Y-1325967D01*
X65637830Y-1325965D01*
X65637828Y-1325964D01*
X65423663Y-1226097D01*
X65423659Y-1226096D01*
X65423655Y-1226094D01*
X65195413Y-1164938D01*
X65195403Y-1164936D01*
X64960001Y-1144341D01*
X64959999Y-1144341D01*
X64724596Y-1164936D01*
X64724586Y-1164938D01*
X64496344Y-1226094D01*
X64496335Y-1226098D01*
X64282171Y-1325964D01*
X64282169Y-1325965D01*
X64088597Y-1461505D01*
X63921508Y-1628594D01*
X63791269Y-1814595D01*
X63736692Y-1858219D01*
X63667193Y-1865412D01*
X63604839Y-1833890D01*
X63588119Y-1814594D01*
X63458113Y-1628926D01*
X63458108Y-1628920D01*
X63291082Y-1461894D01*
X63097578Y-1326399D01*
X62883492Y-1226570D01*
X62883486Y-1226567D01*
X62670000Y-1169364D01*
X62670000Y-2064498D01*
X62562315Y-2015320D01*
X62455763Y-2000000D01*
X62384237Y-2000000D01*
X62277685Y-2015320D01*
X62170000Y-2064498D01*
X62170000Y-1169364D01*
X62169999Y-1169364D01*
X61956513Y-1226567D01*
X61956507Y-1226570D01*
X61742422Y-1326399D01*
X61742420Y-1326400D01*
X61548926Y-1461886D01*
X61548920Y-1461891D01*
X61381891Y-1628920D01*
X61381886Y-1628926D01*
X61246400Y-1822420D01*
X61246399Y-1822422D01*
X61146570Y-2036507D01*
X61146567Y-2036513D01*
X61089364Y-2249999D01*
X61089364Y-2250000D01*
X61986314Y-2250000D01*
X61960507Y-2290156D01*
X61920000Y-2428111D01*
X61920000Y-2571889D01*
X61960507Y-2709844D01*
X61986314Y-2750000D01*
X61089364Y-2750000D01*
X61146567Y-2963486D01*
X61146570Y-2963492D01*
X61246399Y-3177578D01*
X61381894Y-3371082D01*
X61548917Y-3538105D01*
X61742421Y-3673600D01*
X61956507Y-3773429D01*
X61956516Y-3773433D01*
X62170000Y-3830634D01*
X62170000Y-2935501D01*
X62277685Y-2984680D01*
X62384237Y-3000000D01*
X62455763Y-3000000D01*
X62562315Y-2984680D01*
X62670000Y-2935501D01*
X62670000Y-3830633D01*
X62883483Y-3773433D01*
X62883492Y-3773429D01*
X63097578Y-3673600D01*
X63291082Y-3538105D01*
X63458105Y-3371082D01*
X63588119Y-3185405D01*
X63642696Y-3141781D01*
X63712195Y-3134588D01*
X63774549Y-3166110D01*
X63791269Y-3185405D01*
X63921505Y-3371401D01*
X63921506Y-3371402D01*
X64088594Y-3538491D01*
X64088597Y-3538493D01*
X64088599Y-3538495D01*
X64106622Y-3551115D01*
X64150247Y-3605689D01*
X64159500Y-3652690D01*
X64159500Y-4325500D01*
X64139815Y-4392539D01*
X64087011Y-4438294D01*
X64035500Y-4449500D01*
X40884500Y-4449500D01*
X40817461Y-4429815D01*
X40771706Y-4377011D01*
X40760500Y-4325500D01*
X40760500Y-3652690D01*
X40780185Y-3585651D01*
X40813375Y-3551116D01*
X40831401Y-3538495D01*
X40953329Y-3416566D01*
X41014648Y-3383084D01*
X41084340Y-3388068D01*
X41140274Y-3429939D01*
X41157189Y-3460917D01*
X41206202Y-3592328D01*
X41206206Y-3592335D01*
X41292452Y-3707544D01*
X41292455Y-3707547D01*
X41407664Y-3793793D01*
X41407671Y-3793797D01*
X41542517Y-3844091D01*
X41542516Y-3844091D01*
X41549444Y-3844835D01*
X41602127Y-3850500D01*
X43397872Y-3850499D01*
X43457483Y-3844091D01*
X43592331Y-3793796D01*
X43707546Y-3707546D01*
X43793796Y-3592331D01*
X43844091Y-3457483D01*
X43850500Y-3397873D01*
X43850499Y-1602128D01*
X43844091Y-1542517D01*
X43842810Y-1539083D01*
X43793797Y-1407671D01*
X43793793Y-1407664D01*
X43707547Y-1292455D01*
X43707544Y-1292452D01*
X43592335Y-1206206D01*
X43592328Y-1206202D01*
X43457482Y-1155908D01*
X43457483Y-1155908D01*
X43397883Y-1149501D01*
X43397881Y-1149500D01*
X43397873Y-1149500D01*
X43397864Y-1149500D01*
X41602129Y-1149500D01*
X41602123Y-1149501D01*
X41542516Y-1155908D01*
X41407671Y-1206202D01*
X41407664Y-1206206D01*
X41292455Y-1292452D01*
X41292452Y-1292455D01*
X41206206Y-1407664D01*
X41206203Y-1407669D01*
X41157189Y-1539083D01*
X41115317Y-1595016D01*
X41049853Y-1619433D01*
X40981580Y-1604581D01*
X40953326Y-1583430D01*
X40831402Y-1461506D01*
X40831395Y-1461501D01*
X40637834Y-1325967D01*
X40637830Y-1325965D01*
X40637828Y-1325964D01*
X40423663Y-1226097D01*
X40423659Y-1226096D01*
X40423655Y-1226094D01*
X40195413Y-1164938D01*
X40195403Y-1164936D01*
X39960001Y-1144341D01*
X39959999Y-1144341D01*
X39724596Y-1164936D01*
X39724586Y-1164938D01*
X39496344Y-1226094D01*
X39496335Y-1226098D01*
X39282171Y-1325964D01*
X39282169Y-1325965D01*
X39088597Y-1461505D01*
X38921508Y-1628594D01*
X38791269Y-1814595D01*
X38736692Y-1858219D01*
X38667193Y-1865412D01*
X38604839Y-1833890D01*
X38588119Y-1814594D01*
X38458113Y-1628926D01*
X38458108Y-1628920D01*
X38291082Y-1461894D01*
X38097578Y-1326399D01*
X37883492Y-1226570D01*
X37883486Y-1226567D01*
X37670000Y-1169364D01*
X37670000Y-2064498D01*
X37562315Y-2015320D01*
X37455763Y-2000000D01*
X37384237Y-2000000D01*
X37277685Y-2015320D01*
X37170000Y-2064498D01*
X37170000Y-1169364D01*
X37169999Y-1169364D01*
X36956513Y-1226567D01*
X36956507Y-1226570D01*
X36742422Y-1326399D01*
X36742420Y-1326400D01*
X36548926Y-1461886D01*
X36548920Y-1461891D01*
X36381891Y-1628920D01*
X36381886Y-1628926D01*
X36246400Y-1822420D01*
X36246399Y-1822422D01*
X36146570Y-2036507D01*
X36146567Y-2036513D01*
X36089364Y-2249999D01*
X36089364Y-2250000D01*
X36986314Y-2250000D01*
X36960507Y-2290156D01*
X36920000Y-2428111D01*
X36920000Y-2571889D01*
X36960507Y-2709844D01*
X36986314Y-2750000D01*
X36089364Y-2750000D01*
X36146567Y-2963486D01*
X36146570Y-2963492D01*
X36246399Y-3177578D01*
X36381894Y-3371082D01*
X36548917Y-3538105D01*
X36742421Y-3673600D01*
X36956507Y-3773429D01*
X36956516Y-3773433D01*
X37170000Y-3830634D01*
X37170000Y-2935501D01*
X37277685Y-2984680D01*
X37384237Y-3000000D01*
X37455763Y-3000000D01*
X37562315Y-2984680D01*
X37670000Y-2935501D01*
X37670000Y-3830633D01*
X37883483Y-3773433D01*
X37883492Y-3773429D01*
X38097578Y-3673600D01*
X38291082Y-3538105D01*
X38458105Y-3371082D01*
X38588119Y-3185405D01*
X38642696Y-3141781D01*
X38712195Y-3134588D01*
X38774549Y-3166110D01*
X38791269Y-3185405D01*
X38921505Y-3371401D01*
X38921506Y-3371402D01*
X39088594Y-3538491D01*
X39088597Y-3538493D01*
X39088599Y-3538495D01*
X39106622Y-3551115D01*
X39150247Y-3605689D01*
X39159500Y-3652690D01*
X39159500Y-4325500D01*
X39139815Y-4392539D01*
X39087011Y-4438294D01*
X39035500Y-4449500D01*
X18632939Y-4449500D01*
X18565900Y-4429815D01*
X18545258Y-4413181D01*
X18296819Y-4164741D01*
X18263334Y-4103418D01*
X18260500Y-4077060D01*
X18260500Y-3652690D01*
X18280185Y-3585651D01*
X18313375Y-3551116D01*
X18331401Y-3538495D01*
X18453329Y-3416566D01*
X18514648Y-3383084D01*
X18584340Y-3388068D01*
X18640274Y-3429939D01*
X18657189Y-3460917D01*
X18706202Y-3592328D01*
X18706206Y-3592335D01*
X18792452Y-3707544D01*
X18792455Y-3707547D01*
X18907664Y-3793793D01*
X18907671Y-3793797D01*
X19042517Y-3844091D01*
X19042516Y-3844091D01*
X19049444Y-3844835D01*
X19102127Y-3850500D01*
X20897872Y-3850499D01*
X20957483Y-3844091D01*
X21092331Y-3793796D01*
X21207546Y-3707546D01*
X21293796Y-3592331D01*
X21344091Y-3457483D01*
X21350500Y-3397873D01*
X21350499Y-1602128D01*
X21344091Y-1542517D01*
X21342810Y-1539083D01*
X21293797Y-1407671D01*
X21293793Y-1407664D01*
X21207547Y-1292455D01*
X21207544Y-1292452D01*
X21092335Y-1206206D01*
X21092328Y-1206202D01*
X20957482Y-1155908D01*
X20957483Y-1155908D01*
X20897883Y-1149501D01*
X20897881Y-1149500D01*
X20897873Y-1149500D01*
X20897864Y-1149500D01*
X19102129Y-1149500D01*
X19102123Y-1149501D01*
X19042516Y-1155908D01*
X18907671Y-1206202D01*
X18907664Y-1206206D01*
X18792455Y-1292452D01*
X18792452Y-1292455D01*
X18706206Y-1407664D01*
X18706203Y-1407669D01*
X18657189Y-1539083D01*
X18615317Y-1595016D01*
X18549853Y-1619433D01*
X18481580Y-1604581D01*
X18453326Y-1583430D01*
X18331402Y-1461506D01*
X18331395Y-1461501D01*
X18137834Y-1325967D01*
X18137830Y-1325965D01*
X18137828Y-1325964D01*
X17923663Y-1226097D01*
X17923659Y-1226096D01*
X17923655Y-1226094D01*
X17695413Y-1164938D01*
X17695403Y-1164936D01*
X17460001Y-1144341D01*
X17459999Y-1144341D01*
X17224596Y-1164936D01*
X17224586Y-1164938D01*
X16996344Y-1226094D01*
X16996335Y-1226098D01*
X16782171Y-1325964D01*
X16782169Y-1325965D01*
X16588597Y-1461505D01*
X16421508Y-1628594D01*
X16291269Y-1814595D01*
X16236692Y-1858219D01*
X16167193Y-1865412D01*
X16104839Y-1833890D01*
X16088119Y-1814594D01*
X15958113Y-1628926D01*
X15958108Y-1628920D01*
X15791082Y-1461894D01*
X15597578Y-1326399D01*
X15383492Y-1226570D01*
X15383486Y-1226567D01*
X15170000Y-1169364D01*
X15170000Y-2064498D01*
X15062315Y-2015320D01*
X14955763Y-2000000D01*
X14884237Y-2000000D01*
X14777685Y-2015320D01*
X14670000Y-2064498D01*
X14670000Y-1169364D01*
X14669999Y-1169364D01*
X14456513Y-1226567D01*
X14456507Y-1226570D01*
X14242422Y-1326399D01*
X14242420Y-1326400D01*
X14048926Y-1461886D01*
X14048920Y-1461891D01*
X13881891Y-1628920D01*
X13881886Y-1628926D01*
X13746400Y-1822420D01*
X13746399Y-1822422D01*
X13646570Y-2036507D01*
X13646567Y-2036513D01*
X13589364Y-2249999D01*
X13589364Y-2250000D01*
X14486314Y-2250000D01*
X14460507Y-2290156D01*
X14420000Y-2428111D01*
X14420000Y-2571889D01*
X14460507Y-2709844D01*
X14486314Y-2750000D01*
X13589364Y-2750000D01*
X13646567Y-2963486D01*
X13646570Y-2963492D01*
X13746399Y-3177578D01*
X13881894Y-3371082D01*
X14048917Y-3538105D01*
X14242421Y-3673600D01*
X14456507Y-3773429D01*
X14456516Y-3773433D01*
X14670000Y-3830634D01*
X14670000Y-2935501D01*
X14777685Y-2984680D01*
X14884237Y-3000000D01*
X14955763Y-3000000D01*
X15062315Y-2984680D01*
X15170000Y-2935501D01*
X15170000Y-3830633D01*
X15383483Y-3773433D01*
X15383492Y-3773429D01*
X15597578Y-3673600D01*
X15791082Y-3538105D01*
X15958105Y-3371082D01*
X16088119Y-3185405D01*
X16142696Y-3141781D01*
X16212195Y-3134588D01*
X16274549Y-3166110D01*
X16291269Y-3185405D01*
X16421505Y-3371401D01*
X16421506Y-3371402D01*
X16588594Y-3538491D01*
X16588597Y-3538493D01*
X16588599Y-3538495D01*
X16606622Y-3551115D01*
X16650247Y-3605689D01*
X16659500Y-3652690D01*
X16659500Y-4550191D01*
X16659501Y-4550200D01*
X16668791Y-4590908D01*
X16669955Y-4597763D01*
X16674632Y-4639259D01*
X16688420Y-4678662D01*
X16690345Y-4685345D01*
X16699639Y-4726061D01*
X16717759Y-4763688D01*
X16720421Y-4770114D01*
X16734212Y-4809525D01*
X16756422Y-4844872D01*
X16759787Y-4850959D01*
X16777910Y-4888589D01*
X16803940Y-4921229D01*
X16807966Y-4926904D01*
X16830182Y-4962259D01*
X16830184Y-4962262D01*
X16862174Y-4994252D01*
X17617841Y-5749918D01*
X17617851Y-5749929D01*
X17620183Y-5752261D01*
X17620184Y-5752262D01*
X17747738Y-5879816D01*
X17783103Y-5902037D01*
X17788768Y-5906057D01*
X17821414Y-5932092D01*
X17859038Y-5950210D01*
X17865123Y-5953574D01*
X17900478Y-5975789D01*
X17939899Y-5989583D01*
X17946307Y-5992238D01*
X17983939Y-6010360D01*
X18024641Y-6019650D01*
X18031328Y-6021576D01*
X18070742Y-6035367D01*
X18070745Y-6035368D01*
X18112241Y-6040043D01*
X18119093Y-6041207D01*
X18159806Y-6050500D01*
X18205046Y-6050500D01*
X40159806Y-6050500D01*
X40205046Y-6050500D01*
X64617060Y-6050500D01*
X64684099Y-6070185D01*
X64704741Y-6086819D01*
X67214760Y-8596838D01*
X67248245Y-8658161D01*
X67243261Y-8727853D01*
X67201389Y-8783786D01*
X67135925Y-8808203D01*
X67074674Y-8796901D01*
X67027733Y-8775012D01*
X66884663Y-8708297D01*
X66884659Y-8708296D01*
X66884655Y-8708294D01*
X66656413Y-8647138D01*
X66656403Y-8647136D01*
X66421001Y-8626541D01*
X66420999Y-8626541D01*
X66185596Y-8647136D01*
X66185586Y-8647138D01*
X65957344Y-8708294D01*
X65957335Y-8708298D01*
X65743171Y-8808164D01*
X65743169Y-8808165D01*
X65549597Y-8943705D01*
X65382505Y-9110797D01*
X65252575Y-9296358D01*
X65197998Y-9339983D01*
X65128500Y-9347177D01*
X65066145Y-9315654D01*
X65049425Y-9296358D01*
X64919494Y-9110797D01*
X64752402Y-8943706D01*
X64752395Y-8943701D01*
X64558834Y-8808167D01*
X64558830Y-8808165D01*
X64487727Y-8775009D01*
X64344663Y-8708297D01*
X64344659Y-8708296D01*
X64344655Y-8708294D01*
X64116413Y-8647138D01*
X64116403Y-8647136D01*
X63881001Y-8626541D01*
X63880999Y-8626541D01*
X63645596Y-8647136D01*
X63645586Y-8647138D01*
X63417344Y-8708294D01*
X63417335Y-8708298D01*
X63203171Y-8808164D01*
X63203169Y-8808165D01*
X63009600Y-8943703D01*
X62887284Y-9066019D01*
X62825961Y-9099503D01*
X62756269Y-9094519D01*
X62700336Y-9052647D01*
X62683421Y-9021670D01*
X62634354Y-8890113D01*
X62634350Y-8890106D01*
X62548190Y-8775012D01*
X62548187Y-8775009D01*
X62433093Y-8688849D01*
X62433086Y-8688845D01*
X62298379Y-8638603D01*
X62298372Y-8638601D01*
X62238844Y-8632200D01*
X61591000Y-8632200D01*
X61591000Y-9535705D01*
X61486161Y-9487827D01*
X61377473Y-9472200D01*
X61304527Y-9472200D01*
X61195839Y-9487827D01*
X61091000Y-9535705D01*
X61091000Y-8632200D01*
X60443155Y-8632200D01*
X60383627Y-8638601D01*
X60383620Y-8638603D01*
X60248913Y-8688845D01*
X60248906Y-8688849D01*
X60133812Y-8775009D01*
X60133809Y-8775012D01*
X60047649Y-8890106D01*
X60047645Y-8890113D01*
X59998578Y-9021670D01*
X59956707Y-9077604D01*
X59891242Y-9102021D01*
X59822969Y-9087169D01*
X59794715Y-9066019D01*
X59750366Y-9021670D01*
X59672401Y-8943705D01*
X59672397Y-8943702D01*
X59672396Y-8943701D01*
X59478834Y-8808167D01*
X59478830Y-8808165D01*
X59407727Y-8775009D01*
X59264663Y-8708297D01*
X59264659Y-8708296D01*
X59264655Y-8708294D01*
X59036413Y-8647138D01*
X59036403Y-8647136D01*
X58801001Y-8626541D01*
X58800999Y-8626541D01*
X58565596Y-8647136D01*
X58565586Y-8647138D01*
X58337344Y-8708294D01*
X58337335Y-8708298D01*
X58123171Y-8808164D01*
X58123169Y-8808165D01*
X57929597Y-8943705D01*
X57762505Y-9110797D01*
X57632575Y-9296358D01*
X57577998Y-9339983D01*
X57508500Y-9347177D01*
X57446145Y-9315654D01*
X57429425Y-9296358D01*
X57299494Y-9110797D01*
X57132402Y-8943706D01*
X57132395Y-8943701D01*
X56938834Y-8808167D01*
X56938830Y-8808165D01*
X56867727Y-8775009D01*
X56724663Y-8708297D01*
X56724659Y-8708296D01*
X56724655Y-8708294D01*
X56496413Y-8647138D01*
X56496403Y-8647136D01*
X56261001Y-8626541D01*
X56260999Y-8626541D01*
X56025596Y-8647136D01*
X56025586Y-8647138D01*
X55797344Y-8708294D01*
X55797335Y-8708298D01*
X55583171Y-8808164D01*
X55583169Y-8808165D01*
X55389597Y-8943705D01*
X55222505Y-9110797D01*
X55092575Y-9296358D01*
X55037998Y-9339983D01*
X54968500Y-9347177D01*
X54906145Y-9315654D01*
X54889425Y-9296358D01*
X54759494Y-9110797D01*
X54592402Y-8943706D01*
X54592395Y-8943701D01*
X54398834Y-8808167D01*
X54398830Y-8808165D01*
X54327727Y-8775009D01*
X54184663Y-8708297D01*
X54184659Y-8708296D01*
X54184655Y-8708294D01*
X53956413Y-8647138D01*
X53956403Y-8647136D01*
X53721001Y-8626541D01*
X53720999Y-8626541D01*
X53485596Y-8647136D01*
X53485586Y-8647138D01*
X53257344Y-8708294D01*
X53257335Y-8708298D01*
X53043171Y-8808164D01*
X53043169Y-8808165D01*
X52849597Y-8943705D01*
X52682505Y-9110797D01*
X52552575Y-9296358D01*
X52497998Y-9339983D01*
X52428500Y-9347177D01*
X52366145Y-9315654D01*
X52349425Y-9296358D01*
X52219494Y-9110797D01*
X52052402Y-8943706D01*
X52052395Y-8943701D01*
X51858834Y-8808167D01*
X51858830Y-8808165D01*
X51787727Y-8775009D01*
X51644663Y-8708297D01*
X51644659Y-8708296D01*
X51644655Y-8708294D01*
X51416413Y-8647138D01*
X51416403Y-8647136D01*
X51181001Y-8626541D01*
X51180999Y-8626541D01*
X50945596Y-8647136D01*
X50945586Y-8647138D01*
X50717344Y-8708294D01*
X50717335Y-8708298D01*
X50503171Y-8808164D01*
X50503169Y-8808165D01*
X50309600Y-8943703D01*
X50187284Y-9066019D01*
X50125961Y-9099503D01*
X50056269Y-9094519D01*
X50000336Y-9052647D01*
X49983421Y-9021670D01*
X49934354Y-8890113D01*
X49934350Y-8890106D01*
X49848190Y-8775012D01*
X49848187Y-8775009D01*
X49733093Y-8688849D01*
X49733086Y-8688845D01*
X49598379Y-8638603D01*
X49598372Y-8638601D01*
X49538844Y-8632200D01*
X48891000Y-8632200D01*
X48891000Y-9535705D01*
X48786161Y-9487827D01*
X48677473Y-9472200D01*
X48604527Y-9472200D01*
X48495839Y-9487827D01*
X48391000Y-9535705D01*
X48391000Y-8632200D01*
X47743155Y-8632200D01*
X47683627Y-8638601D01*
X47683620Y-8638603D01*
X47548913Y-8688845D01*
X47548906Y-8688849D01*
X47433812Y-8775009D01*
X47433809Y-8775012D01*
X47347649Y-8890106D01*
X47347645Y-8890113D01*
X47298578Y-9021670D01*
X47256707Y-9077604D01*
X47191242Y-9102021D01*
X47122969Y-9087169D01*
X47094715Y-9066019D01*
X47050366Y-9021670D01*
X46972401Y-8943705D01*
X46972397Y-8943702D01*
X46972396Y-8943701D01*
X46778834Y-8808167D01*
X46778830Y-8808165D01*
X46707727Y-8775009D01*
X46564663Y-8708297D01*
X46564659Y-8708296D01*
X46564655Y-8708294D01*
X46336413Y-8647138D01*
X46336403Y-8647136D01*
X46101001Y-8626541D01*
X46100999Y-8626541D01*
X45865596Y-8647136D01*
X45865586Y-8647138D01*
X45637344Y-8708294D01*
X45637335Y-8708298D01*
X45423171Y-8808164D01*
X45423169Y-8808165D01*
X45229597Y-8943705D01*
X45062505Y-9110797D01*
X44932575Y-9296358D01*
X44877998Y-9339983D01*
X44808500Y-9347177D01*
X44746145Y-9315654D01*
X44729425Y-9296358D01*
X44599494Y-9110797D01*
X44432402Y-8943706D01*
X44432395Y-8943701D01*
X44238834Y-8808167D01*
X44238830Y-8808165D01*
X44167727Y-8775009D01*
X44024663Y-8708297D01*
X44024659Y-8708296D01*
X44024655Y-8708294D01*
X43796413Y-8647138D01*
X43796403Y-8647136D01*
X43561001Y-8626541D01*
X43560999Y-8626541D01*
X43325596Y-8647136D01*
X43325586Y-8647138D01*
X43097344Y-8708294D01*
X43097335Y-8708298D01*
X42883171Y-8808164D01*
X42883169Y-8808165D01*
X42689597Y-8943705D01*
X42522505Y-9110797D01*
X42392575Y-9296358D01*
X42337998Y-9339983D01*
X42268500Y-9347177D01*
X42206145Y-9315654D01*
X42189425Y-9296358D01*
X42059494Y-9110797D01*
X41892402Y-8943706D01*
X41892395Y-8943701D01*
X41698834Y-8808167D01*
X41698830Y-8808165D01*
X41627727Y-8775009D01*
X41484663Y-8708297D01*
X41484659Y-8708296D01*
X41484655Y-8708294D01*
X41256413Y-8647138D01*
X41256403Y-8647136D01*
X41021001Y-8626541D01*
X41020999Y-8626541D01*
X40785596Y-8647136D01*
X40785586Y-8647138D01*
X40557344Y-8708294D01*
X40557335Y-8708298D01*
X40343171Y-8808164D01*
X40343169Y-8808165D01*
X40149597Y-8943705D01*
X39982505Y-9110797D01*
X39852575Y-9296358D01*
X39797998Y-9339983D01*
X39728500Y-9347177D01*
X39666145Y-9315654D01*
X39649425Y-9296358D01*
X39519494Y-9110797D01*
X39352402Y-8943706D01*
X39352395Y-8943701D01*
X39158834Y-8808167D01*
X39158830Y-8808165D01*
X39087727Y-8775009D01*
X38944663Y-8708297D01*
X38944659Y-8708296D01*
X38944655Y-8708294D01*
X38716413Y-8647138D01*
X38716403Y-8647136D01*
X38481001Y-8626541D01*
X38480999Y-8626541D01*
X38245596Y-8647136D01*
X38245586Y-8647138D01*
X38017344Y-8708294D01*
X38017335Y-8708298D01*
X37803171Y-8808164D01*
X37803169Y-8808165D01*
X37609600Y-8943703D01*
X37487284Y-9066019D01*
X37425961Y-9099503D01*
X37356269Y-9094519D01*
X37300336Y-9052647D01*
X37283421Y-9021670D01*
X37234354Y-8890113D01*
X37234350Y-8890106D01*
X37148190Y-8775012D01*
X37148187Y-8775009D01*
X37033093Y-8688849D01*
X37033086Y-8688845D01*
X36898379Y-8638603D01*
X36898372Y-8638601D01*
X36838844Y-8632200D01*
X36191000Y-8632200D01*
X36191000Y-9535705D01*
X36086161Y-9487827D01*
X35977473Y-9472200D01*
X35904527Y-9472200D01*
X35795839Y-9487827D01*
X35691000Y-9535705D01*
X35691000Y-8632200D01*
X35043155Y-8632200D01*
X34983627Y-8638601D01*
X34983620Y-8638603D01*
X34848913Y-8688845D01*
X34848906Y-8688849D01*
X34733812Y-8775009D01*
X34733809Y-8775012D01*
X34647649Y-8890106D01*
X34647645Y-8890113D01*
X34598578Y-9021670D01*
X34556707Y-9077604D01*
X34491242Y-9102021D01*
X34422969Y-9087169D01*
X34394715Y-9066019D01*
X34350366Y-9021670D01*
X34272401Y-8943705D01*
X34272397Y-8943702D01*
X34272396Y-8943701D01*
X34078834Y-8808167D01*
X34078830Y-8808165D01*
X34007727Y-8775009D01*
X33864663Y-8708297D01*
X33864659Y-8708296D01*
X33864655Y-8708294D01*
X33636413Y-8647138D01*
X33636403Y-8647136D01*
X33401001Y-8626541D01*
X33400999Y-8626541D01*
X33165596Y-8647136D01*
X33165586Y-8647138D01*
X32937344Y-8708294D01*
X32937335Y-8708298D01*
X32723171Y-8808164D01*
X32723169Y-8808165D01*
X32529597Y-8943705D01*
X32362505Y-9110797D01*
X32232575Y-9296358D01*
X32177998Y-9339983D01*
X32108500Y-9347177D01*
X32046145Y-9315654D01*
X32029425Y-9296358D01*
X31899494Y-9110797D01*
X31732402Y-8943706D01*
X31732395Y-8943701D01*
X31538834Y-8808167D01*
X31538830Y-8808165D01*
X31467727Y-8775009D01*
X31324663Y-8708297D01*
X31324659Y-8708296D01*
X31324655Y-8708294D01*
X31096413Y-8647138D01*
X31096403Y-8647136D01*
X30861001Y-8626541D01*
X30860999Y-8626541D01*
X30625596Y-8647136D01*
X30625586Y-8647138D01*
X30397344Y-8708294D01*
X30397335Y-8708298D01*
X30183171Y-8808164D01*
X30183169Y-8808165D01*
X29989597Y-8943705D01*
X29822505Y-9110797D01*
X29692575Y-9296358D01*
X29637998Y-9339983D01*
X29568500Y-9347177D01*
X29506145Y-9315654D01*
X29489425Y-9296358D01*
X29359494Y-9110797D01*
X29192402Y-8943706D01*
X29192395Y-8943701D01*
X28998834Y-8808167D01*
X28998830Y-8808165D01*
X28927727Y-8775009D01*
X28784663Y-8708297D01*
X28784659Y-8708296D01*
X28784655Y-8708294D01*
X28556413Y-8647138D01*
X28556403Y-8647136D01*
X28321001Y-8626541D01*
X28320999Y-8626541D01*
X28085596Y-8647136D01*
X28085586Y-8647138D01*
X27857344Y-8708294D01*
X27857335Y-8708298D01*
X27643171Y-8808164D01*
X27643169Y-8808165D01*
X27449597Y-8943705D01*
X27282505Y-9110797D01*
X27152575Y-9296358D01*
X27097998Y-9339983D01*
X27028500Y-9347177D01*
X26966145Y-9315654D01*
X26949425Y-9296358D01*
X26819494Y-9110797D01*
X26652402Y-8943706D01*
X26652395Y-8943701D01*
X26458834Y-8808167D01*
X26458830Y-8808165D01*
X26387727Y-8775009D01*
X26244663Y-8708297D01*
X26244659Y-8708296D01*
X26244655Y-8708294D01*
X26016413Y-8647138D01*
X26016403Y-8647136D01*
X25781001Y-8626541D01*
X25780999Y-8626541D01*
X25545596Y-8647136D01*
X25545586Y-8647138D01*
X25317344Y-8708294D01*
X25317335Y-8708298D01*
X25103171Y-8808164D01*
X25103169Y-8808165D01*
X24909600Y-8943703D01*
X24787284Y-9066019D01*
X24725961Y-9099503D01*
X24656269Y-9094519D01*
X24600336Y-9052647D01*
X24583421Y-9021670D01*
X24534354Y-8890113D01*
X24534350Y-8890106D01*
X24448190Y-8775012D01*
X24448187Y-8775009D01*
X24333093Y-8688849D01*
X24333086Y-8688845D01*
X24198379Y-8638603D01*
X24198372Y-8638601D01*
X24138844Y-8632200D01*
X23491000Y-8632200D01*
X23491000Y-9535705D01*
X23386161Y-9487827D01*
X23277473Y-9472200D01*
X23204527Y-9472200D01*
X23095839Y-9487827D01*
X22991000Y-9535705D01*
X22991000Y-8632200D01*
X22343155Y-8632200D01*
X22283627Y-8638601D01*
X22283620Y-8638603D01*
X22148913Y-8688845D01*
X22148906Y-8688849D01*
X22033812Y-8775009D01*
X22033809Y-8775012D01*
X21947649Y-8890106D01*
X21947645Y-8890113D01*
X21898578Y-9021670D01*
X21856707Y-9077604D01*
X21791242Y-9102021D01*
X21722969Y-9087169D01*
X21694715Y-9066019D01*
X21650366Y-9021670D01*
X21572401Y-8943705D01*
X21572397Y-8943702D01*
X21572396Y-8943701D01*
X21378834Y-8808167D01*
X21378830Y-8808165D01*
X21307727Y-8775009D01*
X21164663Y-8708297D01*
X21164659Y-8708296D01*
X21164655Y-8708294D01*
X20936413Y-8647138D01*
X20936403Y-8647136D01*
X20701001Y-8626541D01*
X20700999Y-8626541D01*
X20465596Y-8647136D01*
X20465586Y-8647138D01*
X20237344Y-8708294D01*
X20237335Y-8708298D01*
X20023171Y-8808164D01*
X20023169Y-8808165D01*
X19829597Y-8943705D01*
X19662505Y-9110797D01*
X19532575Y-9296358D01*
X19477998Y-9339983D01*
X19408500Y-9347177D01*
X19346145Y-9315654D01*
X19329425Y-9296358D01*
X19199494Y-9110797D01*
X19032402Y-8943706D01*
X19032395Y-8943701D01*
X18838834Y-8808167D01*
X18838830Y-8808165D01*
X18767727Y-8775009D01*
X18624663Y-8708297D01*
X18624659Y-8708296D01*
X18624655Y-8708294D01*
X18396413Y-8647138D01*
X18396403Y-8647136D01*
X18161001Y-8626541D01*
X18160999Y-8626541D01*
X17925596Y-8647136D01*
X17925586Y-8647138D01*
X17697344Y-8708294D01*
X17697335Y-8708298D01*
X17483171Y-8808164D01*
X17483169Y-8808165D01*
X17289597Y-8943705D01*
X17122505Y-9110797D01*
X16986965Y-9304369D01*
X16986964Y-9304371D01*
X16887098Y-9518535D01*
X16887094Y-9518544D01*
X16825938Y-9746786D01*
X16825936Y-9746796D01*
X16805341Y-9982199D01*
X16805341Y-9982200D01*
X16825936Y-10217603D01*
X16825938Y-10217613D01*
X16887094Y-10445855D01*
X16887096Y-10445859D01*
X16887097Y-10445863D01*
X16967004Y-10617223D01*
X16986965Y-10660030D01*
X16986967Y-10660034D01*
X17029478Y-10720745D01*
X17122505Y-10853601D01*
X17289599Y-11020695D01*
X17366135Y-11074286D01*
X17483165Y-11156232D01*
X17483167Y-11156233D01*
X17483170Y-11156235D01*
X17697337Y-11256103D01*
X17697343Y-11256104D01*
X17697344Y-11256105D01*
X17752285Y-11270826D01*
X17925592Y-11317263D01*
X18096319Y-11332200D01*
X18160999Y-11337859D01*
X18161000Y-11337859D01*
X18161001Y-11337859D01*
X18225681Y-11332200D01*
X18396408Y-11317263D01*
X18624663Y-11256103D01*
X18838830Y-11156235D01*
X19032401Y-11020695D01*
X19199495Y-10853601D01*
X19329425Y-10668042D01*
X19384002Y-10624417D01*
X19453500Y-10617223D01*
X19515855Y-10648746D01*
X19532575Y-10668042D01*
X19662500Y-10853595D01*
X19662505Y-10853601D01*
X19829599Y-11020695D01*
X19906135Y-11074286D01*
X20023165Y-11156232D01*
X20023167Y-11156233D01*
X20023170Y-11156235D01*
X20237337Y-11256103D01*
X20237343Y-11256104D01*
X20237344Y-11256105D01*
X20292285Y-11270826D01*
X20465592Y-11317263D01*
X20636319Y-11332200D01*
X20700999Y-11337859D01*
X20701000Y-11337859D01*
X20701001Y-11337859D01*
X20765681Y-11332200D01*
X20936408Y-11317263D01*
X21164663Y-11256103D01*
X21378830Y-11156235D01*
X21572401Y-11020695D01*
X21694717Y-10898378D01*
X21756036Y-10864896D01*
X21825728Y-10869880D01*
X21881662Y-10911751D01*
X21898577Y-10942728D01*
X21947646Y-11074288D01*
X21947649Y-11074293D01*
X22033809Y-11189387D01*
X22033812Y-11189390D01*
X22148906Y-11275550D01*
X22148913Y-11275554D01*
X22283620Y-11325796D01*
X22283627Y-11325798D01*
X22343155Y-11332199D01*
X22343172Y-11332200D01*
X22991000Y-11332200D01*
X22991000Y-10428694D01*
X23095839Y-10476573D01*
X23204527Y-10492200D01*
X23277473Y-10492200D01*
X23386161Y-10476573D01*
X23491000Y-10428694D01*
X23491000Y-11332200D01*
X24138828Y-11332200D01*
X24138844Y-11332199D01*
X24198372Y-11325798D01*
X24198379Y-11325796D01*
X24333086Y-11275554D01*
X24333093Y-11275550D01*
X24448187Y-11189390D01*
X24448190Y-11189387D01*
X24534350Y-11074293D01*
X24534354Y-11074286D01*
X24583422Y-10942729D01*
X24625293Y-10886795D01*
X24690757Y-10862378D01*
X24759030Y-10877230D01*
X24787285Y-10898381D01*
X24909599Y-11020695D01*
X24986135Y-11074286D01*
X25103165Y-11156232D01*
X25103167Y-11156233D01*
X25103170Y-11156235D01*
X25317337Y-11256103D01*
X25317343Y-11256104D01*
X25317344Y-11256105D01*
X25372285Y-11270826D01*
X25545592Y-11317263D01*
X25716319Y-11332200D01*
X25780999Y-11337859D01*
X25781000Y-11337859D01*
X25781001Y-11337859D01*
X25845681Y-11332200D01*
X26016408Y-11317263D01*
X26244663Y-11256103D01*
X26458830Y-11156235D01*
X26652401Y-11020695D01*
X26819495Y-10853601D01*
X26949425Y-10668042D01*
X27004002Y-10624417D01*
X27073500Y-10617223D01*
X27135855Y-10648746D01*
X27152575Y-10668042D01*
X27282500Y-10853595D01*
X27282505Y-10853601D01*
X27449599Y-11020695D01*
X27526135Y-11074286D01*
X27643165Y-11156232D01*
X27643167Y-11156233D01*
X27643170Y-11156235D01*
X27857337Y-11256103D01*
X27857343Y-11256104D01*
X27857344Y-11256105D01*
X27912285Y-11270826D01*
X28085592Y-11317263D01*
X28256319Y-11332200D01*
X28320999Y-11337859D01*
X28321000Y-11337859D01*
X28321001Y-11337859D01*
X28385681Y-11332200D01*
X28556408Y-11317263D01*
X28784663Y-11256103D01*
X28998830Y-11156235D01*
X29192401Y-11020695D01*
X29359495Y-10853601D01*
X29489425Y-10668042D01*
X29544002Y-10624417D01*
X29613500Y-10617223D01*
X29675855Y-10648746D01*
X29692575Y-10668042D01*
X29822500Y-10853595D01*
X29822505Y-10853601D01*
X29989599Y-11020695D01*
X30066135Y-11074286D01*
X30183165Y-11156232D01*
X30183167Y-11156233D01*
X30183170Y-11156235D01*
X30397337Y-11256103D01*
X30397343Y-11256104D01*
X30397344Y-11256105D01*
X30452285Y-11270826D01*
X30625592Y-11317263D01*
X30796319Y-11332200D01*
X30860999Y-11337859D01*
X30861000Y-11337859D01*
X30861001Y-11337859D01*
X30925681Y-11332200D01*
X31096408Y-11317263D01*
X31324663Y-11256103D01*
X31538830Y-11156235D01*
X31732401Y-11020695D01*
X31899495Y-10853601D01*
X32029425Y-10668042D01*
X32084002Y-10624417D01*
X32153500Y-10617223D01*
X32215855Y-10648746D01*
X32232575Y-10668042D01*
X32362500Y-10853595D01*
X32362505Y-10853601D01*
X32529599Y-11020695D01*
X32606135Y-11074286D01*
X32723165Y-11156232D01*
X32723167Y-11156233D01*
X32723170Y-11156235D01*
X32937337Y-11256103D01*
X32937343Y-11256104D01*
X32937344Y-11256105D01*
X32992285Y-11270826D01*
X33165592Y-11317263D01*
X33336319Y-11332200D01*
X33400999Y-11337859D01*
X33401000Y-11337859D01*
X33401001Y-11337859D01*
X33465681Y-11332200D01*
X33636408Y-11317263D01*
X33864663Y-11256103D01*
X34078830Y-11156235D01*
X34272401Y-11020695D01*
X34394717Y-10898378D01*
X34456036Y-10864896D01*
X34525728Y-10869880D01*
X34581662Y-10911751D01*
X34598577Y-10942728D01*
X34647646Y-11074288D01*
X34647649Y-11074293D01*
X34733809Y-11189387D01*
X34733812Y-11189390D01*
X34848906Y-11275550D01*
X34848913Y-11275554D01*
X34983620Y-11325796D01*
X34983627Y-11325798D01*
X35043155Y-11332199D01*
X35043172Y-11332200D01*
X35691000Y-11332200D01*
X35691000Y-10428694D01*
X35795839Y-10476573D01*
X35904527Y-10492200D01*
X35977473Y-10492200D01*
X36086161Y-10476573D01*
X36191000Y-10428694D01*
X36191000Y-11332200D01*
X36838828Y-11332200D01*
X36838844Y-11332199D01*
X36898372Y-11325798D01*
X36898379Y-11325796D01*
X37033086Y-11275554D01*
X37033093Y-11275550D01*
X37148187Y-11189390D01*
X37148190Y-11189387D01*
X37234350Y-11074293D01*
X37234354Y-11074286D01*
X37283422Y-10942729D01*
X37325293Y-10886795D01*
X37390757Y-10862378D01*
X37459030Y-10877230D01*
X37487285Y-10898381D01*
X37609599Y-11020695D01*
X37686135Y-11074286D01*
X37803165Y-11156232D01*
X37803167Y-11156233D01*
X37803170Y-11156235D01*
X38017337Y-11256103D01*
X38017343Y-11256104D01*
X38017344Y-11256105D01*
X38072285Y-11270826D01*
X38245592Y-11317263D01*
X38416319Y-11332200D01*
X38480999Y-11337859D01*
X38481000Y-11337859D01*
X38481001Y-11337859D01*
X38545681Y-11332200D01*
X38716408Y-11317263D01*
X38944663Y-11256103D01*
X39158830Y-11156235D01*
X39352401Y-11020695D01*
X39519495Y-10853601D01*
X39649425Y-10668042D01*
X39704002Y-10624417D01*
X39773500Y-10617223D01*
X39835855Y-10648746D01*
X39852575Y-10668042D01*
X39982500Y-10853595D01*
X39982505Y-10853601D01*
X40149599Y-11020695D01*
X40226135Y-11074286D01*
X40343165Y-11156232D01*
X40343167Y-11156233D01*
X40343170Y-11156235D01*
X40557337Y-11256103D01*
X40557343Y-11256104D01*
X40557344Y-11256105D01*
X40612285Y-11270826D01*
X40785592Y-11317263D01*
X40956319Y-11332200D01*
X41020999Y-11337859D01*
X41021000Y-11337859D01*
X41021001Y-11337859D01*
X41085681Y-11332200D01*
X41256408Y-11317263D01*
X41484663Y-11256103D01*
X41698830Y-11156235D01*
X41892401Y-11020695D01*
X42059495Y-10853601D01*
X42189425Y-10668042D01*
X42244002Y-10624417D01*
X42313500Y-10617223D01*
X42375855Y-10648746D01*
X42392575Y-10668042D01*
X42522500Y-10853595D01*
X42522505Y-10853601D01*
X42689599Y-11020695D01*
X42766135Y-11074286D01*
X42883165Y-11156232D01*
X42883167Y-11156233D01*
X42883170Y-11156235D01*
X43097337Y-11256103D01*
X43097343Y-11256104D01*
X43097344Y-11256105D01*
X43152285Y-11270826D01*
X43325592Y-11317263D01*
X43496319Y-11332200D01*
X43560999Y-11337859D01*
X43561000Y-11337859D01*
X43561001Y-11337859D01*
X43625681Y-11332200D01*
X43796408Y-11317263D01*
X44024663Y-11256103D01*
X44238830Y-11156235D01*
X44432401Y-11020695D01*
X44599495Y-10853601D01*
X44729425Y-10668042D01*
X44784002Y-10624417D01*
X44853500Y-10617223D01*
X44915855Y-10648746D01*
X44932575Y-10668042D01*
X45062500Y-10853595D01*
X45062505Y-10853601D01*
X45229599Y-11020695D01*
X45306135Y-11074286D01*
X45423165Y-11156232D01*
X45423167Y-11156233D01*
X45423170Y-11156235D01*
X45637337Y-11256103D01*
X45637343Y-11256104D01*
X45637344Y-11256105D01*
X45692285Y-11270826D01*
X45865592Y-11317263D01*
X46036319Y-11332200D01*
X46100999Y-11337859D01*
X46101000Y-11337859D01*
X46101001Y-11337859D01*
X46165681Y-11332200D01*
X46336408Y-11317263D01*
X46564663Y-11256103D01*
X46778830Y-11156235D01*
X46972401Y-11020695D01*
X47094717Y-10898378D01*
X47156036Y-10864896D01*
X47225728Y-10869880D01*
X47281662Y-10911751D01*
X47298577Y-10942728D01*
X47347646Y-11074288D01*
X47347649Y-11074293D01*
X47433809Y-11189387D01*
X47433812Y-11189390D01*
X47548906Y-11275550D01*
X47548913Y-11275554D01*
X47683620Y-11325796D01*
X47683627Y-11325798D01*
X47743155Y-11332199D01*
X47743172Y-11332200D01*
X48391000Y-11332200D01*
X48391000Y-10428694D01*
X48495839Y-10476573D01*
X48604527Y-10492200D01*
X48677473Y-10492200D01*
X48786161Y-10476573D01*
X48891000Y-10428694D01*
X48891000Y-11332200D01*
X49538828Y-11332200D01*
X49538844Y-11332199D01*
X49598372Y-11325798D01*
X49598379Y-11325796D01*
X49733086Y-11275554D01*
X49733093Y-11275550D01*
X49848187Y-11189390D01*
X49848190Y-11189387D01*
X49934350Y-11074293D01*
X49934354Y-11074286D01*
X49983422Y-10942729D01*
X50025293Y-10886795D01*
X50090757Y-10862378D01*
X50159030Y-10877230D01*
X50187285Y-10898381D01*
X50309599Y-11020695D01*
X50386135Y-11074286D01*
X50503165Y-11156232D01*
X50503167Y-11156233D01*
X50503170Y-11156235D01*
X50717337Y-11256103D01*
X50717343Y-11256104D01*
X50717344Y-11256105D01*
X50772285Y-11270826D01*
X50945592Y-11317263D01*
X51116319Y-11332200D01*
X51180999Y-11337859D01*
X51181000Y-11337859D01*
X51181001Y-11337859D01*
X51245681Y-11332200D01*
X51416408Y-11317263D01*
X51644663Y-11256103D01*
X51858830Y-11156235D01*
X52052401Y-11020695D01*
X52219495Y-10853601D01*
X52349425Y-10668042D01*
X52404002Y-10624417D01*
X52473500Y-10617223D01*
X52535855Y-10648746D01*
X52552575Y-10668042D01*
X52682500Y-10853595D01*
X52682505Y-10853601D01*
X52849599Y-11020695D01*
X52926135Y-11074286D01*
X53043165Y-11156232D01*
X53043167Y-11156233D01*
X53043170Y-11156235D01*
X53257337Y-11256103D01*
X53257343Y-11256104D01*
X53257344Y-11256105D01*
X53312285Y-11270826D01*
X53485592Y-11317263D01*
X53656319Y-11332200D01*
X53720999Y-11337859D01*
X53721000Y-11337859D01*
X53721001Y-11337859D01*
X53785681Y-11332200D01*
X53956408Y-11317263D01*
X54184663Y-11256103D01*
X54398830Y-11156235D01*
X54592401Y-11020695D01*
X54759495Y-10853601D01*
X54889425Y-10668042D01*
X54944002Y-10624417D01*
X55013500Y-10617223D01*
X55075855Y-10648746D01*
X55092575Y-10668042D01*
X55222500Y-10853595D01*
X55222505Y-10853601D01*
X55389599Y-11020695D01*
X55466135Y-11074286D01*
X55583165Y-11156232D01*
X55583167Y-11156233D01*
X55583170Y-11156235D01*
X55797337Y-11256103D01*
X55797343Y-11256104D01*
X55797344Y-11256105D01*
X55852285Y-11270826D01*
X56025592Y-11317263D01*
X56196319Y-11332200D01*
X56260999Y-11337859D01*
X56261000Y-11337859D01*
X56261001Y-11337859D01*
X56325681Y-11332200D01*
X56496408Y-11317263D01*
X56724663Y-11256103D01*
X56938830Y-11156235D01*
X57132401Y-11020695D01*
X57299495Y-10853601D01*
X57429425Y-10668042D01*
X57484002Y-10624417D01*
X57553500Y-10617223D01*
X57615855Y-10648746D01*
X57632575Y-10668042D01*
X57762500Y-10853595D01*
X57762505Y-10853601D01*
X57929599Y-11020695D01*
X58006135Y-11074286D01*
X58123165Y-11156232D01*
X58123167Y-11156233D01*
X58123170Y-11156235D01*
X58337337Y-11256103D01*
X58337343Y-11256104D01*
X58337344Y-11256105D01*
X58392285Y-11270826D01*
X58565592Y-11317263D01*
X58736319Y-11332200D01*
X58800999Y-11337859D01*
X58801000Y-11337859D01*
X58801001Y-11337859D01*
X58865681Y-11332200D01*
X59036408Y-11317263D01*
X59264663Y-11256103D01*
X59478830Y-11156235D01*
X59672401Y-11020695D01*
X59794717Y-10898378D01*
X59856036Y-10864896D01*
X59925728Y-10869880D01*
X59981662Y-10911751D01*
X59998577Y-10942728D01*
X60047646Y-11074288D01*
X60047649Y-11074293D01*
X60133809Y-11189387D01*
X60133812Y-11189390D01*
X60248906Y-11275550D01*
X60248913Y-11275554D01*
X60383620Y-11325796D01*
X60383627Y-11325798D01*
X60443155Y-11332199D01*
X60443172Y-11332200D01*
X61091000Y-11332200D01*
X61091000Y-10428694D01*
X61195839Y-10476573D01*
X61304527Y-10492200D01*
X61377473Y-10492200D01*
X61486161Y-10476573D01*
X61591000Y-10428694D01*
X61591000Y-11332200D01*
X62238828Y-11332200D01*
X62238844Y-11332199D01*
X62298372Y-11325798D01*
X62298379Y-11325796D01*
X62433086Y-11275554D01*
X62433093Y-11275550D01*
X62548187Y-11189390D01*
X62548190Y-11189387D01*
X62634350Y-11074293D01*
X62634354Y-11074286D01*
X62683422Y-10942729D01*
X62725293Y-10886795D01*
X62790757Y-10862378D01*
X62859030Y-10877230D01*
X62887285Y-10898381D01*
X63009599Y-11020695D01*
X63086135Y-11074286D01*
X63203165Y-11156232D01*
X63203167Y-11156233D01*
X63203170Y-11156235D01*
X63417337Y-11256103D01*
X63417343Y-11256104D01*
X63417344Y-11256105D01*
X63472285Y-11270826D01*
X63645592Y-11317263D01*
X63816319Y-11332200D01*
X63880999Y-11337859D01*
X63881000Y-11337859D01*
X63881001Y-11337859D01*
X63945681Y-11332200D01*
X64116408Y-11317263D01*
X64344663Y-11256103D01*
X64558830Y-11156235D01*
X64752401Y-11020695D01*
X64919495Y-10853601D01*
X65049425Y-10668042D01*
X65104002Y-10624417D01*
X65173500Y-10617223D01*
X65235855Y-10648746D01*
X65252575Y-10668042D01*
X65382500Y-10853595D01*
X65382505Y-10853601D01*
X65549599Y-11020695D01*
X65626135Y-11074286D01*
X65743165Y-11156232D01*
X65743167Y-11156233D01*
X65743170Y-11156235D01*
X65957337Y-11256103D01*
X65957343Y-11256104D01*
X65957344Y-11256105D01*
X66012285Y-11270826D01*
X66185592Y-11317263D01*
X66356319Y-11332200D01*
X66420999Y-11337859D01*
X66421000Y-11337859D01*
X66421001Y-11337859D01*
X66485681Y-11332200D01*
X66656408Y-11317263D01*
X66884663Y-11256103D01*
X67098830Y-11156235D01*
X67292401Y-11020695D01*
X67459495Y-10853601D01*
X67595035Y-10660030D01*
X67694903Y-10445863D01*
X67756063Y-10217608D01*
X67776659Y-9982200D01*
X67756063Y-9746792D01*
X67694903Y-9518537D01*
X67606297Y-9328524D01*
X67595806Y-9259448D01*
X67624326Y-9195664D01*
X67682802Y-9157424D01*
X67752669Y-9156869D01*
X67806361Y-9188439D01*
X69813181Y-11195259D01*
X69846666Y-11256582D01*
X69849500Y-11282940D01*
X69849500Y-23150259D01*
X69829815Y-23217298D01*
X69813181Y-23237940D01*
X66667479Y-26383641D01*
X66606156Y-26417126D01*
X66568991Y-26419488D01*
X66421002Y-26406541D01*
X66420999Y-26406541D01*
X66185596Y-26427136D01*
X66185586Y-26427138D01*
X65957344Y-26488294D01*
X65957335Y-26488298D01*
X65743171Y-26588164D01*
X65743169Y-26588165D01*
X65549597Y-26723705D01*
X65382505Y-26890797D01*
X65252575Y-27076358D01*
X65197998Y-27119983D01*
X65128500Y-27127177D01*
X65066145Y-27095654D01*
X65049425Y-27076358D01*
X64919494Y-26890797D01*
X64752402Y-26723706D01*
X64752395Y-26723701D01*
X64558834Y-26588167D01*
X64558830Y-26588165D01*
X64558828Y-26588164D01*
X64344663Y-26488297D01*
X64344659Y-26488296D01*
X64344655Y-26488294D01*
X64116413Y-26427138D01*
X64116403Y-26427136D01*
X63881001Y-26406541D01*
X63880999Y-26406541D01*
X63645596Y-26427136D01*
X63645586Y-26427138D01*
X63417344Y-26488294D01*
X63417335Y-26488298D01*
X63203171Y-26588164D01*
X63203169Y-26588165D01*
X63009600Y-26723703D01*
X62887284Y-26846019D01*
X62825961Y-26879503D01*
X62756269Y-26874519D01*
X62700336Y-26832647D01*
X62683421Y-26801670D01*
X62634354Y-26670113D01*
X62634350Y-26670106D01*
X62548190Y-26555012D01*
X62548187Y-26555009D01*
X62433093Y-26468849D01*
X62433086Y-26468845D01*
X62298379Y-26418603D01*
X62298372Y-26418601D01*
X62238844Y-26412200D01*
X61591000Y-26412200D01*
X61591000Y-27315705D01*
X61486161Y-27267827D01*
X61377473Y-27252200D01*
X61304527Y-27252200D01*
X61195839Y-27267827D01*
X61091000Y-27315705D01*
X61091000Y-26412200D01*
X60443155Y-26412200D01*
X60383627Y-26418601D01*
X60383620Y-26418603D01*
X60248913Y-26468845D01*
X60248906Y-26468849D01*
X60133812Y-26555009D01*
X60133809Y-26555012D01*
X60047649Y-26670106D01*
X60047645Y-26670113D01*
X59998578Y-26801670D01*
X59956707Y-26857604D01*
X59891242Y-26882021D01*
X59822969Y-26867169D01*
X59794715Y-26846019D01*
X59749977Y-26801281D01*
X59672401Y-26723705D01*
X59672397Y-26723702D01*
X59672396Y-26723701D01*
X59478834Y-26588167D01*
X59478830Y-26588165D01*
X59478828Y-26588164D01*
X59264663Y-26488297D01*
X59264659Y-26488296D01*
X59264655Y-26488294D01*
X59036413Y-26427138D01*
X59036403Y-26427136D01*
X58801001Y-26406541D01*
X58800999Y-26406541D01*
X58565596Y-26427136D01*
X58565586Y-26427138D01*
X58337344Y-26488294D01*
X58337335Y-26488298D01*
X58123171Y-26588164D01*
X58123169Y-26588165D01*
X57929597Y-26723705D01*
X57762505Y-26890797D01*
X57632575Y-27076358D01*
X57577998Y-27119983D01*
X57508500Y-27127177D01*
X57446145Y-27095654D01*
X57429425Y-27076358D01*
X57299494Y-26890797D01*
X57132402Y-26723706D01*
X57132395Y-26723701D01*
X56938834Y-26588167D01*
X56938830Y-26588165D01*
X56938828Y-26588164D01*
X56724663Y-26488297D01*
X56724659Y-26488296D01*
X56724655Y-26488294D01*
X56496413Y-26427138D01*
X56496403Y-26427136D01*
X56261001Y-26406541D01*
X56260999Y-26406541D01*
X56025596Y-26427136D01*
X56025586Y-26427138D01*
X55797344Y-26488294D01*
X55797335Y-26488298D01*
X55583171Y-26588164D01*
X55583169Y-26588165D01*
X55389597Y-26723705D01*
X55222505Y-26890797D01*
X55092575Y-27076358D01*
X55037998Y-27119983D01*
X54968500Y-27127177D01*
X54906145Y-27095654D01*
X54889425Y-27076358D01*
X54759494Y-26890797D01*
X54592402Y-26723706D01*
X54592395Y-26723701D01*
X54398834Y-26588167D01*
X54398830Y-26588165D01*
X54398828Y-26588164D01*
X54184663Y-26488297D01*
X54184659Y-26488296D01*
X54184655Y-26488294D01*
X53956413Y-26427138D01*
X53956403Y-26427136D01*
X53721001Y-26406541D01*
X53720999Y-26406541D01*
X53485596Y-26427136D01*
X53485586Y-26427138D01*
X53257344Y-26488294D01*
X53257335Y-26488298D01*
X53043171Y-26588164D01*
X53043169Y-26588165D01*
X52849597Y-26723705D01*
X52682505Y-26890797D01*
X52552575Y-27076358D01*
X52497998Y-27119983D01*
X52428500Y-27127177D01*
X52366145Y-27095654D01*
X52349425Y-27076358D01*
X52219494Y-26890797D01*
X52052402Y-26723706D01*
X52052395Y-26723701D01*
X51858834Y-26588167D01*
X51858830Y-26588165D01*
X51858828Y-26588164D01*
X51644663Y-26488297D01*
X51644659Y-26488296D01*
X51644655Y-26488294D01*
X51416413Y-26427138D01*
X51416403Y-26427136D01*
X51181001Y-26406541D01*
X51180999Y-26406541D01*
X50945596Y-26427136D01*
X50945586Y-26427138D01*
X50717344Y-26488294D01*
X50717335Y-26488298D01*
X50503171Y-26588164D01*
X50503169Y-26588165D01*
X50309600Y-26723703D01*
X50187673Y-26845630D01*
X50126350Y-26879114D01*
X50056658Y-26874130D01*
X50000725Y-26832258D01*
X49983810Y-26801281D01*
X49934797Y-26669871D01*
X49934793Y-26669864D01*
X49848547Y-26554655D01*
X49848544Y-26554652D01*
X49733335Y-26468406D01*
X49733328Y-26468402D01*
X49598482Y-26418108D01*
X49598483Y-26418108D01*
X49538883Y-26411701D01*
X49538881Y-26411700D01*
X49538873Y-26411700D01*
X49538864Y-26411700D01*
X47743129Y-26411700D01*
X47743123Y-26411701D01*
X47683516Y-26418108D01*
X47548671Y-26468402D01*
X47548664Y-26468406D01*
X47433455Y-26554652D01*
X47433452Y-26554655D01*
X47347206Y-26669864D01*
X47347203Y-26669869D01*
X47298189Y-26801283D01*
X47256317Y-26857216D01*
X47190853Y-26881633D01*
X47122580Y-26866781D01*
X47094326Y-26845630D01*
X46972402Y-26723706D01*
X46972395Y-26723701D01*
X46778834Y-26588167D01*
X46778830Y-26588165D01*
X46778828Y-26588164D01*
X46564663Y-26488297D01*
X46564659Y-26488296D01*
X46564655Y-26488294D01*
X46336413Y-26427138D01*
X46336403Y-26427136D01*
X46101001Y-26406541D01*
X46100999Y-26406541D01*
X45865596Y-26427136D01*
X45865586Y-26427138D01*
X45637344Y-26488294D01*
X45637335Y-26488298D01*
X45423171Y-26588164D01*
X45423169Y-26588165D01*
X45229597Y-26723705D01*
X45062505Y-26890797D01*
X44932575Y-27076358D01*
X44877998Y-27119983D01*
X44808500Y-27127177D01*
X44746145Y-27095654D01*
X44729425Y-27076358D01*
X44599494Y-26890797D01*
X44432402Y-26723706D01*
X44432395Y-26723701D01*
X44238834Y-26588167D01*
X44238830Y-26588165D01*
X44238828Y-26588164D01*
X44024663Y-26488297D01*
X44024659Y-26488296D01*
X44024655Y-26488294D01*
X43796413Y-26427138D01*
X43796403Y-26427136D01*
X43561001Y-26406541D01*
X43560999Y-26406541D01*
X43325596Y-26427136D01*
X43325586Y-26427138D01*
X43097344Y-26488294D01*
X43097335Y-26488298D01*
X42883171Y-26588164D01*
X42883169Y-26588165D01*
X42689597Y-26723705D01*
X42522505Y-26890797D01*
X42392575Y-27076358D01*
X42337998Y-27119983D01*
X42268500Y-27127177D01*
X42206145Y-27095654D01*
X42189425Y-27076358D01*
X42059494Y-26890797D01*
X41892402Y-26723706D01*
X41892395Y-26723701D01*
X41698834Y-26588167D01*
X41698830Y-26588165D01*
X41698828Y-26588164D01*
X41484663Y-26488297D01*
X41484659Y-26488296D01*
X41484655Y-26488294D01*
X41256413Y-26427138D01*
X41256403Y-26427136D01*
X41021001Y-26406541D01*
X41020611Y-26406541D01*
X41020445Y-26406492D01*
X41015606Y-26406069D01*
X41015691Y-26405096D01*
X40953572Y-26386856D01*
X40907817Y-26334052D01*
X40897873Y-26264894D01*
X40926898Y-26201338D01*
X40932930Y-26194860D01*
X41409307Y-25718484D01*
X41965972Y-25161819D01*
X42027295Y-25128334D01*
X42053653Y-25125500D01*
X65296246Y-25125500D01*
X65363285Y-25145185D01*
X65388394Y-25166526D01*
X65394120Y-25172885D01*
X65394124Y-25172889D01*
X65547259Y-25284148D01*
X65547264Y-25284151D01*
X65720186Y-25361142D01*
X65720191Y-25361144D01*
X65905348Y-25400500D01*
X65905349Y-25400500D01*
X66094638Y-25400500D01*
X66094640Y-25400500D01*
X66279797Y-25361144D01*
X66452724Y-25284151D01*
X66605865Y-25172888D01*
X66732527Y-25032216D01*
X66827173Y-24868284D01*
X66885668Y-24688256D01*
X66905454Y-24500000D01*
X66885668Y-24311744D01*
X66827173Y-24131716D01*
X66732527Y-23967784D01*
X66605865Y-23827112D01*
X66605864Y-23827111D01*
X66452728Y-23715851D01*
X66452723Y-23715848D01*
X66279801Y-23638857D01*
X66279796Y-23638855D01*
X66133995Y-23607865D01*
X66094640Y-23599500D01*
X65905348Y-23599500D01*
X65872891Y-23606398D01*
X65720191Y-23638855D01*
X65720186Y-23638857D01*
X65547264Y-23715848D01*
X65547259Y-23715851D01*
X65394124Y-23827110D01*
X65394120Y-23827114D01*
X65388394Y-23833474D01*
X65328907Y-23870121D01*
X65296246Y-23874500D01*
X57529460Y-23874500D01*
X57462421Y-23854815D01*
X57416666Y-23802011D01*
X57406743Y-23756399D01*
X57406139Y-23756463D01*
X57405561Y-23750964D01*
X57405460Y-23750500D01*
X57405460Y-23750002D01*
X57405460Y-23750000D01*
X57385674Y-23561744D01*
X57327179Y-23381716D01*
X57232533Y-23217784D01*
X57105871Y-23077112D01*
X57082594Y-23060200D01*
X56952734Y-22965851D01*
X56952729Y-22965848D01*
X56779807Y-22888857D01*
X56779802Y-22888855D01*
X56643490Y-22859882D01*
X56624872Y-22855924D01*
X56563391Y-22822733D01*
X56562973Y-22822316D01*
X56538477Y-22797820D01*
X56511598Y-22770941D01*
X56509064Y-22768250D01*
X56467929Y-22721817D01*
X56467928Y-22721816D01*
X56467924Y-22721812D01*
X56416896Y-22686591D01*
X56413887Y-22684377D01*
X56380405Y-22658146D01*
X56365060Y-22646124D01*
X56365055Y-22646120D01*
X56355813Y-22641961D01*
X56336266Y-22630936D01*
X56327931Y-22625183D01*
X56327932Y-22625183D01*
X56327930Y-22625182D01*
X56269941Y-22603189D01*
X56266490Y-22601759D01*
X56209930Y-22576304D01*
X56199946Y-22574474D01*
X56178343Y-22568451D01*
X56168874Y-22564860D01*
X56168870Y-22564859D01*
X56107313Y-22557384D01*
X56103612Y-22556821D01*
X56042608Y-22545642D01*
X56042603Y-22545642D01*
X55980697Y-22549387D01*
X55976952Y-22549500D01*
X32973437Y-22549500D01*
X32969693Y-22549387D01*
X32907797Y-22545643D01*
X32907790Y-22545643D01*
X32846802Y-22556819D01*
X32843101Y-22557382D01*
X32781525Y-22564860D01*
X32772042Y-22568456D01*
X32750438Y-22574478D01*
X32748935Y-22574754D01*
X32740465Y-22576306D01*
X32740463Y-22576307D01*
X32683927Y-22601752D01*
X32680469Y-22603184D01*
X32622469Y-22625182D01*
X32614124Y-22630942D01*
X32594583Y-22641964D01*
X32585344Y-22646122D01*
X32585339Y-22646125D01*
X32536521Y-22684370D01*
X32533506Y-22686589D01*
X32482472Y-22721816D01*
X32482465Y-22721822D01*
X32441342Y-22768240D01*
X32438775Y-22770966D01*
X30787226Y-24422516D01*
X30725903Y-24456001D01*
X30725326Y-24456125D01*
X30570397Y-24489055D01*
X30570392Y-24489057D01*
X30397470Y-24566048D01*
X30397465Y-24566051D01*
X30244329Y-24677311D01*
X30117666Y-24817985D01*
X30023021Y-24981915D01*
X30023018Y-24981922D01*
X29964527Y-25161940D01*
X29964526Y-25161944D01*
X29963376Y-25172888D01*
X29944740Y-25350200D01*
X29950849Y-25408327D01*
X29938279Y-25477056D01*
X29890547Y-25528080D01*
X29822806Y-25545197D01*
X29756565Y-25522974D01*
X29739847Y-25508968D01*
X26395252Y-22164374D01*
X26363262Y-22132384D01*
X26363259Y-22132382D01*
X26327904Y-22110166D01*
X26322229Y-22106140D01*
X26289589Y-22080110D01*
X26251959Y-22061987D01*
X26245872Y-22058622D01*
X26210525Y-22036412D01*
X26171114Y-22022621D01*
X26164688Y-22019959D01*
X26127061Y-22001839D01*
X26086345Y-21992545D01*
X26079662Y-21990620D01*
X26040259Y-21976832D01*
X25998763Y-21972155D01*
X25991908Y-21970991D01*
X25951200Y-21961701D01*
X25951196Y-21961700D01*
X25951194Y-21961700D01*
X25951191Y-21961700D01*
X19803503Y-21961700D01*
X19736464Y-21942015D01*
X19690709Y-21889211D01*
X19680765Y-21820053D01*
X19683728Y-21805607D01*
X19700223Y-21744045D01*
X19726063Y-21647608D01*
X19746659Y-21412200D01*
X19743824Y-21379802D01*
X19740257Y-21339030D01*
X19736598Y-21297203D01*
X62005723Y-21297203D01*
X62007688Y-21319670D01*
X62007862Y-21327860D01*
X62006709Y-21353524D01*
X62006710Y-21353528D01*
X62017641Y-21434231D01*
X62017966Y-21437149D01*
X62024792Y-21515172D01*
X62024795Y-21515187D01*
X62031482Y-21540141D01*
X62033034Y-21547870D01*
X62036924Y-21576581D01*
X62036926Y-21576592D01*
X62061075Y-21650913D01*
X62061997Y-21654025D01*
X62081423Y-21726524D01*
X62081427Y-21726536D01*
X62093736Y-21752932D01*
X62096512Y-21759979D01*
X62106483Y-21790664D01*
X62141970Y-21856611D01*
X62143558Y-21859776D01*
X62173898Y-21924839D01*
X62183898Y-21939120D01*
X62192490Y-21951391D01*
X62196303Y-21957578D01*
X62213146Y-21988878D01*
X62213152Y-21988887D01*
X62257792Y-22044863D01*
X62260106Y-22047958D01*
X62282619Y-22080109D01*
X62299402Y-22104077D01*
X62299405Y-22104080D01*
X62324646Y-22129321D01*
X62329283Y-22134509D01*
X62353492Y-22164866D01*
X62404959Y-22209832D01*
X62408008Y-22212683D01*
X62454116Y-22258792D01*
X62454122Y-22258797D01*
X62454123Y-22258798D01*
X62464479Y-22266049D01*
X62486055Y-22281157D01*
X62491290Y-22285257D01*
X62523004Y-22312965D01*
X62523013Y-22312971D01*
X62578849Y-22346331D01*
X62582613Y-22348768D01*
X62633359Y-22384301D01*
X62633364Y-22384304D01*
X62655917Y-22394820D01*
X62671677Y-22402169D01*
X62677271Y-22405135D01*
X62714349Y-22427288D01*
X62716236Y-22428415D01*
X62728437Y-22432994D01*
X62774083Y-22450125D01*
X62778503Y-22451982D01*
X62831670Y-22476775D01*
X62831674Y-22476777D01*
X62862069Y-22484920D01*
X62875677Y-22488566D01*
X62881413Y-22490407D01*
X62888581Y-22493097D01*
X62926976Y-22507507D01*
X62984545Y-22517954D01*
X62989511Y-22519068D01*
X63043023Y-22533407D01*
X63091689Y-22537664D01*
X63097306Y-22538418D01*
X63148453Y-22547700D01*
X63203691Y-22547700D01*
X63209092Y-22547935D01*
X63237548Y-22550425D01*
X63260998Y-22552477D01*
X63261000Y-22552477D01*
X63313992Y-22547840D01*
X63317121Y-22547700D01*
X63317155Y-22547700D01*
X63371172Y-22542838D01*
X63478977Y-22533407D01*
X63479000Y-22533400D01*
X63479475Y-22533317D01*
X63484713Y-22532619D01*
X63485188Y-22532577D01*
X63588997Y-22503926D01*
X63690330Y-22476775D01*
X63690337Y-22476771D01*
X63697254Y-22474253D01*
X63701948Y-22472754D01*
X63702170Y-22472693D01*
X63702181Y-22472687D01*
X63702183Y-22472687D01*
X63796454Y-22427288D01*
X63888639Y-22384302D01*
X63888644Y-22384297D01*
X63893327Y-22381595D01*
X63893400Y-22381722D01*
X63904164Y-22375418D01*
X63904973Y-22375029D01*
X63987156Y-22315318D01*
X64067877Y-22258798D01*
X64068747Y-22257927D01*
X64083550Y-22245284D01*
X64087078Y-22242722D01*
X64155131Y-22171543D01*
X64222598Y-22104077D01*
X64225285Y-22100239D01*
X64237239Y-22085665D01*
X64242629Y-22080028D01*
X64242628Y-22080028D01*
X64242632Y-22080025D01*
X64295164Y-22000441D01*
X64348102Y-21924839D01*
X64351543Y-21917459D01*
X64360432Y-21901564D01*
X64366635Y-21892168D01*
X64402889Y-21807346D01*
X64440575Y-21726530D01*
X64443570Y-21715348D01*
X64449325Y-21698705D01*
X64455103Y-21685188D01*
X64474936Y-21598292D01*
X64475229Y-21597200D01*
X64885700Y-21597200D01*
X64889876Y-21647603D01*
X64892955Y-21684767D01*
X64896819Y-21775723D01*
X64896820Y-21775734D01*
X64901939Y-21799484D01*
X64903120Y-21807433D01*
X64904865Y-21828501D01*
X64904865Y-21828504D01*
X64904866Y-21828505D01*
X64927205Y-21916720D01*
X64932033Y-21939120D01*
X64947046Y-22008782D01*
X64954883Y-22028284D01*
X64957458Y-22036187D01*
X64961844Y-22053503D01*
X64999655Y-22139704D01*
X65035934Y-22229987D01*
X65035935Y-22229988D01*
X65045232Y-22245088D01*
X65049218Y-22252695D01*
X65055076Y-22266050D01*
X65108275Y-22347477D01*
X65160930Y-22432994D01*
X65167543Y-22440508D01*
X65178263Y-22454602D01*
X65180738Y-22458389D01*
X65182021Y-22460353D01*
X65250027Y-22534228D01*
X65318436Y-22611955D01*
X65323564Y-22616095D01*
X65336882Y-22628577D01*
X65339216Y-22631113D01*
X65420933Y-22694715D01*
X65503920Y-22761723D01*
X65503922Y-22761724D01*
X65506678Y-22763264D01*
X65522360Y-22773660D01*
X65522367Y-22773665D01*
X65522371Y-22773667D01*
X65522374Y-22773670D01*
X65612265Y-22822316D01*
X65616162Y-22824425D01*
X65712046Y-22877990D01*
X65714849Y-22879258D01*
X65721695Y-22882297D01*
X65721794Y-22882073D01*
X65726490Y-22884132D01*
X65726497Y-22884136D01*
X65830276Y-22919763D01*
X65936829Y-22957411D01*
X65937398Y-22957508D01*
X65942129Y-22958512D01*
X65946007Y-22959494D01*
X65946019Y-22959498D01*
X66057324Y-22978071D01*
X66171791Y-22997699D01*
X66171800Y-22997700D01*
X66407044Y-22997700D01*
X66407049Y-22997700D01*
X66440073Y-22992188D01*
X66463469Y-22988285D01*
X66468407Y-22987663D01*
X66528541Y-22982546D01*
X66580615Y-22968986D01*
X66586017Y-22967834D01*
X66635981Y-22959498D01*
X66693186Y-22939858D01*
X66697663Y-22938509D01*
X66759249Y-22922475D01*
X66765249Y-22919763D01*
X66770262Y-22917496D01*
X66805297Y-22901659D01*
X66810681Y-22899522D01*
X66855503Y-22884136D01*
X66911554Y-22853801D01*
X66915527Y-22851832D01*
X66924156Y-22847930D01*
X66976486Y-22824277D01*
X67015647Y-22797808D01*
X67020820Y-22794669D01*
X67059626Y-22773670D01*
X67112532Y-22732490D01*
X67115850Y-22730081D01*
X67174003Y-22690779D01*
X67205770Y-22660331D01*
X67210548Y-22656202D01*
X67242784Y-22631113D01*
X67242942Y-22630942D01*
X67260420Y-22611955D01*
X67290389Y-22579398D01*
X67293101Y-22576632D01*
X67346118Y-22525821D01*
X67370329Y-22493083D01*
X67374540Y-22487985D01*
X67399979Y-22460353D01*
X67440206Y-22398778D01*
X67442241Y-22395852D01*
X67487879Y-22334147D01*
X67504733Y-22300717D01*
X67508170Y-22294752D01*
X67526924Y-22266049D01*
X67557805Y-22195645D01*
X67559174Y-22192738D01*
X67595207Y-22121274D01*
X67605208Y-22088613D01*
X67607701Y-22081894D01*
X67620157Y-22053500D01*
X67639827Y-21975821D01*
X67640635Y-21972932D01*
X67665016Y-21893323D01*
X67668936Y-21862708D01*
X67670330Y-21855370D01*
X67677134Y-21828505D01*
X67684132Y-21744045D01*
X67695298Y-21656854D01*
X67694126Y-21629279D01*
X67694281Y-21621555D01*
X67696300Y-21597200D01*
X67695496Y-21587502D01*
X67689044Y-21509632D01*
X67686266Y-21444235D01*
X67685180Y-21418668D01*
X67680059Y-21394909D01*
X67678879Y-21386962D01*
X67678286Y-21379802D01*
X67677134Y-21365895D01*
X67677133Y-21365892D01*
X67677133Y-21365888D01*
X67659738Y-21297200D01*
X67654794Y-21277679D01*
X67634954Y-21185619D01*
X67627115Y-21166112D01*
X67624541Y-21158215D01*
X67620157Y-21140900D01*
X67582344Y-21054695D01*
X67546064Y-20964410D01*
X67536768Y-20949312D01*
X67532779Y-20941700D01*
X67526924Y-20928351D01*
X67473724Y-20846921D01*
X67421071Y-20761408D01*
X67421070Y-20761407D01*
X67421069Y-20761405D01*
X67414451Y-20753886D01*
X67403727Y-20739784D01*
X67399978Y-20734045D01*
X67331972Y-20660171D01*
X67263565Y-20582446D01*
X67258439Y-20578307D01*
X67245117Y-20565821D01*
X67242785Y-20563288D01*
X67242783Y-20563286D01*
X67161066Y-20499684D01*
X67078080Y-20432677D01*
X67078073Y-20432672D01*
X67075311Y-20431129D01*
X67059643Y-20420742D01*
X67059634Y-20420735D01*
X67059628Y-20420732D01*
X67059626Y-20420730D01*
X66965837Y-20369974D01*
X66869954Y-20316410D01*
X66869953Y-20316409D01*
X66869952Y-20316409D01*
X66867381Y-20315247D01*
X66860284Y-20312098D01*
X66860188Y-20312319D01*
X66855506Y-20310265D01*
X66751723Y-20274636D01*
X66645168Y-20236988D01*
X66645160Y-20236986D01*
X66644612Y-20236892D01*
X66639889Y-20235891D01*
X66635989Y-20234903D01*
X66524675Y-20216328D01*
X66410209Y-20196700D01*
X66410200Y-20196700D01*
X66407049Y-20196700D01*
X66174951Y-20196700D01*
X66174950Y-20196700D01*
X66118533Y-20206113D01*
X66113587Y-20206735D01*
X66111099Y-20206947D01*
X66053469Y-20211852D01*
X66053461Y-20211853D01*
X66001397Y-20225408D01*
X65995981Y-20226563D01*
X65946013Y-20234903D01*
X65888840Y-20254531D01*
X65884330Y-20255890D01*
X65822749Y-20271925D01*
X65822744Y-20271927D01*
X65776711Y-20292735D01*
X65771304Y-20294880D01*
X65726503Y-20310260D01*
X65726498Y-20310263D01*
X65670448Y-20340595D01*
X65666478Y-20342563D01*
X65605514Y-20370122D01*
X65566359Y-20396585D01*
X65561149Y-20399744D01*
X65522379Y-20420726D01*
X65522367Y-20420733D01*
X65469487Y-20461892D01*
X65466124Y-20464333D01*
X65408001Y-20503617D01*
X65407994Y-20503622D01*
X65376248Y-20534047D01*
X65371430Y-20538211D01*
X65339218Y-20563285D01*
X65339209Y-20563293D01*
X65291613Y-20614995D01*
X65288900Y-20617764D01*
X65235882Y-20668578D01*
X65235880Y-20668580D01*
X65211681Y-20701298D01*
X65207448Y-20706423D01*
X65182022Y-20734045D01*
X65141797Y-20795612D01*
X65139741Y-20798567D01*
X65094124Y-20860247D01*
X65094120Y-20860254D01*
X65077268Y-20893675D01*
X65073811Y-20899672D01*
X65055076Y-20928349D01*
X65024219Y-20998696D01*
X65022803Y-21001703D01*
X64986790Y-21073131D01*
X64976792Y-21105773D01*
X64974288Y-21112523D01*
X64961845Y-21140891D01*
X64961845Y-21140892D01*
X64942178Y-21218547D01*
X64941358Y-21221479D01*
X64916984Y-21301076D01*
X64916983Y-21301079D01*
X64913063Y-21331685D01*
X64911668Y-21339030D01*
X64904867Y-21365888D01*
X64904864Y-21365905D01*
X64897867Y-21450354D01*
X64886702Y-21537544D01*
X64886701Y-21537544D01*
X64887872Y-21565100D01*
X64887716Y-21572855D01*
X64886503Y-21587502D01*
X64885700Y-21597200D01*
X64475229Y-21597200D01*
X64497207Y-21515177D01*
X64498887Y-21495966D01*
X64500206Y-21487577D01*
X64500445Y-21486525D01*
X64505191Y-21465737D01*
X64509050Y-21379802D01*
X64516277Y-21297200D01*
X64514310Y-21274728D01*
X64514137Y-21266534D01*
X64515290Y-21240870D01*
X64504353Y-21160139D01*
X64504034Y-21157267D01*
X64497207Y-21079223D01*
X64490515Y-21054253D01*
X64488963Y-21046522D01*
X64485076Y-21017818D01*
X64485075Y-21017816D01*
X64485075Y-21017813D01*
X64462817Y-20949312D01*
X64460921Y-20943476D01*
X64459998Y-20940361D01*
X64440576Y-20867873D01*
X64440574Y-20867869D01*
X64428266Y-20841474D01*
X64425488Y-20834422D01*
X64415519Y-20803741D01*
X64415517Y-20803737D01*
X64415517Y-20803736D01*
X64402988Y-20780453D01*
X64380027Y-20737783D01*
X64378432Y-20734605D01*
X64377315Y-20732210D01*
X64348102Y-20669562D01*
X64329512Y-20643013D01*
X64325698Y-20636825D01*
X64314718Y-20616421D01*
X64308852Y-20605519D01*
X64264192Y-20549518D01*
X64261896Y-20546447D01*
X64222598Y-20490323D01*
X64197353Y-20465078D01*
X64192715Y-20459889D01*
X64168506Y-20429532D01*
X64117039Y-20384566D01*
X64113990Y-20381715D01*
X64067878Y-20335602D01*
X64035940Y-20313239D01*
X64030705Y-20309139D01*
X63998996Y-20281435D01*
X63998994Y-20281433D01*
X63998992Y-20281432D01*
X63943149Y-20248068D01*
X63939386Y-20245631D01*
X63888641Y-20210099D01*
X63850333Y-20192235D01*
X63844735Y-20189267D01*
X63805769Y-20165987D01*
X63805767Y-20165986D01*
X63747928Y-20144279D01*
X63743515Y-20142426D01*
X63690330Y-20117625D01*
X63646321Y-20105832D01*
X63640581Y-20103990D01*
X63595025Y-20086892D01*
X63537456Y-20076445D01*
X63532480Y-20075328D01*
X63478977Y-20060993D01*
X63430327Y-20056736D01*
X63424659Y-20055975D01*
X63373551Y-20046700D01*
X63373547Y-20046700D01*
X63318309Y-20046700D01*
X63312907Y-20046464D01*
X63284451Y-20043974D01*
X63261002Y-20041923D01*
X63260997Y-20041923D01*
X63208050Y-20046555D01*
X63204862Y-20046699D01*
X63204851Y-20046700D01*
X63204845Y-20046700D01*
X63158671Y-20050855D01*
X63150826Y-20051561D01*
X63043020Y-20060993D01*
X63042468Y-20061091D01*
X63037275Y-20061781D01*
X63036812Y-20061822D01*
X63036809Y-20061823D01*
X62933002Y-20090473D01*
X62831659Y-20117628D01*
X62824739Y-20120146D01*
X62820050Y-20121644D01*
X62819849Y-20121699D01*
X62819832Y-20121705D01*
X62725528Y-20167119D01*
X62633358Y-20210099D01*
X62628670Y-20212806D01*
X62628598Y-20212681D01*
X62617871Y-20218964D01*
X62617030Y-20219368D01*
X62534831Y-20279089D01*
X62454123Y-20335601D01*
X62453241Y-20336484D01*
X62438461Y-20349106D01*
X62434928Y-20351672D01*
X62434916Y-20351683D01*
X62403477Y-20384566D01*
X62366868Y-20422856D01*
X62344379Y-20445344D01*
X62299403Y-20490320D01*
X62299402Y-20490321D01*
X62296711Y-20494165D01*
X62284773Y-20508721D01*
X62279368Y-20514374D01*
X62261925Y-20540799D01*
X62226828Y-20593968D01*
X62174587Y-20668578D01*
X62173898Y-20669562D01*
X62173891Y-20669574D01*
X62170457Y-20676938D01*
X62161572Y-20692828D01*
X62155362Y-20702235D01*
X62155362Y-20702236D01*
X62128129Y-20765952D01*
X62119108Y-20787058D01*
X62100266Y-20827464D01*
X62081425Y-20867869D01*
X62081424Y-20867871D01*
X62078425Y-20879060D01*
X62072681Y-20895675D01*
X62066899Y-20909205D01*
X62066896Y-20909216D01*
X62047063Y-20996107D01*
X62024793Y-21079222D01*
X62024793Y-21079223D01*
X62023112Y-21098426D01*
X62021793Y-21106819D01*
X62020492Y-21112523D01*
X62016809Y-21128659D01*
X62016809Y-21128664D01*
X62012949Y-21214597D01*
X62005723Y-21297196D01*
X62005723Y-21297203D01*
X19736598Y-21297203D01*
X19726063Y-21176792D01*
X19664903Y-20948537D01*
X19565035Y-20734371D01*
X19564808Y-20734047D01*
X19429496Y-20540800D01*
X19375747Y-20487051D01*
X19307179Y-20418483D01*
X19273696Y-20357163D01*
X19278680Y-20287471D01*
X19320551Y-20231537D01*
X19351529Y-20214622D01*
X19483086Y-20165554D01*
X19483093Y-20165550D01*
X19598187Y-20079390D01*
X19598190Y-20079387D01*
X19684350Y-19964293D01*
X19684354Y-19964286D01*
X19734596Y-19829579D01*
X19734598Y-19829572D01*
X19740999Y-19770044D01*
X19741000Y-19770027D01*
X19741000Y-19122200D01*
X18836572Y-19122200D01*
X18859682Y-19086240D01*
X18901000Y-18945527D01*
X18901000Y-18798873D01*
X18859682Y-18658160D01*
X18836572Y-18622200D01*
X19741000Y-18622200D01*
X19741000Y-17974372D01*
X19740999Y-17974355D01*
X19734598Y-17914827D01*
X19734596Y-17914820D01*
X19684354Y-17780113D01*
X19684350Y-17780106D01*
X19598190Y-17665012D01*
X19598187Y-17665009D01*
X19483093Y-17578849D01*
X19483088Y-17578846D01*
X19351528Y-17529777D01*
X19295595Y-17487905D01*
X19271178Y-17422441D01*
X19286030Y-17354168D01*
X19307175Y-17325920D01*
X19429495Y-17203601D01*
X19565035Y-17010030D01*
X19664903Y-16795863D01*
X19726063Y-16567608D01*
X19736597Y-16447203D01*
X62005723Y-16447203D01*
X62007688Y-16469670D01*
X62007862Y-16477860D01*
X62006709Y-16503524D01*
X62006710Y-16503528D01*
X62017641Y-16584231D01*
X62017966Y-16587149D01*
X62024792Y-16665172D01*
X62024795Y-16665187D01*
X62031482Y-16690141D01*
X62033034Y-16697870D01*
X62036924Y-16726581D01*
X62036926Y-16726592D01*
X62061075Y-16800913D01*
X62061997Y-16804025D01*
X62081423Y-16876524D01*
X62081427Y-16876536D01*
X62093736Y-16902932D01*
X62096512Y-16909979D01*
X62106483Y-16940664D01*
X62141970Y-17006611D01*
X62143558Y-17009776D01*
X62173898Y-17074839D01*
X62192490Y-17101391D01*
X62196303Y-17107578D01*
X62213146Y-17138878D01*
X62213152Y-17138887D01*
X62257792Y-17194863D01*
X62260106Y-17197958D01*
X62291296Y-17242501D01*
X62299402Y-17254077D01*
X62299405Y-17254080D01*
X62324646Y-17279321D01*
X62329283Y-17284509D01*
X62353492Y-17314866D01*
X62404959Y-17359832D01*
X62408008Y-17362683D01*
X62454116Y-17408792D01*
X62454122Y-17408797D01*
X62454123Y-17408798D01*
X62465802Y-17416975D01*
X62486055Y-17431157D01*
X62491290Y-17435257D01*
X62523004Y-17462965D01*
X62523013Y-17462971D01*
X62578849Y-17496331D01*
X62582613Y-17498768D01*
X62633359Y-17534301D01*
X62633364Y-17534304D01*
X62641902Y-17538285D01*
X62671677Y-17552169D01*
X62677271Y-17555135D01*
X62714349Y-17577288D01*
X62716236Y-17578415D01*
X62734828Y-17585392D01*
X62774083Y-17600125D01*
X62778503Y-17601982D01*
X62831670Y-17626775D01*
X62831674Y-17626777D01*
X62862069Y-17634920D01*
X62875677Y-17638566D01*
X62881413Y-17640407D01*
X62898264Y-17646731D01*
X62926976Y-17657507D01*
X62984545Y-17667954D01*
X62989511Y-17669068D01*
X63043023Y-17683407D01*
X63091689Y-17687664D01*
X63097306Y-17688418D01*
X63148453Y-17697700D01*
X63203691Y-17697700D01*
X63209092Y-17697935D01*
X63237548Y-17700425D01*
X63260998Y-17702477D01*
X63261000Y-17702477D01*
X63313992Y-17697840D01*
X63317121Y-17697700D01*
X63317155Y-17697700D01*
X63371172Y-17692838D01*
X63478977Y-17683407D01*
X63479000Y-17683400D01*
X63479475Y-17683317D01*
X63484713Y-17682619D01*
X63485188Y-17682577D01*
X63588997Y-17653926D01*
X63690330Y-17626775D01*
X63690337Y-17626771D01*
X63697254Y-17624253D01*
X63701948Y-17622754D01*
X63702170Y-17622693D01*
X63702181Y-17622687D01*
X63702183Y-17622687D01*
X63796454Y-17577288D01*
X63888639Y-17534302D01*
X63888644Y-17534297D01*
X63893327Y-17531595D01*
X63893400Y-17531722D01*
X63904164Y-17525418D01*
X63904973Y-17525029D01*
X63987156Y-17465318D01*
X64067877Y-17408798D01*
X64068747Y-17407927D01*
X64083550Y-17395284D01*
X64087078Y-17392722D01*
X64104572Y-17374425D01*
X64155131Y-17321543D01*
X64222592Y-17254083D01*
X64222592Y-17254082D01*
X64222598Y-17254077D01*
X64225285Y-17250239D01*
X64237239Y-17235665D01*
X64242629Y-17230028D01*
X64242628Y-17230028D01*
X64242632Y-17230025D01*
X64295164Y-17150441D01*
X64348102Y-17074839D01*
X64351543Y-17067459D01*
X64360432Y-17051564D01*
X64366635Y-17042168D01*
X64402889Y-16957346D01*
X64440575Y-16876530D01*
X64443570Y-16865348D01*
X64449325Y-16848705D01*
X64451024Y-16844731D01*
X64455103Y-16835188D01*
X64474936Y-16748292D01*
X64497207Y-16665177D01*
X64498887Y-16645966D01*
X64500206Y-16637577D01*
X64501508Y-16631872D01*
X64505191Y-16615737D01*
X64509050Y-16529802D01*
X64516277Y-16447200D01*
X64514310Y-16424728D01*
X64514137Y-16416534D01*
X64514287Y-16413202D01*
X64515290Y-16390870D01*
X64504353Y-16310139D01*
X64504034Y-16307267D01*
X64497207Y-16229223D01*
X64490515Y-16204253D01*
X64488963Y-16196522D01*
X64485076Y-16167818D01*
X64485075Y-16167816D01*
X64485075Y-16167813D01*
X64478377Y-16147200D01*
X64885700Y-16147200D01*
X64890642Y-16206853D01*
X64892955Y-16234767D01*
X64896819Y-16325723D01*
X64896820Y-16325734D01*
X64901939Y-16349484D01*
X64903118Y-16357425D01*
X64903683Y-16364235D01*
X64904865Y-16378501D01*
X64904865Y-16378504D01*
X64904866Y-16378505D01*
X64913652Y-16413202D01*
X64927205Y-16466719D01*
X64947046Y-16558782D01*
X64954883Y-16578284D01*
X64957458Y-16586187D01*
X64961844Y-16603503D01*
X64999655Y-16689704D01*
X65035934Y-16779987D01*
X65035935Y-16779988D01*
X65045232Y-16795088D01*
X65049218Y-16802695D01*
X65055076Y-16816050D01*
X65108275Y-16897477D01*
X65160930Y-16982994D01*
X65167543Y-16990508D01*
X65178263Y-17004602D01*
X65179576Y-17006611D01*
X65182021Y-17010353D01*
X65250027Y-17084228D01*
X65318436Y-17161955D01*
X65323564Y-17166095D01*
X65336882Y-17178577D01*
X65339216Y-17181113D01*
X65420933Y-17244715D01*
X65503920Y-17311723D01*
X65503922Y-17311724D01*
X65506678Y-17313264D01*
X65522360Y-17323660D01*
X65522367Y-17323665D01*
X65522371Y-17323667D01*
X65522374Y-17323670D01*
X65615885Y-17374275D01*
X65616162Y-17374425D01*
X65712046Y-17427990D01*
X65714849Y-17429258D01*
X65721695Y-17432297D01*
X65721794Y-17432073D01*
X65726490Y-17434132D01*
X65726497Y-17434136D01*
X65830276Y-17469763D01*
X65936829Y-17507411D01*
X65937398Y-17507508D01*
X65942129Y-17508512D01*
X65946007Y-17509494D01*
X65946019Y-17509498D01*
X66057324Y-17528071D01*
X66171791Y-17547699D01*
X66171800Y-17547700D01*
X66407044Y-17547700D01*
X66407049Y-17547700D01*
X66440073Y-17542188D01*
X66463469Y-17538285D01*
X66468407Y-17537663D01*
X66528541Y-17532546D01*
X66580615Y-17518986D01*
X66586017Y-17517834D01*
X66635981Y-17509498D01*
X66693186Y-17489858D01*
X66697663Y-17488509D01*
X66759249Y-17472475D01*
X66765249Y-17469763D01*
X66775082Y-17465318D01*
X66805297Y-17451659D01*
X66810681Y-17449522D01*
X66855503Y-17434136D01*
X66911554Y-17403801D01*
X66915527Y-17401832D01*
X66924156Y-17397930D01*
X66976486Y-17374277D01*
X67015647Y-17347808D01*
X67020820Y-17344669D01*
X67059626Y-17323670D01*
X67112532Y-17282490D01*
X67115850Y-17280081D01*
X67174003Y-17240779D01*
X67205770Y-17210331D01*
X67210548Y-17206202D01*
X67242784Y-17181113D01*
X67245109Y-17178588D01*
X67260420Y-17161955D01*
X67290389Y-17129398D01*
X67293101Y-17126632D01*
X67346118Y-17075821D01*
X67370329Y-17043083D01*
X67374540Y-17037985D01*
X67399979Y-17010353D01*
X67400348Y-17009789D01*
X67440205Y-16948781D01*
X67442241Y-16945852D01*
X67487879Y-16884147D01*
X67504733Y-16850717D01*
X67508170Y-16844752D01*
X67526924Y-16816049D01*
X67557805Y-16745645D01*
X67559174Y-16742738D01*
X67595207Y-16671274D01*
X67605208Y-16638613D01*
X67607701Y-16631894D01*
X67620157Y-16603500D01*
X67639827Y-16525821D01*
X67640635Y-16522932D01*
X67665016Y-16443323D01*
X67668936Y-16412708D01*
X67670330Y-16405370D01*
X67677134Y-16378505D01*
X67684132Y-16294045D01*
X67695298Y-16206854D01*
X67694126Y-16179279D01*
X67694281Y-16171555D01*
X67696300Y-16147200D01*
X67696209Y-16146107D01*
X67689044Y-16059632D01*
X67685180Y-15968674D01*
X67685180Y-15968668D01*
X67680059Y-15944909D01*
X67678879Y-15936962D01*
X67677134Y-15915895D01*
X67677133Y-15915892D01*
X67677133Y-15915888D01*
X67654794Y-15827680D01*
X67653045Y-15819563D01*
X67634954Y-15735619D01*
X67627115Y-15716112D01*
X67624541Y-15708215D01*
X67620157Y-15690900D01*
X67582344Y-15604695D01*
X67546064Y-15514410D01*
X67536768Y-15499312D01*
X67532779Y-15491700D01*
X67526924Y-15478351D01*
X67473724Y-15396921D01*
X67421071Y-15311408D01*
X67421070Y-15311407D01*
X67421069Y-15311405D01*
X67414451Y-15303886D01*
X67403727Y-15289784D01*
X67399978Y-15284045D01*
X67331972Y-15210171D01*
X67263565Y-15132446D01*
X67258439Y-15128307D01*
X67245117Y-15115821D01*
X67242785Y-15113288D01*
X67242783Y-15113286D01*
X67161066Y-15049684D01*
X67078080Y-14982677D01*
X67078073Y-14982672D01*
X67075311Y-14981129D01*
X67059643Y-14970742D01*
X67059634Y-14970735D01*
X67059628Y-14970732D01*
X67059626Y-14970730D01*
X66965837Y-14919974D01*
X66869954Y-14866410D01*
X66869953Y-14866409D01*
X66869952Y-14866409D01*
X66867381Y-14865247D01*
X66860284Y-14862098D01*
X66860188Y-14862319D01*
X66855506Y-14860265D01*
X66751723Y-14824636D01*
X66645168Y-14786988D01*
X66645160Y-14786986D01*
X66644612Y-14786892D01*
X66639889Y-14785891D01*
X66635989Y-14784903D01*
X66524675Y-14766328D01*
X66410209Y-14746700D01*
X66410200Y-14746700D01*
X66407049Y-14746700D01*
X66174951Y-14746700D01*
X66174950Y-14746700D01*
X66118533Y-14756113D01*
X66113587Y-14756735D01*
X66111099Y-14756947D01*
X66053469Y-14761852D01*
X66053461Y-14761853D01*
X66001397Y-14775408D01*
X65995981Y-14776563D01*
X65946013Y-14784903D01*
X65888840Y-14804531D01*
X65884330Y-14805890D01*
X65822749Y-14821925D01*
X65822744Y-14821927D01*
X65776711Y-14842735D01*
X65771304Y-14844880D01*
X65726503Y-14860260D01*
X65726498Y-14860263D01*
X65670448Y-14890595D01*
X65666478Y-14892563D01*
X65605514Y-14920122D01*
X65566359Y-14946585D01*
X65561149Y-14949744D01*
X65522379Y-14970726D01*
X65522367Y-14970733D01*
X65469487Y-15011892D01*
X65466124Y-15014333D01*
X65408001Y-15053617D01*
X65407994Y-15053622D01*
X65376248Y-15084047D01*
X65371430Y-15088211D01*
X65339218Y-15113285D01*
X65339209Y-15113293D01*
X65291613Y-15164995D01*
X65288900Y-15167764D01*
X65235882Y-15218578D01*
X65235880Y-15218580D01*
X65211681Y-15251298D01*
X65207448Y-15256423D01*
X65182022Y-15284045D01*
X65141797Y-15345612D01*
X65139741Y-15348567D01*
X65094124Y-15410247D01*
X65094120Y-15410254D01*
X65077268Y-15443675D01*
X65073811Y-15449672D01*
X65055076Y-15478349D01*
X65024219Y-15548696D01*
X65022803Y-15551703D01*
X64986790Y-15623131D01*
X64976792Y-15655773D01*
X64974288Y-15662523D01*
X64961845Y-15690891D01*
X64961845Y-15690892D01*
X64942178Y-15768547D01*
X64941358Y-15771479D01*
X64916984Y-15851076D01*
X64916983Y-15851079D01*
X64913063Y-15881685D01*
X64911668Y-15889030D01*
X64904867Y-15915888D01*
X64904864Y-15915905D01*
X64897867Y-16000354D01*
X64886702Y-16087544D01*
X64886701Y-16087544D01*
X64887872Y-16115100D01*
X64887716Y-16122855D01*
X64885700Y-16147195D01*
X64885700Y-16147200D01*
X64478377Y-16147200D01*
X64467947Y-16115100D01*
X64460921Y-16093476D01*
X64459998Y-16090361D01*
X64452292Y-16061602D01*
X64440575Y-16017870D01*
X64428266Y-15991474D01*
X64425488Y-15984422D01*
X64415519Y-15953741D01*
X64415517Y-15953737D01*
X64415517Y-15953736D01*
X64402988Y-15930453D01*
X64380027Y-15887783D01*
X64378432Y-15884605D01*
X64363338Y-15852236D01*
X64348102Y-15819562D01*
X64329512Y-15793013D01*
X64325698Y-15786825D01*
X64315862Y-15768547D01*
X64308852Y-15755519D01*
X64264192Y-15699518D01*
X64261896Y-15696447D01*
X64222598Y-15640323D01*
X64197353Y-15615078D01*
X64192715Y-15609889D01*
X64168506Y-15579532D01*
X64117039Y-15534566D01*
X64113990Y-15531715D01*
X64067878Y-15485602D01*
X64035940Y-15463239D01*
X64030705Y-15459139D01*
X64016542Y-15446765D01*
X63998996Y-15431435D01*
X63998994Y-15431433D01*
X63998992Y-15431432D01*
X63943149Y-15398068D01*
X63939386Y-15395631D01*
X63888641Y-15360099D01*
X63863911Y-15348567D01*
X63850332Y-15342234D01*
X63844735Y-15339267D01*
X63805769Y-15315987D01*
X63805767Y-15315986D01*
X63747928Y-15294279D01*
X63743515Y-15292426D01*
X63690330Y-15267625D01*
X63646321Y-15255832D01*
X63640581Y-15253990D01*
X63595025Y-15236892D01*
X63537456Y-15226445D01*
X63532480Y-15225328D01*
X63478977Y-15210993D01*
X63430327Y-15206736D01*
X63424659Y-15205975D01*
X63373551Y-15196700D01*
X63373547Y-15196700D01*
X63318309Y-15196700D01*
X63312907Y-15196464D01*
X63284451Y-15193974D01*
X63261002Y-15191923D01*
X63260997Y-15191923D01*
X63208050Y-15196555D01*
X63204862Y-15196699D01*
X63204851Y-15196700D01*
X63204845Y-15196700D01*
X63158671Y-15200855D01*
X63150826Y-15201561D01*
X63043020Y-15210993D01*
X63042468Y-15211091D01*
X63037275Y-15211781D01*
X63036812Y-15211822D01*
X63036809Y-15211823D01*
X62933002Y-15240473D01*
X62831659Y-15267628D01*
X62824739Y-15270146D01*
X62820050Y-15271644D01*
X62819849Y-15271699D01*
X62819832Y-15271705D01*
X62725528Y-15317119D01*
X62633358Y-15360099D01*
X62628670Y-15362806D01*
X62628598Y-15362681D01*
X62617871Y-15368964D01*
X62617030Y-15369368D01*
X62534831Y-15429089D01*
X62454123Y-15485601D01*
X62453241Y-15486484D01*
X62438461Y-15499106D01*
X62434928Y-15501672D01*
X62434916Y-15501683D01*
X62403477Y-15534566D01*
X62366868Y-15572856D01*
X62344379Y-15595344D01*
X62299403Y-15640320D01*
X62299402Y-15640321D01*
X62296711Y-15644165D01*
X62284773Y-15658721D01*
X62279368Y-15664374D01*
X62261864Y-15690892D01*
X62226828Y-15743968D01*
X62173898Y-15819562D01*
X62173891Y-15819574D01*
X62170457Y-15826938D01*
X62161572Y-15842828D01*
X62155362Y-15852235D01*
X62155362Y-15852236D01*
X62128157Y-15915888D01*
X62119108Y-15937058D01*
X62115445Y-15944914D01*
X62081425Y-16017869D01*
X62081424Y-16017871D01*
X62078425Y-16029060D01*
X62072681Y-16045675D01*
X62066899Y-16059205D01*
X62066896Y-16059216D01*
X62047063Y-16146107D01*
X62024793Y-16229222D01*
X62024793Y-16229223D01*
X62023112Y-16248426D01*
X62021793Y-16256825D01*
X62016809Y-16278659D01*
X62016809Y-16278664D01*
X62012949Y-16364597D01*
X62005723Y-16447196D01*
X62005723Y-16447203D01*
X19736597Y-16447203D01*
X19746659Y-16332200D01*
X19726063Y-16096792D01*
X19664903Y-15868537D01*
X19565035Y-15654371D01*
X19564680Y-15653863D01*
X19429494Y-15460797D01*
X19262402Y-15293706D01*
X19262395Y-15293701D01*
X19068834Y-15158167D01*
X19068830Y-15158165D01*
X19068828Y-15158164D01*
X18854663Y-15058297D01*
X18854659Y-15058296D01*
X18854655Y-15058294D01*
X18626413Y-14997138D01*
X18626403Y-14997136D01*
X18391001Y-14976541D01*
X18390999Y-14976541D01*
X18155596Y-14997136D01*
X18155586Y-14997138D01*
X17927344Y-15058294D01*
X17927335Y-15058298D01*
X17713171Y-15158164D01*
X17713169Y-15158165D01*
X17519597Y-15293705D01*
X17352505Y-15460797D01*
X17216965Y-15654369D01*
X17216964Y-15654371D01*
X17117098Y-15868535D01*
X17117094Y-15868544D01*
X17055938Y-16096786D01*
X17055936Y-16096796D01*
X17035341Y-16332199D01*
X17035341Y-16332200D01*
X17055936Y-16567603D01*
X17055938Y-16567613D01*
X17117094Y-16795855D01*
X17117096Y-16795859D01*
X17117097Y-16795863D01*
X17184619Y-16940664D01*
X17216965Y-17010030D01*
X17216967Y-17010034D01*
X17307192Y-17138887D01*
X17352501Y-17203596D01*
X17352506Y-17203602D01*
X17474818Y-17325914D01*
X17508303Y-17387237D01*
X17503319Y-17456929D01*
X17461447Y-17512862D01*
X17430471Y-17529777D01*
X17298912Y-17578846D01*
X17298906Y-17578849D01*
X17183812Y-17665009D01*
X17183809Y-17665012D01*
X17097649Y-17780106D01*
X17097645Y-17780113D01*
X17047403Y-17914820D01*
X17047401Y-17914827D01*
X17041000Y-17974355D01*
X17041000Y-18622200D01*
X17945428Y-18622200D01*
X17922318Y-18658160D01*
X17881000Y-18798873D01*
X17881000Y-18945527D01*
X17922318Y-19086240D01*
X17945428Y-19122200D01*
X17041000Y-19122200D01*
X17041000Y-19770044D01*
X17047401Y-19829572D01*
X17047403Y-19829579D01*
X17097645Y-19964286D01*
X17097649Y-19964293D01*
X17183809Y-20079387D01*
X17183812Y-20079390D01*
X17298906Y-20165550D01*
X17298913Y-20165554D01*
X17430470Y-20214621D01*
X17486403Y-20256492D01*
X17510821Y-20321956D01*
X17495970Y-20390229D01*
X17474819Y-20418484D01*
X17352503Y-20540800D01*
X17216965Y-20734369D01*
X17216963Y-20734373D01*
X17193628Y-20784414D01*
X17147455Y-20836852D01*
X17080261Y-20856003D01*
X17013380Y-20835786D01*
X16993566Y-20819688D01*
X14150557Y-17976679D01*
X14117072Y-17915356D01*
X14114710Y-17878195D01*
X14127659Y-17730200D01*
X14125233Y-17702477D01*
X14123492Y-17682574D01*
X14107063Y-17494792D01*
X14050180Y-17282500D01*
X14045905Y-17266544D01*
X14045904Y-17266543D01*
X14045903Y-17266537D01*
X13946035Y-17052371D01*
X13939542Y-17043097D01*
X13810494Y-16858797D01*
X13643402Y-16691706D01*
X13643396Y-16691701D01*
X13457842Y-16561775D01*
X13414217Y-16507198D01*
X13407023Y-16437700D01*
X13438546Y-16375345D01*
X13457842Y-16358625D01*
X13531230Y-16307238D01*
X13643401Y-16228695D01*
X13810495Y-16061601D01*
X13946035Y-15868030D01*
X14045903Y-15653863D01*
X14107063Y-15425608D01*
X14127659Y-15190200D01*
X14107063Y-14954792D01*
X14045903Y-14726537D01*
X13946035Y-14512371D01*
X13810495Y-14318799D01*
X13810494Y-14318797D01*
X13643402Y-14151706D01*
X13643396Y-14151701D01*
X13457842Y-14021775D01*
X13414217Y-13967198D01*
X13407023Y-13897700D01*
X13438546Y-13835345D01*
X13457842Y-13818625D01*
X13480026Y-13803091D01*
X13643401Y-13688695D01*
X13810495Y-13521601D01*
X13946035Y-13328030D01*
X14045903Y-13113863D01*
X14107063Y-12885608D01*
X14127659Y-12650200D01*
X14107063Y-12414792D01*
X14045903Y-12186537D01*
X13946035Y-11972371D01*
X13810495Y-11778799D01*
X13810494Y-11778797D01*
X13643402Y-11611706D01*
X13643395Y-11611701D01*
X13449834Y-11476167D01*
X13449830Y-11476165D01*
X13449828Y-11476164D01*
X13235663Y-11376297D01*
X13235659Y-11376296D01*
X13235655Y-11376294D01*
X13007413Y-11315138D01*
X13007403Y-11315136D01*
X12772001Y-11294541D01*
X12771999Y-11294541D01*
X12536596Y-11315136D01*
X12536586Y-11315138D01*
X12308344Y-11376294D01*
X12308335Y-11376298D01*
X12094171Y-11476164D01*
X12094169Y-11476165D01*
X11900597Y-11611705D01*
X11733505Y-11778797D01*
X11597965Y-11972369D01*
X11597964Y-11972371D01*
X11498098Y-12186535D01*
X11498094Y-12186544D01*
X11436938Y-12414786D01*
X11436936Y-12414796D01*
X11416341Y-12650199D01*
X11416341Y-12650200D01*
X11436936Y-12885603D01*
X11436938Y-12885613D01*
X11498094Y-13113855D01*
X11498096Y-13113859D01*
X11498097Y-13113863D01*
X11597965Y-13328030D01*
X11597967Y-13328034D01*
X11733501Y-13521595D01*
X11733506Y-13521602D01*
X11900597Y-13688693D01*
X11900603Y-13688698D01*
X12086158Y-13818625D01*
X12129783Y-13873202D01*
X12136977Y-13942700D01*
X12105454Y-14005055D01*
X12086158Y-14021775D01*
X11900597Y-14151705D01*
X11733505Y-14318797D01*
X11597965Y-14512369D01*
X11597964Y-14512371D01*
X11498098Y-14726535D01*
X11498094Y-14726544D01*
X11436938Y-14954786D01*
X11436936Y-14954796D01*
X11416341Y-15190199D01*
X11416341Y-15190200D01*
X11436936Y-15425603D01*
X11436938Y-15425613D01*
X11498094Y-15653855D01*
X11498096Y-15653859D01*
X11498097Y-15653863D01*
X11582660Y-15835209D01*
X11597965Y-15868030D01*
X11597967Y-15868034D01*
X11690619Y-16000354D01*
X11722353Y-16045675D01*
X11733501Y-16061595D01*
X11733506Y-16061602D01*
X11900597Y-16228693D01*
X11900603Y-16228698D01*
X12086158Y-16358625D01*
X12129783Y-16413202D01*
X12136977Y-16482700D01*
X12105454Y-16545055D01*
X12086158Y-16561775D01*
X11900597Y-16691705D01*
X11733505Y-16858797D01*
X11597965Y-17052369D01*
X11597964Y-17052371D01*
X11498098Y-17266535D01*
X11498094Y-17266544D01*
X11436938Y-17494786D01*
X11436936Y-17494796D01*
X11416341Y-17730199D01*
X11416341Y-17730200D01*
X11436936Y-17965603D01*
X11436938Y-17965613D01*
X11498094Y-18193855D01*
X11498096Y-18193859D01*
X11498097Y-18193863D01*
X11576594Y-18362200D01*
X11597965Y-18408030D01*
X11597967Y-18408034D01*
X11733501Y-18601595D01*
X11733506Y-18601602D01*
X11900597Y-18768693D01*
X11900603Y-18768698D01*
X12086158Y-18898625D01*
X12129783Y-18953202D01*
X12136977Y-19022700D01*
X12105454Y-19085055D01*
X12086158Y-19101775D01*
X11900597Y-19231705D01*
X11733505Y-19398797D01*
X11597965Y-19592369D01*
X11597964Y-19592371D01*
X11498098Y-19806535D01*
X11498094Y-19806544D01*
X11436938Y-20034786D01*
X11436936Y-20034796D01*
X11416341Y-20270199D01*
X11416341Y-20270200D01*
X11436936Y-20505603D01*
X11436938Y-20505613D01*
X11498094Y-20733855D01*
X11498096Y-20733859D01*
X11498097Y-20733863D01*
X11574060Y-20896765D01*
X11597965Y-20948030D01*
X11597967Y-20948034D01*
X11706244Y-21102669D01*
X11733505Y-21141601D01*
X11900599Y-21308695D01*
X12081956Y-21435683D01*
X12086594Y-21438930D01*
X12130219Y-21493507D01*
X12137413Y-21563005D01*
X12105890Y-21625360D01*
X12086595Y-21642080D01*
X11900922Y-21772090D01*
X11900920Y-21772091D01*
X11733891Y-21939120D01*
X11733886Y-21939126D01*
X11598400Y-22132620D01*
X11598399Y-22132622D01*
X11498570Y-22346707D01*
X11498567Y-22346713D01*
X11441364Y-22560199D01*
X11441364Y-22560200D01*
X12338314Y-22560200D01*
X12312507Y-22600356D01*
X12272000Y-22738311D01*
X12272000Y-22882089D01*
X12312507Y-23020044D01*
X12338314Y-23060200D01*
X11441364Y-23060200D01*
X11498567Y-23273686D01*
X11498570Y-23273692D01*
X11598399Y-23487778D01*
X11733894Y-23681282D01*
X11855946Y-23803334D01*
X11889431Y-23864657D01*
X11884447Y-23934349D01*
X11842575Y-23990282D01*
X11811598Y-24007197D01*
X11679671Y-24056402D01*
X11679664Y-24056406D01*
X11564455Y-24142652D01*
X11564452Y-24142655D01*
X11478206Y-24257864D01*
X11478202Y-24257871D01*
X11427908Y-24392717D01*
X11424705Y-24422516D01*
X11421501Y-24452323D01*
X11421500Y-24452335D01*
X11421500Y-26248070D01*
X11421501Y-26248076D01*
X11427908Y-26307683D01*
X11478202Y-26442528D01*
X11478206Y-26442535D01*
X11564452Y-26557744D01*
X11564455Y-26557747D01*
X11679664Y-26643993D01*
X11679671Y-26643997D01*
X11814517Y-26694291D01*
X11814516Y-26694291D01*
X11821444Y-26695035D01*
X11874127Y-26700700D01*
X13669872Y-26700699D01*
X13729483Y-26694291D01*
X13864331Y-26643996D01*
X13979546Y-26557746D01*
X14065796Y-26442531D01*
X14116091Y-26307683D01*
X14122500Y-26248073D01*
X14122499Y-24452328D01*
X14116091Y-24392717D01*
X14065796Y-24257869D01*
X14065795Y-24257868D01*
X14065793Y-24257864D01*
X13979547Y-24142655D01*
X13979544Y-24142652D01*
X13864335Y-24056406D01*
X13864328Y-24056402D01*
X13732401Y-24007197D01*
X13676467Y-23965326D01*
X13652050Y-23899862D01*
X13666902Y-23831589D01*
X13688053Y-23803333D01*
X13810108Y-23681278D01*
X13945600Y-23487778D01*
X14045429Y-23273692D01*
X14045432Y-23273686D01*
X14102636Y-23060200D01*
X13205686Y-23060200D01*
X13231493Y-23020044D01*
X13272000Y-22882089D01*
X13272000Y-22738311D01*
X13231493Y-22600356D01*
X13205686Y-22560200D01*
X14102636Y-22560200D01*
X14102635Y-22560199D01*
X14045432Y-22346713D01*
X14045429Y-22346707D01*
X13945600Y-22132622D01*
X13945599Y-22132620D01*
X13810113Y-21939126D01*
X13810108Y-21939120D01*
X13643078Y-21772090D01*
X13457405Y-21642079D01*
X13413780Y-21587502D01*
X13406588Y-21518004D01*
X13438110Y-21455649D01*
X13457406Y-21438930D01*
X13459950Y-21437149D01*
X13643401Y-21308695D01*
X13810495Y-21141601D01*
X13946035Y-20948030D01*
X14045903Y-20733863D01*
X14107063Y-20505608D01*
X14108686Y-20487049D01*
X14134136Y-20421981D01*
X14190725Y-20381001D01*
X14260487Y-20377120D01*
X14319895Y-20410173D01*
X17301738Y-23392016D01*
X17337096Y-23414233D01*
X17342770Y-23418260D01*
X17373801Y-23443006D01*
X17375414Y-23444292D01*
X17413038Y-23462410D01*
X17419123Y-23465774D01*
X17454478Y-23487989D01*
X17493899Y-23501783D01*
X17500307Y-23504438D01*
X17537939Y-23522560D01*
X17578641Y-23531850D01*
X17585328Y-23533776D01*
X17624742Y-23547567D01*
X17624745Y-23547568D01*
X17666241Y-23552243D01*
X17673093Y-23553407D01*
X17713806Y-23562700D01*
X17759046Y-23562700D01*
X25478060Y-23562700D01*
X25545099Y-23582385D01*
X25565741Y-23599019D01*
X28181026Y-26214304D01*
X28214511Y-26275627D01*
X28209527Y-26345319D01*
X28167655Y-26401252D01*
X28104154Y-26425513D01*
X28085596Y-26427136D01*
X28085586Y-26427138D01*
X27857344Y-26488294D01*
X27857335Y-26488298D01*
X27643171Y-26588164D01*
X27643169Y-26588165D01*
X27449597Y-26723705D01*
X27282505Y-26890797D01*
X27152575Y-27076358D01*
X27097998Y-27119983D01*
X27028500Y-27127177D01*
X26966145Y-27095654D01*
X26949425Y-27076358D01*
X26819494Y-26890797D01*
X26652402Y-26723706D01*
X26652395Y-26723701D01*
X26458834Y-26588167D01*
X26458830Y-26588165D01*
X26458828Y-26588164D01*
X26244663Y-26488297D01*
X26244659Y-26488296D01*
X26244655Y-26488294D01*
X26016413Y-26427138D01*
X26016403Y-26427136D01*
X25781001Y-26406541D01*
X25780999Y-26406541D01*
X25545596Y-26427136D01*
X25545586Y-26427138D01*
X25317344Y-26488294D01*
X25317335Y-26488298D01*
X25103171Y-26588164D01*
X25103169Y-26588165D01*
X24909600Y-26723703D01*
X24787284Y-26846019D01*
X24725961Y-26879503D01*
X24656269Y-26874519D01*
X24600336Y-26832647D01*
X24583421Y-26801670D01*
X24534354Y-26670113D01*
X24534350Y-26670106D01*
X24448190Y-26555012D01*
X24448187Y-26555009D01*
X24333093Y-26468849D01*
X24333086Y-26468845D01*
X24198379Y-26418603D01*
X24198372Y-26418601D01*
X24138844Y-26412200D01*
X23491000Y-26412200D01*
X23491000Y-27315705D01*
X23386161Y-27267827D01*
X23277473Y-27252200D01*
X23204527Y-27252200D01*
X23095839Y-27267827D01*
X22991000Y-27315705D01*
X22991000Y-26412200D01*
X22343155Y-26412200D01*
X22283627Y-26418601D01*
X22283620Y-26418603D01*
X22148913Y-26468845D01*
X22148906Y-26468849D01*
X22033812Y-26555009D01*
X22033809Y-26555012D01*
X21947649Y-26670106D01*
X21947645Y-26670113D01*
X21898578Y-26801670D01*
X21856707Y-26857604D01*
X21791242Y-26882021D01*
X21722969Y-26867169D01*
X21694715Y-26846019D01*
X21649977Y-26801281D01*
X21572401Y-26723705D01*
X21572397Y-26723702D01*
X21572396Y-26723701D01*
X21378834Y-26588167D01*
X21378830Y-26588165D01*
X21378828Y-26588164D01*
X21164663Y-26488297D01*
X21164659Y-26488296D01*
X21164655Y-26488294D01*
X20936413Y-26427138D01*
X20936403Y-26427136D01*
X20701001Y-26406541D01*
X20700999Y-26406541D01*
X20465596Y-26427136D01*
X20465586Y-26427138D01*
X20237344Y-26488294D01*
X20237335Y-26488298D01*
X20023171Y-26588164D01*
X20023169Y-26588165D01*
X19829597Y-26723705D01*
X19662505Y-26890797D01*
X19532575Y-27076358D01*
X19477998Y-27119983D01*
X19408500Y-27127177D01*
X19346145Y-27095654D01*
X19329425Y-27076358D01*
X19199494Y-26890797D01*
X19032402Y-26723706D01*
X19032395Y-26723701D01*
X18838834Y-26588167D01*
X18838830Y-26588165D01*
X18838828Y-26588164D01*
X18624663Y-26488297D01*
X18624659Y-26488296D01*
X18624655Y-26488294D01*
X18396413Y-26427138D01*
X18396403Y-26427136D01*
X18161001Y-26406541D01*
X18160999Y-26406541D01*
X17925596Y-26427136D01*
X17925586Y-26427138D01*
X17697344Y-26488294D01*
X17697335Y-26488298D01*
X17483171Y-26588164D01*
X17483169Y-26588165D01*
X17289597Y-26723705D01*
X17122505Y-26890797D01*
X16986965Y-27084369D01*
X16986964Y-27084371D01*
X16887098Y-27298535D01*
X16887094Y-27298544D01*
X16825938Y-27526786D01*
X16825936Y-27526796D01*
X16805341Y-27762199D01*
X16805341Y-27762200D01*
X16825936Y-27997603D01*
X16825938Y-27997613D01*
X16887094Y-28225855D01*
X16887096Y-28225859D01*
X16887097Y-28225863D01*
X16967004Y-28397223D01*
X16986965Y-28440030D01*
X16986967Y-28440034D01*
X17095281Y-28594721D01*
X17122505Y-28633601D01*
X17289599Y-28800695D01*
X17385562Y-28867889D01*
X17483165Y-28936232D01*
X17483167Y-28936233D01*
X17483170Y-28936235D01*
X17697337Y-29036103D01*
X17925592Y-29097263D01*
X18102034Y-29112700D01*
X18160999Y-29117859D01*
X18161000Y-29117859D01*
X18161001Y-29117859D01*
X18219966Y-29112700D01*
X18396408Y-29097263D01*
X18624663Y-29036103D01*
X18838830Y-28936235D01*
X19032401Y-28800695D01*
X19199495Y-28633601D01*
X19329425Y-28448042D01*
X19384002Y-28404417D01*
X19453500Y-28397223D01*
X19515855Y-28428746D01*
X19532575Y-28448042D01*
X19662500Y-28633595D01*
X19662505Y-28633601D01*
X19829599Y-28800695D01*
X19925562Y-28867889D01*
X20023165Y-28936232D01*
X20023167Y-28936233D01*
X20023170Y-28936235D01*
X20237337Y-29036103D01*
X20465592Y-29097263D01*
X20642034Y-29112700D01*
X20700999Y-29117859D01*
X20701000Y-29117859D01*
X20701001Y-29117859D01*
X20759966Y-29112700D01*
X20936408Y-29097263D01*
X21164663Y-29036103D01*
X21378830Y-28936235D01*
X21572401Y-28800695D01*
X21694717Y-28678378D01*
X21756036Y-28644896D01*
X21825728Y-28649880D01*
X21881662Y-28691751D01*
X21898577Y-28722728D01*
X21947646Y-28854288D01*
X21947649Y-28854293D01*
X22033809Y-28969387D01*
X22033812Y-28969390D01*
X22148906Y-29055550D01*
X22148913Y-29055554D01*
X22283620Y-29105796D01*
X22283627Y-29105798D01*
X22343155Y-29112199D01*
X22343172Y-29112200D01*
X22991000Y-29112200D01*
X22991000Y-28208694D01*
X23095839Y-28256573D01*
X23204527Y-28272200D01*
X23277473Y-28272200D01*
X23386161Y-28256573D01*
X23491000Y-28208694D01*
X23491000Y-29116247D01*
X23471315Y-29183286D01*
X23454681Y-29203928D01*
X22070428Y-30588181D01*
X22009105Y-30621666D01*
X21982747Y-30624500D01*
X17582737Y-30624500D01*
X17567120Y-30622776D01*
X17567093Y-30623062D01*
X17559331Y-30622327D01*
X17490203Y-30624500D01*
X17460650Y-30624500D01*
X17459929Y-30624590D01*
X17453757Y-30625369D01*
X17447945Y-30625826D01*
X17401378Y-30627290D01*
X17401367Y-30627292D01*
X17382134Y-30632879D01*
X17363094Y-30636822D01*
X17343217Y-30639334D01*
X17343210Y-30639335D01*
X17343208Y-30639336D01*
X17343206Y-30639336D01*
X17343205Y-30639337D01*
X17299868Y-30656494D01*
X17294342Y-30658386D01*
X17249611Y-30671382D01*
X17249608Y-30671383D01*
X17232363Y-30681581D01*
X17214901Y-30690135D01*
X17196272Y-30697511D01*
X17196267Y-30697513D01*
X17158564Y-30724906D01*
X17153682Y-30728112D01*
X17113580Y-30751828D01*
X17099408Y-30766000D01*
X17084623Y-30778628D01*
X17068412Y-30790407D01*
X17038709Y-30826310D01*
X17034777Y-30830631D01*
X15777228Y-32088181D01*
X15715905Y-32121666D01*
X15689547Y-32124500D01*
X12203748Y-32124500D01*
X12136709Y-32104815D01*
X12111600Y-32083474D01*
X12105873Y-32077114D01*
X12105869Y-32077110D01*
X11952734Y-31965851D01*
X11952729Y-31965848D01*
X11779807Y-31888857D01*
X11779802Y-31888855D01*
X11634001Y-31857865D01*
X11594646Y-31849500D01*
X11405354Y-31849500D01*
X11372897Y-31856398D01*
X11220197Y-31888855D01*
X11220192Y-31888857D01*
X11047270Y-31965848D01*
X11047265Y-31965851D01*
X10894129Y-32077111D01*
X10767466Y-32217785D01*
X10672821Y-32381715D01*
X10672818Y-32381722D01*
X10618082Y-32550184D01*
X10614326Y-32561744D01*
X10594540Y-32750000D01*
X500Y-32750000D01*
X500Y-1002705D01*
X736Y-997299D01*
X4476Y-954554D01*
X16918Y-828223D01*
X20542Y-808309D01*
X38402Y-741653D01*
X66683Y-648424D01*
X72953Y-632037D01*
X104420Y-564558D01*
X105872Y-561653D01*
X150764Y-477666D01*
X154657Y-471331D01*
X187837Y-423945D01*
X200994Y-405155D01*
X203827Y-401420D01*
X263122Y-329168D01*
X267162Y-324710D01*
X324710Y-267162D01*
X329168Y-263122D01*
X401420Y-203827D01*
X405155Y-200994D01*
X471334Y-154654D01*
X477666Y-150764D01*
X561653Y-105872D01*
X564558Y-104420D01*
X632037Y-72953D01*
X648424Y-66683D01*
X741653Y-38402D01*
X808309Y-20542D01*
X828223Y-16918D01*
X954542Y-4477D01*
X997305Y-735D01*
X1002706Y-500D01*
X78697293Y-500D01*
X78702695Y-735D01*
G37*
%TD.AperFunction*%
%TD*%
M02*
